<svg xmlns="http://www.w3.org/2000/svg" width="21.224" height="19.519" viewBox="0 0 21.224 19.519">
  <path id="Path_615" data-name="Path 615" d="M-303.672,188.3c-.061.267-.108.538-.186.8a4.452,4.452,0,0,1-1.166,1.9q-3.543,3.534-7.078,7.075c-.752.752-1.489,1.52-2.262,2.25a6,6,0,0,1-4.7,1.691,6.17,6.17,0,0,1-5.716-5.091,6.016,6.016,0,0,1,1.723-5.541c2.868-2.895,5.759-5.767,8.641-8.648a.624.624,0,0,1,.921-.036.635.635,0,0,1-.044.923q-2.547,2.552-5.1,5.1-1.743,1.744-3.487,3.487a4.894,4.894,0,0,0-1.51,3.787,4.942,4.942,0,0,0,4.36,4.74,4.871,4.871,0,0,0,4.231-1.486l6.344-6.344c.962-.962,1.933-1.916,2.884-2.889a3.121,3.121,0,0,0-.911-5.023,3.129,3.129,0,0,0-3.429.547c-.056.051-.11.1-.164.158q-4.564,4.564-9.129,9.126a1.267,1.267,0,0,0-.388,1.334,1.238,1.238,0,0,0,2.006.573c.073-.063.141-.133.209-.2q4.227-4.227,8.453-8.454a.663.663,0,0,1,.681-.24.618.618,0,0,1,.317,1.005c-.08.095-.173.179-.261.267q-4.183,4.183-8.364,8.368a2.587,2.587,0,0,1-2,.811,2.52,2.52,0,0,1-2.315-2.093,2.531,2.531,0,0,1,.77-2.236q4.574-4.568,9.142-9.143a4.376,4.376,0,0,1,3.288-1.356,4.369,4.369,0,0,1,4.205,3.771.579.579,0,0,0,.04.116Z" transform="translate(324.896 -182.521)" fill="#6172d6"/>
</svg>
