<svg id="Component_5_1" data-name="Component 5 – 1" xmlns="http://www.w3.org/2000/svg" width="276.512" height="230" viewBox="0 0 276.512 230">
  <path id="Path_922" data-name="Path 922" d="M-2254.113,816.538c0-12.5-.214-156.506-.188-169,.013-5.931.121-11.862.185-17.793,1.553-.328,1.284-2.716,3.1-2.743h37.583c1.709.208,2.337,1.62,3.038,2.859,1.778,3.15,3.661,6.263,5.133,9.555.9,2.013,2.141,2.433,4.106,2.4,5.186-.088,10.374-.011,15.561,0,6.137.616,12.293.251,18.436.244,9.491-.011,18.989.407,28.475-.249-.178,6.12-3.08,11.6-4.13,17.551-1.012,5.734-3.108,11.277-4.727,16.9-.983,1.53-2.536,1.149-3.953,1.15q-33.393.011-66.786,0c-5.086,0-5.68.66-4.2,5.377,3.384,10.8,4.5,22,5.245,33.165a138.071,138.071,0,0,1-.982,28.7c-2.386,16.758-7.01,32.773-15,47.706-2.391,4.466-4.7,9.091-8.434,12.712" transform="translate(2254.304 -596.709)" fill="#d1d1d1"/>
  <path id="Path_924" data-name="Path 924" d="M-2010.665,761.225a150.961,150.961,0,0,1-15.527,56.968c-.333.672-.7,1.324-1.074,1.977-.006.006-.006.019-.012.025a37.069,37.069,0,0,0-1.927,3.628c-.32.559-.653,1.111-.986,1.651a103.736,103.736,0,0,1-8.2,11.378c-.558.678-.885,1.054-.885,1.054-1.782,2.04-3.785,3.872-5.768,5.73a8.793,8.793,0,0,1-6.527,2.241q-95.817-.1-191.634-.044c-2.09.006-8.786.006-10.8-.646,2.19-2.121,3.765-3.684,6.9-6.822,1.883-1.883,4.2-3.841,5.548-5.4,3.74-3.615,6.043-8.241,8.435-12.7,8-14.937,12.621-30.954,15.006-47.711a138.33,138.33,0,0,0,.985-28.7c-.747-11.165-1.865-22.362-5.247-33.169-1.481-4.713-.885-5.372,4.2-5.372q33.4,0,66.79-.006c1.419,0,2.969.383,3.954-1.149.433,2.172,2.171,1.18,3.282,1.18q31.18.094,62.366.044c11.592-.013,23.183-.088,34.775-.132,8.467.019,16.939.213,25.4-.025,3.383-.094,4.55,1.569,5.291,4.287C-2011.669,726.443-2009.391,743.689-2010.665,761.225Z" transform="translate(2254.19 -625.44)" fill="#f1f1f1"/>
  <path id="Path_926" data-name="Path 926" d="M-1972.357,609.027a33.014,33.014,0,0,1-.759,6.358c-3.163,13.418-6.351,26.836-10.337,40.041a15.86,15.86,0,0,0-.314,3.113c-11.592.044-23.184.119-34.776.132q-31.18.028-62.365-.044c-1.111,0-2.85.992-3.282-1.18,1.619-5.63,3.113-11.309,4.726-16.908,1.669-5.78,2.3-9.546,4.13-17.542a.492.492,0,0,0,.056-.056c2.278-8.435,4.594-16.857,6.81-25.311.471-1.776.86-2.7,3.125-2.04,5.686,1.669,11.473,2.962,17.2,4.475,1.544.408,2.4.351,2.874-1.531,1.544-6.132,3.4-12.188,4.9-18.332.4-1.644.866-1.632,2.24-1.261,7.519,2,15.082,3.841,22.607,5.824,10.663,2.812,21.294,5.743,31.964,8.548C-1975.087,595.54-1972.1,600.385-1972.357,609.027Z" transform="translate(2190.954 -578.737)" fill="#e1e1e1"/>
  <rect id="Rectangle_1096" data-name="Rectangle 1096" width="65.645" height="14.065" transform="matrix(-0.799, -0.602, 0.602, -0.799, 253.153, 218.961)" fill="#d1d1d1"/>
  <path id="Path_1724" data-name="Path 1724" d="M3.888,40.065l-.13-.1C.215,37.3-1.046,32.993.942,30.355L23.444,0,36.976,9.752,13.9,40.123C11.913,42.762,7.431,42.736,3.888,40.065Z" transform="translate(234.427 230) rotate(-90)" fill="#d1d1d1"/>
  <ellipse id="Ellipse_142" data-name="Ellipse 142" cx="36.151" cy="36.419" rx="36.151" ry="36.419" transform="translate(193.884 211.303) rotate(-141.51)" fill="#f7f7f7"/>
  <path id="Path_1780" data-name="Path 1780" d="M22.261,37.363a8.623,8.623,0,0,1,1.372-5.011,25.516,25.516,0,0,1,4-4.339,22.135,22.135,0,0,0,3-3.107,4.886,4.886,0,0,0,.98-3,4.57,4.57,0,0,0-1.9-3.807,8.178,8.178,0,0,0-5.1-1.456q-6.047,0-9.126,4.311l-5.431-3.527a15.732,15.732,0,0,1,6.215-5.067A21.135,21.135,0,0,1,25.228,10.6q6.271,0,9.994,2.715a8.745,8.745,0,0,1,3.723,7.475,10.022,10.022,0,0,1-.756,4.031,11.078,11.078,0,0,1-1.82,2.939,35.96,35.96,0,0,1-2.8,2.771,21.593,21.593,0,0,0-3.163,3.359,5.831,5.831,0,0,0-1.036,3.471Zm3.583,13.381a4.36,4.36,0,0,1-3.219-1.26,4.222,4.222,0,0,1-1.26-3.107,4.13,4.13,0,0,1,1.26-3.079,4.413,4.413,0,0,1,3.219-1.232A4.342,4.342,0,0,1,29.008,43.3a4.13,4.13,0,0,1,1.26,3.079,4.222,4.222,0,0,1-1.26,3.107A4.29,4.29,0,0,1,25.844,50.744Z" transform="translate(163.165 130.772)" fill="#e1e1e1"/>
</svg>
