<svg xmlns="http://www.w3.org/2000/svg" width="28.342" height="19.878" viewBox="0 0 28.342 19.878">
  <g id="Group_1275" data-name="Group 1275" transform="translate(0 0)">
    <path id="Path_412" data-name="Path 412" d="M511.835-75.653c0-.909,0-1.819,0-2.728a1.4,1.4,0,0,1,1.5-1.52q2.74-.008,5.479,0a1.412,1.412,0,0,1,1.519,1.514q.011,2.745,0,5.49a1.428,1.428,0,0,1-1.529,1.515q-2.723.009-5.446,0a1.419,1.419,0,0,1-1.526-1.541C511.832-73.834,511.835-74.744,511.835-75.653Zm2.85-1.4v2.806h2.79v-2.806Z" transform="translate(-511.834 79.906)" fill="#f6f6f6"/>
    <path id="Path_413" data-name="Path 413" d="M511.834,71.427c0-.921,0-1.841,0-2.762a1.413,1.413,0,0,1,1.518-1.515q2.723-.009,5.446,0a1.431,1.431,0,0,1,1.537,1.54q.009,2.728,0,5.457a1.413,1.413,0,0,1-1.512,1.522q-2.74.008-5.479,0a1.4,1.4,0,0,1-1.511-1.514C511.83,73.245,511.834,72.336,511.834,71.427Zm5.64,1.4v-2.8h-2.787v2.8Z" transform="translate(-511.832 -55.795)" fill="#f6f6f6"/>
    <path id="Path_414" data-name="Path 414" d="M667.2-40.376c-2.335,0-4.671,0-7.006,0a1.406,1.406,0,0,1-1.424-1.758,1.34,1.34,0,0,1,1.053-1.037,2.275,2.275,0,0,1,.527-.048q6.873,0,13.746,0a2.278,2.278,0,0,1,.685.09,1.4,1.4,0,0,1,.929,1.575,1.411,1.411,0,0,1-1.405,1.175c-1.538.007-3.077,0-4.615,0Z" transform="translate(-647.382 46.054)" fill="#f6f6f6"/>
    <path id="Path_415" data-name="Path 415" d="M667.217,104.023q3.519,0,7.039,0a1.4,1.4,0,0,1,1.368.964,1.425,1.425,0,0,1-.45,1.56,1.646,1.646,0,0,1-1.09.322q-5.711,0-11.422,0c-.83,0-1.66.007-2.49,0a1.436,1.436,0,0,1-1.426-1.032,1.419,1.419,0,0,1,1.331-1.809c.265-.009.531,0,.8,0Z" transform="translate(-647.357 -89.823)" fill="#f6f6f6"/>
  </g>
</svg>
