<svg id="Component_1_1" data-name="Component 1 – 1" xmlns="http://www.w3.org/2000/svg" width="23.194" height="23.193" viewBox="0 0 23.194 23.193">
  <path id="Path_1708" data-name="Path 1708" d="M-1538.978-51.268a.631.631,0,0,1,.654-.339c.413.013.827,0,1.274,0v-.307q0-4.788,0-9.576c0-.09,0-.181.006-.271a.468.468,0,0,1,.5-.466c.807,0,1.615,0,2.422,0h.213c-.047-.511-.129-1-.13-1.5a5.966,5.966,0,0,1,4.515-5.791q2.253-.571,4.513-1.146a4.718,4.718,0,0,1-.109-.546,1.368,1.368,0,0,1,.405-1.111c.359-.367.717-.734,1.089-1.088a1.423,1.423,0,0,1,2.034.009c.617.6,1.219,1.214,1.828,1.822l3.442,3.441a1.465,1.465,0,0,1,0,2.265q-.407.409-.816.816a1.5,1.5,0,0,1-2.065.33c-.041.057-.085.115-.125.176-.862,1.328-1.74,2.646-2.578,3.988a9.339,9.339,0,0,1-1.392,1.6.632.632,0,0,0-.2.493c.008,2.188,0,4.377,0,6.565v.3h1.077c.106,0,.211,0,.317,0a.5.5,0,0,1,.5.35.5.5,0,0,1-.237.562c-.023.016-.043.036-.065.055h-17.072Zm19.064-14.159c-.061-.065-.115-.127-.173-.186q-2.013-2.036-4.023-4.075a.334.334,0,0,0-.372-.106c-1.6.413-3.208.809-4.809,1.228a4.988,4.988,0,0,0-3.542,6.329h2.416c.077-.129.14-.249.216-.36a2.984,2.984,0,0,1,4.909-.018c.314.43.3.581-.067.953q-.895.9-1.791,1.794c-.6.6-1.2,1.189-1.789,1.8a1.2,1.2,0,0,0,.266,1.966,1.235,1.235,0,0,0,1.456-.253c.85-.857,1.693-1.721,2.542-2.579a12.9,12.9,0,0,0,2.443-2.917c.035-.066.081-.127.122-.19Zm-16.16,13.792h11.571v-6.051a.59.59,0,0,0-.2.169c-.647.655-1.277,1.328-1.947,1.958a2.165,2.165,0,0,1-3.5-.829,2.186,2.186,0,0,1,.568-2.409c.737-.757,1.488-1.5,2.238-2.244a.842.842,0,0,1,.218-.115l-.076-.085h-8.864Zm13.472-21.249a1.45,1.45,0,0,0-.339.175q-.548.523-1.073,1.07a.477.477,0,0,0,.006.673c.091.1.192.192.287.288q2.5,2.525,4.993,5.05a.492.492,0,0,0,.772.011q.51-.5,1.009-1.007a.49.49,0,0,0,0-.757q-2.644-2.65-5.3-5.291A1.7,1.7,0,0,0-1522.6-72.884Zm-6.61,10.642h2.951A1.965,1.965,0,0,0-1529.211-62.242Z" transform="translate(1538.978 73.827)" fill="#6172d6"/>
</svg>
