<svg xmlns="http://www.w3.org/2000/svg" width="16.752" height="19.544" viewBox="0 0 16.752 19.544">
  <path id="Icon_metro-file-pdf" data-name="Icon metro-file-pdf" d="M18.581,6.348a2.538,2.538,0,0,1,.524.829,2.517,2.517,0,0,1,.218.96V20.7a1.043,1.043,0,0,1-1.047,1.047H3.618A1.043,1.043,0,0,1,2.571,20.7V3.25A1.043,1.043,0,0,1,3.618,2.2h9.772a2.518,2.518,0,0,1,.96.218,2.538,2.538,0,0,1,.829.523ZM13.738,3.687v4.1h4.1a1.192,1.192,0,0,0-.24-.447L14.186,3.927a1.191,1.191,0,0,0-.447-.24Zm4.188,16.664V9.183H13.389a1.043,1.043,0,0,1-1.047-1.047V3.6H3.967V20.351h13.96Zm-5.606-6.467a8.3,8.3,0,0,0,.916.611,10.822,10.822,0,0,1,1.276-.076q1.6,0,1.93.534a.527.527,0,0,1,.022.567.031.031,0,0,1-.011.022l-.022.022v.011q-.065.414-.774.414a4.5,4.5,0,0,1-1.254-.218,7.952,7.952,0,0,1-1.418-.578,19.638,19.638,0,0,0-4.275.905q-1.669,2.857-2.639,2.857a.634.634,0,0,1-.305-.076L5.5,18.748q-.011-.011-.065-.055a.451.451,0,0,1-.065-.393,2.368,2.368,0,0,1,.611-1,5.271,5.271,0,0,1,1.44-1.052.159.159,0,0,1,.251.065.063.063,0,0,1,.022.044q.567-.927,1.167-2.148A16.645,16.645,0,0,0,10,11.354a8.816,8.816,0,0,1-.333-1.74,4.24,4.24,0,0,1,.071-1.391q.12-.436.458-.436h.24a.46.46,0,0,1,.382.164.871.871,0,0,1,.1.742.237.237,0,0,1-.044.087.284.284,0,0,1,.011.087v.327a14.281,14.281,0,0,1-.153,2.094,5.518,5.518,0,0,0,1.592,2.6ZM6.039,18.366a4.816,4.816,0,0,0,1.494-1.723,6.217,6.217,0,0,0-.954.916A3.625,3.625,0,0,0,6.039,18.366ZM10.379,8.333a3.243,3.243,0,0,0-.022,1.44q.011-.076.076-.48,0-.033.076-.469a.245.245,0,0,1,.044-.087.031.031,0,0,1-.011-.022.022.022,0,0,0-.005-.016.022.022,0,0,1-.005-.016.628.628,0,0,0-.142-.393.031.031,0,0,1-.011.022v.022ZM9.027,15.542a16,16,0,0,1,3.1-.883,1.644,1.644,0,0,1-.142-.1,1.953,1.953,0,0,1-.174-.147,5.777,5.777,0,0,1-1.385-1.919,14.574,14.574,0,0,1-.905,2.148q-.327.611-.491.905Zm7.045-.174a2.61,2.61,0,0,0-1.527-.262,4.125,4.125,0,0,0,1.352.305,1.058,1.058,0,0,0,.2-.011q0-.011-.022-.033Z" transform="translate(-2.571 -2.204)" fill="#5a5a5a"/>
</svg>
