<svg id="Group_3962" data-name="Group 3962" xmlns="http://www.w3.org/2000/svg" width="22.593" height="22.593" viewBox="0 0 22.593 22.593">
  <path id="Ellipse_84" data-name="Ellipse 84" d="M11.3,2.259a9.037,9.037,0,0,0-6.39,15.428A9.037,9.037,0,1,0,17.687,4.906,8.978,8.978,0,0,0,11.3,2.259M11.3,0A11.3,11.3,0,1,1,0,11.3,11.3,11.3,0,0,1,11.3,0Z" transform="translate(0)" fill="#f16b6b"/>
  <path id="Path_602" data-name="Path 602" d="M1264.51,535.5l-9.063-9.063,1.6-1.6,9.063,9.063Z" transform="translate(-1249.48 -518.872)" fill="#f16b6b"/>
  <path id="Path_603" data-name="Path 603" d="M9.063,10.661,0,1.6,1.6,0l9.063,9.063Z" transform="translate(5.966 16.627) rotate(-90)" fill="#f16b6b"/>
</svg>
