<svg width="346" height="355" viewBox="0 0 346 355" fill="none" xmlns="http://www.w3.org/2000/svg">
<g clip-path="url(#clip0_1_21267)">
<path d="M246.793 315.172C245.709 315.284 244.621 315.492 243.537 315.492C185.218 315.492 126.9 315.475 68.5788 315.461C68.5702 301.918 68.5588 288.375 68.5531 274.832C68.5502 269.372 68.5816 263.909 68.5388 258.449C68.5188 256.026 67.851 253.991 64.7999 254.354C61.9115 254.696 62.0057 256.991 62.0028 259.077C61.9772 277.863 61.98 296.646 61.9714 315.432C50.1668 315.458 38.3621 315.441 26.5574 315.549C24.4197 315.569 23.7318 314.904 23.7489 312.752C23.8546 300.947 23.4122 289.123 23.9345 277.341C24.9905 253.397 34.9543 233.47 53.0894 217.955C67.1146 205.953 83.543 199.395 102.209 199.032C103.622 199.003 105.029 198.864 106.442 198.772C106.493 202.814 107.015 206.775 108.597 210.537C112.909 220.806 120.084 227.893 131.087 230.713C136.747 232.545 142.401 232.734 148.055 230.69L147.992 230.719C148.794 230.707 149.607 230.741 150.207 230.054L150.372 230.068L150.532 230.016C151.169 229.965 151.862 230.094 152.299 229.431C153.132 228.952 153.946 228.435 154.805 228.001C166.841 221.948 172.386 211.853 173.066 198.721C189.323 198.867 204.461 202.862 218.149 211.833C215.695 214.459 212.972 216.802 210.612 219.539C193.515 239.372 192.519 271.65 208.468 291.728C209.898 293.509 211.222 295.387 212.772 297.057C222.008 307.012 233.55 312.701 246.793 315.172Z" fill="#6172D6"/>
<path d="M106.632 181.433C104.557 178.357 101.52 176.162 99.271 173.199C92.4268 164.177 88.8306 154.059 88.2227 142.811C88.2426 133.398 88.2598 123.988 88.2797 114.575C90.0122 108.042 91.7732 101.515 93.4714 94.9704C94.927 89.3678 97.1275 87.6182 102.979 87.6153C116.538 87.6096 130.104 87.4298 143.661 87.6981C149.641 87.8151 154.912 86.7991 159.193 82.3951C160.087 89.3078 163.035 95.4442 166.235 101.521C167.853 104.595 170.561 106.983 171.643 110.366C171.643 110.366 174.776 110.366 174.88 113.793C174.954 116.251 171.365 116.727 170.624 116.539C172.785 116.568 174.18 115.828 174.88 113.793C176.686 114.584 176.943 116.082 176.92 117.855C176.858 123.212 176.852 128.572 176.912 133.932C176.972 139.281 177.154 144.669 176.087 149.91C172.371 168.127 162.273 181.328 145.023 188.851C137.573 192.102 130.284 193.207 122.401 190.004C116.773 187.721 111.795 184.459 106.632 181.433Z" fill="#F2CFB4"/>
<path d="M159.195 82.3951C154.914 86.799 149.642 87.8151 143.663 87.6981C130.106 87.4298 116.543 87.6096 102.98 87.6153C97.126 87.6182 94.9255 89.3678 93.4727 94.9704C91.7745 101.512 90.0135 108.039 88.2811 114.575C87.8558 114.304 87.4306 114.036 87.0053 113.765C85.7923 112.095 84.6992 110.317 83.3434 108.77C71.0964 94.8106 69.989 78.9159 75.5631 62.0994C83.3863 38.5072 104.952 22.8209 129.777 22.3813C139.156 22.2158 148.54 22.27 157.922 22.2244C160.565 25.1299 160.662 28.6462 160.513 32.3052C160.362 36.0184 160.593 39.7487 160.451 43.4648C160.311 47.1152 161.943 49.7582 164.7 51.8531C169.555 55.5435 174.601 59.0055 179.282 62.9071C184.237 67.0371 187.225 72.594 187.987 78.9502C189.066 87.9721 186.181 96.3718 182.878 104.609C178.637 99.1032 176.057 92.8127 174.253 86.1683C173.311 82.6948 172.806 79.1585 172.829 75.5452C172.838 74.3037 172.401 73.1192 171.145 72.6083C169.858 72.086 168.862 72.7739 167.963 73.6729C165.049 76.5898 162.117 79.4896 159.195 82.3951Z" fill="#656D78"/>
<path d="M159.194 82.3952C162.117 79.4897 165.045 76.5927 167.956 73.673C168.855 72.7739 169.849 72.0861 171.139 72.6084C172.394 73.1164 172.831 74.3037 172.823 75.5453C172.8 79.1586 173.305 82.6977 174.247 86.1683C176.051 92.8099 178.631 99.1004 182.872 104.609C184.624 108.73 187.992 111.639 190.718 115.026C190.709 123.258 190.689 131.486 190.704 139.718C190.707 140.754 190.35 141.921 191.406 142.731C190.558 148.431 189.962 154.159 187.85 159.619C185.001 166.977 180.831 173.422 175.123 178.833C173.573 180.3 172.84 181.79 172.92 183.962C173.097 188.877 173.028 193.798 173.059 198.718C172.38 211.853 166.835 221.945 154.799 228.001C153.94 228.432 153.126 228.952 152.296 229.429C151.631 229.391 150.969 229.366 150.526 230.014L150.366 230.065C150.366 230.065 150.201 230.051 150.198 230.051C149.402 230.079 148.548 229.917 147.986 230.716L148.049 230.687C142.395 231.723 136.738 231.466 131.081 230.71C120.078 227.893 112.903 220.803 108.59 210.534C107.012 206.772 106.487 202.811 106.436 198.769C106.498 192.993 106.564 187.213 106.63 181.433C111.79 184.462 116.77 187.724 122.399 190.01C130.282 193.212 137.574 192.105 145.021 188.857C162.271 181.331 172.369 168.13 176.085 149.915C177.152 144.678 176.97 139.287 176.91 133.938C176.85 128.581 176.855 123.221 176.918 117.861C176.938 116.088 176.684 114.59 174.878 113.799C174.541 111.955 173.73 110.56 171.641 110.368C170.559 106.984 167.854 104.597 166.232 101.524C163.036 95.4443 160.087 89.3079 159.194 82.3952Z" fill="#EEC6A4"/>
<path d="M190.72 115.024C187.992 111.636 184.624 108.73 182.874 104.606C186.177 96.369 189.062 87.9693 187.983 78.9474C187.224 72.5941 184.236 67.0343 179.278 62.9043C174.598 59.0056 169.554 55.5435 164.697 51.8503C161.939 49.7554 160.307 47.1124 160.447 43.462C160.589 39.7459 160.358 36.0184 160.51 32.3024C160.658 28.6434 160.561 25.1271 157.918 22.2216C162.941 22.1788 167.965 22.0446 172.982 22.1245C176.841 22.1873 178.67 24.1824 178.756 28.1153C178.813 30.7354 178.876 33.3641 178.745 35.9785C178.55 39.8401 180.183 42.6828 183.2 44.9176C187.233 47.9059 191.251 50.9141 195.244 53.9566C205.043 61.4202 208.516 71.2669 205.679 83.1458C203.073 94.0571 200.091 104.886 192.656 113.779C192.013 114.196 191.366 114.61 190.72 115.024Z" fill="#444B55"/>
<path d="M61.9707 315.429C61.9764 296.643 61.9764 277.86 62.0021 259.074C62.005 256.988 61.9079 254.696 64.7991 254.351C67.8502 253.988 68.5181 256.023 68.5381 258.446C68.5809 263.906 68.5495 269.366 68.5523 274.829C68.5609 288.372 68.5695 301.915 68.578 315.458C66.3746 316.157 64.1712 316.188 61.9707 315.429Z" fill="#4F5EB4"/>
<path d="M190.72 115.024C191.365 114.61 192.013 114.196 192.658 113.782C200.091 115.075 205.362 120.592 205.77 127.505C206.153 133.969 201.766 140.26 195.598 142.269C194.197 142.726 192.818 142.697 191.408 142.726C190.352 141.915 190.709 140.751 190.706 139.715C190.689 131.483 190.712 123.255 190.72 115.024Z" fill="#F3D0B5"/>
<path d="M87.0041 113.765C87.4293 114.036 87.8546 114.304 88.2798 114.575C88.2599 123.986 88.2427 133.398 88.2228 142.811C80.3796 143.508 73.7894 135.816 73.7295 129.411C73.6467 120.775 78.7842 114.558 87.0041 113.765Z" fill="#EEC7A4"/>
<path d="M131.084 230.707C136.741 231.464 142.398 231.72 148.052 230.684C142.398 232.728 136.744 232.54 131.084 230.707Z" fill="#FEFDFD"/>
<path d="M150.525 230.008C150.965 229.36 151.63 229.386 152.295 229.423C151.858 230.085 151.162 229.956 150.525 230.008Z" fill="#FEFDFD"/>
<path d="M147.988 230.713C148.551 229.914 149.404 230.076 150.2 230.048C149.604 230.736 148.787 230.701 147.988 230.713Z" fill="#FEFDFD"/>
</g>
<path d="M198.014 321.542C175.897 293.699 177.279 248.94 200.986 221.437C204.259 217.637 208.039 214.388 211.439 210.75C240.478 188.302 275.556 185.784 305.964 203.955C307.761 205.027 309.506 206.144 310.868 207.766C311.279 208.894 311.564 210.09 312.126 211.134C317.105 220.364 320.699 229.942 322.076 240.502C324.257 257.227 321.76 273.154 314.275 288.019C305.434 305.58 291.89 318.629 273.466 326.153C248.868 336.198 224.872 334.971 201.524 322.128C200.515 321.566 199.466 319.979 198.014 321.542ZM251.599 246.43C251.595 246.43 251.591 246.43 251.583 246.43C251.583 250.072 251.334 253.733 251.654 257.346C251.975 260.94 250.515 261.664 247.245 261.553C240.426 261.32 233.595 261.427 226.772 261.498C219.457 261.573 214.38 266.358 214.281 273.122C214.182 280.135 219.256 285.102 226.772 285.193C233.444 285.273 240.129 285.415 246.79 285.134C250.459 284.98 251.868 285.878 251.674 289.824C251.342 296.632 251.548 303.471 251.595 310.294C251.651 317.956 256.325 323.169 263.192 323.327C270.134 323.486 275.219 318.04 275.295 310.239C275.362 303.415 275.477 296.584 275.243 289.765C275.124 286.337 275.908 284.932 279.688 285.122C286.195 285.451 292.729 285.245 299.251 285.205C307.242 285.154 312.55 280.46 312.617 273.455C312.684 266.508 307.262 261.565 299.386 261.494C292.713 261.435 286.032 261.328 279.367 261.549C276.248 261.652 275.136 260.833 275.239 257.548C275.473 250.123 275.449 242.682 275.251 235.257C275.077 228.624 269.564 223.372 263.223 223.396C256.835 223.42 251.769 228.664 251.611 235.515C251.532 239.148 251.599 242.789 251.599 246.43Z" fill="#D8A709"/>
<path d="M198.014 321.542C199.466 319.974 200.511 321.565 201.532 322.127C224.879 334.971 248.876 336.194 273.474 326.153C291.898 318.629 305.445 305.58 314.283 288.019C321.767 273.153 324.265 257.227 322.084 240.501C320.707 229.945 317.117 220.364 312.134 211.134C311.572 210.089 311.287 208.894 310.875 207.766C320.054 212.776 326.426 220.645 331.899 229.193C363.546 278.591 335.212 343.08 277.4 353.596C268.641 355.191 259.93 355.045 251.167 354.063C232.803 350.636 216.802 342.748 203.982 328.935C201.833 326.616 199.997 324.015 198.014 321.542Z" fill="#C09509"/>
<path d="M251.599 246.43C251.599 242.788 251.532 239.147 251.615 235.51C251.769 228.655 256.835 223.415 263.227 223.391C269.568 223.367 275.077 228.619 275.255 235.253C275.453 242.677 275.477 250.122 275.243 257.543C275.14 260.828 276.249 261.647 279.371 261.545C286.036 261.323 292.717 261.43 299.39 261.489C307.27 261.56 312.688 266.504 312.621 273.45C312.554 280.455 307.246 285.149 299.255 285.201C292.733 285.24 286.199 285.446 279.692 285.117C275.912 284.927 275.128 286.332 275.247 289.76C275.485 296.575 275.366 303.407 275.299 310.234C275.223 318.035 270.138 323.481 263.196 323.322C256.329 323.164 251.655 317.952 251.599 310.289C251.552 303.466 251.346 296.627 251.678 289.819C251.872 285.869 250.463 284.975 246.794 285.129C240.133 285.41 233.448 285.268 226.776 285.189C219.26 285.098 214.186 280.131 214.285 273.117C214.38 266.353 219.461 261.568 226.776 261.493C233.599 261.422 240.434 261.315 247.249 261.548C250.519 261.659 251.975 260.939 251.658 257.341C251.338 253.728 251.587 250.067 251.587 246.426C251.591 246.43 251.595 246.43 251.599 246.43Z" fill="#FEFDFD"/>
<defs>
<clipPath id="clip0_1_21267">
<rect width="336.99" height="336.99" fill="white" transform="translate(0.199219 0.13916)"/>
</clipPath>
</defs>
</svg>
