<svg width="46" height="46" viewBox="0 0 46 46" fill="none" xmlns="http://www.w3.org/2000/svg">
<path d="M23 46C35.7025 46 46 35.7025 46 23C46 10.2975 35.7025 0 23 0C10.2975 0 0 10.2975 0 23C0 35.7025 10.2975 46 23 46Z" fill="url(#paint0_linear_265_1695)"/>
<path d="M36.7183 14.9009H16.7023C16.6413 14.9009 16.5923 14.8339 16.5923 14.7519V14.1519C16.5923 14.0689 16.6413 14.0029 16.7023 14.0029H36.7193C36.7793 14.0029 36.8282 14.0699 36.8282 14.1519V14.7519C36.8282 14.8319 36.7793 14.9009 36.7183 14.9009Z" fill="white"/>
<path d="M36.7184 15.2759H16.7015C16.635 15.274 16.5695 15.2589 16.509 15.2314C16.4485 15.2039 16.3941 15.1646 16.3489 15.1158C16.3038 15.067 16.2688 15.0097 16.246 14.9472C16.2233 14.8847 16.2132 14.8183 16.2164 14.7519V14.1519C16.2132 14.0855 16.2233 14.0191 16.246 13.9567C16.2688 13.8942 16.3038 13.8369 16.3489 13.7881C16.3941 13.7393 16.4485 13.7 16.509 13.6725C16.5695 13.645 16.635 13.6298 16.7015 13.6279H36.7184C36.7848 13.63 36.8501 13.6452 36.9105 13.6728C36.9709 13.7003 37.0252 13.7397 37.0703 13.7884C37.1153 13.8372 37.1503 13.8945 37.1729 13.9569C37.1956 14.0193 37.2056 14.0856 37.2024 14.1519V14.7519C37.2056 14.8183 37.1956 14.8846 37.1729 14.947C37.1503 15.0094 37.1153 15.0666 37.0703 15.1154C37.0252 15.1642 36.9709 15.2035 36.9105 15.2311C36.8501 15.2586 36.7848 15.2739 36.7184 15.2759ZM16.9674 14.5259H36.4534V14.3759H16.9674V14.5259Z" fill="white"/>
<path d="M36.7183 23.5599H16.7023C16.6413 23.5599 16.5923 23.4929 16.5923 23.4109V22.8109C16.5923 22.7279 16.6413 22.6619 16.7023 22.6619H36.7193C36.7793 22.6619 36.8282 22.7289 36.8282 22.8109V23.4109C36.8282 23.4929 36.7793 23.5599 36.7183 23.5599Z" fill="white"/>
<path d="M36.7184 23.9349H16.7015C16.635 23.933 16.5695 23.9178 16.509 23.8903C16.4485 23.8628 16.3941 23.8235 16.3489 23.7747C16.3038 23.7259 16.2688 23.6686 16.246 23.6061C16.2233 23.5437 16.2132 23.4773 16.2164 23.4109V22.8109C16.2132 22.7445 16.2233 22.6781 16.246 22.6156C16.2688 22.5531 16.3038 22.4958 16.3489 22.447C16.3941 22.3982 16.4485 22.3589 16.509 22.3314C16.5695 22.3039 16.635 22.2888 16.7015 22.2869H36.7184C36.7848 22.2889 36.8501 22.3042 36.9105 22.3317C36.9709 22.3593 37.0252 22.3986 37.0703 22.4474C37.1153 22.4962 37.1503 22.5534 37.1729 22.6158C37.1956 22.6782 37.2056 22.7445 37.2024 22.8109V23.4109C37.2056 23.4772 37.1956 23.5435 37.1729 23.6059C37.1503 23.6683 37.1153 23.7256 37.0703 23.7744C37.0252 23.8231 36.9709 23.8625 36.9105 23.89C36.8501 23.9176 36.7848 23.9328 36.7184 23.9349ZM16.9674 23.1849H36.4534V23.0349H16.9674V23.1849Z" fill="white"/>
<path d="M36.7183 32.0699H16.7023C16.6413 32.0699 16.5923 32.0029 16.5923 31.9209V31.3209C16.5923 31.2379 16.6413 31.1719 16.7023 31.1719H36.7193C36.7793 31.1719 36.8282 31.2389 36.8282 31.3209V31.9209C36.8282 32.0019 36.7793 32.0699 36.7183 32.0699Z" fill="white"/>
<path d="M36.7184 32.4439H16.7015C16.635 32.442 16.5695 32.4268 16.509 32.3993C16.4485 32.3718 16.3941 32.3325 16.3489 32.2837C16.3038 32.2349 16.2688 32.1776 16.246 32.1152C16.2233 32.0527 16.2132 31.9863 16.2164 31.9199V31.3199C16.2132 31.2535 16.2233 31.1871 16.246 31.1246C16.2688 31.0622 16.3038 31.0048 16.3489 30.9561C16.3941 30.9073 16.4485 30.868 16.509 30.8405C16.5695 30.813 16.635 30.7978 16.7015 30.7959H36.7184C36.7848 30.7979 36.8501 30.8132 36.9105 30.8407C36.9709 30.8683 37.0252 30.9076 37.0703 30.9564C37.1153 31.0052 37.1503 31.0624 37.1729 31.1248C37.1956 31.1873 37.2056 31.2536 37.2024 31.3199V31.9199C37.2056 31.9862 37.1956 32.0525 37.1729 32.1149C37.1503 32.1773 37.1153 32.2346 37.0703 32.2834C37.0252 32.3322 36.9709 32.3715 36.9105 32.399C36.8501 32.4266 36.7848 32.4418 36.7184 32.4439ZM16.9674 31.6939H36.4534V31.5439H16.9674V31.6939Z" fill="white"/>
<path d="M11.3452 16.1357L9.89117 14.6837C9.86302 14.6554 9.84717 14.6172 9.84717 14.5772C9.84717 14.5373 9.86302 14.499 9.89117 14.4707L10.3141 14.0477C10.3424 14.0196 10.3807 14.0038 10.4207 14.0038C10.4606 14.0038 10.4989 14.0196 10.5272 14.0477L11.3452 14.8657C11.3734 14.8939 11.4117 14.9097 11.4517 14.9097C11.4916 14.9097 11.5299 14.8939 11.5582 14.8657L13.7252 12.6987C13.7535 12.6706 13.7918 12.6548 13.8317 12.6548C13.8716 12.6548 13.9099 12.6706 13.9382 12.6987L14.3611 13.1217C14.3893 13.15 14.4051 13.1883 14.4051 13.2282C14.4051 13.2682 14.3893 13.3064 14.3611 13.3347L11.5612 16.1347C11.5472 16.1492 11.5304 16.1607 11.5119 16.1686C11.4934 16.1765 11.4735 16.1806 11.4534 16.1807C11.4332 16.1808 11.4133 16.1769 11.3947 16.1691C11.3761 16.1614 11.3593 16.1501 11.3452 16.1357Z" fill="white"/>
<path d="M11.4522 16.5548C11.3833 16.5551 11.3151 16.5417 11.2514 16.5154C11.1877 16.4892 11.1299 16.4506 11.0812 16.4018L9.6272 14.9478C9.57837 14.8991 9.53961 14.8412 9.51318 14.7774C9.48675 14.7137 9.47314 14.6454 9.47314 14.5763C9.47314 14.5073 9.48675 14.439 9.51318 14.3753C9.53961 14.3115 9.57837 14.2536 9.6272 14.2048L10.0502 13.7818C10.1488 13.6835 10.2824 13.6282 10.4217 13.6282C10.561 13.6282 10.6946 13.6835 10.7932 13.7818L11.4522 14.4418L13.4612 12.4328C13.51 12.384 13.5679 12.3453 13.6317 12.3188C13.6954 12.2924 13.7637 12.2788 13.8327 12.2788C13.9017 12.2788 13.9701 12.2924 14.0338 12.3188C14.0976 12.3453 14.1555 12.384 14.2042 12.4328L14.6272 12.8558C14.7256 12.9545 14.7808 13.0881 14.7808 13.2273C14.7808 13.3666 14.7256 13.5002 14.6272 13.5988L11.8272 16.3988C11.7783 16.4486 11.7199 16.488 11.6555 16.5148C11.5911 16.5416 11.522 16.5552 11.4522 16.5548ZM10.3152 14.5758L11.4522 15.7128L13.9382 13.2268L13.8322 13.1208L11.8232 15.1288C11.7246 15.2272 11.591 15.2825 11.4517 15.2825C11.3124 15.2825 11.1788 15.2272 11.0802 15.1288L10.4202 14.4688L10.3152 14.5758Z" fill="white"/>
<path d="M11.345 24.795L9.89105 23.341C9.87699 23.327 9.86583 23.3104 9.85822 23.2922C9.8506 23.2739 9.84668 23.2543 9.84668 23.2345C9.84668 23.2147 9.8506 23.1951 9.85822 23.1768C9.86583 23.1585 9.87699 23.1419 9.89105 23.128L10.314 22.705C10.3423 22.6768 10.3806 22.661 10.4205 22.661C10.4604 22.661 10.4987 22.6768 10.527 22.705L11.345 23.523C11.3733 23.5511 11.4116 23.5669 11.4515 23.5669C11.4915 23.5669 11.5297 23.5511 11.558 23.523L13.725 21.356C13.7533 21.3278 13.7916 21.312 13.8315 21.312C13.8715 21.312 13.9098 21.3278 13.938 21.356L14.361 21.779C14.3751 21.7929 14.3862 21.8095 14.3939 21.8278C14.4015 21.8461 14.4054 21.8657 14.4054 21.8855C14.4054 21.9053 14.4015 21.9249 14.3939 21.9432C14.3862 21.9614 14.3751 21.978 14.361 21.992L11.561 24.792C11.5472 24.8066 11.5305 24.8182 11.5121 24.8263C11.4936 24.8344 11.4738 24.8387 11.4537 24.8389C11.4336 24.8392 11.4136 24.8355 11.3949 24.8279C11.3762 24.8204 11.3593 24.8092 11.345 24.795Z" fill="white"/>
<path d="M11.4522 25.214C11.3833 25.2142 11.3151 25.2008 11.2514 25.1745C11.1877 25.1483 11.1299 25.1097 11.0812 25.061L9.62622 23.602C9.57739 23.5532 9.53864 23.4953 9.51221 23.4315C9.48578 23.3678 9.47217 23.2995 9.47217 23.2305C9.47217 23.1614 9.48578 23.0931 9.51221 23.0294C9.53864 22.9656 9.57739 22.9077 9.62622 22.8589L10.0482 22.437C10.1468 22.3386 10.2804 22.2833 10.4197 22.2833C10.559 22.2833 10.6926 22.3386 10.7912 22.437L11.4512 23.0969L13.4602 21.088C13.5588 20.9896 13.6924 20.9343 13.8317 20.9343C13.971 20.9343 14.1046 20.9896 14.2032 21.088L14.6262 21.5109C14.6751 21.5597 14.7138 21.6176 14.7402 21.6814C14.7667 21.7451 14.7803 21.8134 14.7803 21.8824C14.7803 21.9515 14.7667 22.0198 14.7402 22.0835C14.7138 22.1473 14.6751 22.2052 14.6262 22.254L11.8262 25.0539C11.7778 25.1043 11.7197 25.1444 11.6555 25.1719C11.5912 25.1994 11.5221 25.2137 11.4522 25.214ZM10.3152 23.2349L11.4522 24.3719L13.9382 21.8859L13.8322 21.78L11.8232 23.7889C11.7745 23.8378 11.7165 23.8765 11.6528 23.903C11.589 23.9294 11.5207 23.943 11.4517 23.943C11.3827 23.943 11.3144 23.9294 11.2506 23.903C11.1869 23.8765 11.129 23.8378 11.0802 23.7889L10.4202 23.129L10.3152 23.2349Z" fill="white"/>
<path d="M11.3452 33.3028L9.89117 31.8488C9.86302 31.8205 9.84717 31.7822 9.84717 31.7423C9.84717 31.7024 9.86302 31.6641 9.89117 31.6358L10.3141 31.2128C10.3424 31.1846 10.3807 31.1688 10.4207 31.1688C10.4606 31.1688 10.4989 31.1846 10.5272 31.2128L11.3452 32.0308C11.3734 32.0589 11.4117 32.0747 11.4517 32.0747C11.4916 32.0747 11.5299 32.0589 11.5582 32.0308L13.7252 29.8638C13.7535 29.8356 13.7918 29.8198 13.8317 29.8198C13.8716 29.8198 13.9099 29.8356 13.9382 29.8638L14.3611 30.2868C14.3893 30.3151 14.4051 30.3534 14.4051 30.3933C14.4051 30.4332 14.3893 30.4715 14.3611 30.4998L11.5612 33.2998C11.5473 33.3144 11.5306 33.326 11.5122 33.3341C11.4938 33.3422 11.4739 33.3465 11.4538 33.3468C11.4337 33.347 11.4137 33.3433 11.395 33.3357C11.3764 33.3282 11.3594 33.317 11.3452 33.3028Z" fill="white"/>
<path d="M11.4522 33.7229C11.3831 33.7231 11.3147 33.7096 11.2508 33.6832C11.1869 33.6568 11.1289 33.6179 11.0802 33.5689L9.62622 32.1149C9.57724 32.0661 9.53836 32.0082 9.51184 31.9443C9.48532 31.8805 9.47168 31.812 9.47168 31.7429C9.47168 31.6738 9.48532 31.6053 9.51184 31.5415C9.53836 31.4777 9.57724 31.4197 9.62622 31.3709L10.0482 30.9489C10.1468 30.8505 10.2804 30.7953 10.4197 30.7953C10.559 30.7953 10.6926 30.8505 10.7912 30.9489L11.4512 31.6089L13.4602 29.5999C13.5588 29.5015 13.6924 29.4463 13.8317 29.4463C13.971 29.4463 14.1046 29.5015 14.2032 29.5999L14.6262 30.0229C14.7246 30.1215 14.7798 30.2551 14.7798 30.3944C14.7798 30.5337 14.7246 30.6673 14.6262 30.7659L11.8262 33.5659C11.7775 33.6157 11.7193 33.6553 11.6551 33.6822C11.5909 33.7092 11.5219 33.723 11.4522 33.7229ZM10.3152 31.7439L11.4522 32.8809L13.9382 30.3949L13.8322 30.2889L11.8232 32.2979C11.7745 32.3467 11.7165 32.3855 11.6528 32.4119C11.589 32.4383 11.5207 32.452 11.4517 32.452C11.3827 32.452 11.3144 32.4383 11.2506 32.4119C11.1869 32.3855 11.129 32.3467 11.0802 32.2979L10.4202 31.6379L10.3152 31.7439Z" fill="white"/>
<defs>
<linearGradient id="paint0_linear_265_1695" x1="43.424" y1="1.748" x2="0" y2="0" gradientUnits="userSpaceOnUse">
<stop stop-color="#4ADEDE"/>
<stop offset="1" stop-color="#6172D6"/>
</linearGradient>
</defs>
</svg>
