<svg width="156" height="127" viewBox="0 0 156 127" fill="none" xmlns="http://www.w3.org/2000/svg">
<path d="M89.9646 34.0007L155.367 72.5978L65.4034 126.038L0.000488281 87.4398L89.9646 34.0007Z" fill="#6172D6"/>
<path d="M89.9646 32.1765L155.367 70.7736L65.4034 124.214L0.000488281 85.6156L89.9646 32.1765Z" fill="#E8E8E8"/>
<path d="M155.364 70.7734V70.9228L65.4004 124.363V124.214L155.364 70.7734Z" fill="#C3C5C7"/>
<path d="M65.4034 124.214V124.363L0 85.7653V85.616L65.4034 124.214Z" fill="#8F8F8F"/>
<path d="M130.77 71.9377L129.049 72.9604L82.8301 45.6848L84.5514 44.6621L130.77 71.9377Z" fill="#A2A2A2"/>
<path d="M116.416 70.1993L114.693 71.2225L77.1392 49.0606L78.8622 48.0374L116.416 70.1993Z" fill="#A2A2A2"/>
<path d="M119.393 78.6887L117.672 79.7114L71.4526 52.4353L73.174 51.4126L119.393 78.6887Z" fill="#A2A2A2"/>
<path d="M105.041 76.9497L103.318 77.973L65.7637 55.8111L67.4867 54.7878L105.041 76.9497Z" fill="#A2A2A2"/>
<path d="M108.018 85.4394L106.297 86.4616L60.0781 59.1855L61.7995 58.1633L108.018 85.4394Z" fill="#A2A2A2"/>
<path d="M93.6649 83.7127L91.942 84.7359L54.3877 62.574L56.1106 61.5508L93.6649 83.7127Z" fill="#A2A2A2"/>
<path d="M96.6418 92.2019L94.9205 93.2246L48.7017 65.9485L50.4235 64.9258L96.6418 92.2019Z" fill="#A2A2A2"/>
<path d="M79.6957 88.9121L77.9733 89.9354L43.0132 69.3184L44.7362 68.2952L79.6957 88.9121Z" fill="#ACACAC"/>
<path d="M52.3325 102.563C45.8665 102.563 39.7529 101.056 35.117 98.3203C30.1495 95.389 27.4108 91.3793 27.4043 87.0292C27.3984 82.705 30.0975 78.718 35.005 75.8024C39.6143 73.0643 45.715 71.5562 52.1831 71.5562C58.6512 71.5562 64.7643 73.0632 69.4007 75.7997C74.3672 78.731 77.1058 82.7402 77.1118 87.0898C77.1177 91.4145 74.4181 95.402 69.51 98.3171C64.8991 101.056 58.8006 102.563 52.3325 102.563ZM52.1826 75.3024C46.3514 75.3024 40.9049 76.6303 36.8459 79.041C33.1165 81.2569 31.0645 84.0914 31.0689 87.0237C31.0732 89.981 33.1614 92.8409 36.9493 95.0757C41.0364 97.4881 46.4996 98.8171 52.3325 98.8171C58.1653 98.8171 63.6101 97.4892 67.668 95.0784C71.3985 92.8598 73.4505 90.027 73.4468 87.0946C73.4424 84.1374 71.3553 81.2781 67.5685 79.0432C63.4797 76.6314 58.0159 75.3024 52.1826 75.3024Z" fill="#6172D6"/>
<path d="M52.2988 95.4201C49.0407 95.4831 45.823 94.6902 42.9671 93.1208C40.2896 91.5407 38.8129 89.3838 38.8091 87.0467C38.8053 84.7231 40.2604 82.5786 42.9059 81.0066C45.781 79.4962 48.98 78.707 52.2277 78.707C55.4754 78.707 58.6744 79.4962 61.5494 81.0066C64.2269 82.5867 65.7031 84.7442 65.7064 87.0813C65.7096 89.4049 64.254 91.5494 61.6084 93.1214C58.7613 94.6929 55.5502 95.4858 52.2988 95.4201ZM52.2171 80.5797C49.2902 80.5144 46.3976 81.2201 43.8296 82.6262C41.7734 83.8481 40.6419 85.4168 40.6446 87.044C40.6446 88.6847 41.7983 90.2669 43.8859 91.4991C46.4825 92.8443 49.364 93.5464 52.2883 93.5464C55.2126 93.5464 58.0942 92.8443 60.6907 91.4991C62.747 90.2772 63.8795 88.7085 63.8768 87.0808C63.8768 85.4401 62.7237 83.8578 60.636 82.6262C58.0564 81.2204 55.1542 80.5148 52.2171 80.5797Z" fill="#6172D6"/>
<mask id="mask0_265_1694" style="mask-type:luminance" maskUnits="userSpaceOnUse" x="42" y="48" width="47" height="47">
<path d="M88.0559 83.3495L80.9671 91.1904C78.4898 93.9296 74.2571 95.0124 68.8458 93.7938C57.9546 91.3414 46.4058 80.4907 43.0519 69.5604C41.3636 64.0588 42.073 59.5853 44.5822 56.8104L51.671 48.97C49.1623 51.7443 48.4523 56.2178 50.1407 61.7189C53.4957 72.6497 65.0439 83.5004 75.9346 85.9534C81.347 87.1731 85.5786 86.0908 88.0559 83.3495Z" fill="white"/>
</mask>
<g mask="url(#mask0_265_1694)">
<path d="M88.0559 83.3414L80.9671 91.1823C78.4898 93.9215 74.2571 95.0043 68.8458 93.7857C57.9546 91.3333 46.4058 80.4826 43.0519 69.5524C41.3636 64.0507 42.073 59.5772 44.5822 56.8023L51.671 48.9619C49.1623 51.7363 48.4523 56.2098 50.1407 61.7109C53.4957 72.6417 65.0439 83.4924 75.9346 85.9453C81.3459 87.1639 85.5781 86.0806 88.0559 83.3414Z" fill="#BDBDBD"/>
</g>
<path d="M89.5867 70.6122C92.9416 81.5429 86.8269 88.4153 75.9357 85.9623C65.0444 83.5094 53.4956 72.6587 50.1422 61.7279C46.7889 50.7971 52.8993 43.9248 63.79 46.3751C74.6807 48.8253 86.2322 59.6798 89.5867 70.6122Z" fill="#E7E7E7"/>
<path d="M87.3661 70.1092C90.3423 79.809 84.9191 85.9102 75.2519 83.7316C65.5846 81.553 55.3384 71.9253 52.3622 62.225C49.3859 52.5247 54.8086 46.4241 64.4737 48.6C74.1388 50.7758 84.3894 60.4068 87.3661 70.1092Z" fill="#C6C6C6"/>
<g style="mix-blend-mode:multiply">
<path d="M64.8516 50.0799C74.5188 52.2569 84.7683 61.8868 87.7451 71.5887C87.7543 71.6195 87.7613 71.6498 87.7711 71.6807C87.6569 71.1639 87.5216 70.6379 87.3555 70.0984C84.3793 60.3965 74.1292 50.7666 64.4625 48.5897C54.8304 46.4203 49.4116 52.4744 52.3245 62.1216C50.384 53.3516 55.7244 48.0242 64.8516 50.0799Z" fill="#6172D6"/>
</g>
<g style="mix-blend-mode:multiply" opacity="0.21">
<path d="M62.8672 56.0177C60.6691 62.1519 75.4722 85.8382 75.4722 85.8382C75.4722 85.8382 80.9825 87.4075 85.0502 85.5189C86.1074 85.034 87.0697 84.3646 87.8921 83.5422C88.2997 83.094 88.672 82.6149 89.0058 82.1093L79.7909 65.6963C79.7909 65.6963 64.1951 52.311 62.8672 56.0177Z" fill="#B0B0B0"/>
</g>
<path d="M126.732 38.0491C135.249 28.3629 135.731 16.0657 127.023 7.26646C117.713 -0.862364 105.762 0.664703 97.0388 10.1523C88.0945 19.8823 88.4348 30.5626 87.2444 36.2206C86.0539 41.8786 86.1464 46.5475 74.6604 51.2986C70.444 53.0432 67.8763 54.856 66.3114 56.4528C66.1582 56.6087 66.0121 56.7629 65.8785 56.9139C65.8168 56.9837 65.7637 57.0508 65.7064 57.1195C64.7324 58.5302 64.794 60.6709 65.7166 63.0216C66.8386 65.6648 68.5194 68.0338 70.6436 69.9659C72.6833 71.9537 75.1359 73.4676 77.8271 74.3999C80.2032 75.1439 82.3 75.027 83.5928 73.9058C83.7156 73.777 83.8385 73.645 83.9635 73.5011C84.0344 73.4193 84.1058 73.3328 84.18 73.2462C85.6058 71.5184 87.1561 68.7483 88.5052 64.3035C92.1713 52.205 96.7303 51.9046 102.146 50.2179C107.562 48.5312 117.998 47.9777 126.732 38.0491Z" fill="#6172D6"/>
<g opacity="0.27">
<g opacity="0.48">
<path d="M100.946 12.8516C106.675 6.6205 114.642 4.42568 121.523 4.93705C113.905 2.53931 104.424 3.42189 97.9599 10.4501C90.7553 18.2878 89.7975 27.2375 89.0762 33.3798C90.6795 27.7672 93.7028 20.7315 100.946 12.8516Z" fill="#6172D6"/>
</g>
<g opacity="0.48">
<path d="M82.7199 47.8269C80.5652 49.5091 78.1864 50.8825 75.6522 51.9075C72.5137 53.2062 68.9055 55.1164 66.6971 57.7284C65.7128 59.1511 65.7913 61.1917 66.6149 63.3838C66.6592 63.3107 66.7052 63.2377 66.7539 63.1673C69.1705 60.1244 71.9601 57.3974 75.057 55.0504C80.0581 51.2495 81.2497 50.144 82.7199 47.8269Z" fill="#6172D6"/>
</g>
</g>
<g opacity="0.52">
<path d="M102.17 50.2121C107.586 48.5249 117.592 48.1558 126.759 38.0432C135.038 28.9074 136.429 14.8721 125.53 6.04688C128.354 10.3873 127.672 20.5377 120.759 31.3078C120.272 32.0654 119.773 32.7948 119.26 33.4961C106.483 48.4085 100.638 45.6493 95.5799 43.6542C85.7125 39.7613 88.8569 26.4956 88.8569 26.4956C88.8288 26.5854 88.8028 26.6741 88.773 26.7629C87.9949 30.5096 87.7633 33.8116 87.2579 36.2093C86.5782 39.4442 86.3131 42.356 84.0652 45.145C86.1984 43.8154 88.917 46.0189 88.8921 51.6602C88.8743 55.6829 87.0171 61.8924 85.9073 63.8437C85.9024 63.8529 85.9007 63.8566 85.9024 63.8588C85.8033 64.0314 85.7049 64.203 85.6064 64.3772C81.9348 70.8664 78.4456 72.9595 76.5425 73.9043C76.9851 74.0937 77.4229 74.2588 77.8509 74.3913C80.0154 75.0683 82.4895 75.2176 83.9879 73.4925C86.1286 71.0271 87.5761 67.4319 88.5268 64.2933C92.1935 52.1959 96.7531 51.8983 102.17 50.2121Z" fill="#6172D6"/>
</g>
<path d="M124.304 36.0491C132.821 26.3629 133.303 14.0657 124.595 5.26646C115.285 -2.86236 103.335 -1.3353 94.611 8.1523C85.6667 17.8823 86.0071 28.5626 84.8166 34.2206C83.6261 39.8786 83.7187 44.5475 72.2327 49.2986C68.0162 51.0432 65.4486 52.8559 63.8837 54.4528C63.7305 54.6087 63.5844 54.7629 63.4507 54.9139C63.389 54.9837 63.336 55.0508 63.2786 55.1195C62.3046 56.5302 62.3663 58.6709 63.2889 61.0216C64.4108 63.6648 66.0917 66.0338 68.2159 67.9659C70.2556 69.9537 72.7082 71.4676 75.3993 72.3999C77.7754 73.1439 79.8723 73.027 81.1651 71.9058C81.2879 71.777 81.4108 71.645 81.5358 71.5011C81.6067 71.4193 81.6781 71.3328 81.7522 71.2462C83.1781 69.5184 84.7284 66.7483 86.0774 62.3035C89.7436 50.205 94.3026 49.9046 99.7182 48.2179C105.134 46.5312 115.571 45.9777 124.304 36.0491Z" fill="#DBDBDB"/>
</svg>
