<svg xmlns="http://www.w3.org/2000/svg" width="17.456" height="16.054" viewBox="0 0 17.456 16.054">
  <g id="Group_1961" data-name="Group 1961" transform="translate(0 0)">
    <path id="Path_615" data-name="Path 615" d="M-307.44,187.278c-.05.22-.089.443-.153.658a3.661,3.661,0,0,1-.959,1.564q-2.914,2.907-5.821,5.819c-.619.618-1.225,1.25-1.861,1.85a4.933,4.933,0,0,1-3.869,1.391,5.075,5.075,0,0,1-4.7-4.187,4.948,4.948,0,0,1,1.417-4.557c2.359-2.381,4.736-4.743,7.107-7.112a.513.513,0,0,1,.757-.03.522.522,0,0,1-.036.759q-2.095,2.1-4.192,4.194-1.434,1.434-2.868,2.868a4.025,4.025,0,0,0-1.242,3.114,4.064,4.064,0,0,0,3.586,3.9,4.006,4.006,0,0,0,3.48-1.222l5.218-5.218c.791-.791,1.59-1.576,2.372-2.376a2.567,2.567,0,0,0-.749-4.131,2.573,2.573,0,0,0-2.821.45c-.046.042-.09.086-.135.13q-3.754,3.754-7.509,7.506a1.042,1.042,0,0,0-.319,1.1,1.018,1.018,0,0,0,1.65.471c.06-.052.116-.109.172-.165q3.477-3.476,6.952-6.953a.545.545,0,0,1,.56-.2.508.508,0,0,1,.261.827c-.066.078-.142.147-.214.219q-3.44,3.44-6.879,6.882a2.127,2.127,0,0,1-1.649.667,2.073,2.073,0,0,1-1.9-1.722,2.082,2.082,0,0,1,.633-1.839q3.762-3.757,7.519-7.52a3.6,3.6,0,0,1,2.7-1.115,3.593,3.593,0,0,1,3.459,3.1.479.479,0,0,0,.033.1Z" transform="translate(324.896 -182.521)" fill="#707070"/>
  </g>
</svg>
