<svg xmlns="http://www.w3.org/2000/svg" width="20.013" height="18.102" viewBox="0 0 20.013 18.102">
  <g id="Group_4557" data-name="Group 4557" transform="translate(872.435 -599.821)">
    <path id="Path_2127" data-name="Path 2127" d="M-867.21,617.922a5.2,5.2,0,0,1-5.2-4.7,4.992,4.992,0,0,1,1.447-4.166c2.557-2.6,5.141-5.164,7.716-7.742a.678.678,0,0,1,1-.045.7.7,0,0,1-.051,1.022q-3.853,3.862-7.7,7.724a3.689,3.689,0,0,0-.984,3.826,3.662,3.662,0,0,0,2.844,2.682,3.631,3.631,0,0,0,3.546-1q5.024-4.995,10.012-10.026A2.376,2.376,0,0,0-854,602.8a2.374,2.374,0,0,0-2.215-1.593,2.435,2.435,0,0,0-1.929.784q-3.609,3.623-7.223,7.242c-.226.226-.453.451-.677.679a1.14,1.14,0,0,0-.034,1.656,1.129,1.129,0,0,0,1.637-.045q2.518-2.514,5.027-5.037a.761.761,0,0,1,.533-.273.649.649,0,0,1,.628.361.651.651,0,0,1-.054.723,1.1,1.1,0,0,1-.128.142q-2.528,2.534-5.059,5.065a2.389,2.389,0,0,1-2.5.646,2.368,2.368,0,0,1-1.728-1.9,2.419,2.419,0,0,1,.716-2.3q2.882-2.888,5.767-5.774c.753-.754,1.5-1.515,2.261-2.259a3.847,3.847,0,0,1,6.363,1.586,3.732,3.732,0,0,1-.943,3.913c-.721.755-1.472,1.481-2.21,2.219q-3.839,3.845-7.679,7.689A5.149,5.149,0,0,1-867.21,617.922Z" fill="#5a5a5a"/>
  </g>
</svg>
