<svg xmlns="http://www.w3.org/2000/svg" width="13.276" height="15.424" viewBox="0 0 13.276 15.424">
  <path id="Icon_metro-file-audio" data-name="Icon metro-file-audio" d="M15.259,5.474a2,2,0,0,1,.415.654,1.979,1.979,0,0,1,.173.757V16.8a.825.825,0,0,1-.83.826H3.4a.825.825,0,0,1-.83-.826V3.03A.825.825,0,0,1,3.4,2.2h7.744a2,2,0,0,1,.761.172,2.012,2.012,0,0,1,.657.413Zm-3.838-2.1V6.61h3.25a.939.939,0,0,0-.19-.353L11.776,3.563a.945.945,0,0,0-.354-.189ZM14.74,16.526V7.712h-3.6a.825.825,0,0,1-.83-.826V3.305H3.677V16.526H14.74ZM7.93,9.52a.255.255,0,0,1,.173.258V14.46a.255.255,0,0,1-.173.258.474.474,0,0,1-.1.017.311.311,0,0,1-.2-.077L6.192,13.221H5.06a.266.266,0,0,1-.277-.275V11.293a.266.266,0,0,1,.277-.275H6.192L7.627,9.58a.264.264,0,0,1,.3-.06Zm3.6,5.93a.525.525,0,0,0,.432-.207,4.935,4.935,0,0,0,0-6.249.548.548,0,0,0-.778-.086.528.528,0,0,0-.2.374.544.544,0,0,0,.125.409,3.84,3.84,0,0,1,0,4.855.544.544,0,0,0-.125.409.5.5,0,0,0,.2.366.528.528,0,0,0,.346.129ZM9.71,14.176A.557.557,0,0,0,10.116,14a2.739,2.739,0,0,0,0-3.77.544.544,0,0,0-.389-.172.528.528,0,0,0-.4.146.549.549,0,0,0-.017.783,1.639,1.639,0,0,1,0,2.255.549.549,0,0,0,.017.783.576.576,0,0,0,.38.146Z" transform="translate(-2.571 -2.204)" fill="#f16b6b"/>
</svg>
