<svg xmlns="http://www.w3.org/2000/svg" width="30.207" height="30" viewBox="0 0 30.207 30">
  <g id="Group_4556" data-name="Group 4556" transform="translate(-10.5 -12.139)">
    <path id="Path_2129" data-name="Path 2129" d="M453.34,226.3a1.289,1.289,0,0,1-1.04.964,1.2,1.2,0,0,1-1.376-1.091c-.02-.323-.022-.649-.011-.973a1.194,1.194,0,0,1,1.064-1.181,1.218,1.218,0,0,1,1.3.848c.022.065.044.129.067.193Z" transform="translate(-412.633 -198.512)" fill="#5a5a5a"/>
    <path id="Path_2130" data-name="Path 2130" d="M34.028,14.681l.7-1.009a1.243,1.243,0,0,1,.188-.262c.142-.118.307-.293.457-.287.11,0,.25.245.306.4.138.4.236.81.349,1.217q.351,1.263.7,2.526c.189.682-.065,1.022-.774,1.081-1.234.1-2.467.221-3.7.329-.23.02-.5.108-.65-.137s.068-.442.194-.632c.261-.392.534-.778.827-1.2-.295-.18-.577-.367-.872-.529a12.684,12.684,0,0,0-16.075,3.208,11.94,11.94,0,0,0-2.733,7.534,12.426,12.426,0,0,0,5.466,10.761A12.259,12.259,0,0,0,23.3,39.719a1.188,1.188,0,0,1,1.018.939,1.149,1.149,0,0,1-.423,1.21,1.161,1.161,0,0,1-1,.247,15.023,15.023,0,0,1-7.275-3.539,14.75,14.75,0,0,1-4.288-6.387,15.012,15.012,0,0,1-.793-5.977A15.088,15.088,0,0,1,21.428,12.754a14.8,14.8,0,0,1,12.127,1.665c.135.081.266.168.4.25A.261.261,0,0,0,34.028,14.681Z" transform="translate(0 0)" fill="#5a5a5a"/>
    <path id="Path_2131" data-name="Path 2131" d="M222.542,102.093c0-1.564,0-3.127,0-4.691a.978.978,0,1,1,1.954-.071c.011.491,0,.983,0,1.475,0,2.272,0,4.543-.006,6.815a.424.424,0,0,0,.276.444q3.748,1.924,7.486,3.867a.983.983,0,0,1,.634,1.16.971.971,0,0,1-1.252.706,2.447,2.447,0,0,1-.349-.156q-4.24-2.191-8.482-4.378a.428.428,0,0,1-.272-.45C222.547,105.24,222.542,103.666,222.542,102.093Z" transform="translate(-198.665 -78.904)" fill="#5a5a5a"/>
    <path id="Path_2132" data-name="Path 2132" d="M398.584,366.9c0-.02,0-.039,0-.059a2.269,2.269,0,0,1,1.721-1.808,1.191,1.191,0,0,1,1.059,1.79,4.888,4.888,0,0,1-.79.983,1.094,1.094,0,0,1-1.286.192A1.153,1.153,0,0,1,398.584,366.9Z" transform="translate(-363.61 -330.637)" fill="#5a5a5a"/>
    <path id="Path_2133" data-name="Path 2133" d="M273.916,447.711a1.172,1.172,0,0,1-.851,1.142,7.81,7.81,0,0,1-1.033.227,1.2,1.2,0,0,1-1.33-.947,1.186,1.186,0,0,1,.8-1.394,6.576,6.576,0,0,1,1.032-.23A1.189,1.189,0,0,1,273.916,447.711Z" transform="translate(-243.766 -406.967)" fill="#5a5a5a"/>
    <path id="Path_2134" data-name="Path 2134" d="M437.926,301.492a1.222,1.222,0,0,1-1.268-1.534,7.532,7.532,0,0,1,.332-.942,1.2,1.2,0,0,1,2.27.794,8.33,8.33,0,0,1-.316.917A1.149,1.149,0,0,1,437.926,301.492Z" transform="translate(-399.242 -268.09)" fill="#5a5a5a"/>
    <path id="Path_2135" data-name="Path 2135" d="M436.642,154.02a1.112,1.112,0,0,1-.967-.724,8.68,8.68,0,0,1-.346-.968,1.188,1.188,0,0,1,.7-1.422,1.167,1.167,0,0,1,1.5.515,5.386,5.386,0,0,1,.444,1.21A1.207,1.207,0,0,1,436.642,154.02Z" transform="translate(-397.996 -129.928)" fill="#5a5a5a"/>
    <path id="Path_2136" data-name="Path 2136" d="M342.776,415.831a1.274,1.274,0,0,1,1.16.834,1.157,1.157,0,0,1-.369,1.325,5.921,5.921,0,0,1-1.027.622,1.168,1.168,0,0,1-1.519-.51,1.186,1.186,0,0,1,.353-1.568,8.117,8.117,0,0,1,.877-.536A2.966,2.966,0,0,1,342.776,415.831Z" transform="translate(-309.53 -378.234)" fill="#5a5a5a"/>
  </g>
</svg>
