<svg id="Layer_1" data-name="Layer 1" xmlns="http://www.w3.org/2000/svg" viewBox="0 0 56 56"><defs><style>.cls-1{fill:#ffd343;}.cls-2{fill:#fff;}</style></defs><circle id="Ellipse_59" data-name="Ellipse 59" class="cls-1" cx="28" cy="28" r="26.6"/><g id="Group_1138" data-name="Group 1138"><g id="Icon_ionic-ios-notifications-outline" data-name="Icon ionic-ios-notifications-outline"><path id="Path_2" data-name="Path 2" class="cls-2" d="M30.24,37.82a.87.87,0,0,0-.85.68,1.62,1.62,0,0,1-.33.73,1.64,1.64,0,0,1-2.15,0,1.64,1.64,0,0,1-.34-.73.87.87,0,0,0-.85-.68h0a.87.87,0,0,0-.87.87,1.11,1.11,0,0,0,0,.19A3,3,0,0,0,28,41.36a3,3,0,0,0,3.11-2.48.88.88,0,0,0-.67-1Z"/><path id="Path_3" data-name="Path 3" class="cls-2" d="M38.41,34.43c-1-1.36-3-2.15-3-8.22,0-6.24-2.76-8.74-5.32-9.34-.24-.06-.42-.14-.42-.4v-.19A1.64,1.64,0,0,0,28,14.64h0a1.63,1.63,0,0,0-1.6,1.64v.19c0,.25-.18.34-.42.4-2.57.61-5.32,3.1-5.32,9.34,0,6.07-2,6.86-3.05,8.22a1.33,1.33,0,0,0,.27,1.86,1.34,1.34,0,0,0,.8.26H37.37a1.33,1.33,0,0,0,1-2.12Zm-2.61.39H20.23a.29.29,0,0,1-.3-.29.28.28,0,0,1,.08-.2,8.22,8.22,0,0,0,1.4-2.23,15.15,15.15,0,0,0,.95-5.89,10.25,10.25,0,0,1,1.4-5.8,4.34,4.34,0,0,1,2.58-1.85,2.27,2.27,0,0,0,1.25-.7.52.52,0,0,1,.74-.06s0,0,.05.05a2.42,2.42,0,0,0,1.26.71,4.34,4.34,0,0,1,2.58,1.85,10.23,10.23,0,0,1,1.4,5.79,15.15,15.15,0,0,0,1,5.89A8.41,8.41,0,0,0,36,34.36a.27.27,0,0,1,0,.39A.29.29,0,0,1,35.8,34.82Z"/></g></g></svg>