<svg width="266" height="172" viewBox="0 0 266 172" fill="none" xmlns="http://www.w3.org/2000/svg">
<g clip-path="url(#clip0_1_25967)">
<path d="M133.097 0.46927C170.208 0.46927 207.318 0.454917 244.428 0.476446C255.051 0.483623 263.023 6.84912 265.09 16.8961C265.392 18.3745 265.464 19.9174 265.464 21.4316C265.486 64.4041 265.507 107.377 265.464 150.349C265.45 160.941 258.846 169.029 248.72 171.089C247.15 171.405 245.508 171.441 243.902 171.441C169.948 171.455 96.0016 171.462 22.0476 171.448C9.09895 171.448 0.536161 163.015 0.528959 150.148C0.492951 107.355 0.492951 64.562 0.528959 21.7689C0.536161 8.90158 9.09175 0.476446 22.0404 0.46927C59.057 0.454917 96.0808 0.46927 133.097 0.46927ZM132.716 163.288C169.466 163.288 206.216 163.288 242.966 163.288C252.343 163.288 257.276 158.387 257.276 149.072C257.276 106.996 257.276 64.9208 257.276 22.8454C257.276 13.3151 252.602 8.63605 243.081 8.63605C169.667 8.63605 96.2536 8.63605 22.8469 8.63605C13.4632 8.63605 8.73167 13.3294 8.73167 22.6588C8.72447 64.8275 8.72447 106.989 8.73167 149.158C8.73167 158.638 13.4344 163.295 23.0054 163.295C59.5683 163.295 96.1384 163.288 132.716 163.288Z" fill="#5A5A5A"/>
<path d="M77.4643 144.543C61.3901 144.543 45.316 144.543 29.2346 144.543C25.497 144.543 24.4671 143.797 23.4373 140.295C20.535 130.391 19.6924 120.402 22.926 110.448C26.8005 98.5566 35.817 92.1409 47.3325 88.6747C57.2348 85.6965 67.4611 85.1295 77.7091 85.1582C88.2236 85.1869 98.7236 85.6965 108.842 88.9833C125.91 94.5307 134.66 106.652 133.99 124.521C133.789 129.824 132.557 135.121 131.484 140.352C130.785 143.761 129.46 144.536 125.953 144.536C109.793 144.55 93.632 144.543 77.4643 144.543ZM31.1791 136.333C32.1873 136.333 33.2532 136.333 34.319 136.333C61.9086 136.333 89.4983 136.333 117.088 136.333C124.498 136.333 124.729 136.355 125.492 128.942C127.192 112.264 121.841 100.408 103.635 96.1382C86.1639 92.0476 68.491 92.0907 51.0269 96.253C29.1698 101.463 26.3468 119.813 31.1791 136.333Z" fill="#6172D6"/>
<path d="M77.4501 81.7779C62.2905 81.7564 50.1413 69.5564 50.1989 54.407C50.2637 39.4728 62.5138 27.3662 77.5437 27.3877C92.7032 27.4093 104.852 39.6379 104.766 54.773C104.687 69.8076 92.552 81.7994 77.4501 81.7779ZM77.4861 73.5824C87.9285 73.5896 96.5201 65.0855 96.5633 54.6869C96.6065 44.1877 87.8925 35.5186 77.3925 35.6047C66.9644 35.6909 58.3944 44.2954 58.4304 54.651C58.4593 65.0281 67.0581 73.5681 77.4861 73.5824Z" fill="#6172D6"/>
<path d="M195.73 38.3252C183.336 38.3252 170.942 38.3252 158.548 38.3252C157.742 38.3252 156.928 38.3467 156.128 38.2678C153.795 38.0525 152.506 36.6244 152.391 34.4212C152.268 32.175 153.572 30.7325 155.768 30.2086C156.452 30.0436 157.194 30.1082 157.914 30.1082C183.063 30.101 208.211 30.101 233.352 30.1082C234.159 30.1082 235.001 30.0364 235.757 30.2445C237.918 30.8401 239.149 32.2898 238.948 34.5791C238.76 36.7105 237.493 37.995 235.332 38.2462C234.447 38.3539 233.539 38.3108 232.639 38.318C220.339 38.3252 208.038 38.3252 195.73 38.3252Z" fill="#6172D6"/>
<path d="M195.73 64.2031C183.336 64.2031 170.942 64.2031 158.548 64.2031C157.742 64.2031 156.928 64.2246 156.128 64.1457C153.795 63.9304 152.506 62.5023 152.391 60.2991C152.268 58.0529 153.572 56.6104 155.768 56.0866C156.452 55.9215 157.194 55.9861 157.914 55.9861C183.063 55.9789 193.808 55.9789 218.949 55.9861C219.755 55.9861 220.598 55.9143 221.354 56.1224C223.514 56.7181 224.746 58.1677 224.544 60.457C224.357 62.5884 223.09 63.873 220.929 64.1242C220.043 64.2318 219.136 64.1887 218.236 64.1959C205.935 64.2031 208.038 64.2031 195.73 64.2031Z" fill="#6172D6"/>
<path d="M195.73 90.081C183.336 90.081 170.942 90.081 158.548 90.081C157.742 90.081 156.928 90.1026 156.128 90.0236C153.795 89.8083 152.506 88.3802 152.391 86.177C152.268 83.9308 153.572 82.4884 155.768 81.9645C156.452 81.7994 157.194 81.864 157.914 81.864C183.063 81.8568 179.404 81.8568 204.545 81.864C205.352 81.864 206.194 81.7922 206.951 82.0004C209.111 82.596 210.343 84.0456 210.141 86.3349C209.954 88.4663 208.686 89.7509 206.526 90.0021C205.64 90.1097 204.733 90.0667 203.832 90.0739C191.532 90.081 208.038 90.081 195.73 90.081Z" fill="#5A5A5A"/>
<path d="M231.739 90.081C219.345 90.081 235.757 90.081 223.363 90.081C222.557 90.081 221.743 90.1026 220.943 90.0236C218.61 89.8083 217.321 88.3802 217.206 86.177C217.083 83.9308 218.387 82.4884 220.583 81.9645C221.267 81.7994 222.009 81.864 222.729 81.864C247.878 81.8568 208.211 81.8568 233.352 81.864C234.158 81.864 235.001 81.7922 235.757 82.0004C237.918 82.596 239.149 84.0456 238.948 86.3349C238.76 88.4663 237.493 89.7509 235.332 90.0021C234.446 90.1097 233.539 90.0667 232.639 90.0739C220.338 90.081 244.046 90.081 231.739 90.081Z" fill="#6172D6"/>
<path d="M195.73 141.831C183.336 141.831 170.942 141.831 158.548 141.831C157.742 141.831 156.928 141.853 156.128 141.774C153.795 141.558 152.506 140.13 152.391 137.927C152.268 135.681 153.572 134.238 155.768 133.714C156.452 133.549 157.194 133.614 157.914 133.614C183.063 133.607 193.808 133.607 218.949 133.614C219.755 133.614 220.598 133.542 221.354 133.75C223.514 134.346 224.746 135.796 224.544 138.085C224.357 140.216 223.09 141.501 220.929 141.752C220.043 141.86 219.136 141.817 218.236 141.824C205.935 141.831 208.038 141.831 195.73 141.831Z" fill="#6172D6"/>
<path d="M195.622 107.699C208.017 107.699 220.411 107.699 232.805 107.699C233.611 107.699 234.425 107.677 235.224 107.756C237.558 107.972 238.847 109.4 238.962 111.603C239.085 113.849 237.781 115.292 235.585 115.816C234.9 115.981 234.159 115.916 233.438 115.916C208.29 115.923 211.949 115.923 186.808 115.916C186.001 115.916 185.158 115.988 184.402 115.78C182.242 115.184 181.01 113.734 181.212 111.445C181.399 109.314 182.667 108.029 184.827 107.778C185.713 107.67 186.62 107.713 187.521 107.706C199.821 107.699 183.322 107.699 195.622 107.699Z" fill="#5A5A5A"/>
<path d="M159.614 107.699C172.008 107.699 155.595 107.699 167.989 107.699C168.796 107.699 169.61 107.677 170.409 107.756C172.742 107.972 174.031 109.4 174.147 111.603C174.269 113.849 172.966 115.292 170.769 115.816C170.085 115.981 169.343 115.916 168.623 115.916C143.475 115.923 183.142 115.923 158 115.916C157.194 115.916 156.351 115.988 155.595 115.78C153.435 115.184 152.203 113.734 152.405 111.445C152.592 109.314 153.86 108.029 156.02 107.778C156.906 107.67 157.813 107.713 158.713 107.706C171.014 107.699 147.313 107.699 159.614 107.699Z" fill="#6172D6"/>
</g>
<defs>
<clipPath id="clip0_1_25967">
<rect width="265" height="171" fill="white" transform="translate(0.5 0.461914)"/>
</clipPath>
</defs>
</svg>
