<svg xmlns="http://www.w3.org/2000/svg" width="17.844" height="21.973" viewBox="0 0 17.844 21.973">
  <path id="Path_587" data-name="Path 587" d="M-384.865,25.092c-.143-.039-.287-.074-.428-.118a2.683,2.683,0,0,1-1.841-2.467c-.006-.121-.005-.243-.005-.365q0-6.112.005-12.224a.308.308,0,0,0-.242-.346,1.956,1.956,0,0,1-1.209-2.039,1.923,1.923,0,0,1,1.74-1.7c.877-.042,1.758-.025,2.637-.033h.19c.013-.284.02-.56.04-.834a2,2,0,0,1,2-1.833c1.537-.011,3.075-.021,4.612,0a2.014,2.014,0,0,1,2.016,2.111c0,.171,0,.343,0,.541.084,0,.159.01.234.01.765,0,1.53-.007,2.3,0a1.954,1.954,0,0,1,1.93,1.266,1.942,1.942,0,0,1-1.074,2.5.326.326,0,0,0-.251.364q.01,6.134.006,12.267a2.881,2.881,0,0,1-.87,2.205,2.484,2.484,0,0,1-1.282.648.731.731,0,0,0-.115.042Zm-1.244-15.369v.226q0,6.134,0,12.269a2.952,2.952,0,0,0,.036.47,1.566,1.566,0,0,0,1.542,1.373q4.848.011,9.7,0a1.478,1.478,0,0,0,1.257-.661,1.99,1.99,0,0,0,.332-1.2q0-6.124,0-12.247c0-.075-.007-.151-.01-.232Zm6.436-1.041h6.734a3.044,3.044,0,0,0,.321-.014.9.9,0,0,0,.812-.98c-.045-.543-.44-.859-1.079-.859H-386.46a2.131,2.131,0,0,0-.32.022.917.917,0,0,0-.779.868.92.92,0,0,0,.684.925,1.928,1.928,0,0,0,.447.036Q-383.051,8.683-379.673,8.681Zm3.272-2.9a7,7,0,0,0-.005-.769.919.919,0,0,0-.711-.819,1.141,1.141,0,0,0-.317-.041q-2.242,0-4.483,0a.958.958,0,0,0-1.022.793,5.4,5.4,0,0,0-.008.837Z" transform="translate(388.601 -3.119)"/>
</svg>
