<svg id="Component_25_2" data-name="Component 25 – 2" xmlns="http://www.w3.org/2000/svg" xmlns:xlink="http://www.w3.org/1999/xlink" width="25.683" height="20.44" viewBox="0 0 25.683 20.44">
  <defs>
    <linearGradient id="linear-gradient" x1="1.048" y1="0.5" x2="-0.042" y2="0.5" gradientUnits="objectBoundingBox">
      <stop offset="0" stop-color="#4adede"/>
      <stop offset="1" stop-color="#6172d6"/>
    </linearGradient>
  </defs>
  <path id="Path_352" data-name="Path 352" d="M370.949,416.441c-.358.575-.577.655-1.246.453-1.358-.412-2.717-.821-4.072-1.242a.619.619,0,0,0-.5.046,10.056,10.056,0,0,1-8.1.422.6.6,0,0,0-.394.01,8.058,8.058,0,0,1-6.684-.151.691.691,0,0,0-.444-.033c-1.074.311-2.142.644-3.214.963a.757.757,0,0,1-1.023-.561,1.157,1.157,0,0,1,.05-.514c.309-1.049.635-2.093.942-3.142a.642.642,0,0,0-.025-.42,8.039,8.039,0,0,1,5.044-11.258c.312-.09.637-.132.952-.214a.542.542,0,0,0,.279-.171,10.105,10.105,0,0,1,17.1,10.638.492.492,0,0,0-.03.327c.431,1.448.871,2.893,1.31,4.339a.737.737,0,0,0,.053.109Zm-1.936-1.376c-.355-1.17-.688-2.281-1.029-3.39a.985.985,0,0,1,.086-.817,8.48,8.48,0,0,0,.976-5.618,8.545,8.545,0,0,0-16.92.487,8.17,8.17,0,0,0,2.531,7.055,8.459,8.459,0,0,0,10.185,1.321.908.908,0,0,1,.747-.076c.526.165,1.054.321,1.581.481ZM351.289,402.65a.041.041,0,0,0-.027,0,.9.9,0,0,0-.094.033,6.36,6.36,0,0,0-2.518,1.728,6.444,6.444,0,0,0-.87,7.442,1.07,1.07,0,0,1,.092.932c-.133.369-.233.749-.346,1.125-.107.355-.212.711-.327,1.1.1-.025.167-.036.229-.055.7-.209,1.392-.414,2.085-.63a.924.924,0,0,1,.772.072,6.459,6.459,0,0,0,2.736.824,6.1,6.1,0,0,0,1.886-.151C350.769,411.769,349.56,407.652,351.289,402.65Z" transform="translate(-345.267 -396.555)" fill="url(#linear-gradient)"/>
  <path id="Path_353" data-name="Path 353" d="M568.983,525.3h3.409a.782.782,0,1,1,.01,1.551q-3.434,0-6.868,0a.784.784,0,0,1-.847-.685.761.761,0,0,1,.565-.835,1.265,1.265,0,0,1,.322-.03Q567.278,525.3,568.983,525.3Z" transform="translate(-553.626 -518.812)" fill="url(#linear-gradient)"/>
  <path id="Path_354" data-name="Path 354" d="M569,582c1.17,0,2.339,0,3.509,0a.767.767,0,0,1,.306,1.477,1.123,1.123,0,0,1-.391.069q-3.434.006-6.868,0a.787.787,0,0,1-.846-.658.758.758,0,0,1,.534-.854,1.234,1.234,0,0,1,.346-.035Q567.291,581.994,569,582Z" transform="translate(-553.643 -572.653)" fill="url(#linear-gradient)"/>
  <path id="Path_355" data-name="Path 355" d="M567.768,638.675c.744,0,1.488,0,2.232,0a.777.777,0,1,1,.032,1.545q-2.282.01-4.565,0a.775.775,0,1,1,.019-1.544C566.246,638.673,567.007,638.675,567.768,638.675Z" transform="translate(-553.585 -626.476)" fill="url(#linear-gradient)"/>
</svg>
