<svg width="35" height="36" viewBox="0 0 35 36" fill="none" xmlns="http://www.w3.org/2000/svg">
<path d="M17.437 35.076C13.9881 35.076 10.6167 34.0532 7.749 32.1371C4.88133 30.221 2.64626 27.4976 1.32642 24.3112C0.00657904 21.1248 -0.338751 17.6186 0.334098 14.236C1.00695 10.8533 2.66775 7.74618 5.1065 5.30743C7.54525 2.86868 10.6524 1.20787 14.035 0.535025C17.4177 -0.137824 20.9239 0.207507 24.1103 1.52735C27.2966 2.84719 30.0201 5.08226 31.9362 7.94992C33.8523 10.8176 34.875 14.189 34.875 17.638C34.8756 19.9281 34.4249 22.1959 33.5487 24.3118C32.6726 26.4277 31.3881 28.3503 29.7687 29.9697C28.1494 31.589 26.2268 32.8735 24.1109 33.7496C21.995 34.6258 19.7272 35.0765 17.437 35.076ZM19.469 24.976L14.16 19.888H27C27.2218 19.8886 27.4415 19.8454 27.6465 19.7609C27.8516 19.6764 28.0379 19.5522 28.1947 19.3954C28.3516 19.2386 28.4759 19.0524 28.5606 18.8474C28.6453 18.6424 28.6886 18.4227 28.688 18.201V17.076C28.6886 16.8543 28.6453 16.6347 28.5607 16.4297C28.4761 16.2248 28.3519 16.0387 28.1951 15.8819C28.0383 15.7251 27.8522 15.6009 27.6472 15.5163C27.4423 15.4317 27.2227 15.3884 27.001 15.389H14.16L19.469 10.298C19.6312 10.1426 19.7608 9.95641 19.8502 9.75034C19.9396 9.54427 19.987 9.32244 19.9896 9.09784C19.9922 8.87323 19.95 8.65036 19.8654 8.44228C19.7808 8.23419 19.6556 8.04506 19.497 7.88596L18.724 7.11996C18.5678 6.96286 18.3821 6.83818 18.1775 6.75311C17.9729 6.66804 17.7536 6.62424 17.532 6.62424C17.3105 6.62424 17.0911 6.66804 16.8865 6.75311C16.682 6.83818 16.4962 6.96286 16.34 7.11996L7.01003 16.438C6.85293 16.5942 6.72826 16.7799 6.64318 16.9845C6.55811 17.189 6.51431 17.4084 6.51431 17.63C6.51431 17.8515 6.55811 18.0709 6.64318 18.2754C6.72826 18.48 6.85293 18.6657 7.01003 18.822L16.34 28.152C16.4962 28.3091 16.682 28.4337 16.8865 28.5188C17.0911 28.6039 17.3105 28.6477 17.532 28.6477C17.7536 28.6477 17.9729 28.6039 18.1775 28.5188C18.3821 28.4337 18.5678 28.3091 18.724 28.152L19.497 27.386C19.6548 27.2269 19.7794 27.0381 19.8635 26.8305C19.9477 26.6229 19.9896 26.4006 19.987 26.1766C19.9844 25.9526 19.9373 25.7313 19.8484 25.5257C19.7594 25.3201 19.6305 25.1343 19.469 24.979V24.976Z" fill="#6172D6"/>
</svg>
