<svg xmlns="http://www.w3.org/2000/svg" xmlns:xlink="http://www.w3.org/1999/xlink" width="27.186" height="17.845" viewBox="0 0 27.186 17.845">
  <defs>
    <linearGradient id="linear-gradient" x1="1.048" y1="0.5" x2="-0.042" y2="0.5" gradientUnits="objectBoundingBox">
      <stop offset="0" stop-color="#4adede"/>
      <stop offset="1" stop-color="#6172d6"/>
    </linearGradient>
  </defs>
  <g id="Icon_feather-video" data-name="Icon feather-video" transform="translate(0.752 0.749)">
    <path id="Union_9" data-name="Union 9" d="M14543.2-4976.7a3.091,3.091,0,0,1-3.086-3.086v-11.673a3.089,3.089,0,0,1,3.086-3.085h12.843a3.085,3.085,0,0,1,3.082,3.085v4.378l6.986-4.989a.748.748,0,0,1,.439-.143.747.747,0,0,1,.34.084.75.75,0,0,1,.409.669v11.673a.745.745,0,0,1-.409.666.758.758,0,0,1-.779-.055l-6.986-4.992v4.381a3.088,3.088,0,0,1-3.082,3.086Zm-1.583-14.759v11.673a1.583,1.583,0,0,0,1.583,1.583h12.843a1.583,1.583,0,0,0,1.583-1.583v-11.673a1.584,1.584,0,0,0-1.583-1.586H14543.2A1.584,1.584,0,0,0,14541.613-4991.455Zm18.049,5.835,6.131,4.38V-4990Z" transform="translate(-14540.862 4993.791)" fill="url(#linear-gradient)"/>
  </g>
</svg>
