<svg xmlns="http://www.w3.org/2000/svg" xmlns:xlink="http://www.w3.org/1999/xlink" width="20.711" height="22.169" viewBox="0 0 20.711 22.169">
  <defs>
    <linearGradient id="linear-gradient" x1="0.5" x2="0.5" y2="1" gradientUnits="objectBoundingBox">
      <stop offset="0" stop-color="#4adede"/>
      <stop offset="1" stop-color="#6172d6"/>
    </linearGradient>
  </defs>
  <path id="Path_1697" data-name="Path 1697" d="M-4365.271.188a.533.533,0,0,1-.379-.157l-2.082-2.084c-1.35-1.35-2.745-2.745-3.774-3.779a8.629,8.629,0,0,1-4.019,1.1l-.219,0a8.391,8.391,0,0,1-5.245-1.789,8.451,8.451,0,0,1-3.249-5.4c-.021-.128-.042-.259-.063-.4l-.022-.15h-.009c-.029-.291-.044-.587-.044-.879a8.752,8.752,0,0,1,.1-1.315c0-.019.006-.04.009-.06a8.684,8.684,0,0,1,1.8-4.03,8.754,8.754,0,0,1,3.4-2.568l.062-.026a8.592,8.592,0,0,1,3.266-.639c.167,0,.336,0,.5.015v.019h.269l.739.075.032.024.111.025h.033l.03.015a10.121,10.121,0,0,1,1.381.4,8.591,8.591,0,0,1,3.443,2.43,8.456,8.456,0,0,1,1.9,3.819,8.539,8.539,0,0,1-.6,5.427A8.308,8.308,0,0,1-4369.49-7.4c1.24,1.237,2.5,2.495,3.715,3.712l1.135,1.135.815.81a.536.536,0,0,1,.159.387.528.528,0,0,1-.168.384L-4364.9.041A.536.536,0,0,1-4365.271.188Zm-10.435-19.619a6.042,6.042,0,0,0-6.108,6.075,6.034,6.034,0,0,0,1.775,4.307,6.09,6.09,0,0,0,4.332,1.777,6,6,0,0,0,6.054-6.081,6,6,0,0,0-6.042-6.078Z" transform="translate(4384.377 21.981)" fill="url(#linear-gradient)"/>
</svg>
