<svg width="84" height="117" viewBox="0 0 84 117" fill="none" xmlns="http://www.w3.org/2000/svg">
<g clip-path="url(#clip0_1_34656)">
<path d="M68.2939 31.0233C68.2644 36.8233 68.2053 42.6535 68.0578 48.4535C68.0283 49.9941 67.5267 51.5347 67.2317 53.1358H61.596C62.6877 52.9545 62.8353 52.3503 63.2779 50.2358C64.3991 44.8889 63.7795 39.4816 63.868 34.1045C63.868 34.0441 63.7795 33.9837 63.7205 33.9233C63.6024 33.9233 63.5139 33.8931 63.3959 33.8931C54.7802 35.2222 46.489 34.0139 38.4929 30.5399C38.1094 30.3587 37.5783 30.3587 37.1357 30.4493C33.8015 31.0535 30.4968 31.7483 27.1627 32.3222C24.7432 32.7149 22.2942 32.9264 19.8452 33.2285C19.8452 37.8806 19.8452 42.4722 19.8452 47.0639C19.8452 47.8191 19.9632 48.5743 20.1108 49.2993C21.9992 58.7847 27.4872 65.0378 36.6046 67.3337C45.8104 69.6597 53.4524 66.4576 59.3241 58.8753C59.5306 58.6035 59.7077 58.2712 59.9732 57.8483H65.9629C65.3728 57.9087 65.0187 58.2108 64.6646 58.8149C59.147 68.0587 51.151 72.892 40.4993 72.5899C28.4019 72.2274 17.7208 62.5306 15.7439 50.266C15.4784 48.6045 15.3308 46.8826 15.3308 45.191C15.2718 40.6899 15.3013 36.1889 15.3013 31.7181C15.3013 29.5431 16.039 28.8483 18.1044 28.6972C25.2743 28.1535 32.3852 27.2472 39.2601 25.042C41.532 24.317 43.745 23.4108 45.4563 21.5076C46.2235 20.6618 47.5217 20.692 48.3774 21.417C49.2626 22.1722 49.5281 23.5618 48.702 24.4378C47.7873 25.4347 46.6661 26.2503 45.6038 27.0962C45.3088 27.3378 44.9252 27.5191 44.5711 27.7003C44.5711 27.8212 44.5416 27.942 44.5416 28.0628C47.1677 28.5462 49.7937 29.1503 52.4492 29.5128C56.8751 30.117 61.242 29.7847 65.6088 28.7576C67.0251 28.4858 68.2939 29.5128 68.2939 31.0233Z" fill="#5A5A5A"/>
<path d="M83.283 42.9249C83.2535 39.8739 81.4241 38.001 78.444 38.001C77.1458 38.001 75.818 38.001 74.4607 38.001C74.4607 37.0947 74.4312 36.3395 74.4607 35.5843C74.6378 29.9958 73.31 24.7395 70.743 19.8458C65.9631 10.7531 58.9997 4.28848 49.1447 1.44889C47.4629 0.96556 45.722 0.754102 43.9812 0.391602H39.5553C38.5226 0.572852 37.4604 0.723893 36.4277 0.935352C20.1995 4.13744 8.51513 21.0239 9.13475 35.4333C9.16426 36.2489 9.13475 37.0645 9.13475 37.9708C7.71847 37.9708 6.44972 37.9708 5.15146 37.9708C2.17137 37.9708 0.342006 39.8437 0.3125 42.8947C0.3125 46.1874 0.3125 49.4801 0.3125 52.7426C0.3125 55.8843 2.11236 57.7572 5.15146 57.8176C6.98083 57.8479 8.83969 57.8479 10.6691 57.8176C12.764 57.8176 13.5311 57.0322 13.5311 54.8874C13.5311 48.2416 13.5016 41.5958 13.5311 34.9499C13.5311 33.5604 13.5901 32.1406 13.8262 30.7812C15.4195 21.7187 20.1404 14.7104 27.4874 9.57493C32.946 5.73848 39.0242 4.22806 45.604 5.28535C51.2691 6.1916 56.1081 8.91035 60.1799 12.9583C66.5532 19.2718 70.1824 26.8239 70.0349 36.0979C69.9464 41.3541 70.0054 46.5801 70.0054 51.8364V53.1353H61.5077C61.0651 53.1958 60.475 53.1958 59.6193 53.1958H52.2428C52.2428 53.1656 52.2428 53.1353 52.2428 53.1353C52.2133 52.7729 52.2133 52.5312 52.1838 52.2593C52.1248 50.8093 51.3281 49.8426 49.9414 49.8426C46.9908 49.7822 44.0402 49.7822 41.1191 49.8426C39.7618 49.8729 38.9652 50.8093 38.9357 52.1989C38.9062 54.4343 38.9062 56.6697 38.9357 58.8749C38.9652 60.2343 39.7028 61.1708 41.0011 61.201C44.0107 61.2916 47.0498 61.2916 50.0594 61.201C51.5937 61.1406 52.0953 60.2947 52.2723 57.8479H65.9926C66.0811 57.8479 66.1991 57.8176 66.3171 57.8176C67.0548 57.8176 67.7629 57.8176 68.5006 57.8479C71.8347 57.8781 75.1394 57.8781 78.4735 57.8479C81.5422 57.8176 83.3125 55.9447 83.3125 52.8031C83.3125 49.4801 83.3125 46.1874 83.283 42.9249ZM9.01673 53.1656H4.88591V42.6228H9.04624V53.1656H9.01673ZM47.6989 56.5187H43.4206V54.4947H47.6989V56.5187ZM78.7391 53.1353H74.5493V42.6228H78.7391V53.1353Z" fill="#6172D6"/>
<path d="M76.0545 116.361C74.6972 115.727 74.3136 114.609 74.3136 113.159C74.3727 108.809 74.3727 104.489 74.3136 100.139C74.1071 89.5966 66.1995 80.4435 55.9905 78.9331C55.784 78.9029 55.5479 78.8425 55.3414 78.8123C54.4267 78.5706 53.8071 78.8425 53.3055 79.7789C50.2664 85.3071 47.1682 90.7748 44.0701 96.2425C42.7719 98.5685 40.8835 98.5685 39.5557 96.2425C36.4576 90.7143 33.33 85.2164 30.2614 79.6883C29.8188 78.8727 29.3172 78.6914 28.491 78.8123C17.5739 80.1716 9.40074 89.4758 9.28271 100.744C9.25321 104.882 9.25321 109.051 9.28271 113.189C9.31222 114.67 8.89914 115.757 7.54187 116.391C7.1878 116.391 6.80422 116.391 6.45015 116.391C5.1814 115.757 4.73881 114.7 4.76831 113.28C4.85683 108.537 4.59128 103.734 4.94535 99.0216C5.74201 88.5696 11.0236 81.0779 20.1999 76.5164C22.9439 75.1571 25.865 74.4623 28.9041 74.2206C31.0875 74.0393 32.6809 74.9154 33.7726 76.8185C36.2806 81.2893 38.8181 85.7602 41.3261 90.231C41.4441 90.4425 41.5916 90.6841 41.7982 91.0164C42.0637 90.5935 42.2703 90.2612 42.4768 89.9289C44.7783 85.8206 47.1978 81.7425 49.3812 77.5737C50.827 74.7946 52.8629 73.8883 55.8135 74.2508C67.2027 75.6102 76.9987 85.156 78.415 96.7862C78.9166 100.804 78.7395 104.912 78.828 108.99C78.8576 110.38 78.7985 111.8 78.8576 113.189C78.9166 114.639 78.5035 115.757 77.1462 116.422C76.7921 116.361 76.4086 116.361 76.0545 116.361Z" fill="#5A5A5A"/>
</g>
<defs>
<clipPath id="clip0_1_34656">
<rect width="83" height="116" fill="white" transform="translate(0.3125 0.361328)"/>
</clipPath>
</defs>
</svg>
