<svg xmlns="http://www.w3.org/2000/svg" width="25.85" height="25.895" viewBox="0 0 25.85 25.895">
  <path id="Path_1927" data-name="Path 1927" d="M-317.958,604.895a2.5,2.5,0,0,1-.207-.174.5.5,0,0,1-.118-.537.488.488,0,0,1,.468-.361c.42-.011.841-.008,1.261-.011h.392v-.337q0-5.346,0-10.692c0-.084,0-.169,0-.253a.539.539,0,0,1,.608-.581q1.324,0,2.649,0h.252c-.053-.547-.146-1.079-.149-1.611a6.61,6.61,0,0,1,4.878-6.476c1.631-.454,3.28-.846,4.921-1.266l.257-.068a6.16,6.16,0,0,1-.115-.67,1.53,1.53,0,0,1,.477-1.206c.384-.389.754-.8,1.166-1.154a5.322,5.322,0,0,1,.825-.5h.656a3.046,3.046,0,0,1,1.26.915q2.552,2.566,5.114,5.123a3.056,3.056,0,0,1,.9,1.245v.658a3.682,3.682,0,0,1-.409.735c-.432.482-.895.939-1.37,1.379a1.44,1.44,0,0,1-1.356.364,6.564,6.564,0,0,1-.688-.24c-.842,1.3-1.708,2.593-2.528,3.915a11.411,11.411,0,0,1-2.05,2.543.559.559,0,0,0-.191.462q.009,3.7,0,7.407v.306h.318c.437,0,.875,0,1.311.011a.489.489,0,0,1,.469.361.5.5,0,0,1-.117.538,2.411,2.411,0,0,1-.207.174Zm9.17-12.952c.154-.228.274-.441.427-.628a3.318,3.318,0,0,1,5.3.2c.351.481.34.65-.072,1.064q-1,1-2,2c-.665.668-1.339,1.328-1.993,2.007a1.383,1.383,0,0,0-.37,1.441,1.25,1.25,0,0,0,1.071.88,1.366,1.366,0,0,0,1.254-.439q2.006-2.048,4.019-4.088a7.4,7.4,0,0,0,1-1.231c.978-1.531,1.971-3.053,2.958-4.579.044-.068.083-.139.145-.244a2.9,2.9,0,0,1-.241-.2q-2.211-2.236-4.414-4.48a.467.467,0,0,0-.525-.136c-1.7.441-3.409.88-5.118,1.3a5.591,5.591,0,0,0-4.372,5.368,5.124,5.124,0,0,0,.251,1.757Zm-6.279,1.1v10.732h12.893v-6.76a.784.784,0,0,0-.245.206c-.715.726-1.412,1.471-2.153,2.169a2.411,2.411,0,0,1-3.905-.923,2.443,2.443,0,0,1,.631-2.691c.821-.846,1.659-1.674,2.494-2.506a.986.986,0,0,1,.241-.132l-.08-.095ZM-293.5,586.6a3.06,3.06,0,0,0-.319-.472q-2.872-2.892-5.756-5.773c-.036-.036-.07-.073-.108-.106a.537.537,0,0,0-.77.007q-.588.572-1.159,1.161a.54.54,0,0,0,0,.789c.1.111.213.215.32.322q2.783,2.82,5.568,5.64a.542.542,0,0,0,.842,0c.385-.376.768-.755,1.139-1.145A2.2,2.2,0,0,0-293.5,586.6Zm-10.634,5.346a2.155,2.155,0,0,0-3.282,0Z" transform="translate(318.316 -579)" fill="#5f78d6"/>
</svg>
