<svg id="Layer_1" data-name="Layer 1" xmlns="http://www.w3.org/2000/svg" xmlns:xlink="http://www.w3.org/1999/xlink" viewBox="0 0 500 500"><defs><style>.cls-1{fill:url(#linear-gradient);}</style><linearGradient id="linear-gradient" x1="45.66" y1="395.23" x2="415.66" y2="162.23" gradientUnits="userSpaceOnUse"><stop offset="0" stop-color="#6172d6"/><stop offset="1" stop-color="#4adede"/></linearGradient></defs><path class="cls-1" d="M315.42,448.18H230.48c-22.46,0-37.83-15.37-37.83-37.92q0-122,0-244c0-22.5,15.4-37.81,37.94-37.81q56.29,0,112.6-.07A11.66,11.66,0,0,1,352.8,133q41.06,50.55,82.11,101.11a16,16,0,0,1,3.76,10.57q-.07,83.21-.05,166.41c0,21.52-15.66,37.08-37.12,37.1Q358.47,448.22,315.42,448.18ZM331,153H230.51c-8.78,0-13.27,4.45-13.27,13.18v244c0,9,4.43,13.39,13.47,13.39H400.56c9,0,13.47-4.4,13.47-13.38q0-75.31,0-150.64v-4.28c-15.54,0-30.51,0-45.48,0-22.05,0-37.49-15.4-37.54-37.42q-.06-30.17,0-60.33Zm25.28,23.35c-.36.5-.61.69-.61.88,0,14.21-.17,28.43,0,42.65.07,6.28,5.12,10.83,11.59,10.88,10.12.08,20.24,0,30.36,0a18.27,18.27,0,0,0,2.48-.4ZM181.88,369.79H108.09c-10,0-13.84-3.81-13.84-13.92q0-118.76,0-237.49c0-10,3.82-13.85,13.94-13.85q82,0,164.09,0c1,0,2.05,0,3.07,0,5.77.32,9.85,4,10.59,9.72.32,2.51.28,5.06.42,7.73h24.05c3-23.23-13.09-42-36.07-42.05q-84-.15-167.93,0C84.9,80,69.66,95.31,69.66,116.82q0,120.27,0,240.56c0,21.76,15.24,37,37,37q37.85.06,75.7,0h4v-24.6Zm192.77-69.35a18.25,18.25,0,0,0,9.47-3.19c4.1-2.81,5.16-8.58,3.43-13.2-1.88-5-6.38-8.05-12.31-8.06q-44.58,0-89.16,0c-10.25,0-20.5-.05-30.75,0a12.17,12.17,0,0,0-11.92,8.57c-2.54,8.24,3.4,15.95,12.48,16,19.86.06,39.72,0,59.57,0S354.92,300.72,374.65,300.44Zm-117.8,30a19.15,19.15,0,0,0-5.67.64,12.08,12.08,0,0,0-8.24,13.19c1,6.43,6,10.7,13,10.71q59.57.09,119.13-.06a16.17,16.17,0,0,0,7.6-2.11,11.84,11.84,0,0,0,5.14-13.7A12.09,12.09,0,0,0,376,330.45c-20-.06-40,0-60,0Q286.44,330.42,256.85,330.45Z"/></svg>