<svg xmlns="http://www.w3.org/2000/svg" width="36.982" height="37" viewBox="0 0 36.982 37">
  <g id="Group_2915" data-name="Group 2915" transform="translate(-320.629 -644)">
    <path id="Path_1713" data-name="Path 1713" d="M2528.366-102.638l-.016-2.687c.054-.421.1-.842.163-1.262a18.21,18.21,0,0,1,4.313-9.511,18.15,18.15,0,0,1,10.8-6.152c.624-.111,1.253-.188,1.88-.279l2.58-.013c.6.082,1.205.143,1.8.246a17.72,17.72,0,0,1,8.956,4.2A18.043,18.043,0,0,1,2565-100.582a17.594,17.594,0,0,1-6.829,11.151,18.032,18.032,0,0,1-13.893,3.708,17.784,17.784,0,0,1-9.539-4.341,18.185,18.185,0,0,1-6.1-10.719C2528.528-101.4,2528.454-102.019,2528.366-102.638Zm34.228-1.409a15.775,15.775,0,0,0-15.757-15.741,15.778,15.778,0,0,0-15.741,15.756,15.78,15.78,0,0,0,15.756,15.742A15.776,15.776,0,0,0,2562.593-104.047Z" transform="translate(-2207.72 766.541)" fill="#ddb227"/>
    <path id="Path_1714" data-name="Path 1714" d="M2708.525-46.011a.121.121,0,0,0,.12.12h.306c2,0,4,0,5.994,0a1.383,1.383,0,0,1,1.372,1.193,1.373,1.373,0,0,1-.978,1.5,1.825,1.825,0,0,1-.5.054q-3.791,0-7.583,0a1.355,1.355,0,0,1-1.475-1.483q0-5.326,0-10.653a1.364,1.364,0,0,1,1.143-1.372,1.365,1.365,0,0,1,1.549,1,1.9,1.9,0,0,1,.048.5q0,4.387,0,8.775Z" transform="translate(-2368.03 707.022)" fill="#ddb227"/>
  </g>
</svg>
