<svg xmlns="http://www.w3.org/2000/svg" width="18.869" height="25.837" viewBox="0 0 18.869 25.837">
  <g id="Group_3959" data-name="Group 3959" transform="translate(-1347.646 -517.073)">
    <g id="Group_3894" data-name="Group 3894">
      <path id="Path_1928" data-name="Path 1928" d="M1364.61,528.06a2.98,2.98,0,0,0-.33-.04h-14.35c-.14.01-.25.02-.38.04a2.3,2.3,0,0,0-1.9,2.3c-.01,1.24,0,2.48,0,3.72,0,2.15-.01,4.3,0,6.45v.1a2.318,2.318,0,0,0,2.34,2.28h14.18a3.521,3.521,0,0,0,.64-.09,2.3,2.3,0,0,0,1.7-2.29v-5.17c0-1.66.01-3.31,0-4.97A2.307,2.307,0,0,0,1364.61,528.06Zm.32,12.37c0,.65-.27.91-.92.91h-13.86c-.64,0-.9-.26-.9-.9v-9.93c0-.66.26-.91.91-.91h6.93l6.91-.01c.67,0,.93.26.93.93Z" fill="#5a5a5a"/>
      <path id="Path_1929" data-name="Path 1929" d="M1359.43,533.94a2.3,2.3,0,0,0-1.94-1.96,2.334,2.334,0,0,0-2.57,1.37,2.232,2.232,0,0,0,.8,2.82,1.01,1.01,0,0,1,.58,1.18v.13l.01-.01v.81a.747.747,0,0,0,.77.72h.1a.749.749,0,0,0,.69-.8c.01-.51.01-1.01,0-1.51a.262.262,0,0,1,.17-.27A2.276,2.276,0,0,0,1359.43,533.94Zm-1.56.47a.747.747,0,0,1-.81.66h-.01a.109.109,0,0,1-.05-.01.725.725,0,0,1-.69-.78v-.07a.749.749,0,0,1,.8-.69h.07a.749.749,0,0,1,.69.8Z" fill="#5a5a5a"/>
    </g>
    <path id="Path_1963" data-name="Path 1963" d="M1360.977,521.143a3.325,3.325,0,0,0-.3-.634,5.254,5.254,0,0,0-6.659-2.444l-.019.007a5,5,0,0,0-3.528,5.692,19.654,19.654,0,0,0,1.3,4.111,1.931,1.931,0,0,0,.091.191l-1.6.577c.019-.006.043-.026.072-.036-.34-.941-.692-1.855-.994-2.778a9.282,9.282,0,0,1-.416-1.71,6.988,6.988,0,0,1,3.511-7.014,7.084,7.084,0,0,1,9.108,1.857,7.483,7.483,0,0,1,1.078,2.014l.748,2.069a.8.8,0,0,1-.48,1.024h0a.8.8,0,0,1-1.024-.48Z" transform="translate(261.871 -429.321) rotate(20)" fill="#5a5a5a"/>
    <path id="Path_1964" data-name="Path 1964" d="M1351.857,528.066" fill="#5a5a5a"/>
  </g>
</svg>
