<svg xmlns="http://www.w3.org/2000/svg" xmlns:xlink="http://www.w3.org/1999/xlink" width="22.318" height="14.748" viewBox="0 0 22.318 14.748">
  <defs>
    <linearGradient id="linear-gradient" x1="0.5" x2="0.5" y2="1" gradientUnits="objectBoundingBox">
      <stop offset="0" stop-color="#4adede"/>
      <stop offset="1" stop-color="#6172d6"/>
    </linearGradient>
  </defs>
  <g id="Icon_feather-video" data-name="Icon feather-video" transform="translate(0.75 0.75)">
    <path id="Path_4" data-name="Path 4" d="M30.624,9.75a.75.75,0,0,1,.75.75v9.463a.75.75,0,0,1-1.186.61l-6.624-4.731a.75.75,0,0,1,0-1.221L30.188,9.89A.75.75,0,0,1,30.624,9.75Zm-.75,8.756V11.957L25.29,15.231Z" transform="translate(-9.806 -8.607)" fill="url(#linear-gradient)"/>
    <path id="Path_5" data-name="Path 5" d="M3.393,6.75H13.8a2.646,2.646,0,0,1,2.643,2.643v9.463A2.646,2.646,0,0,1,13.8,21.5H3.393A2.646,2.646,0,0,1,.75,18.855V9.393A2.646,2.646,0,0,1,3.393,6.75ZM13.8,20a1.144,1.144,0,0,0,1.143-1.143V9.393A1.144,1.144,0,0,0,13.8,8.25H3.393A1.144,1.144,0,0,0,2.25,9.393v9.463A1.144,1.144,0,0,0,3.393,20Z" transform="translate(-1.5 -7.5)" fill="url(#linear-gradient)"/>
  </g>
</svg>
