<svg xmlns="http://www.w3.org/2000/svg" width="18.651" height="20.243" viewBox="0 0 18.651 20.243">
  <path id="Icon_awesome-wpforms" data-name="Icon awesome-wpforms" d="M18.651,4.2v16.34a1.858,1.858,0,0,1-1.8,1.952H1.8A1.865,1.865,0,0,1,0,20.537V4.2A1.858,1.858,0,0,1,1.8,2.25H16.857A1.857,1.857,0,0,1,18.651,4.2ZM17.1,20.537V4.2a.258.258,0,0,0-.241-.262H16.47L11.878,7.31,9.326,5.055,6.778,7.31,2.186,3.935H1.8a.258.258,0,0,0-.241.262v16.34A.258.258,0,0,0,1.8,20.8H16.857a.253.253,0,0,0,.241-.262ZM6.253,9.207v1.671H3.193V9.207Zm0,3.361v1.685H3.193V12.568Zm.462-6.654L8.963,3.94H4.03L6.715,5.914Zm8.743,3.293v1.671H7.3V9.207Zm0,3.361v1.685H7.3V12.568ZM11.936,5.914,14.621,3.94H9.692l2.244,1.974Zm3.522,10.024v1.685H11.32V15.938h4.138Z" transform="translate(0 -2.25)" fill="#6172d6"/>
</svg>
