<svg xmlns="http://www.w3.org/2000/svg" width="17.968" height="20.438" viewBox="0 0 17.968 20.438">
  <path id="Icon_metro-file-video" data-name="Icon metro-file-video" d="M21.621,6.5a18.118,18.118,0,0,0-1.748-1.99,18.163,18.163,0,0,0-2-1.74,3.206,3.206,0,0,0-1.823-.842H6.1a1.6,1.6,0,0,0-1.6,1.6V20.77a1.6,1.6,0,0,0,1.6,1.6H20.862a1.6,1.6,0,0,0,1.6-1.6V8.315A3.176,3.176,0,0,0,21.621,6.5ZM18.965,5.413A17.449,17.449,0,0,1,20.42,7.038H17.333V3.965A17.47,17.47,0,0,1,18.965,5.413ZM21.183,20.77a.324.324,0,0,1-.321.319H6.1a.324.324,0,0,1-.321-.319V3.525A.324.324,0,0,1,6.1,3.205H16.05V7.676a.64.64,0,0,0,.642.639h4.492ZM8.349,12.147h6.417v6.387H8.349V12.147ZM14.766,14.7l3.85-2.555v6.387l-3.85-2.555Z" transform="translate(-4.499 -1.928)" fill="#f16b6b"/>
</svg>
