<svg id="Group_2584" data-name="Group 2584" xmlns="http://www.w3.org/2000/svg" xmlns:xlink="http://www.w3.org/1999/xlink" width="21.711" height="18.611" viewBox="0 0 21.711 18.611">
  <defs>
    <linearGradient id="linear-gradient" x1="0.5" x2="0.5" y2="1" gradientUnits="objectBoundingBox">
      <stop offset="0" stop-color="#4adede"/>
      <stop offset="1" stop-color="#6172d6"/>
    </linearGradient>
  </defs>
  <path id="Path_920" data-name="Path 920" d="M9.323,21.9c-.417,0-.53-.115-.53-.541v-.815H4.946a.521.521,0,0,1-.423-.134.522.522,0,0,1-.048-.438l.607-3.113H1.48a.506.506,0,0,1-.381-.1.524.524,0,0,1-.1-.383v-.255a3.723,3.723,0,0,1,.036-.73A2.1,2.1,0,0,1,2.987,13.6c.28-.018.578-.024.935-.024.3,0,.6.006.887.012l.256.006a2.555,2.555,0,0,1,.476.061c.06.012.119.024.179.03l.066-.328c.06-.286.119-.578.173-.863.107-.553.214-1.1.322-1.654.1-.523.2-1.052.31-1.575.054-.28.185-.383.482-.383H8.543c.006-.03.012-.061.018-.085.018-.091.042-.176.06-.255a2.27,2.27,0,0,1,2.12-1.721c.363-.012.733-.012,1.1-.012.381,0,.774.006,1.155.018a2.273,2.273,0,0,1,2.12,1.86c.03.164.071.207.208.207h.024c.167-.006.339-.012.554-.012h.715c.328,0,.441.1.506.432.286,1.441.566,2.876.852,4.317a.115.115,0,0,0,.012.043,12.034,12.034,0,0,1,1.679-.128,8.17,8.17,0,0,1,1.417.116,2.062,2.062,0,0,1,1.62,2.012c.006.268.006.529.006.754-.006.31-.131.438-.441.438H18.62l.119.62c.107.547.214,1.082.316,1.617l.179.912a.48.48,0,0,1-.054.4.437.437,0,0,1-.369.134h-3.9v.8c0,.444-.113.553-.542.553H9.323Zm4.848-.766v-.3a1.352,1.352,0,0,0-1.251-1.447c-.369-.03-.733-.043-1.084-.043s-.7.012-1.042.043a1.344,1.344,0,0,0-.989.553,1.534,1.534,0,0,0-.238,1.192ZM11.854,18.6c.3,0,.607,0,.905.006a2.074,2.074,0,0,1,1.846,1.058.223.223,0,0,0,.226.128c.679-.006,1.358-.006,1.941-.006h1.519a.985.985,0,0,0,.131-.006h.012l-.578-2.924H17a.379.379,0,0,1-.423-.413c-.006-.243-.006-.486,0-.711a2.25,2.25,0,0,1,.655-1.544.269.269,0,0,0,.054-.195c-.185-1-.387-2.006-.578-2.985l-.024-.109c-.06-.3-.119-.6-.179-.888-.024-.122-.048-.243-.071-.359H7.281v.006c-.006.03-.018.061-.024.085l-.1.492c-.244,1.246-.5,2.535-.744,3.8a.235.235,0,0,0,.06.152,1.945,1.945,0,0,1,.59,1.088,8.794,8.794,0,0,1,.06,1.21.371.371,0,0,1-.1.268.4.4,0,0,1-.292.109H5.845l-.578,2.924a.22.22,0,0,0,.06.006H6.834c.84,0,1.483,0,2.078-.006a.248.248,0,0,0,.167-.109,2.145,2.145,0,0,1,1.87-1.07C11.253,18.609,11.557,18.6,11.854,18.6Zm10.112-2.5v-.322a1.385,1.385,0,0,0-1.382-1.435c-.375-.006-.691-.006-.983-.006-.334,0-.637.006-.929.012a1.375,1.375,0,0,0-1.066.553,1.476,1.476,0,0,0-.262,1.2Zm-15.58-.012c0-.049-.006-.1-.006-.152-.006-.146-.012-.292-.03-.426A1.357,1.357,0,0,0,5.16,14.359c-.262-.006-.536-.012-.87-.012-.244,0-.488,0-.733.006-.208,0-.417.006-.625.006a.5.5,0,0,0-.137.024,1.454,1.454,0,0,0-1.048,1.708H6.387Zm7.992-7.217A1.364,1.364,0,0,0,13.3,7.646c-.476-.043-.965-.061-1.441-.061s-.971.018-1.447.061A1.345,1.345,0,0,0,9.329,8.868Z" transform="translate(-0.995 -3.293)" fill="url(#linear-gradient)"/>
  <path id="Path_921" data-name="Path 921" d="M18.007,13.794a9.776,9.776,0,0,1,3.121-.018,1.994,1.994,0,0,1,1.566,1.958c.006.249.006.5.006.748-.006.28-.1.377-.381.377H18.6c.155.784.3,1.544.453,2.31l.179.912c.066.31-.054.462-.363.462H14.91v.863c0,.407-.089.493-.482.493H9.365c-.381,0-.47-.091-.47-.48v-.876H4.988c-.381,0-.482-.128-.411-.5.208-1.052.411-2.1.625-3.186H1.522c-.334,0-.423-.085-.423-.432a5.863,5.863,0,0,1,.03-.973,2.052,2.052,0,0,1,1.906-1.745c.691-.036,1.382-.018,2.073-.006a6.307,6.307,0,0,1,.7.1c.083-.407.167-.827.25-1.246q.322-1.614.631-3.228C6.739,9.082,6.846,9,7.114,9H8.633c.036-.14.06-.268.1-.389a2.195,2.195,0,0,1,2.061-1.672q1.126-.027,2.251,0A2.2,2.2,0,0,1,15.1,8.747c.036.195.1.261.3.255.423-.018.846-.006,1.269-.006.3,0,.387.079.447.383.286,1.441.566,2.876.852,4.317C17.983,13.733,17.995,13.769,18.007,13.794Zm-.048,3.064h-.905c-.244,0-.357-.109-.363-.359s-.006-.468,0-.705a2.2,2.2,0,0,1,.637-1.508.335.335,0,0,0,.071-.249c-.2-1.034-.4-2.061-.6-3.095-.083-.432-.173-.869-.262-1.3H7.287c-.012.055-.03.1-.036.14-.28,1.429-.566,2.864-.84,4.293a.282.282,0,0,0,.077.207,1.908,1.908,0,0,1,.572,1.058,8.919,8.919,0,0,1,.06,1.2.3.3,0,0,1-.334.316H5.857c-.2,1.028-.4,2.025-.6,3.034.054.006.089.018.125.018,1.2,0,2.394.006,3.591-.006a.307.307,0,0,0,.214-.134A2.081,2.081,0,0,1,11,18.725q.9-.009,1.8,0a2.028,2.028,0,0,1,1.8,1.028.28.28,0,0,0,.28.158c1.149-.006,2.3-.006,3.454-.006.066,0,.131-.006.22-.012C18.364,18.883,18.162,17.886,17.959,16.858Zm-3.68,4.4v-.365a1.418,1.418,0,0,0-1.31-1.508,13.217,13.217,0,0,0-2.138,0,1.474,1.474,0,0,0-1.274,1.873ZM1.754,16.2H6.5c-.012-.225-.012-.438-.036-.651a1.409,1.409,0,0,0-1.245-1.2c-.738-.024-1.483-.006-2.227-.006a.684.684,0,0,0-.155.024A1.538,1.538,0,0,0,1.754,16.2Zm20.32.012v-.383a1.445,1.445,0,0,0-1.441-1.5c-.637-.012-1.274-.012-1.918,0a1.49,1.49,0,0,0-1.37,1.873C18.912,16.214,20.478,16.214,22.074,16.214ZM14.493,8.984a1.42,1.42,0,0,0-1.137-1.344,16.5,16.5,0,0,0-2.9,0A1.408,1.408,0,0,0,9.324,8.984Z" transform="translate(-1.042 -3.348)" fill="url(#linear-gradient)"/>
  <path id="Path_922" data-name="Path 922" d="M20.3,3.708a1.834,1.834,0,0,1-1.787-1.854,1.826,1.826,0,0,1,1.8-1.842h.012A1.826,1.826,0,0,1,22.12,1.866a1.834,1.834,0,0,1-1.8,1.848ZM20.309.766A1.063,1.063,0,0,0,19.261,1.86a1.061,1.061,0,0,0,1.816.76,1.116,1.116,0,0,0,.3-.778A1.079,1.079,0,0,0,20.327.766Z" transform="translate(-9.455 -0.012)" fill="url(#linear-gradient)"/>
  <path id="Path_923" data-name="Path 923" d="M22.115,1.917a1.743,1.743,0,1,1-3.484-.006,1.743,1.743,0,1,1,3.484.006ZM21.49,1.9a1.12,1.12,0,1,0-2.239.024A1.12,1.12,0,1,0,21.49,1.9Z" transform="translate(-9.511 -0.068)" fill="url(#linear-gradient)"/>
  <path id="Path_924" data-name="Path 924" d="M5.345,17.232a1.706,1.706,0,0,1-1.673-1.715A1.733,1.733,0,0,1,4.154,14.3a1.665,1.665,0,0,1,2.4.012,1.723,1.723,0,0,1-1.209,2.925Zm.012-2.681a.929.929,0,0,0-.941.955.942.942,0,0,0,.941.961.923.923,0,0,0,.667-.286.971.971,0,0,0,.274-.687A.953.953,0,0,0,5.357,14.551Z" transform="translate(-2.287 -6.665)" fill="url(#linear-gradient)"/>
  <path id="Path_925" data-name="Path 925" d="M5.412,13.909A1.65,1.65,0,0,1,7.05,15.562a1.672,1.672,0,0,1-1.638,1.666A1.642,1.642,0,0,1,3.8,15.575,1.618,1.618,0,0,1,5.412,13.909Zm-.995,1.654a1,1,0,1,0,1-1.015A1,1,0,0,0,4.418,15.562Z" transform="translate(-2.348 -6.722)" fill="url(#linear-gradient)"/>
  <path id="Path_926" data-name="Path 926" d="M35.477,17.232a1.721,1.721,0,0,1,.024-3.441h.03a1.683,1.683,0,0,1,1.65,1.733A1.709,1.709,0,0,1,35.5,17.232Zm.03-2.681a.94.94,0,0,0-.947.948.973.973,0,0,0,.268.675.935.935,0,0,0,1.334.012.975.975,0,0,0,.274-.693A.935.935,0,0,0,35.507,14.551Z" transform="translate(-16.84 -6.665)" fill="url(#linear-gradient)"/>
  <path id="Path_927" data-name="Path 927" d="M37.165,15.586a1.626,1.626,0,1,1-1.59-1.666A1.617,1.617,0,0,1,37.165,15.586Zm-1.608-1.034a1.016,1.016,0,1,0,.983,1A.99.99,0,0,0,35.557,14.552Z" transform="translate(-16.889 -6.727)" fill="url(#linear-gradient)"/>
  <path id="Path_928" data-name="Path 928" d="M20.409,26.955a1.654,1.654,0,0,1-1.191-.5A1.728,1.728,0,0,1,20.4,23.514h.024A1.723,1.723,0,0,1,22.1,25.229a1.7,1.7,0,0,1-1.685,1.727Zm.006-2.675a.949.949,0,0,0-.935.967.924.924,0,0,0,.941.948h.006a.891.891,0,0,0,.655-.28,1,1,0,0,0,.268-.693.943.943,0,0,0-.929-.942Z" transform="translate(-9.555 -11.36)" fill="url(#linear-gradient)"/>
  <path id="Path_929" data-name="Path 929" d="M20.482,26.951a1.639,1.639,0,0,1-1.632-1.66,1.629,1.629,0,1,1,1.632,1.66Zm.989-1.672a.995.995,0,1,0-1.989.024,1,1,0,1,0,1.989-.024Z" transform="translate(-9.617 -11.417)" fill="url(#linear-gradient)"/>
</svg>
