<svg id="Layer_1" data-name="Layer 1" xmlns="http://www.w3.org/2000/svg" viewBox="0 0 392.68 394.67"><defs><style>.cls-1{fill:#2197d7;}</style></defs><path class="cls-1" d="M383.93,159.31c-1.93,1.83-3.83,3.72-5.82,5.49a4,4,0,0,0-1.41,3.9c.33,2.15.63,4.31,1,6.46a5.54,5.54,0,0,1-2.46,5.65,5.08,5.08,0,0,1-5.81.54c-1.71-.92-3.52-1.67-5.18-2.68a4.39,4.39,0,0,0-5.08-.07c-1.64,1-3.46,1.78-5.18,2.68-2.14,1.12-4.36,1.16-6.18-.35a6.32,6.32,0,0,1-2.43-6.47,20.84,20.84,0,0,1,.64-3.2c1.36-3.32.42-5.84-2.35-7.94-1.05-.81-1.86-1.93-2.87-2.8-4.2-3.63-.91-9.23,3.22-10a45,45,0,0,1,5.76-.78,3.82,3.82,0,0,0,3.64-2.48,61.8,61.8,0,0,1,3-5.86c1.82-3,4.81-4,7.77-2.49a6.79,6.79,0,0,1,2.48,2.51,54.34,54.34,0,0,1,3,5.85,3.91,3.91,0,0,0,3.7,2.44,21.79,21.79,0,0,1,5.72.84,28,28,0,0,1,4.93,2.89ZM362.35,165c.14,0,1.16,0,1.44-.41.71-1.09,1.84-2.78,1.46-3.53-.74-1.42-2.39-3.21-3.72-3.26a5,5,0,0,0-3.85,3C357.18,162.93,359.7,165.06,362.35,165Z"/><path class="cls-1" d="M248.85,384.93c-.47-.37-1-.7-1.42-1.1-2.36-2.06-2.82-3.87-1.63-6.8q4-9.78,8-19.53,6.71-16.31,13.45-32.61a10.19,10.19,0,0,1,1.2-2.23,5.53,5.53,0,0,1,7-1.94,5.39,5.39,0,0,1,3.15,6.88,54.12,54.12,0,0,1-2.05,5.44q-9.71,23.54-19.48,47a31.93,31.93,0,0,1-3.12,4.85Z"/><path class="cls-1" d="M383.93,328.71c-.3.37-.59.75-.89,1.11-2.17,2.64-3.8,3.21-7,2-4.87-1.86-9.68-3.89-14.51-5.88q-18.84-7.77-37.68-15.58c-3.88-1.61-5.41-4.39-4.21-7.64s4-4.8,7.25-3.61c5.12,1.89,10.15,4,15.2,6.11,9.3,3.85,18.59,7.76,27.89,11.63,3.36,1.39,6.78,2.64,10.09,4.14a26.84,26.84,0,0,1,3.89,2.63Z"/><path class="cls-1" d="M323.33,384.93a9.47,9.47,0,0,1-3.5-4.45c-5.14-12.7-10.43-25.34-15.7-38-1.58-3.8-3.24-7.58-4.85-11.38-.42-1-.83-2-1.16-3.06-1.05-3.38.22-6.1,3.41-7.37a5.43,5.43,0,0,1,7.24,3c1.6,3.4,2.94,6.93,4.38,10.4q6.93,16.62,13.84,33.25c1.31,3.14,2.66,6.26,3.92,9.41,1.41,3.54.72,5.24-3.2,8.19Z"/><path class="cls-1" d="M383.93,254.23a10.16,10.16,0,0,1-5.07,3.86c-12.24,5-24.4,10.13-36.61,15.19q-7.56,3.14-15.16,6.15a4.81,4.81,0,0,1-5.42-.78c-3.61-3.23-3-8.06,1.44-10.07,3.31-1.49,6.72-2.79,10.07-4.19l36.94-15.34c1.79-.75,3.62-1.41,5.39-2.2a5.84,5.84,0,0,1,7.29,1.38,11.07,11.07,0,0,0,1.13.89Z"/><path class="cls-1" d="M159.9,129.18a5.6,5.6,0,0,1-1.88,4.47c-2,1.93-4.09,3.79-6.15,5.68-1.25,1.15-2.41,2.06-1.7,4.27a60.83,60.83,0,0,1,1.53,8.56c.44,2.69.05,5.15-2.33,6.84-2.21,1.59-4.52,1.42-6.85.11-2.54-1.42-5.15-2.74-7.68-4.18a3.82,3.82,0,0,0-4.12,0c-1.9,1.09-3.85,2.07-5.78,3.1-.85.46-1.68,1-2.57,1.38-4.69,2.1-9.06-1-8.65-6.1.17-2,.65-4.06,1-6.08,0-.12.09-.23.12-.35,1.15-5.42.85-6.24-3.49-9.81a37.6,37.6,0,0,1-3.54-3.12c-4.09-4.31-2.74-9.33,3-10.72A54.32,54.32,0,0,1,119,122c2.3-.2,3.74-1,4.59-3.35,1-2.62,2.52-5,3.63-7.55a6,6,0,0,1,11-.13c1.25,2.77,2.79,5.4,4,8.18a4.49,4.49,0,0,0,4.21,2.84,66.18,66.18,0,0,1,9.3,1.47C158.8,124.23,159.92,126,159.9,129.18Zm-21.53,14c-.14-.44-.22-.67-.28-.9a7.17,7.17,0,0,1,2.08-7.62c1.23-1.16,1.09-1.78-.55-2a7,7,0,0,1-6.1-4.48c0-.11-.11-.29-.18-.3-.39,0-1.07-.13-1.12,0-1.24,3.22-3.84,4.45-7,5-1.14.22-.79.95-.15,1.51a7.2,7.2,0,0,1,2.25,8.21c-.06.19.33.53.51.8a8.16,8.16,0,0,1,9.85,0C137.81,143.43,138.14,143.22,138.37,143.14Z"/><path class="cls-1" d="M40.49,298.5c.46-2.61.85-5.24,1.39-7.85s.57-4.85-2.17-6.61A26.91,26.91,0,0,1,34.5,279c-1.62-1.83-2.94-3.76-2-6.54s3.19-3.84,5.79-4.29c2.38-.4,4.79-.66,7.2-.84s4-1.06,5-3.43c1-2.59,2.49-5,3.68-7.53,1-2.18,2.69-3.56,5.07-3.56A5.9,5.9,0,0,1,65,256.5c1.1,2.44,2.52,4.73,3.52,7.2a5.41,5.41,0,0,0,5,3.55c2.29.24,4.59.42,6.84.87,2,.39,4,.7,5.37,2.66,1.68,2.48,1.69,5.08-.39,7.26-2.26,2.38-4.6,4.68-7,6.95A3.64,3.64,0,0,0,77,289.11c.84,3,1.13,6.17,1.67,9.27a5.38,5.38,0,0,1-2.16,5.46c-1.9,1.46-4.06,2.19-6.44.87-2.66-1.47-5.36-2.84-8-4.35a4.46,4.46,0,0,0-4.79,0c-2.54,1.42-5.34,2.44-7.75,4C45.12,307.3,39.89,303.29,40.49,298.5Zm19.15-11.75c1.13.39,2.4.74,3.6,1.25s1.61,0,1.52-1.07c-.24-2.76,0-5.27,2.45-7.18,1.2-.92,1-1.64-.45-1.81a7.33,7.33,0,0,1-6.52-5c-.41-1-.94-.85-1.41.06-.56,1.08-1,2.4-1.85,3.08a11,11,0,0,1-3.91,1.61c-1.94.51-2,.7-.87,2.19.82,1,1.88,2.09,2.14,3.29a20.85,20.85,0,0,1,0,4.93Z"/><path class="cls-1" d="M272.14,304c.32-1.89.59-4.18,1.11-6.41a2.41,2.41,0,0,0-.77-2.58c-1.65-1.6-3.28-3.24-4.91-4.88a6,6,0,0,1,3.76-10.42c1.8-.17,3.59-.54,5.39-.73a4.35,4.35,0,0,0,3.83-2.89,45.07,45.07,0,0,1,2.69-5.55c2.49-4.1,7.59-4.08,10.1,0a50.78,50.78,0,0,1,3,5.8,4.17,4.17,0,0,0,3.94,2.67,39.92,39.92,0,0,1,5.75.78,5.88,5.88,0,0,1,3.33,9.87c-1.58,1.84-3.4,3.47-5.14,5.16a2.51,2.51,0,0,0-.91,2.87,29.92,29.92,0,0,1,.92,5,13.82,13.82,0,0,1,.1,3.63,5.47,5.47,0,0,1-7.23,4.58,36.1,36.1,0,0,1-6.17-3.05,4.74,4.74,0,0,0-5.44.06,41.28,41.28,0,0,1-4.45,2.48C276.1,312.66,271.94,309.85,272.14,304Zm16.1-9.73a7.69,7.69,0,0,1,1.53.17c.92.32,1.21.1,1.36-.91.2-1.29,1.3-2.75.93-3.73s-2-1.66-3.18-2.21c-.45-.21-1.29.18-1.85.48-.94.5-2.53,1.15-2.54,1.76a14.43,14.43,0,0,0,1.14,4.48c.05.15.58.2.89.18C287.12,294.43,287.72,294.31,288.24,294.24Z"/><path class="cls-1" d="M272.14,75.53a36.33,36.33,0,0,1,1-6.14c.61-1.89,0-3-1.27-4.12q-2.16-2-4.15-4.11c-3.86-4.11-2.39-8.78,3.16-10a33.18,33.18,0,0,1,4.66-.71c2.37-.19,4.13-1,5-3.43.58-1.59,1.53-3,2.24-4.59a5.73,5.73,0,0,1,5.42-3.64,5.67,5.67,0,0,1,5.48,3.52c.79,1.65,1.78,3.21,2.41,4.91.79,2.13,2.34,2.93,4.41,3.18,1.8.22,3.61.44,5.39.76,4.95.9,6.66,5.82,3.32,9.6-1.45,1.64-3.05,3.14-4.65,4.64-1.14,1.07-1.82,2.07-1.22,3.81a31.46,31.46,0,0,1,1,5.34,11,11,0,0,1,.08,1.82c0,4.91-4.05,7.51-8.47,5.45a45.52,45.52,0,0,1-4.86-2.51,5,5,0,0,0-5.79.08,45.09,45.09,0,0,1-4.21,2.16C276.1,84,272,81.33,272.14,75.53Zm16-9.7c.91-.14,2.16,0,2.45-.46.75-1.18,1.83-3,1.39-3.89-.69-1.4-2.47-3-3.87-3.07-1.19-.08-3,1.64-3.58,3-.41,1,.61,2.74,1.34,3.93C286.17,65.79,287.41,65.68,288.16,65.83Z"/><path class="cls-1" d="M124.84,340.05a4.36,4.36,0,0,1-1.53,3.72c-1.75,1.68-3.44,3.44-5.19,5.13a2.35,2.35,0,0,0-.79,2.54,57.57,57.57,0,0,1,1,7.19c.44,4.95-3.71,8.08-8.26,6.15a49.36,49.36,0,0,1-5.76-3.13,3.39,3.39,0,0,0-3.75,0c-1.9,1.08-3.89,2-5.84,3a5.68,5.68,0,0,1-6.5-.57,5.79,5.79,0,0,1-2.07-6.21c.32-1.54.63-3.08,1-4.6.58-2.35.19-4.17-2-5.65A16.81,16.81,0,0,1,81,343.5c-2.92-4.09-.64-9,4.36-9.72,1.92-.27,3.83-.63,5.76-.73a2.86,2.86,0,0,0,2.78-1.87c1-2.1,2-4.19,3.1-6.2,1.79-3.14,5-4.12,8.09-2.43a6.94,6.94,0,0,1,2.45,2.51,63,63,0,0,1,3,5.86,3.12,3.12,0,0,0,3,2.13,52.73,52.73,0,0,1,6.12.76C122.85,334.3,124.81,336.61,124.84,340.05ZM103,348.55c1.23.61,2.09-.17,2.29-2.14.06-.57.57-1.09.71-1.67a1.46,1.46,0,0,0-.25-1.19,32.45,32.45,0,0,0-3.07-2.4,1,1,0,0,0-.84.11c-.85.66-1.66,1.37-2.47,2.08-.26.22-.7.56-.65.74a18.92,18.92,0,0,0,1.34,4.12C100.25,348.58,101.5,348.4,103,348.55Z"/><path class="cls-1" d="M98.08,106a21.21,21.21,0,0,1-2.69-1.34,14.72,14.72,0,0,1-2.11-2Q70.46,79.86,47.65,57a20,20,0,0,1-2.44-2.7,6,6,0,0,1,.55-7.62,6.42,6.42,0,0,1,7.46-.57,13.22,13.22,0,0,1,2.2,1.9q23.08,23.06,46.14,46.16a14.41,14.41,0,0,1,2.63,3.45C106.11,101.34,102.9,106.15,98.08,106Z"/><path class="cls-1" d="M221.49,216.66c-.32,1.93-.87,3.81-2.93,5s-3.84,1.43-5.75,0a23.8,23.8,0,0,1-2.81-2.29q-23.08-23.06-46.14-46.15a14.85,14.85,0,0,1-2.44-3.15c-1.44-2.58-1.09-4.43,1-6.55s4.2-2.44,6.57-1.13a14.22,14.22,0,0,1,3.16,2.41Q195.4,188,218.6,211.19A8.68,8.68,0,0,1,221.49,216.66Z"/><path class="cls-1" d="M44,216c.42-.86,1-2.3,1.82-3.63a10.47,10.47,0,0,1,1.76-1.83Q70.16,188,92.74,165.41a19,19,0,0,1,3.66-2.94c2.4-1.41,4.57-1,6.59,1s2.56,4,1.16,6.54a14.22,14.22,0,0,1-2.41,3.16q-23.17,23.25-46.42,46.41a14.66,14.66,0,0,1-3.53,2.5C48.78,223.66,43.92,221.15,44,216Z"/><path class="cls-1" d="M138.66,51.61q0,16.06,0,32.12a18.8,18.8,0,0,1-.08,2.91c-.45,2.92-3.44,5.6-6,5.47s-5.21-2.71-5.64-5.46a15.46,15.46,0,0,1-.08-2.55q0-32.85,0-65.7a15.46,15.46,0,0,1,.08-2.55,5.9,5.9,0,0,1,11.63,0,18.8,18.8,0,0,1,.08,2.91Q138.67,35.19,138.66,51.61Z"/><path class="cls-1" d="M49.87,139.67H17.76a18.8,18.8,0,0,1-2.91-.08,5.91,5.91,0,0,1,0-11.64,15.46,15.46,0,0,1,2.55-.09H83.05a15.46,15.46,0,0,1,2.55.08,6.6,6.6,0,0,1,5.46,6c0,2.34-2.68,5.2-5.44,5.63a20.13,20.13,0,0,1-2.91.08Z"/><path class="cls-1" d="M215.51,127.86h32.11a20.28,20.28,0,0,1,2.92.07c3.17.46,4.9,2.82,5.06,6.06s-2.81,5.37-5.15,5.63a17.75,17.75,0,0,1-2.19,0h-66a16,16,0,0,1-2.19,0c-2.74-.39-5.53-3.16-5.59-5.51-.08-2.88,2.56-5.8,5.68-6.2a23.68,23.68,0,0,1,2.92,0Z"/><path class="cls-1" d="M126.85,215.88q0-15.85,0-31.7a28.22,28.22,0,0,1,0-2.91,5.9,5.9,0,0,1,11.72-.14,19.7,19.7,0,0,1,0,2.55V248.9a24.06,24.06,0,0,1,0,2.55c-.26,2.33-2.41,5.31-5.61,5.16s-5.6-1.84-6.08-5a20.11,20.11,0,0,1-.06-2.91Q126.85,232.28,126.85,215.88Z"/><path class="cls-1" d="M331.54,199.16c-.35,1.15-.59,2.35-1.05,3.46Q319.87,228.33,309.2,254c-1.26,3-3.89,4.79-6.42,4.48A5.65,5.65,0,0,1,298,251c.85-2.77,2.13-5.41,3.23-8.1q9.29-22.53,18.56-45.07c1.06-2.57,2.7-4.34,5.66-4.32A5.61,5.61,0,0,1,330.9,197,17.38,17.38,0,0,1,331.54,199.16Z"/><path class="cls-1" d="M245.12,199.85c0-3.12,1.95-5.85,4.23-6.24,2.75-.46,5.43.23,6.66,3.13,2.46,5.81,5,11.59,7.42,17.4q7,16.77,14,33.58a28,28,0,0,1,1.27,3.41,5.16,5.16,0,0,1-2.76,6.4c-3,1.49-5.52,1.07-7.38-1.47a18.65,18.65,0,0,1-2-3.86q-8.58-20.65-17.1-41.33c-1.25-3-2.53-6-3.76-9.07A12.36,12.36,0,0,1,245.12,199.85Z"/><path class="cls-1" d="M250.88,279.87c-.86-.3-2.38-.73-3.82-1.32-8.64-3.55-17.26-7.15-25.89-10.71-7.74-3.19-15.49-6.34-23.23-9.52a18.15,18.15,0,0,1-2.64-1.24,5.45,5.45,0,0,1-2.19-7.55,5.28,5.28,0,0,1,7.27-2.78c11.33,4.64,22.64,9.34,34,14,5.94,2.45,11.91,4.83,17.83,7.33a13.06,13.06,0,0,1,3.68,2.24c1.88,1.72,1.59,4,.83,6.09A6,6,0,0,1,250.88,279.87Z"/><path class="cls-1" d="M355.08,92.24c-3.44,0-5.69-2.13-6.18-5.89-.21-1.63.09-3.76-.83-4.73-.77-.82-3-.25-4.55-.37a5.77,5.77,0,0,1-5.59-5.66c-.12-2.42,2.31-5.33,5.07-6a9.25,9.25,0,0,1,2.17-.14c3.34,0,3.84.33,3.74-3.49a9.61,9.61,0,0,1,.48-2.84,6,6,0,0,1,6.15-4.62c3,.31,4.93,2.69,5.14,6.09.09,1.53-.16,3.48.67,4.45.65.77,2.73.25,4.16.44,1.81.23,3.63.57,4.85,2.15a5.91,5.91,0,0,1,.88,6.18,5.64,5.64,0,0,1-4.85,3.38,33.51,33.51,0,0,1-4,0c-1.25,0-1.73.57-1.71,1.77a31.39,31.39,0,0,1-.05,4A5.67,5.67,0,0,1,355.08,92.24Z"/><path class="cls-1" d="M300.4,152.78a5.77,5.77,0,0,1-5.59-5.23,29.77,29.77,0,0,1-.06-4c0-1.24-.58-1.68-1.77-1.74a25.36,25.36,0,0,1-5-.5c-3.08-.8-4.45-3.06-4.16-6.32a5.74,5.74,0,0,1,5.08-4.9,25.43,25.43,0,0,1,4-.06c1.44.06,1.95-.63,1.88-2-.05-.85,0-1.7,0-2.55.11-3.94,2.15-6.35,5.43-6.44,3.6-.09,5.93,2.14,6.34,6.1,0,.12,0,.24,0,.36.18,1.4-.13,3.35.67,4.06s2.74.39,4.18.44c2.35.08,4.28.88,5.34,3.11,1.85,3.91-.75,8.18-5.24,8.67-1.53.17-3.47-.15-4.47.67-.78.65-.34,2.71-.55,4.13C306,150.2,303.41,152.77,300.4,152.78Z"/><path class="cls-1" d="M154.35,282.65a5.72,5.72,0,0,1,5.54,5.21c.09,1.45-.07,2.93.12,4.36a2,2,0,0,0,1.3,1.31,31.25,31.25,0,0,0,3.63.1c3.47.19,6.3,2.81,6.33,5.84s-2.79,5.68-6.23,5.95c-1.64.13-3.77-.15-4.76.75-.82.75-.29,3-.36,4.54-.16,3.45-2.48,5.73-5.76,5.67a5.49,5.49,0,0,1-5.45-5.6,38,38,0,0,0-.11-4,2,2,0,0,0-1.31-1.28,33.75,33.75,0,0,0-3.64-.1c-3.7-.21-6-2.47-5.93-5.94s2.29-5.61,6-5.85c1.54-.09,3.65.25,4.44-.6s.42-2.95.49-4.51A5.79,5.79,0,0,1,154.35,282.65Z"/><path class="cls-1" d="M197,75.53a10.24,10.24,0,0,1-3,5.39c-3.45,3.41-6.88,6.86-10.31,10.3-3.78,3.78-7.54,7.59-11.37,11.32a15.94,15.94,0,0,1-3.44,2.63c-2.46,1.34-4.52.89-6.54-1.17s-2.32-3.89-1.07-6.26a13.41,13.41,0,0,1,2.35-3.2q10.91-11,21.91-21.91a19.76,19.76,0,0,1,3.19-2.38C191.79,68.23,196.62,71.44,197,75.53Z"/><path class="cls-1" d="M219.51,315.18c-.19-2.52,1.31-4,3.45-5,3.32-1.48,6.68-2.89,10-4.28,5.48-2.28,11-4.57,16.49-6.76a5.32,5.32,0,0,1,7.29,2.8c1.46,2.93.54,5.9-2.58,7.67a45.51,45.51,0,0,1-5,2.18c-7.17,3-14.33,6-21.51,8.9C223.33,322.52,219.51,319.93,219.51,315.18Z"/><path class="cls-1" d="M113.46,199c-.86,2.25-1.85,5-2.94,7.68-1.83,4.5-3.73,9-5.61,13.45-.94,2.25-3.8,4.25-5.91,4.16s-4.46-2.14-5.36-4.43c-.72-1.82.16-3.34.74-4.89,1.08-2.84,2.29-5.62,3.46-8.42q1.95-4.71,4-9.4a14.39,14.39,0,0,1,1.33-2.59c1.41-2,3.91-2.59,6.5-1.6A5.51,5.51,0,0,1,113.46,199Z"/><path class="cls-1" d="M99.28,45.33a4.79,4.79,0,0,1,4.08,3.21c1.31,3.12,2.65,6.23,3.94,9.36,1.52,3.69,3.11,7.36,4.48,11.11,1.24,3.39,0,6.14-3.11,7.41s-6.29,0-7.71-3.37c-2.56-6-5-12-7.55-18.09a14.11,14.11,0,0,1-.86-2.77C91.9,48.42,94.69,45.24,99.28,45.33Z"/><path class="cls-1" d="M50.89,175.44c-3.42.06-5.82-1.79-6.47-4.51a5.58,5.58,0,0,1,3.24-6.56c6.69-2.82,13.37-5.67,20.13-8.29a7.53,7.53,0,0,1,4.53,0c2.29.71,3.37,2.68,3.53,5a4.89,4.89,0,0,1-3.08,5.25c-4,1.73-8,3.46-12,5.17-2.56,1.08-5.14,2.13-7.72,3.16C52.17,175.08,51.24,175.32,50.89,175.44Z"/><path class="cls-1" d="M75.19,108.27c0,4.37-3.76,7.33-7.58,5.83-6.86-2.68-13.69-5.48-20.4-8.52-4.47-2-4.77-7-.88-10a4.42,4.42,0,0,1,4.72-.76c4.13,1.72,8.31,3.31,12.45,5q3.87,1.56,7.7,3.21C73.57,104.08,75.39,105.54,75.19,108.27Z"/><path class="cls-1" d="M173.37,50.65c-.56,1.58-1.05,3.17-1.68,4.72q-3.51,8.55-7.11,17.06a5.56,5.56,0,0,1-5.93,3.81c-3.69-.21-6.25-3.52-5-7,1.66-4.66,3.61-9.23,5.45-13.82,1-2.36,1.87-4.72,2.92-7a5.65,5.65,0,0,1,7.82-3C172.11,46.38,173.07,47.91,173.37,50.65Z"/><path class="cls-1" d="M174.47,217.43a6.1,6.1,0,0,1-5.08,6,4.84,4.84,0,0,1-5.68-2.85c-1.9-4.07-3.6-8.22-5.36-12.35-1.14-2.68-2.3-5.36-3.32-8.08-1.51-4,.59-7.58,4.65-8.1a5,5,0,0,1,5.64,3c1.84,4,3.51,8,5.21,12q1.65,3.85,3.18,7.75A24.52,24.52,0,0,1,174.47,217.43Z"/><path class="cls-1" d="M222.71,167.89c0,4.71-3.14,7.19-7.55,5.92a71.38,71.38,0,0,1-7.44-2.94c-4.15-1.7-8.25-3.53-12.45-5.1-4.67-1.75-5.15-7.31-1.49-10.22a4.62,4.62,0,0,1,5.07-.91c3.68,1.58,7.42,3,11.12,4.53,3.25,1.34,6.48,2.74,9.72,4.11C221.83,164.19,223,165.72,222.71,167.89Z"/><path class="cls-1" d="M216.13,93.49c3.12,0,5,1.24,5.86,3.65,1.09,2.89.84,4.24-1.34,6.17A10.53,10.53,0,0,1,217.9,105c-5.69,2.42-11.41,4.77-17.13,7.12a20.72,20.72,0,0,1-2.73,1,5.38,5.38,0,0,1-6.32-3.05,5.49,5.49,0,0,1,1.44-7.18,7.22,7.22,0,0,1,1.58-.89q9.22-3.87,18.47-7.68A24.62,24.62,0,0,1,216.13,93.49Z"/><path class="cls-1" d="M293.43,223.34c0,2.67.07,5.34,0,8-.11,3.78-2.34,6.11-5.76,6.16s-6-2.35-6-6.28c-.08-5.58,0-11.17-.05-16.75a6.54,6.54,0,0,1,1.94-4.91,5.42,5.42,0,0,1,9.14,1.88,12.44,12.44,0,0,1,.7,3.89c.1,2.67,0,5.34,0,8Z"/><path class="cls-1" d="M355.24,282.63c2.79,0,5.58,0,8.36,0,4.06.08,5.83,1.84,5.87,5.73,0,3.52-2.11,5.85-5.77,6-2.54.13-5.08,0-7.63,0-3.27,0-6.54.06-9.81,0a6,6,0,0,1-6.12-5.87c0-3.43,2.3-5.78,6-5.89,3-.1,6,0,9.08,0Z"/><path class="cls-1" d="M294.94,356c0,2.91.05,5.82,0,8.73-.08,3.73-2.06,5.83-5.47,5.95a5.85,5.85,0,0,1-6.25-5.72c-.17-5.94-.25-11.89,0-17.82.21-4.93,5.3-7.66,9.1-5.15a5.63,5.63,0,0,1,2.61,4.92c0,3,0,6.06,0,9.09Z"/><path class="cls-1" d="M221.41,295.94c-2.91,0-5.82.06-8.73,0a5.51,5.51,0,0,1-5.52-4.72c-.41-3.39,1.06-5.74,4.2-6.61a11.5,11.5,0,0,1,2.85-.43c5.09,0,10.18,0,15.27,0a6.79,6.79,0,0,1,4.68,1.62c2.17,1.83,2.86,3.78,2.13,6.06a5.68,5.68,0,0,1-5.43,4.09c-3.15.11-6.3,0-9.45,0Z"/><path class="cls-1" d="M346.83,235.58a4.5,4.5,0,0,1-1.53,3.72c-4.31,4.26-8.53,8.62-12.88,12.84-2.48,2.41-5.41,2.4-7.77.25-2.58-2.34-3-5.49-.55-8,4.32-4.58,8.82-9,13.34-13.41a4.89,4.89,0,0,1,6-1C345.87,231.13,346.87,232.68,346.83,235.58Z"/><path class="cls-1" d="M330.12,323.45a13.12,13.12,0,0,1,3.29,1.83q6.82,6.54,13.41,13.34c2.19,2.26,1.88,5.35-.52,7.74-2.23,2.22-5.1,2.45-7.47.4-1.65-1.42-3.13-3-4.68-4.58-3-3-6-6-9-9-1.77-1.81-1.57-4-.71-6.09S327.19,323.79,330.12,323.45Z"/><path class="cls-1" d="M252.61,248.81c.31,2.87-1.14,4.49-3.36,5.63-2.42,1.25-4.5.49-6.28-1.25-4.41-4.33-8.79-8.68-13.12-13.1a5.31,5.31,0,0,1-.78-6.64,5.82,5.82,0,0,1,7.3-2.29,8,8,0,0,1,2.37,1.62c4.15,4.08,8.25,8.21,12.38,12.3A4.16,4.16,0,0,1,252.61,248.81Z"/><path class="cls-1" d="M248.16,324.58a5.92,5.92,0,0,1,5.13,3.35,5.11,5.11,0,0,1-.38,5.83,9.73,9.73,0,0,1-1.21,1.36c-4,4.05-8,8.13-12.12,12.14-2.61,2.57-5.46,2.65-8,.37a5.53,5.53,0,0,1-.33-8.14c4.33-4.61,8.84-9.06,13.41-13.43C245.48,325.23,247,325.05,248.16,324.58Z"/><path class="cls-1" d="M221.59,51.27a15.27,15.27,0,0,1-1.87,3.79c-2.15,2.47-4.54,4.75-6.92,7a5.7,5.7,0,0,1-6.07,1.34c-2.41-.81-3.25-2.88-3.77-5-.48-1.93.66-3.61,1.85-4.95a86.56,86.56,0,0,1,6.69-6.72,6.1,6.1,0,0,1,6.82-.93C220.52,46.72,221.09,48.7,221.59,51.27Z"/><path class="cls-1" d="M208.83,324.61c.06,2.37-.75,4.25-3.07,5.24-1.78.75-3.53,1.59-5.35,2.24a5.67,5.67,0,0,1-7.42-3.36c-1.21-3-.18-5.7,2.88-7.21a42.72,42.72,0,0,1,5.69-2.33C205.58,317.89,208.77,320.32,208.83,324.61Z"/></svg>