<svg id="Component_1_1" data-name="Component 1 – 1" xmlns="http://www.w3.org/2000/svg" width="3643.19" height="3213.594" viewBox="0 0 3643.19 3213.594">
  <ellipse id="Ellipse_2" data-name="Ellipse 2" cx="906.304" cy="826.41" rx="906.304" ry="826.41" transform="translate(1739.904 1430.196)" fill="#ecf3fe"/>
  <ellipse id="Ellipse_3" data-name="Ellipse 3" cx="1550.413" cy="1440.239" rx="1550.413" ry="1440.239" transform="translate(0 192.946)" fill="#ecf3fe"/>
  <ellipse id="Ellipse_4" data-name="Ellipse 4" cx="1517.842" cy="94.467" rx="1517.842" ry="94.467" transform="translate(411.27 2946.297)" fill="#d7e4f9"/>
  <g id="Group_17" data-name="Group 17" transform="translate(-877.01 -397.406)">
    <path id="Path_43" data-name="Path 43" d="M2821.041,3181.934,1574.917,3414.318c-38.871,10.936-57.809-28.968-51.444-60.773a4390.375,4390.375,0,0,0-46.462-1986.672c-7.765-32.085,8.678-74.118,48.474-69.4l1252.778,52.581c36.572.825,74.672,29.186,84.633,64.4a3746.906,3746.906,0,0,1,39.579,1692.35C2893.887,3143.193,2857.868,3175.646,2821.041,3181.934Z" fill="#003889" opacity="0.16" style="mix-blend-mode: multiply;isolation: isolate"/>
    <path id="Path_44" data-name="Path 44" d="M2938.389,3271.823,1579.363,3446.061c-42.619,9.414-60.606-34.812-51.783-68.742a4745.511,4745.511,0,0,0,71.884-2146.768c-6.409-35.1,13.918-79.451,56.574-71.916l1348.7,133.689c39.416,3.138,78.79,36.084,87.377,74.7a4050.006,4050.006,0,0,1-61.236,1828.727C3019.379,3234.49,2978.517,3267.3,2938.389,3271.823Z" fill="#3b82f4"/>
    <path id="Path_45" data-name="Path 45" d="M2899.8,3205.256l-1203.452,160.42c-37.741,8.667-53.668-32.051-45.855-63.29a4537.688,4537.688,0,0,0,63.655-1976.511c-5.675-32.317,12.324-73.15,50.1-66.212l1194.311,123.086c34.9,2.889,69.77,33.222,77.374,68.775a3872.654,3872.654,0,0,1-54.225,1683.694C2971.523,3170.885,2935.339,3201.092,2899.8,3205.256Z" fill="#003889" opacity="0.23" style="mix-blend-mode: multiply;isolation: isolate"/>
    <g id="Group_16" data-name="Group 16">
      <g id="Group_15" data-name="Group 15">
        <path id="Path_46" data-name="Path 46" d="M3376.546,3220.819q-713.179,103.825-1426.359,207.649c-19.582,2.851-38.49-12.232-42.115-33.705a8344,8344,0,0,1-73.256-2183.995c2.179-21.667,20.033-37.983,39.763-36.451q718.533,55.8,1437.067,111.6c19.729,1.533,34.138,17.731,32.284,36.189a7125.97,7125.97,0,0,0,62.4,1860.44C3409.419,3200.841,3396.129,3217.969,3376.546,3220.819Z" fill="#fff"/>
        <path id="Path_47" data-name="Path 47" d="M3122.6,1808.89l-884.391-15.249c-18.855-.325-33.806-16.843-33.123-36.706h0c.685-19.862,16.752-35.732,35.6-35.268l884.166,21.755c18.85.464,33.694,15.515,33.076,33.45h0C3157.315,1794.806,3141.455,1809.215,3122.6,1808.89Z" fill="#e4ecf9"/>
        <path id="Path_48" data-name="Path 48" d="M3119.894,1939.85l-884.657-2.234c-18.861-.048-34.116-16.341-33.8-36.209h0c.319-19.866,16.094-35.968,34.953-35.782l884.554,8.742c18.859.187,33.979,15.016,33.69,32.954h0C3154.349,1925.259,3138.755,1939.9,3119.894,1939.85Z" fill="#e4ecf9"/>
        <path id="Path_49" data-name="Path 49" d="M2040.374,1949.484c-.818,0-1.633-.009-2.453-.029-28.644-.69-56.233-13.492-77.685-36.046-22.773-23.943-35.369-55.583-34.558-86.807,1.651-63.478,56.587-119.124,117.582-119.124h.075c27.952.021,54.935,11.933,75.977,33.542,23.2,23.827,36.563,57.21,35.736,89.3h0c-.764,29.6-13.3,59.6-34.391,82.293C2098.5,1936.453,2070.077,1949.484,2040.374,1949.484Zm2.885-190.428c-33.02,0-65.1,33.465-66.02,68.885-.451,17.374,7.163,36.037,20.369,49.92,11.945,12.559,26.7,19.673,41.557,20.031q.593.014,1.183.014c34.65,0,62.308-36.721,63.138-68.916.477-18.478-7.421-37.913-21.126-51.987-11.26-11.563-25.133-17.937-39.064-17.947Z" fill="#e4ecf9"/>
        <path id="Path_50" data-name="Path 50" d="M3120.865,2164.64,2236.3,2184.747c-18.858.429-34.624-15.469-34.931-35.332h0c-.307-19.862,14.957-36.352,33.818-36.642l884.663-13.6c18.86-.291,34.446,14.147,34.723,32.082h0C3154.853,2149.188,3139.722,2164.211,3120.865,2164.64Z" fill="#e4ecf9"/>
        <path id="Path_51" data-name="Path 51" d="M3124.691,2295.53l-884.183,33.116c-18.849.706-34.907-14.956-35.578-34.809h0c-.672-19.853,14.29-36.563,33.144-37.13l884.4-26.613c18.854-.568,34.705,13.637,35.312,31.563h0C3158.4,2279.582,3143.542,2294.824,3124.691,2295.53Z" fill="#e4ecf9"/>
        <path id="Path_52" data-name="Path 52" d="M2042.164,2348.378c-29.236,0-58.64-13.036-80.891-35.916-21.917-22.537-34.906-52.439-35.637-82.036s10.748-60.122,31.491-83.763c21.412-24.4,50.719-39.051,80.408-40.19,27.925-1.057,55.44,9.727,77.469,30.41,24.258,22.773,39.212,55.5,40,87.546h0c.791,32.039-12.505,65.494-35.567,89.491-20.944,21.794-47.864,34.027-75.8,34.447C2043.148,2348.375,2042.655,2348.378,2042.164,2348.378Zm-.869-190.4q-.891,0-1.781.035c-32.9,1.262-63.187,35.835-62.315,71.138.864,35,32.31,67.648,64.931,67.649.245,0,.489,0,.734-.006,14.067-.211,28.055-6.822,39.388-18.615,13.729-14.285,21.651-33.9,21.192-52.478h0c-.457-18.542-9.333-37.688-23.743-51.217C2068.317,2163.8,2054.744,2157.979,2041.3,2157.979Z" fill="#e4ecf9"/>
        <path id="Path_53" data-name="Path 53" d="M3136.856,2519.982l-882.973,55.423c-18.824,1.181-35.371-14.067-36.667-33.891h0c-1.3-19.823,13.136-36.9,31.969-37.944l883.4-48.929c18.834-1.043,35.128,12.752,36.3,30.652h0C3170.052,2503.193,3155.681,2518.8,3136.856,2519.982Z" fill="#e4ecf9"/>
        <path id="Path_54" data-name="Path 54" d="M3147.2,2650.548l-881.945,68.4c-18.8,1.459-35.628-13.542-37.289-33.342h0c-1.66-19.8,12.458-37.086,31.273-38.406l882.488-61.913c18.814-1.32,35.362,12.232,36.861,30.111h0C3180.089,2633.275,3166,2649.09,3147.2,2650.548Z" fill="#e4ecf9"/>
        <path id="Path_55" data-name="Path 55" d="M2063.864,2746.667c-27.944,0-56.3-11.714-78.549-32.62-22.938-21.552-37.372-50.834-39.6-80.337-2.23-29.533,7.742-60.538,27.358-85.064,20.26-25.333,48.891-41.183,78.552-43.487,27.832-2.165,55.808,7.493,78.762,27.185,25.279,21.686,41.808,53.712,44.215,85.666h0c2.41,31.99-9.257,66.01-31.207,91-19.918,22.677-46.26,36-74.171,37.511Q2066.55,2746.666,2063.864,2746.667Zm-4.595-190.226q-1.83,0-3.649.142c-32.706,2.54-61.122,38.135-58.472,73.244,2.665,35.3,36.316,66.978,69.286,65.193,13.95-.757,27.52-7.876,38.211-20.048,12.991-14.789,19.917-34.636,18.527-53.088h0c-1.4-18.593-11.257-37.432-26.366-50.394C2085.4,2561.707,2072.2,2556.441,2059.269,2556.441Z" fill="#e4ecf9"/>
        <path id="Path_56" data-name="Path 56" d="M3170.557,2874.225l-879.622,90.628c-18.753,1.932-36.05-12.635-38.335-32.382h0c-2.287-19.746,11.285-37.379,30.054-39.173l880.371-84.16c18.769-1.794,35.74,11.333,37.8,29.163h0C3202.892,2856.131,3189.31,2872.293,3170.557,2874.225Z" fill="#e4ecf9"/>
        <path id="Path_57" data-name="Path 57" d="M3187.419,3004.211l-877.947,103.547c-18.715,2.208-36.282-12.1-38.93-31.81h0c-2.649-19.709,10.6-37.537,29.332-39.607l878.814-97.091c18.736-2.069,35.949,10.8,38.341,28.6h0C3219.421,2985.646,3206.136,3002,3187.419,3004.211Z" fill="#e4ecf9"/>
        <path id="Path_58" data-name="Path 58" d="M2105.261,3143.581c-57.308,0-111.8-48.242-119.36-107.91-3.934-31.033,5.49-63.757,25.853-89.779,19.155-24.477,45.373-39.793,73.826-43.128,30.378-3.57,60.891,6.715,85.921,28.936,23.182,20.58,38.606,49.229,42.318,78.6,4.031,31.893-5.986,66.427-26.8,92.377-18.838,23.492-44.534,37.863-72.354,40.467C2111.531,3143.438,2108.389,3143.581,2105.261,3143.581Zm-7.95-189.925a49.4,49.4,0,0,0-5.726.334c-14.679,1.721-28.6,10.134-39.212,23.688-11.765,15.035-17.486,34.29-15.3,51.507,4.469,35.264,39.836,65.683,72.793,62.6,13.788-1.29,26.9-8.884,36.922-21.38,12.247-15.273,18.177-35.327,15.863-53.643C2158.777,2986.141,2130.034,2953.656,2097.311,2953.656Z" fill="#e4ecf9"/>
        <path id="Path_59" data-name="Path 59" d="M2064.719,2671.246,2049,2654.724c-12.215-12.843-18.131-19.1-30.147-31.861l33.384-31.423c5.7,6.059,10.027,10.644,14.308,15.17,35.24-32.981,71.925-66.742,109.289-100.58l30.776,33.985c-43.073,39.005-85.226,77.9-125.289,115.6Z" fill="#f4b545"/>
        <path id="Path_60" data-name="Path 60" d="M2040.61,1876.743l-14.167-17.924c-10.931-13.832-16.2-20.535-26.849-34.158l36.121-28.235c4.993,6.388,8.8,11.245,12.563,16.039,43.192-33.787,82.221-63.889,118.835-91.655l27.7,36.53c-41.427,31.418-85.99,65.861-136.234,105.3Z" fill="#f4b545"/>
        <path id="Path_61" data-name="Path 61" d="M2106.87,3070.793l-16.441-15.776c-12.869-12.35-19.1-18.357-31.729-30.606l31.916-32.914c6.046,5.862,10.616,10.286,15.157,14.668,33.552-34.348,68.491-69.517,104.1-104.781l32.261,32.576c-41.067,40.671-81.235,81.209-119.388,120.488Z" fill="#f4b545"/>
        <g id="Group_14" data-name="Group 14">
          <path id="Path_62" data-name="Path 62" d="M2339.553,1382.439c-1.315,15.818-1.953,23.729-3.188,39.553l-47.531-2.652q-6.105,80.61-10.9,161.3l-45.614-1.787q4.826-81.083,10.956-162.051l-47.814-2.668c1.253-16.053,1.9-24.079,3.234-40.128Z" fill="#3b82f4"/>
          <path id="Path_63" data-name="Path 63" d="M2416.779,1589.133q-38.822-1.509-58.286-32.59-19.4-31.146-16.429-74.261,3.077-43.777,26.972-71.816,23.82-27.972,63.623-25.513,40.173,2.42,58.1,34.428,18,31.949,15.18,71.461-3,42.748-25.815,71.242Q2457.236,1590.639,2416.779,1589.133Zm12.529-166.329c-28.561-3.615-38.523,39.621-40.152,62.4-1.587,22.182,2.12,66.893,31.137,66.073,28.3-.8,36.674-36.952,38.5-62.479C2460.584,1463.645,2457.286,1426.345,2429.308,1422.8Z" fill="#3b82f4"/>
          <path id="Path_64" data-name="Path 64" d="M2614.81,1398.924l58.57,3.508q35.813,2.145,52.553,13.11,16.746,10.947,28.975,33.108,12.25,22.149,9.923,54.739-2.88,41.026-28.825,67.527-26.012,26.572-68.727,24.972l-66.109-2.59Q2606.971,1496.022,2614.81,1398.924Zm41.273,38.2q-4.626,60.711-8.531,121.464l18.539.8q24.579,1.059,37.683-16.821,13.126-17.855,14.848-42.6a76.639,76.639,0,0,0-4.466-32.654q-5.694-15.214-15.324-21.773t-23.808-7.355Z" fill="#3b82f4"/>
          <path id="Path_65" data-name="Path 65" d="M2860.117,1606.359q-38.821-1.509-58.366-31.2-19.485-29.758-16.65-70.9,2.936-41.773,26.721-68.471,23.715-26.634,63.514-24.174,40.17,2.418,58.214,33,18.109,30.519,15.426,68.189-2.86,40.758-25.6,67.884Q2900.58,1607.865,2860.117,1606.359Zm12.008-158.649c-23.576-1.326-37.057,18.479-39.931,59.437-2.881,41.053,7.735,62.094,31.334,63.1,22.849.978,35.447-18.867,38.3-59.516C2904.685,1469.994,2894.953,1448.994,2872.125,1447.71Z" fill="#3b82f4"/>
        </g>
      </g>
    </g>
    <path id="Path_66" data-name="Path 66" d="M2753.179,1128.353l-104.271-11.707C2619.566,1029.6,2526.3,955.372,2436.9,942.824c-84.776-11.9-141.313,53.823-128.293,135.613l-104.271-11.707c-14.24-1.6-22.814,8.918-19.249,23.507q24.953,103.654,45.624,208.176c2.857,14.705,16.567,27.623,30.723,28.837l545.6,46.8c14.157,1.214,23.538-8.994,20.858-22.786q-19.449-98.107-42.793-195.256C2781.753,1142.328,2767.421,1129.952,2753.179,1128.353Z" fill="#f4b545"/>
  </g>
  <path id="Path_67" data-name="Path 67" d="M3998.5,3438.347c-.757-19.688-85.3-151.3-93.42-156.229s-24.419,13.876-24.419,13.876.564.889,1.592,2.505c-13.479,1.8-36.675,5.409-62.357,9.783-5.034.858-9.882,1.56-14.43,2.057l22.332-65.7-60.538-6.321-49.891-5.192s32.509-19.072,60.243-46.151c89.062,67.172,83.692,2.051,80.425-17.567a51.892,51.892,0,0,0-1.055-5.585,1138.821,1138.821,0,0,1-25.377-118.9c25.471-35.383,89.2-124.548,100.17-146.11,11.281-22.2-19.481-49.877-30.9-59.107,2.7-3.24,4.177-5.168,4.177-5.168l-40.635-44.734a70.919,70.919,0,0,0,7.394-15.547c31.06-89.876-105.14-158.677-99.191-228.462s5.442-131.023-134.434-165.731c0,0-34.781,14.181-24.452,50.522-25.32,11.87-47,41.523-52.754,75.538-6.816,40.33,11.177,72.549,40.8,75.7l1.912,15.866,7.5,62.133c-37.282,1.91-116.186,9.319-219.172,37.668l.553,1.488-33.056,1.224,72.679-209.475s29.37-42.21,22.282-59.623c-7.069-17.388-14.432-20.177-14.432-20.177s12.457-49.583-1.009-49.624c-13.462-.065-10.552,36.439-14.546,39.7-4,3.288-37.754.976-33.358,34.323,4.375,33.323,14.312,30.124,7.779,46.536s-123.483,254.447-123.483,254.447-23.757,55.207,28.268,51.385c21.579-1.606,47.863-4.182,71.2-6.634,18.537-1.947,35.245-3.834,46.308-5.11l19.628,52.772a730.4,730.4,0,0,0,102.985-14.421c-3.371,29.279-2.43,69.705,16.451,110.345.519,1.118,1.042,2.208,1.585,3.322a127.567,127.567,0,0,1,11.443,38.01c-68.457-57.834-203.827-156.553-258.88-86.028-75.172,96.288-240.04,345.33-240.04,345.33h0a26.185,26.185,0,0,0,1.028,16.375c-3.287,5.17-6.861,10.648-10.68,16.3-28.095,41.6-69.38,92.633-106.4,99.239-56.064,9.987-72.4,18.327-76.691,25.311-1.842.024-3.254.03-4.126.013-15.3-.291-36.495,13.945-19.733,22.246s191.143,1.311,201.556-2.85,7.751-25.469,7.751-25.469l-5.814.211c10.931-20.9,34.842-70.844,56.133-105.352,15.5,4.337,36.343,7.332,64.388,7.831l0-.01.005.009s167.2-277.688,182.549-283.313c9.078-3.308,58.792,67.478,97.934,126.006q1.518,2.262,3.006,4.494c-113.686,49.562-234.94,111.7-253.008,157.753-35.189,89.631,302.279,116.486,573.143,85.259l.716-2.106a345.3,345.3,0,0,1,39.613-2.994c33.57-.484,69.532,12.13,88.272,32.371,33.532,36.237,47.76,42.548,55.425,40.438.851,1.428,1.493,2.533,1.874,3.23C3977.987,3452.529,3999.258,3458.033,3998.5,3438.347Zm-172.313-533.524c2.786-1.57,5.527-3.233,8.233-4.951l6.208,21.8s-8.29,9.8-17.285,20.273A294.7,294.7,0,0,1,3826.188,2904.823Z" transform="translate(-877.01 -397.406)" fill="#003889" opacity="0.16" style="mix-blend-mode: multiply;isolation: isolate"/>
  <g id="Group_18" data-name="Group 18" transform="translate(-877.01 -397.406)">
    <path id="Path_68" data-name="Path 68" d="M2948.292,3223s-6.94,54.4,125.131,56.742l1.133-35.68-106.387-34.769Z" fill="#072542"/>
    <path id="Path_69" data-name="Path 69" d="M2780.01,3400.354s179.435-1.435,184.438-7.791c3.977-5.054,25.746-95.373,46.7-137.475,5.544-11.187,11.052-18.952,16.141-20.84l-58.684-34.906a567.131,567.131,0,0,1-23.207,58.086c-20.338,43.824-52.471,97.582-90,104.54-64.624,11.963-75.629,21.683-75.757,29.608C2779.536,3399.5,2780.01,3400.354,2780.01,3400.354Z" fill="#fdc8aa"/>
    <path id="Path_70" data-name="Path 70" d="M2974.246,3382.248s-182.169,6.7-198.349,6.4-35.342,14.69-15.837,23.434,201.647,1.381,211.69-3S2974.246,3382.248,2974.246,3382.248Z" fill="#15315e"/>
    <path id="Path_71" data-name="Path 71" d="M2945.4,3257.428c24.355-11.416,49.6-7.365,65.75-2.34,5.544-11.187,11.052-18.952,16.141-20.84l-58.684-34.906A567.131,567.131,0,0,1,2945.4,3257.428Z" fill="#fbb188"/>
    <path id="Path_72" data-name="Path 72" d="M2948.287,3223.007s76.464-1.919,125.145,56.732c0,0,114.328-292.523,129.247-298.449,8.827-3.483,76.951,71.084,131.21,132.739,36.217,41.1,66.276,76.471,68.494,79.076a1.409,1.409,0,0,0,.136.148l88.086-3.721-2.937-25.716-18.321-159.823-1.756-15.4s-285.56-230.765-343.3-129.36C3066.537,2960.661,2948.287,3223.007,2948.287,3223.007Z" fill="#15315e"/>
    <path id="Path_73" data-name="Path 73" d="M3333.889,3114.029c36.217,41.1,66.276,76.471,68.494,79.076.388.034.775.071,1.162.1,25.566,2.623,44.081,3.9,44.081,3.9l7.3-6.069,32.739-27.223-18.321-159.823-39.558-13.114S3412.681,3066.167,3333.889,3114.029Z" fill="#072542"/>
    <path id="Path_74" data-name="Path 74" d="M3702.534,3377.253a358.328,358.328,0,0,1,68.19-7.869c35.255-.51,75.946,12.778,100.192,34.1,49.309,43.383,63.758,46.054,70.057,41.254,6.293-4.822,6.678-5.721,6.678-5.721s-111.99-140.2-120.106-140.188c-5.181-.016-37.763,4.958-75.432,11.613-21.234,3.752-39.807,4.767-46.8-1.393Z" fill="#fdc8aa"/>
    <path id="Path_75" data-name="Path 75" d="M3813.388,3297.5s117.847,139.077,127.6,151.987,33.389,18.708,28.21-2.031-123.526-159.387-133.179-164.574S3813.388,3297.5,3813.388,3297.5Z" fill="#15315e"/>
    <path id="Path_76" data-name="Path 76" d="M3702.534,3377.253a358.328,358.328,0,0,1,68.19-7.869c-6.425-20.6-14.238-45.5-18.611-58.942-21.234,3.752-39.807,4.767-46.8-1.393Z" fill="#fbb188"/>
    <path id="Path_77" data-name="Path 77" d="M3698,3048.356s72.349-140.744,80.838-169.257c8.463-28.513-50.724-65.608-50.724-65.608l-57.518,54.777.422.859,16.89,34.048s-26.4,41.586-31,47.051C3652.306,2955.718,3698,3048.356,3698,3048.356Z" fill="#fdc8aa"/>
    <path id="Path_78" data-name="Path 78" d="M3671.019,2869.127l16.89,34.048,32.877-76.93Z" fill="#fbb188"/>
    <path id="Path_79" data-name="Path 79" d="M3092.474,2762.044c22.376-1.69,49.49-4.405,73.524-6.987,33.915-3.644,61.8-7.084,61.8-7.084l-19.467-57.879-7.673-22.792-9.5.351-17.3.653-42.049,1.57,29.942-220.665s21.545-44.465,10.2-62.808c-11.316-18.317-19.694-21.255-19.694-21.255s2.088-52.233-12.107-52.276c-14.2-.068-3.006,38.387-6.487,41.825-3.479,3.464-39.553,1.028-27.5,36.157,12.025,35.1,21.782,31.732,18.553,49.021s-73.452,268.039-73.452,268.039S3038.52,2766.071,3092.474,2762.044Z" fill="#fdc8aa"/>
    <path id="Path_80" data-name="Path 80" d="M3166,2755.057c33.915-3.644,61.8-7.084,61.8-7.084l-19.467-57.879c-6.259-8.2-12.163-15.89-17.171-22.441l-17.3.653C3171.756,2691.717,3168.3,2729.735,3166,2755.057Z" fill="#fbb188"/>
    <path id="Path_81" data-name="Path 81" d="M3759.161,3158.671s49.534,109.809-84.92,19.808,37.778-74.181,37.778-74.181Z" fill="#e59d29"/>
    <path id="Path_82" data-name="Path 82" d="M3729.375,3374.756l16.9-131.355-65.179-6.658-53.711-5.471s38.057-25.468,61.574-59.785c14.12-20.6,22.99-44.372,15.267-67.727-7.7-23.33-32.8-39.292-61.126-50.1-47.3-18.109-103.722-21.921-103.722-21.921s-22.824,8.728-58,23.3c-23.8,9.851-53.255,22.382-85.124,36.712-121.976,54.828-279.229,135.854-289.612,193.193C3089.519,3379.361,3450.991,3407.651,3729.375,3374.756Z" fill="#1f3a6f"/>
    <path id="Path_83" data-name="Path 83" d="M3433.357,3075.372c2.292,15.923,6.73,27.871,16.979,33.711a.666.666,0,0,0,.106.073c1.949,1.693,34.7,28.412,120.191,27.681,72.842-.608,108.243,18.158,118.324,34.65,8.889-12.975,15.693-27.2,17.6-41.8a58.056,58.056,0,0,0-2.329-25.923c-7.7-23.33-32.8-39.292-61.126-50.1l-161.722,1.38C3467.15,3060.936,3450.905,3067.766,3433.357,3075.372Z" fill="#072542"/>
    <path id="Path_84" data-name="Path 84" d="M3654.55,2738.3l81.83,73.088s-34.747,62.615-85.767,83.686l-90.42-120.236Z" fill="#e59d29"/>
    <path id="Path_85" data-name="Path 85" d="M3393.228,2906.313c.795,1.177,1.59,2.326,2.41,3.5,40.113,57.263,31.77,124.544,37.719,165.56,2.292,15.923,6.73,27.871,16.979,33.711a.666.666,0,0,0,.106.073,26.7,26.7,0,0,0,5.031,2.231c35.433,11.615,162.522-15.324,251.08,18.3,21.061,7.981,39.926,19.37,54.853,35.531,1.05,1.113-1.7-5.561-2.376-6.946-19.3-39.937-91.185-195.055-90.53-287.262.8-106.48-72.2-147.391-72.2-147.391l-202.18,4.142-42.343,15.931a147.534,147.534,0,0,0-1.5,19.862A249.005,249.005,0,0,0,3393.228,2906.313Z" fill="#f4b545"/>
    <path id="Path_86" data-name="Path 86" d="M3393.228,2906.313c-6.423-47.346-8.356-89.458,3.3-97.227,28.758-19.213,49.806-53.528,49.806-53.528l-96.057,7.992A249.005,249.005,0,0,0,3393.228,2906.313Z" fill="#e59d29"/>
    <path id="Path_87" data-name="Path 87" d="M3412.723,2626.661s-103.015-1.808-247.283,40.358l80.623,138.246s133.107-7.382,194.389-49.562Z" fill="#f4b545"/>
    <path id="Path_88" data-name="Path 88" d="M3354.012,2525.119l12.2,36.767,26.455,79.695,103.465-18.871-24.152-36.134-53.411-79.92Z" fill="#fdc8aa"/>
    <path id="Path_89" data-name="Path 89" d="M3354.012,2525.119l12.2,36.767a129.947,129.947,0,0,0,93.022,27.285,53.809,53.809,0,0,0,12.746-2.595l-53.411-79.92Z" fill="#fbb188"/>
    <ellipse id="Ellipse_5" data-name="Ellipse 5" cx="63.62" cy="82.739" rx="63.62" ry="82.739" transform="translate(3297.347 2382.766) rotate(-2.419)" fill="#fdc8aa"/>
    <path id="Path_90" data-name="Path 90" d="M3365.344,3301.734s237.518-3.885,315.75-64.991l-53.711-5.471S3462.433,3287.735,3365.344,3301.734Z" fill="#072542"/>
    <path id="Path_91" data-name="Path 91" d="M3354.114,2332.638s-37.134,16.525-11.127,59.418,40.232,25.575,38.877,55.986,34.385-8.711,33.523,12.551-30.809,30.885-30.809,30.885,37.447,147.108-32.7,215.177,145.319,66.007,164.332,37.05,159.023,98.862,171.741,4.184-146.072-167.155-155.335-240.668S3509.187,2369.2,3354.114,2332.638Z" fill="#1f3a6f"/>
  </g>
  <g id="Group_19" data-name="Group 19" transform="translate(-877.01 -397.406)">
    <path id="Path_92" data-name="Path 92" d="M2119.661,3349.4v.008c-33.441,5.235-59.5,47.081-59.5,97.938,0,50.262,25.455,91.7,58.329,97.719v.028l301,64.331,2.336-324.6Z" fill="#f4b545"/>
    <ellipse id="Ellipse_6" data-name="Ellipse 6" cx="110.624" cy="163.653" rx="110.624" ry="163.653" transform="translate(2324.25 3283.694)" fill="#e59d29"/>
  </g>
  <g id="Group_22" data-name="Group 22" transform="translate(-877.01 -397.406)">
    <g id="Group_20" data-name="Group 20" opacity="0.16" style="mix-blend-mode: multiply;isolation: isolate">
      <path id="Path_93" data-name="Path 93" d="M3310.161,1557.359c310.22,65.38,626.038,101.432,933.551,179.894q21.756-83.327,43.506-166.656c-307.509-78.472-623.332-114.514-933.55-179.9q-87.84,20.979-176.167,39.565Q3242.93,1494.786,3310.161,1557.359Z" fill="#003889"/>
    </g>
    <g id="Group_21" data-name="Group 21">
      <path id="Path_94" data-name="Path 94" d="M3320.823,1545.333c314.767,37.848,632.532,45.989,945.753,97.107q14.344-84.916,28.683-169.836c-313.218-51.128-630.987-59.259-945.753-97.111q-85.655,28.621-172.005,54.9Q3248.349,1488.914,3320.823,1545.333Z" fill="#f4b545"/>
    </g>
    <path id="Path_95" data-name="Path 95" d="M3908.253,1576.262c-17.7,0-30.2-4.541-37.676-13.6-11.206-13.58-8.126-34.563-5.65-51.423,1.729-11.777,3.517-23.955-1.088-26.659-5.427-3.191-17.46,8.033-30.192,19.919-20.567,19.2-48.6,45.361-82.486,45.364-.656,0-1.308-.01-1.969-.03-27.1-.811-52.923-17.834-70.156-37.3a127.107,127.107,0,0,1-13.306,8.359c-29.291,15.887-65.292,19.2-83.174,13.217-6.521-2.181-10.834-5.492-12.82-9.84-3.7-8.1,1.9-16.905,6.392-23.978a49.618,49.618,0,0,0,4.012-7.069c-3.709.82-12.783,6.315-19.6,10.446-23.8,14.416-59.778,36.2-89.838,22.523-15-6.823-28.692-19.257-38.464-34.249-20.017,15.744-44.311,23.86-63.968,28.041l-1.616-7.6c19-4.04,42.524-11.9,61.561-27.17a94.468,94.468,0,0,1-7.43-17.5c-4.618-15.034-4.047-28.42,1.611-37.693,6.175-10.121,18.527-15.942,28.03-17.221,6.656-.9,12.157.338,15.485,3.473,12.295,11.582-7.408,45.066-9.7,48.847A97.855,97.855,0,0,1,3438.3,1486.8c8.32,13.041,20.5,25.439,35.616,32.313,26.332,11.974,60.193-8.528,82.6-22.1,15.767-9.548,25.284-15.313,30.161-9.134,3.622,4.591-.075,10.408-3.99,16.566-3.489,5.489-7.83,12.32-5.882,16.587,1.041,2.279,3.883,4.249,8.218,5.7,16.313,5.455,49.575,2.2,77.007-12.678a118.3,118.3,0,0,0,12.031-7.528q-2.509-3.225-4.677-6.469c-10.518-15.727-14.32-30.641-10.429-40.918,4.9-12.951,22.474-20.713,37.713-22.661,5.956-.761,20.423-1.676,26.042,6.259,2.345,3.31,2.866,7.853,1.552,13.5-3.259,14-18.542,35.178-38.982,51.555,15.865,17.612,39.789,33.54,64.149,34.269,31.6.941,57.83-23.559,78.922-43.248,16.833-15.714,28.992-27.063,39.425-20.939,9.116,5.353,7.134,18.853,4.839,34.484-2.37,16.139-5.055,34.431,3.956,45.352,11.157,13.521,45.715,20.933,146.98-20.538l2.943,7.187C3974.5,1565.653,3935.3,1576.26,3908.253,1576.262Zm-204.2-132.508a50.582,50.582,0,0,0-6.4.431c-12.915,1.65-27.859,8.263-31.434,17.707-2.946,7.783.65,20.438,9.621,33.85q2.031,3.036,4.433,6.1c19.043-15.222,33.525-34.912,36.424-47.365.768-3.3.653-5.872-.325-7.251C3715.047,1445.363,3710.78,1443.754,3704.05,1443.754Zm-249.566-23.472a22.69,22.69,0,0,0-3.028.212c-7.429,1-17.617,5.671-22.434,13.568-4.484,7.348-4.774,18.488-.818,31.367a84.234,84.234,0,0,0,6.084,14.492,89.724,89.724,0,0,0,15.278-18.826c9.222-15.241,15.849-34.619,11.015-39.173C3459.451,1420.858,3457.232,1420.282,3454.484,1420.282Z" fill="#15315e"/>
  </g>
  <g id="Group_25" data-name="Group 25" transform="translate(-877.01 -397.406)">
    <g id="Group_23" data-name="Group 23" opacity="0.16" style="mix-blend-mode: multiply;isolation: isolate">
      <path id="Path_96" data-name="Path 96" d="M3192.548,1217.749c317.007-4.146,633.056-38.134,950.287-28.923q2.977-86.067,5.952-172.138c-317.232-9.221-633.281,24.777-950.287,28.92q-81.112,39.706-163.225,77.185Q3113.245,1171.42,3192.548,1217.749Z" fill="#003889"/>
    </g>
    <g id="Group_24" data-name="Group 24">
      <path id="Path_97" data-name="Path 97" d="M3182.63,1195.812c315.456-31.595,627.371-92.837,944.207-111.145q-4.489-86-8.984-172.006c-316.837,18.3-628.752,79.55-944.208,111.141q-77.367,46.586-155.924,91.036Q3099.61,1156.527,3182.63,1195.812Z" fill="#3b82f4"/>
    </g>
    <path id="Path_98" data-name="Path 98" d="M3298.488,1150.307l-3.125-7.111c17.781-7.813,39.222-20.285,54.76-39.105a94.331,94.331,0,0,1-10.828-15.625c-7.575-13.782-9.733-27.006-6.077-37.234,3.99-11.165,14.9-19.373,23.946-22.554,6.338-2.231,11.973-2.139,15.87.255,14.389,8.843,1.9,45.632.426,49.8a97.861,97.861,0,0,1-13.137,24.872c10.795,11.079,25.242,20.744,41.436,24.406,28.228,6.378,57.209-20.575,76.391-38.411,13.5-12.552,21.651-20.128,27.676-15.069,4.48,3.76,2.041,10.206-.541,17.031-2.3,6.083-5.165,13.653-2.391,17.436,1.481,2.02,4.664,3.372,9.2,3.912,17.075,2.025,48.987-7.91,72.829-28.053a118.517,118.517,0,0,0,10.251-9.813q-3.111-2.65-5.9-5.387c-13.492-13.262-20.242-27.093-18.519-37.946,2.171-13.676,17.8-24.845,32.324-29.848,5.679-1.956,19.657-5.788,26.771.84,2.968,2.765,4.4,7.108,4.261,12.906-.348,14.366-11.011,38.21-27.7,58.4,19.11,14.024,45.774,24.761,69.771,20.529,31.115-5.488,51.84-34.812,68.494-58.374,13.289-18.8,22.883-32.392,34.352-28.51,10.013,3.39,10.814,17.011,11.741,32.782.957,16.284,2.042,34.741,13.084,43.6,13.671,10.972,49.012,11.212,139.745-49.959l4.342,6.44c-56.55,38.125-97.843,57.006-124.97,57.008-9.84,0-17.812-2.483-23.978-7.432-13.731-11.022-14.976-32.193-15.976-49.2-.7-11.883-1.42-24.17-6.478-25.882-5.973-2.019-15.466,11.411-25.521,25.636-16.552,23.421-39.222,55.5-73.485,61.54-26.7,4.71-55.444-6.717-76.271-22.279a127.232,127.232,0,0,1-11.332,10.887c-23.222,19.621-54.043,30.122-73.488,30.124a44.8,44.8,0,0,1-5.269-.292c-6.827-.811-11.723-3.177-14.549-7.031-5.268-7.181-1.577-16.937,1.389-24.776a49.586,49.586,0,0,0,2.491-7.737c-3.464,1.556-11.233,8.779-17.073,14.21-20.38,18.948-51.183,47.58-83.393,40.3-16.075-3.634-32-13.029-44.617-25.725C3339.025,1129.341,3316.886,1142.221,3298.488,1150.307Zm67.259-115.472a18.693,18.693,0,0,0-6.006,1.169c-7.07,2.487-16.1,9.132-19.211,17.842-2.9,8.106-.919,19.072,5.572,30.879a84.261,84.261,0,0,0,8.9,12.955,89.756,89.756,0,0,0,11.137-21.536c5.933-16.8,8.487-37.118,2.83-40.594A6.239,6.239,0,0,0,3365.747,1034.835Zm252.464-28.079a39.787,39.787,0,0,0-12.6,2.449c-12.309,4.239-25.6,13.748-27.182,23.721-1.3,8.22,4.787,19.879,16.294,31.19q2.6,2.561,5.581,5.077c15.552-18.772,25.737-40.994,26.047-53.775.082-3.384-.554-5.882-1.791-7.035C3623.51,1007.4,3621.329,1006.756,3618.211,1006.756Z" fill="#15315e"/>
  </g>
  <g id="Group_29" data-name="Group 29" transform="translate(-877.01 -397.406)">
    <g id="Group_26" data-name="Group 26" opacity="0.16" style="mix-blend-mode: multiply;isolation: isolate">
      <path id="Path_99" data-name="Path 99" d="M1495.274,2857.162q-283.473,31.917-566.946,63.818c7.826-228.1,51.658-449.194,133.031-662.487q198.556,56.979,397.112,113.961C1444.408,2536.352,1456.077,2697.33,1495.274,2857.162Z" fill="#003889"/>
    </g>
    <g id="Group_27" data-name="Group 27">
      <path id="Path_100" data-name="Path 100" d="M1548.691,2814.4q-279.813,55.5-559.627,110.984c-11.268-227.958,13.93-451.94,77.189-671.289q202.625,40.182,405.248,80.369C1471.188,2498.961,1496.271,2658.4,1548.691,2814.4Z" fill="#fff"/>
    </g>
    <path id="Path_101" data-name="Path 101" d="M1317.595,2399.485c14.189-14.621,16.64-35.258,5.475-46.094-8.3-8.052-21.775-8.413-33.977-2.076l-40.7-17.3a1.867,1.867,0,0,0-2.342,2.66l21.829,37.376c-5.153,11.928-4.131,24.582,3.807,32.285C1282.851,2417.173,1303.405,2414.1,1317.595,2399.485Z" fill="#003889" opacity="0.16" style="mix-blend-mode: multiply;isolation: isolate"/>
    <g id="Group_28" data-name="Group 28">
      <path id="Path_102" data-name="Path 102" d="M1293.739,2262.085l-54.685,75.015a2.321,2.321,0,0,0,2.563,3.584l95.642-29.647Z" fill="#3b82f4"/>
      <ellipse id="Ellipse_7" data-name="Ellipse 7" cx="35.028" cy="45.867" rx="35.028" ry="45.867" transform="matrix(0.841, -0.542, 0.542, 0.841, 1254.064, 2271.069)" fill="#c4d7f2"/>
    </g>
    <path id="Path_103" data-name="Path 103" d="M1359.521,2468.63a51.888,51.888,0,0,1-15.362-2.262c-13.508-4.16-20.681-12.642-27.01-20.125-5.959-7.047-11.105-13.132-20.635-14.985-15.373-2.987-29.812,7.415-42.548,16.594-11.76,8.476-22.869,16.479-32.629,10.991-8.7-4.9-9.392-16.742-10-27.2-.423-7.274-.9-15.518-4.3-16.916-3.673-1.508-10.624,5.122-17.986,12.144-6.762,6.449-14.427,13.76-23.84,19.608-25.448,15.81-60.11,17.89-103.024,6.181l2.045-7.492c40.745,11.117,73.34,9.341,96.88-5.286,8.731-5.425,16.088-12.442,22.579-18.631,10.037-9.571,17.965-17.131,26.3-13.707,7.916,3.254,8.52,13.622,9.1,23.648.517,8.88,1.051,18.062,6.055,20.876,5.436,3.058,14.169-3.235,24.28-10.522,13.32-9.6,29.9-21.547,48.571-17.916,12.214,2.374,18.756,10.111,25.084,17.593,5.915,6.995,12.032,14.227,23.365,17.718,15.46,4.762,33.98.625,55.045-12.3l4.06,6.622C1388.884,2463.494,1373.467,2468.629,1359.521,2468.63Z" fill="#15315e"/>
    <path id="Path_104" data-name="Path 104" d="M1250.684,2623c-8.465,0-15.8-1.991-20.213-7.356-7.485-9.095-3.083-23.376.454-34.85.891-2.89,2.012-6.526,2.47-8.973a124.437,124.437,0,0,0-9.293,10.006c-12.656,14.552-31.782,36.542-56.96,38.329-16.221,1.147-34.941-6.184-48.85-19.147a67.018,67.018,0,0,1-7.363-8.039c-21.66,12.42-45.87,20.682-57.257,24.206l-2.3-7.42c8.5-2.629,30.511-9.958,51.338-21.205q1.9-1.024,3.837-2.128a42.714,42.714,0,0,1-5.964-21.149c.008-17.519,12.416-34.167,23.941-42.219,6.841-4.781,13.227-6.451,17.979-4.716,11,4.021,10.444,23.825,10.414,24.666-.632,18.4-16.244,33.854-35.29,45.928a59.818,59.818,0,0,0,5.956,6.394c12.2,11.366,29.078,18.07,43.005,17.083,21.975-1.561,39.833-22.093,51.65-35.68,8.982-10.327,14.4-16.559,20.041-13.1,5.1,3.131,2.875,10.332.064,19.449-2.83,9.184-6.708,21.76-1.879,27.627,8.312,10.1,41.553,1.832,68.609-11.071,38.454-18.339,64.342-46.463,79.811-63.267,11.138-12.1,16.223-17.623,21.335-14.256,5.074,3.341,2.059,10.6-3.415,23.776-6.548,15.76-16.442,39.577-7.6,51.2,5.256,6.907,16.943,9.476,34.735,7.637l.8,7.725c-20.67,2.138-34.7-1.448-41.715-10.659-11.552-15.181-1.058-40.44,6.6-58.883,1.544-3.717,3.319-7.99,4.4-11.192-2.588,2.47-6.049,6.23-9.437,9.911-15.849,17.217-42.373,46.032-82.182,65.016C1303.857,2608.829,1273.259,2623,1250.684,2623Zm-112.169-97.565c-2.005,0-5.289,1.017-9.538,3.986-10.244,7.157-20.617,21.772-20.623,35.857a34.917,34.917,0,0,0,4.856,17.152c16-10.106,31.406-23.89,31.95-39.693.243-7.081-1.881-15.846-5.32-17.1A3.9,3.9,0,0,0,1138.515,2525.44Z" fill="#15315e"/>
    <path id="Path_105" data-name="Path 105" d="M1184.331,2812.867a19.28,19.28,0,0,1-9.569-2.492c-17.473-9.668-15.255-38.918-13.11-67.206,1.586-20.909,3.226-42.53-4.885-46.636-3.233-1.638-11.6-1.842-31.308,15.177-20.237,17.478-47.922,49.232-82.287,94.382l-6.18-4.7c85.788-112.713,111.447-117.779,123.282-111.785,12.741,6.449,11.064,28.555,9.122,54.153-1.868,24.639-3.986,52.567,9.126,59.822,8.9,4.918,21.763-2.813,49.964-19.754,15.685-9.423,35.206-21.148,61.521-35.282,37.439-20.108,64.845-32.341,83.782-37.4,16.1-4.3,23.442-2.677,28.976-.284,16.87,7.3,25.744,23.476,33.574,37.748,8.122,14.807,15.136,27.594,28.784,29.272,8.484,1.043,17.747-2.382,27.522-10.184l4.845,6.071c-11.469,9.153-22.679,13.13-33.315,11.822-17.6-2.164-26.263-17.965-34.646-33.245-7.582-13.822-15.422-28.115-29.848-34.355-6.028-2.611-20.146-8.718-106,37.4-26.15,14.046-45.582,25.719-61.2,35.1C1208.986,2804.6,1195.22,2812.867,1184.331,2812.867Z" fill="#15315e"/>
  </g>
  <g id="Group_33" data-name="Group 33" transform="translate(-877.01 -397.406)">
    <g id="Group_30" data-name="Group 30" opacity="0.16" style="mix-blend-mode: multiply;isolation: isolate">
      <path id="Path_106" data-name="Path 106" d="M1626.989,2116.412q-217.1,24.442-434.2,48.875c5.993-174.692,39.562-344.015,101.881-507.366q152.064,43.636,304.129,87.277C1588.034,1870.72,1596.97,1994,1626.989,2116.412Z" fill="#003889"/>
    </g>
    <g id="Group_31" data-name="Group 31">
      <path id="Path_107" data-name="Path 107" d="M1667.9,2083.66q-214.3,42.5-428.591,85c-8.629-174.581,10.669-346.118,59.116-514.106q155.18,30.774,310.359,61.55C1608.543,1842.084,1627.753,1964.19,1667.9,2083.66Z" fill="#fff"/>
    </g>
    <path id="Path_108" data-name="Path 108" d="M1490.914,1765.9c10.867-11.2,12.743-27,4.193-35.3-6.355-6.167-16.676-6.444-26.021-1.59l-31.172-13.25a1.43,1.43,0,0,0-1.794,2.037l16.718,28.625c-3.946,9.135-3.164,18.825,2.916,24.725C1464.305,1779.446,1480.047,1777.1,1490.914,1765.9Z" fill="#003889" opacity="0.16" style="mix-blend-mode: multiply;isolation: isolate"/>
    <g id="Group_32" data-name="Group 32">
      <path id="Path_109" data-name="Path 109" d="M1472.643,1660.672l-41.88,57.45a1.778,1.778,0,0,0,1.963,2.745l73.247-22.7Z" fill="#3b82f4"/>
      <ellipse id="Ellipse_8" data-name="Ellipse 8" cx="26.826" cy="35.127" rx="26.826" ry="35.127" transform="translate(1442.258 1667.552) rotate(-32.793)" fill="#c4d7f2"/>
    </g>
    <path id="Path_110" data-name="Path 110" d="M1523.024,1818.854a39.771,39.771,0,0,1-11.766-1.731c-10.345-3.187-15.839-9.683-20.685-15.413-4.564-5.4-8.506-10.058-15.8-11.477-11.781-2.293-22.831,5.679-32.585,12.708-9.007,6.492-17.515,12.621-24.989,8.418-6.665-3.749-7.193-12.822-7.659-20.827-.324-5.571-.692-11.885-3.3-12.955-2.809-1.156-8.135,3.923-13.774,9.3-5.179,4.939-11.049,10.538-18.258,15.017-19.488,12.109-46.035,13.7-78.9,4.734l1.566-5.738c31.206,8.515,56.169,7.153,74.2-4.048,6.687-4.156,12.322-9.528,17.292-14.27,7.687-7.33,13.761-13.119,20.141-10.5,6.063,2.492,6.525,10.432,6.972,18.111.4,6.8.805,13.833,4.637,15.988,4.164,2.343,10.851-2.478,18.6-8.059,10.2-7.352,22.9-16.5,37.2-13.721,9.354,1.818,14.365,7.744,19.211,13.474,4.531,5.356,9.215,10.9,17.9,13.569,11.839,3.647,26.024.479,42.155-9.417l3.11,5.07C1545.511,1814.921,1533.7,1818.854,1523.024,1818.854Z" fill="#15315e"/>
    <path id="Path_111" data-name="Path 111" d="M1439.669,1937.082c-6.483,0-12.1-1.525-15.479-5.632-5.733-6.966-2.361-17.9.348-26.691.682-2.214,1.541-5,1.891-6.872a95.094,95.094,0,0,0-7.116,7.663c-9.693,11.145-24.341,27.986-43.624,29.355-12.416.883-26.758-4.737-37.412-14.664a51.331,51.331,0,0,1-5.639-6.158c-16.588,9.512-35.129,15.841-43.85,18.539l-1.758-5.682c14.181-4.388,29.448-10.548,42.243-17.891a32.71,32.71,0,0,1-4.555-16.176c.007-13.418,9.51-26.167,18.336-32.334,5.239-3.66,10.13-4.941,13.769-3.611,8.422,3.08,8,18.246,7.975,18.89-.484,14.091-12.441,25.928-27.027,35.174a45.778,45.778,0,0,0,4.562,4.9c9.34,8.7,22.27,13.836,32.935,13.082,16.83-1.2,30.506-16.92,39.556-27.325,6.879-7.91,11.032-12.684,15.348-10.031,3.9,2.4,2.2,7.913.05,14.9-2.168,7.033-5.137,16.665-1.44,21.159,6.364,7.733,31.823,1.4,52.545-8.479,29.449-14.045,49.277-35.584,61.123-48.453,8.53-9.267,12.423-13.494,16.34-10.918,3.886,2.559,1.577,8.118-2.616,18.209-5.014,12.07-12.592,30.309-5.818,39.212,4.027,5.291,12.977,7.258,26.6,5.849l.612,5.916c-15.83,1.64-26.578-1.108-31.947-8.163-8.847-11.626-.81-30.971,5.058-45.1,1.183-2.846,2.543-6.119,3.372-8.571-1.982,1.892-4.632,4.771-7.227,7.591-12.137,13.185-32.451,35.253-62.939,49.793C1480.393,1926.226,1456.958,1937.081,1439.669,1937.082Zm-85.9-74.72c-1.536,0-4.051.779-7.3,3.053-7.845,5.481-15.79,16.674-15.8,27.462a26.728,26.728,0,0,0,3.7,13.1c14.067-8.933,24.11-19.365,24.488-30.364.187-5.424-1.44-12.136-4.074-13.1A2.987,2.987,0,0,0,1353.766,1862.362Z" fill="#15315e"/>
    <path id="Path_112" data-name="Path 112" d="M1388.854,2082.488a14.752,14.752,0,0,1-7.328-1.908c-13.383-7.4-11.684-29.806-10.041-51.47,1.215-16.012,2.471-32.571-3.742-35.716-6.24-3.158-25.832,3.546-87,83.906l-4.733-3.6c65.7-86.322,85.353-90.2,94.416-85.611,9.757,4.94,8.473,21.87,6.986,41.473-1.431,18.871-3.053,40.259,6.989,45.815,6.809,3.769,16.666-2.153,38.264-15.128,12.013-7.216,26.963-16.2,47.117-27.021,68.286-36.677,80.041-31.588,86.355-28.858,12.92,5.589,19.716,17.979,25.713,28.909,6.22,11.339,11.592,21.132,22.044,22.417,6.505.806,13.593-1.824,21.078-7.8l3.71,4.648c-8.783,7.009-17.367,10.055-25.514,9.055-13.476-1.659-20.113-13.759-26.533-25.461-5.807-10.585-11.811-21.532-22.86-26.311-4.617-1.995-15.43-6.674-81.179,28.639-20.028,10.757-34.91,19.7-46.869,26.88C1407.735,2076.156,1397.193,2082.488,1388.854,2082.488Z" fill="#15315e"/>
  </g>
  <g id="Group_37" data-name="Group 37" transform="translate(-877.01 -397.406)">
    <g id="Group_34" data-name="Group 34" opacity="0.16" style="mix-blend-mode: multiply;isolation: isolate">
      <path id="Path_113" data-name="Path 113" d="M1385.659,1776.9q-154.7,57.035-309.4,114.061c-27.087-129.106-33-259.248-16.761-390.192q119.306,4.578,238.613,9.159C1312.836,1603.861,1341.6,1692.6,1385.659,1776.9Z" fill="#003889"/>
    </g>
    <g id="Group_35" data-name="Group 35">
      <path id="Path_114" data-name="Path 114" d="M1409.739,1745.527q-149.391,69.766-298.785,139.524c-37.784-126.39-54.552-255.582-49.318-387.426q119.273-5.409,238.545-10.818C1322.707,1579.179,1358.789,1665.206,1409.739,1745.527Z" fill="#fff"/>
    </g>
    <path id="Path_115" data-name="Path 115" d="M1222.771,1544.543c5.947-10.165,4.474-22.085-3.288-26.627-5.768-3.374-13.382-1.717-19.356,3.524l-25.233-4.093a1.079,1.079,0,0,0-.947,1.816l17.41,17.966c-1.246,7.405,1.074,14.367,6.592,17.595C1205.712,1559.265,1216.825,1554.707,1222.771,1544.543Z" fill="#003889" opacity="0.16" style="mix-blend-mode: multiply;isolation: isolate"/>
    <g id="Group_36" data-name="Group 36">
      <path id="Path_116" data-name="Path 116" d="M1190.42,1470.717l-20.341,49.65a1.342,1.342,0,0,0,1.934,1.658l49.589-29.839Z" fill="#3b82f4"/>
      <ellipse id="Ellipse_9" data-name="Ellipse 9" cx="20.246" cy="26.51" rx="20.246" ry="26.51" transform="matrix(0.687, -0.727, 0.727, 0.687, 1169.391, 1481.235)" fill="#c4d7f2"/>
    </g>
    <path id="Path_117" data-name="Path 117" d="M1090.508,1609.688c-1.236,0-2.484-.016-3.752-.048l.114-4.488c24.414.628,42.454-4.879,53.647-16.337,4.151-4.25,7.313-9.2,10.1-13.573,4.313-6.758,7.726-12.09,12.869-11.323,4.893.734,6.662,6.47,8.373,12.017,1.516,4.913,3.083,9.993,6.28,10.882,3.478.974,7.506-3.772,12.175-9.257,6.152-7.226,13.807-16.219,24.789-16.759,7.192-.362,11.923,3.087,16.507,6.413,4.285,3.109,8.717,6.325,15.559,6.72,9.33.544,19.159-4.338,29.2-14.5l3.193,3.155c-10.985,11.118-21.962,16.448-32.649,15.825-8.156-.472-13.353-4.242-17.937-7.569-4.318-3.132-8.047-5.838-13.651-5.562-9.042.444-15.709,8.275-21.591,15.185-5.431,6.38-10.56,12.405-16.8,10.672-5.56-1.547-7.582-8.1-9.366-13.884-1.241-4.024-2.649-8.585-4.75-8.9-2.277-.335-5.256,4.342-8.419,9.3-2.905,4.553-6.2,9.714-10.674,14.3C1132.224,1603.728,1114.329,1609.688,1090.508,1609.688Z" fill="#15315e"/>
    <path id="Path_118" data-name="Path 118" d="M1104.683,1703.152l-2.313-3.848a162.75,162.75,0,0,0,27.735-20.724,24.676,24.676,0,0,1-6.252-11.033c-2.414-9.836,2.253-20.891,7.61-27,3.18-3.626,6.529-5.445,9.441-5.127,6.727.74,9.149,11.931,9.249,12.407,2.183,10.412-4.446,21.242-13.47,30.647a34.592,34.592,0,0,0,4.225,2.768c8.415,4.7,18.816,6.131,26.5,3.653,12.119-3.908,19.308-17.9,24.066-27.154,3.615-7.035,5.8-11.284,9.44-10.117,3.292,1.054,3.04,5.4,2.72,10.908-.321,5.545-.761,13.139,2.758,15.765,6.056,4.52,23.576-4.706,36.981-15.682,19.051-15.6,29.7-34.958,36.063-46.524,4.582-8.328,6.672-12.128,10.008-10.946,3.31,1.175,2.619,5.665,1.365,13.817-1.5,9.748-3.767,24.481,2.8,29.785,3.9,3.153,10.818,2.982,20.55-.507l1.514,4.225c-11.306,4.053-19.679,3.977-24.884-.226-8.579-6.926-6.174-22.551-4.419-33.96.354-2.3.76-4.944.926-6.89-1.111,1.744-2.535,4.332-3.929,6.866-6.519,11.85-17.43,31.683-37.153,47.833-2.6,2.126-22.278,17.869-35.569,17.871a11.319,11.319,0,0,1-6.939-2.064c-5.456-4.072-4.956-12.694-4.555-19.623.1-1.745.228-3.94.148-5.377a71.771,71.771,0,0,0-3.835,6.9c-5.1,9.914-12.8,24.9-26.68,29.375-8.947,2.885-20.466,1.35-30.061-4.006a38.722,38.722,0,0,1-5.243-3.5C1123.035,1691.623,1110.588,1699.6,1104.683,1703.152Zm35.556-63.281c-1.06,0-3.035.936-5.4,3.634-4.762,5.43-8.567,15.065-6.627,22.972a20.167,20.167,0,0,0,5.072,8.934c8.7-9.081,14.18-18.536,12.475-26.665-.84-4.008-3.242-8.634-5.346-8.866C1140.358,1639.875,1140.3,1639.871,1140.239,1639.871Z" fill="#15315e"/>
    <path id="Path_119" data-name="Path 119" d="M1124.861,1810.631l-4.118-1.787c32.595-75.1,46.3-81.484,53.768-79.755,8.04,1.861,10.15,14.5,12.593,29.135,2.352,14.087,5.017,30.055,13.377,32.317,5.669,1.531,11.826-4.581,25.316-17.981,7.5-7.454,16.843-16.729,29.663-28.294,43.433-39.181,52.964-37.576,58.086-36.711,10.477,1.768,17.69,9.623,24.054,16.554,6.6,7.189,12.316,13.4,20.2,12.456,4.908-.585,9.632-3.786,14.042-9.514l3.557,2.739c-5.174,6.72-10.916,10.5-17.067,11.233-10.169,1.217-17.22-6.458-24.034-13.878-6.163-6.711-12.536-13.652-21.494-15.163-3.741-.635-12.51-2.112-54.333,35.617-12.739,11.492-22.035,20.726-29.5,28.145-14.751,14.653-21.484,21.345-29.651,19.13-11.143-3.014-13.934-19.738-16.634-35.911-1.995-11.955-4.058-24.315-9.178-25.5C1168.355,1732.274,1155.2,1740.718,1124.861,1810.631Z" fill="#15315e"/>
  </g>
  <g id="Group_41" data-name="Group 41" transform="translate(-877.01 -397.406)">
    <g id="Group_38" data-name="Group 38" opacity="0.16" style="mix-blend-mode: multiply;isolation: isolate">
      <path id="Path_120" data-name="Path 120" d="M3476.21,2194.33q-283.473,31.917-566.945,63.818c7.826-228.1,51.658-449.194,133.03-662.487q198.557,56.979,397.112,113.961C3425.345,1873.52,3437.013,2034.5,3476.21,2194.33Z" fill="#003889"/>
    </g>
    <g id="Group_39" data-name="Group 39">
      <path id="Path_121" data-name="Path 121" d="M3529.627,2151.565q-279.813,55.5-559.627,110.984c-11.267-227.958,13.931-451.94,77.19-671.289q202.623,40.182,405.248,80.369C3452.124,1836.129,3477.207,1995.568,3529.627,2151.565Z" fill="#3b82f4"/>
    </g>
    <path id="Path_122" data-name="Path 122" d="M3298.531,1736.653c14.19-14.621,16.64-35.258,5.475-46.094-8.3-8.052-21.774-8.413-33.976-2.076l-40.7-17.3a1.867,1.867,0,0,0-2.341,2.66l21.828,37.376c-5.152,11.928-4.131,24.582,3.808,32.285C3263.787,1754.341,3284.342,1751.272,3298.531,1736.653Z" fill="#003889" opacity="0.23" style="mix-blend-mode: multiply;isolation: isolate"/>
    <g id="Group_40" data-name="Group 40">
      <path id="Path_123" data-name="Path 123" d="M3274.675,1599.253l-54.684,75.015a2.321,2.321,0,0,0,2.563,3.584L3318.2,1648.2Z" fill="#1f3a6f"/>
      <ellipse id="Ellipse_10" data-name="Ellipse 10" cx="35.028" cy="45.867" rx="35.028" ry="45.867" transform="translate(3235 1608.237) rotate(-32.793)" fill="#1f3a6f"/>
    </g>
    <path id="Path_124" data-name="Path 124" d="M3340.459,1805.8a51.9,51.9,0,0,1-15.364-2.262c-13.507-4.161-20.68-12.642-27.009-20.125-5.959-7.046-11.106-13.132-20.636-14.985-15.38-2.991-29.811,7.415-42.548,16.594-11.759,8.475-22.868,16.482-32.629,10.991-8.7-4.9-9.392-16.743-10-27.2-.423-7.273-.9-15.518-4.3-16.915-3.668-1.511-10.623,5.123-17.986,12.143-6.762,6.45-14.428,13.76-23.841,19.608-25.446,15.811-60.108,17.891-103.024,6.182l2.045-7.492c40.747,11.119,73.342,9.34,96.88-5.286,8.732-5.426,16.09-12.442,22.58-18.632,10.038-9.573,17.965-17.13,26.3-13.706,7.916,3.254,8.519,13.621,9.1,23.647.517,8.88,1.051,18.063,6.055,20.877,5.434,3.055,14.168-3.235,24.281-10.522,13.32-9.6,29.893-21.546,48.571-17.917,12.213,2.375,18.756,10.112,25.084,17.594,5.915,6.994,12.032,14.227,23.365,17.718,15.459,4.762,33.98.625,55.044-12.3l4.06,6.621C3369.821,1800.662,3354.405,1805.8,3340.459,1805.8Z" fill="#15315e"/>
    <path id="Path_125" data-name="Path 125" d="M3231.62,1960.172c-8.465,0-15.8-1.99-20.213-7.355-7.485-9.095-3.083-23.376.454-34.85.892-2.89,2.012-6.526,2.47-8.973a124.623,124.623,0,0,0-9.293,10.006c-12.655,14.552-31.781,36.542-56.959,38.33-16.224,1.159-34.942-6.185-48.851-19.148a67.017,67.017,0,0,1-7.363-8.04c-21.66,12.42-45.87,20.683-57.258,24.206l-2.294-7.42c8.5-2.629,30.51-9.958,51.338-21.2q1.9-1.024,3.836-2.127a42.714,42.714,0,0,1-5.964-21.148c.008-17.522,12.417-34.169,23.943-42.222,6.841-4.779,13.224-6.451,17.978-4.714,11,4.023,10.443,23.825,10.413,24.666-.632,18.4-16.244,33.854-35.291,45.927a59.97,59.97,0,0,0,5.956,6.4c12.2,11.366,29.086,18.074,43.006,17.083,21.976-1.56,39.833-22.093,51.651-35.68,8.982-10.328,14.406-16.561,20.04-13.1,5.1,3.131,2.876,10.333.064,19.45-2.831,9.183-6.708,21.76-1.88,27.627,8.311,10.1,41.553,1.833,68.61-11.072,38.454-18.339,64.342-46.462,79.811-63.266,11.139-12.1,16.227-17.623,21.335-14.255,5.075,3.34,2.06,10.6-3.415,23.776-6.547,15.759-16.442,39.576-7.6,51.2,5.259,6.908,16.941,9.477,34.736,7.637l.8,7.725c-20.665,2.138-34.7-1.447-41.714-10.659-11.552-15.18-1.058-40.44,6.6-58.883,1.544-3.716,3.32-7.991,4.4-11.192-2.588,2.471-6.049,6.23-9.438,9.911-15.848,17.217-42.373,46.031-82.182,65.016C3284.794,1946,3254.2,1960.171,3231.62,1960.172Zm-112.168-97.565c-2.006,0-5.289,1.018-9.538,3.986-10.244,7.157-20.617,21.772-20.625,35.858a34.934,34.934,0,0,0,4.858,17.153c16-10.107,31.406-23.892,31.949-39.694.245-7.081-1.879-15.846-5.32-17.1A3.884,3.884,0,0,0,3119.452,1862.607Z" fill="#15315e"/>
    <path id="Path_126" data-name="Path 126" d="M3165.268,2150.035a19.258,19.258,0,0,1-9.569-2.493c-17.474-9.667-15.256-38.918-13.11-67.206,1.586-20.908,3.226-42.529-4.886-46.635-3.232-1.638-11.6-1.842-31.307,15.177-20.238,17.477-47.922,49.232-82.288,94.382l-6.179-4.7c85.785-112.71,111.447-117.78,123.282-111.785,12.74,6.449,11.063,28.555,9.122,54.152-1.869,24.641-3.987,52.568,9.126,59.823,8.888,4.917,21.762-2.813,49.965-19.755,15.684-9.422,35.206-21.147,61.519-35.281,37.44-20.108,64.845-32.341,83.782-37.4,16.1-4.3,23.443-2.677,28.976-.284,16.87,7.3,25.744,23.476,33.573,37.748,8.123,14.807,15.137,27.594,28.785,29.272,8.49,1.045,17.747-2.382,27.523-10.184l4.844,6.07c-11.469,9.154-22.676,13.133-33.315,11.823-17.6-2.164-26.263-17.965-34.645-33.245-7.583-13.822-15.423-28.115-29.849-34.355-6.025-2.608-20.142-8.717-106,37.4-26.149,14.046-45.581,25.718-61.195,35.1C3189.923,2141.766,3176.157,2150.035,3165.268,2150.035Z" fill="#15315e"/>
  </g>
  <circle id="Ellipse_11" data-name="Ellipse 11" cx="232.982" cy="232.982" r="232.982" transform="translate(3177.225 1749.32)" fill="#fff"/>
  <circle id="Ellipse_12" data-name="Ellipse 12" cx="302.733" cy="302.733" r="302.733" transform="translate(734.657)" fill="#fff"/>
  <circle id="Ellipse_13" data-name="Ellipse 13" cx="123.52" cy="123.52" r="123.52" transform="translate(1866.493 128.146)" fill="#c4d7f2"/>
  <circle id="Ellipse_14" data-name="Ellipse 14" cx="85.589" cy="85.589" r="85.589" transform="translate(2850.79 1566.282)" fill="#c4d7f2"/>
  <circle id="Ellipse_15" data-name="Ellipse 15" cx="63.006" cy="63.006" r="63.006" transform="translate(97.092 544.021) rotate(-45)" fill="#f4b545"/>
  <circle id="Ellipse_16" data-name="Ellipse 16" cx="71.157" cy="71.157" r="71.157" transform="translate(381.904 2597.972)" fill="#c4d7f2"/>
</svg>
