<svg id="Layer_1" data-name="Layer 1" xmlns="http://www.w3.org/2000/svg" viewBox="0 0 91.22 87.74"><defs><style>.cls-1{fill:#0036ab;}.cls-2{fill:#d32929;}</style></defs><g id="Group_1137" data-name="Group 1137"><path id="Path_161-2" data-name="Path 161-2" class="cls-1" d="M73.28,43.87A26.09,26.09,0,0,1,48,70H15a2.88,2.88,0,0,0,.3-.39,5.69,5.69,0,0,0,.52-.85,2.56,2.56,0,0,0,.11-.24,6.07,6.07,0,0,0-.62-6,4.08,4.08,0,0,0-.31-.39h32.2a18.21,18.21,0,1,0,0-36.42H23.56a3.94,3.94,0,0,1,0-7.87h24.5A26.1,26.1,0,0,1,73.28,43.87Z"/><circle id="Ellipse_46-2" data-name="Ellipse 46-2" class="cls-2" cx="7.96" cy="66.02" r="3.93"/><path id="Path_372" data-name="Path 372" class="cls-2" d="M37.23,76a3.94,3.94,0,1,1-3.94,3.94A3.93,3.93,0,0,1,37.23,76Z"/><path id="Path_162-2" data-name="Path 162-2" class="cls-1" d="M87.2,43.87a39.9,39.9,0,0,1-3.86,17.18l-.3.61a4,4,0,0,1-7.11-3.49c.09-.18.18-.37.26-.55a32.14,32.14,0,0,0-9.54-39.28l-.73-.54a32,32,0,0,0-18.78-6.06H34.07a4,4,0,0,1-4-3.82,3.93,3.93,0,0,1,3.82-4H47.2a40,40,0,0,1,40,40Z"/><path id="Path_163-2" data-name="Path 163-2" class="cls-1" d="M75.15,70.77A3.92,3.92,0,0,1,74,73.57h0c-.12.1-.23.21-.35.3-.84.75-1.71,1.46-2.62,2.13a39.81,39.81,0,0,1-23.31,7.87H44l.1-.12A6,6,0,0,0,44,76h3.59a32,32,0,0,0,20.89-8.08l.23-.2h0a4,4,0,0,1,6.47,3Z"/></g></svg>