<svg width="61" height="58" viewBox="0 0 61 58" fill="none" xmlns="http://www.w3.org/2000/svg">
<path d="M29.7388 57.9673C29.764 57.9392 29.7876 57.9109 29.8107 57.8828C30.4572 57.0903 30.8039 56.0956 30.7907 55.0732C30.7775 54.0509 30.4055 53.066 29.7388 52.2904H32.3306C37.8954 52.2265 43.2501 50.1587 47.4119 46.467C47.4682 46.418 47.522 46.3682 47.5783 46.3148C48.1445 45.8469 48.8688 45.6146 49.6018 45.6667C50.3348 45.7188 51.0197 46.0518 51.5139 46.5952C52.0081 47.1386 52.2736 47.8507 52.2557 48.5847C52.2377 49.3188 51.9383 50.0176 51.418 50.5362C51.3365 50.6134 51.2521 50.6852 51.1713 50.7603C50.5605 51.2955 49.933 51.8056 49.2803 52.2918C44.4093 55.914 38.5149 57.9014 32.4434 57.9687L29.7388 57.9673ZM22.0282 55.131C22.0279 54.5697 22.1944 54.0212 22.5062 53.5543C22.8181 53.0874 23.2607 52.7225 23.7796 52.5074C24.2985 52.2923 24.8699 52.2362 25.421 52.3454C25.972 52.4546 26.4774 52.725 26.8748 53.1217C27.2722 53.5184 27.5433 54.024 27.6532 54.5744C27.7631 55.1249 27.7071 55.6958 27.4924 56.2145C27.2777 56.7332 26.9145 57.1762 26.4475 57.4882C25.9806 57.8003 25.4314 57.967 24.8696 57.9673C24.1167 57.9675 23.3943 57.669 22.8616 57.1374C22.3289 56.6058 22.029 55.8847 22.0282 55.1324V55.131ZM8.83224 47.9253C8.90949 47.8337 8.98429 47.7395 9.05504 47.6435C9.19659 47.4497 9.32011 47.2439 9.42449 47.0278C9.45698 46.9715 9.48094 46.9108 9.5091 46.8517C9.81604 46.1544 9.93564 45.3887 9.85599 44.6311C9.77635 43.8735 9.50029 43.15 9.05504 42.5317C8.98284 42.4328 8.91094 42.3415 8.83224 42.2499V42.2442H32.0838C35.5701 42.2442 38.9128 40.8609 41.378 38.3977C43.8431 35.9344 45.229 32.593 45.229 29.1095C45.229 25.626 43.8431 22.286 41.378 19.8228C38.9128 17.3595 35.5701 15.9762 32.0838 15.9762H14.9959C14.6191 15.9822 14.2445 15.9118 13.8946 15.7719C13.5447 15.6319 13.2255 15.4245 12.9569 15.1604C12.6882 14.8962 12.475 14.5806 12.3294 14.2332C12.1837 13.8859 12.1094 13.5136 12.1094 13.137C12.1094 12.7604 12.1837 12.3882 12.3294 12.0408C12.475 11.6935 12.6882 11.3779 12.9569 11.1137C13.2255 10.8495 13.5447 10.6422 13.8946 10.5022C14.2445 10.3623 14.6191 10.2933 14.9959 10.2993H32.6803C37.5708 10.4581 42.2067 12.511 45.6083 16.0255C49.0099 19.54 50.9094 24.2401 50.9048 29.1292C50.9002 34.0184 48.9926 38.7136 45.5844 42.2217C42.1762 45.7298 37.5358 47.7743 32.645 47.9239L8.83224 47.9253ZM0.898871 45.0862C0.899157 44.5249 1.06598 43.9761 1.37831 43.5095C1.69065 43.043 2.13396 42.6786 2.65307 42.464C3.17217 42.2495 3.74355 42.1936 4.29445 42.3034C4.84536 42.4132 5.35128 42.6841 5.74829 43.0812C6.14531 43.4783 6.41596 43.9847 6.52527 44.5353C6.63459 45.0858 6.57835 45.6569 6.36311 46.1754C6.14787 46.6938 5.78263 47.1361 5.31539 47.4477C4.84814 47.7593 4.29921 47.9256 3.73745 47.9253C2.98416 47.9253 2.26209 47.6263 1.72944 47.094C1.19678 46.5618 0.897461 45.8403 0.897461 45.0876L0.898871 45.0862ZM52.6138 40.4717C52.614 40.1127 52.6811 39.7581 52.8113 39.4234C52.8777 39.2964 52.9409 39.1617 53.0044 39.0275C55.2734 34.2296 55.8278 28.8005 54.5739 23.644C53.32 18.4874 50.3338 13.9165 46.1146 10.6938L45.5858 10.2993C41.641 7.45361 36.897 5.92458 32.0316 5.93281H22.5965C21.8492 5.9387 21.1285 5.65563 20.5871 5.14095C20.0456 4.62627 19.7245 3.92148 19.693 3.17539C19.6824 2.79565 19.7481 2.41761 19.8862 2.06368C20.0243 1.70976 20.2331 1.38634 20.4982 1.11401C20.7633 0.841691 21.0801 0.624929 21.4303 0.477144C21.7805 0.329359 22.1571 0.253061 22.5373 0.253113H32.0669C36.9407 0.255234 41.7348 1.48952 46.0032 3.84044C50.2715 6.19135 53.8749 9.58267 56.479 13.6992C59.0831 17.8158 60.6031 22.5238 60.8969 27.3849C61.1908 32.246 60.2491 37.1033 58.1599 41.5031C58.0877 41.651 58.0163 41.7905 57.9441 41.9413C57.622 42.4797 57.1321 42.8984 56.5495 43.1319C55.9669 43.3654 55.3229 43.4015 54.7177 43.2348C54.1126 43.068 53.5795 42.7079 53.199 42.209C52.8186 41.7101 52.6128 41.0989 52.6124 40.4717H52.6138Z" fill="url(#paint0_linear_85_100)"/>
<defs>
<linearGradient id="paint0_linear_85_100" x1="9.25214" y1="45.2272" x2="61.1159" y2="6.36143" gradientUnits="userSpaceOnUse">
<stop stop-color="#6172D6"/>
<stop offset="1" stop-color="#4ADEDE"/>
</linearGradient>
</defs>
</svg>
