<svg id="Group_2883" data-name="Group 2883" xmlns="http://www.w3.org/2000/svg" width="91.277" height="85.944" viewBox="0 0 91.277 85.944">
  <path id="Path_1007" data-name="Path 1007" d="M-1043.635,471.154a10.129,10.129,0,0,1,1.7-2.934,7,7,0,0,1,2.93-1.733,5.706,5.706,0,0,1,.865-.133c2.149-.009,4.3,0,6.447,0a9.209,9.209,0,0,0-2.861,1.514,6.386,6.386,0,0,0-2.125,4.98c-.009,8.455.038,16.911-.023,25.366a9.039,9.039,0,0,0,6.356,9.013c.224.062.57.042.6.417a40.24,40.24,0,0,1-6.285-.113c-3.942-.623-6.344-2.984-7.42-6.771-.04-.142-.04-.293-.189-.375Z" transform="translate(1043.635 -421.771)" fill="#d9d9d9"/>
  <path id="Path_1008" data-name="Path 1008" d="M-997.869,507.491c-.035-.375-.381-.355-.6-.417a9.039,9.039,0,0,1-6.356-9.013c.061-8.455.013-16.911.023-25.366a6.387,6.387,0,0,1,2.125-4.98,9.215,9.215,0,0,1,2.86-1.514c3.949,0,7.9-.093,11.847.021a4.648,4.648,0,0,1,4.509,3.531c.356,1.33.505,2.715.764,4.072.475,2.492,2.27,4.465,4.861,4.475q11.715.047,23.43,0a4.8,4.8,0,0,0,4.509-3.418,18.361,18.361,0,0,0,.678-3.373c.316-3.353,2.566-5.427,5.764-5.347,6.106.154,12.219-.178,18.324.181a6.263,6.263,0,0,1,3.856,3.079,7.5,7.5,0,0,1,.765,3.324c.017,8.613.058,17.226-.011,25.838a8.682,8.682,0,0,1-8.118,8.824c-.8.071-1.6.095-2.4.095q-32.877.007-65.754.009c-.119,0-.237-.009-.356-.014-.061-.08-.119-.074-.174.007Z" transform="translate(1011.763 -421.616)" fill="#e1e1e1"/>
  <path id="Path_1009" data-name="Path 1009" d="M-939.922,346.239a7.747,7.747,0,0,1,4.011,5.741,6.023,6.023,0,0,1,.075.879q.006,5.157,0,10.315a4.558,4.558,0,0,0-1.4-.187q-8.643.012-17.287.005a4.84,4.84,0,0,0-5.008,3.7,24.141,24.141,0,0,0-.708,3.642,5.253,5.253,0,0,1-5.406,4.8c-7.485-.054-14.97-.018-22.455-.018a4.912,4.912,0,0,1-5.144-4.1c-.285-1.233-.474-2.489-.7-3.736a5.048,5.048,0,0,0-5.1-4.288q-8.688,0-17.376-.006a4.558,4.558,0,0,0-1.4.187c0-3.023.075-6.049-.023-9.069-.111-3.437,1.1-6.1,4.11-7.866a10.4,10.4,0,0,1,2.541-.716q12.626.015,25.253.015c0,1.188.012,2.376.014,3.564,0,1.494,0,1.494-1.425,1.432-.089,0-.178,0-.267,0q-4.811,0-9.622.006c-.244,0-.539-.124-.73.166.084.314.349.478.554.684q9.95,9.959,19.893,19.924c.551.554.827.567,1.385,0q9.638-9.7,19.321-19.362c.344-.345,1.065-.728.88-1.1-.226-.448-.992-.356-1.545-.322-3.142.191-6.286.118-9.43.147-.589.005-.856-.121-.833-.782.049-1.454.023-2.91.028-4.365,7.677,0,15.354,0,23.03-.023A10.185,10.185,0,0,1-939.922,346.239Z" transform="translate(1022.456 -322.521)" fill="#d9d9d9"/>
  <path id="Path_1010" data-name="Path 1010" d="M-876.318,239.839c0,1.455.021,2.911-.028,4.365-.023.66.245.787.833.782,3.144-.029,6.288.044,9.43-.147.553-.034,1.319-.125,1.545.322.185.367-.536.751-.88,1.1q-9.658,9.683-19.321,19.362c-.558.562-.835.55-1.385,0q-9.924-9.985-19.893-19.924c-.205-.205-.47-.37-.554-.684.191-.291.486-.165.73-.166q4.811-.014,9.622-.006c.089,0,.178,0,.267,0,1.425.062,1.427.062,1.425-1.432,0-1.188-.009-2.376-.014-3.564q0-4.465,0-8.929,0-3.831,0-7.662c0-1.9.022-3.8,0-5.7-.005-.523.131-.73.7-.728q8.412.026,16.823,0c.564,0,.7.205.7.728-.02,1.9,0,3.8,0,5.7q0,3.831,0,7.662Q-876.32,235.375-876.318,239.839Z" transform="translate(931.058 -216.824)" fill="#fff"/>
  <path id="Path_1011" data-name="Path 1011" d="M-1017.719,443.511a4.555,4.555,0,0,1,1.4-.187q8.688.012,17.376.006a5.048,5.048,0,0,1,5.1,4.289c.224,1.247.412,2.5.7,3.736a4.912,4.912,0,0,0,5.144,4.1c7.485,0,14.97-.035,22.455.018a5.253,5.253,0,0,0,5.406-4.8,24.157,24.157,0,0,1,.708-3.642,4.84,4.84,0,0,1,5.008-3.7q8.643,0,17.287-.005a4.555,4.555,0,0,1,1.4.187q0,2.038.006,4.076c-6.106-.359-12.218-.027-18.324-.181-3.2-.081-5.448,1.993-5.764,5.347a18.348,18.348,0,0,1-.678,3.373A4.8,4.8,0,0,1-965,459.544q-11.715.034-23.43,0c-2.591-.01-4.386-1.984-4.861-4.475-.259-1.357-.408-2.742-.764-4.072a4.648,4.648,0,0,0-4.509-3.531c-3.946-.114-7.9-.025-11.846-.021-2.149,0-4.3-.01-6.447,0a5.7,5.7,0,0,0-.866.133Q-1017.723,445.543-1017.719,443.511Z" transform="translate(1022.356 -402.858)" fill="#e9e8e8"/>
  <path id="Path_1012" data-name="Path 1012" d="M-967.123,295.623q0,4.465,0,8.929-12.627-.005-25.253-.015a10.4,10.4,0,0,0-2.541.716c0-1.238-.076-2.483.029-3.713a6.432,6.432,0,0,1,2.929-4.8c.168-.12.359-.2.447-.406a13.4,13.4,0,0,1,5.471-.722C-979.737,295.642-973.43,295.623-967.123,295.623Z" transform="translate(1003.644 -281.536)" fill="#e9e8e8"/>
  <path id="Path_1013" data-name="Path 1013" d="M-737.254,304.328q0-4.465,0-8.929c5.271,0,10.542-.046,15.812.022,2.869.037,5.8-.475,8.581.692a24.732,24.732,0,0,1,2.044,1.9,6.448,6.448,0,0,1,1.36,3.917c-.013,1.032,0,2.063,0,3.1a10.187,10.187,0,0,0-4.764-.725C-721.9,304.329-729.577,304.323-737.254,304.328Z" transform="translate(791.994 -281.313)" fill="#e9e8e8"/>
  <path id="Path_1014" data-name="Path 1014" d="M-951.472,260.447c-6.307,0-12.615.02-18.922-.008a13.405,13.405,0,0,0-5.471.722c.072-1.264-.209-2.546.213-3.794a6.244,6.244,0,0,1,6.363-4.564q8.908-.02,17.815-.017Q-951.473,256.616-951.472,260.447Z" transform="translate(987.993 -246.36)" fill="#d9d9d9"/>
  <path id="Path_1015" data-name="Path 1015" d="M-712.865,261.16c-2.783-1.167-5.711-.655-8.581-.692-5.27-.068-10.541-.021-15.812-.022q0-3.831,0-7.662c5.907.005,11.815,0,17.722.021a6.5,6.5,0,0,1,4.456,1.467A5.672,5.672,0,0,1-713,258.156,29.913,29.913,0,0,1-712.865,261.16Z" transform="translate(791.994 -246.36)" fill="#d9d9d9"/>
  <path id="Path_1016" data-name="Path 1016" d="M-962.818,697.3c.055-.081.113-.087.174-.006l-.086.021Z" transform="translate(977.256 -611.404)" fill="#f8c974"/>
</svg>
