<svg id="Component_2_1" data-name="Component 2 – 1" xmlns="http://www.w3.org/2000/svg" width="356.894" height="356.894" viewBox="0 0 356.894 356.894">
  <circle id="Ellipse_95" data-name="Ellipse 95" cx="178.447" cy="178.447" r="178.447" fill="#f1f1f1"/>
  <text id="Drop_files_here" data-name="Drop files here" transform="translate(84 272.955)" fill="#5a5a5a" font-size="20" font-family="Montserrat-SemiBold, Montserrat" font-weight="600"><tspan x="0" y="0">DROP FILES HERE</tspan></text>
  <g id="Group_2883" data-name="Group 2883" transform="translate(91 78)">
    <path id="Path_1007" data-name="Path 1007" d="M-1043.635,475.493c.986-1.912,1.6-4,3.233-5.584a13.325,13.325,0,0,1,5.576-3.3,10.862,10.862,0,0,1,1.647-.253c4.089-.017,8.179,0,12.268,0a17.533,17.533,0,0,0-5.444,2.881,12.154,12.154,0,0,0-4.043,9.478c-.018,16.091.072,32.183-.043,48.274-.053,7.427,4.191,14.963,12.1,17.152.426.118,1.084.08,1.151.794-3.989,0-8,.411-11.961-.215-7.5-1.186-12.074-5.678-14.12-12.886-.077-.27-.075-.558-.359-.714Z" transform="translate(1043.635 -381.511)" fill="#d9d9d9"/>
    <path id="Path_1008" data-name="Path 1008" d="M-991.583,544.815c-.067-.714-.725-.676-1.151-.794-7.906-2.189-12.15-9.725-12.1-17.152.115-16.091.026-32.182.043-48.274a12.155,12.155,0,0,1,4.043-9.478,17.541,17.541,0,0,1,5.444-2.882c7.515-.007,15.036-.177,22.545.041A8.846,8.846,0,0,1-964.173,473c.677,2.532.962,5.167,1.454,7.749.9,4.742,4.32,8.5,9.251,8.517q22.3.089,44.59,0a9.138,9.138,0,0,0,8.582-6.506,34.948,34.948,0,0,0,1.29-6.419c.6-6.382,4.884-10.329,10.97-10.175,11.621.293,23.254-.338,34.873.345,3.139,1.086,5.815,2.774,7.339,5.86a14.273,14.273,0,0,1,1.456,6.326c.032,16.391.11,32.783-.02,49.173a16.523,16.523,0,0,1-15.449,16.792c-1.525.135-3.041.181-4.564.181q-62.568.012-125.136.018c-.226,0-.452-.018-.677-.027-.116-.152-.226-.141-.332.012Z" transform="translate(1018.024 -381.387)" fill="#e1e1e1"/>
    <path id="Path_1009" data-name="Path 1009" d="M-869.545,346.895a14.743,14.743,0,0,1,7.634,10.927,11.492,11.492,0,0,1,.142,1.673q.012,9.815,0,19.63a8.673,8.673,0,0,0-2.664-.356q-16.449.023-32.9.01c-4.782,0-8.21,2.439-9.531,7.035a45.954,45.954,0,0,0-1.348,6.93,10,10,0,0,1-10.288,9.138c-14.244-.1-28.49-.034-42.735-.035-5.115,0-8.623-2.748-9.79-7.8-.543-2.347-.9-4.737-1.327-7.11a9.608,9.608,0,0,0-9.711-8.161q-16.534-.005-33.068-.011a8.671,8.671,0,0,0-2.664.356c0-5.753.142-11.512-.043-17.259-.211-6.541,2.1-11.61,7.822-14.971,1.625-.4,3.081-1.365,4.836-1.363q24.029.029,48.059.028c.009,2.261.022,4.522.026,6.783,0,2.843,0,2.843-2.711,2.725-.169-.008-.339,0-.509,0q-9.156,0-18.312.011c-.465,0-1.027-.237-1.39.316.16.6.665.91,1.055,1.3q18.936,18.952,37.858,37.917c1.048,1.055,1.574,1.078,2.637.009q18.342-18.466,36.77-36.848c.654-.656,2.027-1.386,1.674-2.086-.429-.852-1.888-.677-2.94-.613-5.979.364-11.964.225-17.946.28-1.12.01-1.629-.231-1.586-1.487.094-2.767.044-5.538.053-8.307,14.61-.009,29.22,0,43.829-.044C-875.5,345.505-872.419,345.457-869.545,346.895Z" transform="translate(1026.616 -301.758)" fill="#d9d9d9"/>
    <path id="Path_1010" data-name="Path 1010" d="M-849,260.625c-.009,2.77.04,5.541-.053,8.307-.043,1.257.466,1.5,1.586,1.487,5.983-.055,11.967.084,17.946-.28,1.052-.064,2.511-.239,2.94.613.353.7-1.02,1.429-1.674,2.086q-18.38,18.428-36.77,36.848c-1.062,1.069-1.589,1.046-2.637-.009q-18.886-19-37.858-37.917c-.39-.391-.9-.7-1.055-1.3.363-.553.925-.315,1.39-.316q9.156-.026,18.312-.011c.17,0,.339-.005.509,0,2.712.118,2.715.118,2.711-2.725,0-2.261-.017-4.522-.026-6.783q0-8.5.007-16.993,0-7.29,0-14.581c.007-3.614.042-7.228,0-10.841-.01-.994.25-1.389,1.323-1.385q16.008.05,32.016,0c1.073,0,1.334.391,1.323,1.385-.038,3.614,0,7.227,0,10.841q0,7.29,0,14.581Q-849,252.128-849,260.625Z" transform="translate(953.173 -216.824)" fill="#fff"/>
    <path id="Path_1011" data-name="Path 1011" d="M-1017.712,443.68a8.672,8.672,0,0,1,2.664-.356q16.534.023,33.068.011a9.608,9.608,0,0,1,9.711,8.161c.426,2.373.785,4.763,1.327,7.11,1.167,5.048,4.675,7.794,9.79,7.8,14.245,0,28.49-.067,42.735.035a10,10,0,0,0,10.288-9.137,45.962,45.962,0,0,1,1.348-6.93c1.321-4.6,4.749-7.033,9.531-7.035q16.45,0,32.9-.01a8.672,8.672,0,0,1,2.664.356q.005,3.879.012,7.758c-11.62-.683-23.252-.052-34.873-.345-6.086-.153-10.369,3.793-10.97,10.175a34.929,34.929,0,0,1-1.29,6.419,9.138,9.138,0,0,1-8.582,6.506q-22.3.064-44.59,0c-4.932-.019-8.347-3.775-9.252-8.517-.492-2.583-.777-5.218-1.454-7.749a8.846,8.846,0,0,0-8.582-6.719c-7.509-.218-15.03-.048-22.545-.041-4.09,0-8.179-.02-12.268,0a10.865,10.865,0,0,0-1.647.253Q-1017.719,447.547-1017.712,443.68Z" transform="translate(1026.536 -366.314)" fill="#e9e8e8"/>
    <path id="Path_1012" data-name="Path 1012" d="M-942,295.632q0,8.5-.007,16.993-24.03-.01-48.059-.028c-1.755,0-3.21.958-4.836,1.363.006-2.356-.144-4.726.055-7.065a12.241,12.241,0,0,1,5.575-9.132c.321-.228.683-.387.85-.773,3.344-1.427,6.863-1.39,10.412-1.374C-966,295.669-954,295.634-942,295.632Z" transform="translate(1011.5 -268.824)" fill="#e9e8e8"/>
    <path id="Path_1013" data-name="Path 1013" d="M-737.25,312.445q0-8.5-.008-16.993c10.031,0,20.063-.087,30.092.041,5.46.07,11.033-.9,16.33,1.317,1.177,1.329,2.814,2.115,3.891,3.625a12.27,12.27,0,0,1,2.588,7.455c-.025,1.963,0,3.927,0,5.89-2.874-1.438-5.956-1.39-9.065-1.38C-708.03,312.448-722.64,312.436-737.25,312.445Z" transform="translate(841.426 -268.645)" fill="#e9e8e8"/>
    <path id="Path_1014" data-name="Path 1014" d="M-929.419,267.366c-12,0-24.007.037-36.01-.016-3.55-.016-7.068-.053-10.412,1.374.136-2.406-.4-4.845.405-7.22,1.917-5.668,6.058-8.672,12.11-8.686q16.952-.039,33.9-.033Q-929.421,260.075-929.419,267.366Z" transform="translate(998.924 -240.558)" fill="#d9d9d9"/>
    <path id="Path_1015" data-name="Path 1015" d="M-690.836,268.724c-5.3-2.221-10.869-1.247-16.33-1.317-10.029-.129-20.062-.039-30.092-.041q0-7.291,0-14.581c11.242.01,22.485,0,33.726.039a12.366,12.366,0,0,1,8.479,2.792,10.794,10.794,0,0,1,3.949,7.39A56.833,56.833,0,0,1-690.836,268.724Z" transform="translate(841.426 -240.558)" fill="#d9d9d9"/>
    <path id="Path_1016" data-name="Path 1016" d="M-962.818,697.353c.1-.154.215-.165.331-.013l-.164.041Z" transform="translate(990.296 -533.893)" fill="#f8c974"/>
  </g>
</svg>
