<svg xmlns="http://www.w3.org/2000/svg" width="15.55" height="15.585" viewBox="0 0 15.55 15.585">
  <path id="Path_916" data-name="Path 916" d="M1481.518,425.3v.033c0,.021,0,.043,0,.064s0,.019,0,.029a2.46,2.46,0,0,1-1.013,1.827,3.175,3.175,0,0,1-2.092.6,2.65,2.65,0,0,1-2.509-2.89.3.3,0,0,0-.04-.265.48.48,0,0,0-.154-.115c-1.057-.554-2.11-1.118-3.163-1.679-.391-.194-.788-.382-1.173-.587l-.022-.011a3.013,3.013,0,0,1-1.964.709,2.751,2.751,0,0,1-2.869-2.616v-.023a2.523,2.523,0,0,1,.992-1.956l.013-.01c.046-.033.092-.066.141-.1l.063-.047.006,0a3.043,3.043,0,0,1,1.61-.478h.044a3.028,3.028,0,0,1,1.858.622.483.483,0,0,0,.371-.106,2.47,2.47,0,0,1,.346-.168l3.7-1.965a.637.637,0,0,0,.248-.165.2.2,0,0,0,.028-.159,2.287,2.287,0,0,1,.937-2.367,3.044,3.044,0,0,1,3.434-.16,2.46,2.46,0,0,1,1.059,2.958,2.516,2.516,0,0,1-.484.79,2.737,2.737,0,0,1-.465.412c-.057.039-.115.078-.175.114h0c-.06.035-.121.069-.184.1-.031.016-.063.031-.1.046-.052.024-.1.046-.157.066a2.47,2.47,0,0,1-.274.093c-.094.027-.188.048-.285.066a3.168,3.168,0,0,1-.582.049c-.027,0-.054,0-.08,0s-.054,0-.081,0a1.082,1.082,0,0,1-.187-.042,2.2,2.2,0,0,1-.533-.089h0l-.063-.02-.065-.023-.085-.032a2.873,2.873,0,0,1-.618-.349.511.511,0,0,0-.1-.06.347.347,0,0,0-.325.05c-1.132.61-2.278,1.2-3.418,1.8-.273.148-.54.305-.82.442a.436.436,0,0,0-.111.072,2.42,2.42,0,0,1,.088.648,2.392,2.392,0,0,1-.07.577.752.752,0,0,0,.174.115c1.3.682,2.6,1.374,3.9,2.063a.1.1,0,0,1,.031.009.586.586,0,0,0,.551.132,1.453,1.453,0,0,0,.359-.169,2.867,2.867,0,0,1,1.475-.413h.018a3.1,3.1,0,0,1,1.085.213l.05.02c.069.028.135.059.2.092.039.019.077.039.115.061l.057.033.057.035c.045.028.089.057.133.088l.037.027c.017.011.033.023.048.035l.052.04a2.687,2.687,0,0,1,.381.367l.041.049a2.515,2.515,0,0,1,.341.545q.027.058.05.119a2.368,2.368,0,0,1,.132.452l.008.046c0,.022.007.044.01.066s.006.043.008.064a.479.479,0,0,1,.005.052c0,.021,0,.042.005.064s0,.045,0,.068S1481.518,425.282,1481.518,425.3Z" transform="translate(-1466.268 -412.525)" fill="none" stroke="#707070" stroke-width="0.5"/>
</svg>
