<svg xmlns="http://www.w3.org/2000/svg" width="13.008" height="15" viewBox="0 0 13.008 15">
  <path id="Path_918" data-name="Path 918" d="M1094.376,468.2a4.551,4.551,0,0,1-3.291-7.693l6.355-6.355a3.172,3.172,0,0,1,2.254-.952,3.144,3.144,0,0,1,2.2,5.394l-6.048,6.05a1.72,1.72,0,0,1-2.427-2.437l4.741-4.731.415.415-4.746,4.745a1.13,1.13,0,0,0,1.583,1.61l6.061-6.06a2.556,2.556,0,1,0-3.614-3.616l-6.347,6.348a3.961,3.961,0,1,0,5.587,5.615l4.051-4.05.415.414-4.036,4.035A4.53,4.53,0,0,1,1094.376,468.2Z" transform="translate(-1089.828 -453.201)" fill="#484848"/>
</svg>
