<svg xmlns="http://www.w3.org/2000/svg" width="15" height="14.279" viewBox="0 0 15 14.279">
  <path id="Path_917" data-name="Path 917" d="M1078.467,466.26a1.627,1.627,0,0,1-1.623-1.624v-9.574a1.628,1.628,0,0,1,1.623-1.624h2.008v-1.375a.083.083,0,0,1,.081-.082h7.579a.082.082,0,0,1,.077.082v1.375h2.008a1.634,1.634,0,0,1,1.624,1.625v9.574a1.627,1.627,0,0,1-1.624,1.624h-11.753Zm.209-12.346a1.359,1.359,0,0,0-1.356,1.357v9.156a1.36,1.36,0,0,0,1.357,1.357h11.331a1.36,1.36,0,0,0,1.358-1.357v-9.157a1.358,1.358,0,0,0-1.358-1.357h-1.8v1.375a.081.081,0,0,1-.081.077h-7.579a.08.08,0,0,1-.077-.08v-1.371Zm2.276.977h6.785v-2.43h-6.785Zm-1.108,8.667a.071.071,0,0,1-.051-.023l-.782-.781v-.108l.227-.228h.108l.5.5,1.228-1.226h.107l.228.228v.108l-1.509,1.509Zm3.833-.687a.071.071,0,0,1-.055-.064v-.338l.047-.077h5.7a.072.072,0,0,1,.055.064v.338a.074.074,0,0,1-.056.076Zm-3.831-1.491a.072.072,0,0,1-.052-.022l-.783-.782v-.109l.227-.228h.108l.5.5,1.228-1.227h.107l.228.228v.108l-1.509,1.509Zm3.831-.688a.071.071,0,0,1-.055-.064v-.338l.047-.077h5.7a.072.072,0,0,1,.055.064v.338a.074.074,0,0,1-.056.076Zm-3.831-1.489a.079.079,0,0,1-.052-.022l-.783-.783v-.11l.227-.227h.108l.5.5,1.228-1.227h.107l.228.228v.109l-1.509,1.51Zm3.831-.69a.071.071,0,0,1-.055-.064v-.338l.047-.077h5.7a.062.062,0,0,1,.055.064v.338a.074.074,0,0,1-.056.076Z" transform="translate(-1076.844 -451.981)" fill="#707070"/>
</svg>
