<svg xmlns="http://www.w3.org/2000/svg" width="17" height="17" viewBox="0 0 17 17">
  <g id="Group_2455" data-name="Group 2455" transform="translate(382 -20)">
    <path id="Path_937" data-name="Path 937" d="M-243.991,24.656a2.318,2.318,0,0,1-1.722-.748,2.341,2.341,0,0,1-.61-1.8,2.363,2.363,0,0,1,1.914-2.081A.578.578,0,0,0-244.3,20h.612l.058.015c.064.017.129.034.194.05a2.339,2.339,0,0,1,1.764,2.446,2.33,2.33,0,0,1-1.953,2.118A2.521,2.521,0,0,1-243.991,24.656Zm-.015-4.088a1.767,1.767,0,0,0-1.753,1.759,1.746,1.746,0,0,0,.519,1.242,1.744,1.744,0,0,0,1.24.521h.01a1.767,1.767,0,0,0,1.753-1.759,1.747,1.747,0,0,0-.519-1.243,1.744,1.744,0,0,0-1.24-.521Z" transform="translate(-129.502)" fill="#5a5a5a"/>
    <path id="Path_938" data-name="Path 938" d="M-379.652,261.65a2.33,2.33,0,0,1-2.317-1.933.435.435,0,0,0-.031-.1v-.606l.02-.074c.019-.073.038-.145.058-.218a2.316,2.316,0,0,1,2.3-1.726c.044,0,.089,0,.134,0a2.338,2.338,0,0,1,2.123,1.972,2.334,2.334,0,0,1-1.876,2.649A2.545,2.545,0,0,1-379.652,261.65Zm-.031-4.089a1.763,1.763,0,0,0-1.748,1.768,1.764,1.764,0,0,0,1.764,1.753,1.764,1.764,0,0,0,1.758-1.758,1.739,1.739,0,0,0-.516-1.239,1.756,1.756,0,0,0-1.25-.523Z" transform="translate(0 -226.221)" fill="#5a5a5a"/>
    <path id="Path_939" data-name="Path 939" d="M-108.229,261.678c-.051,0-.1,0-.154,0a2.344,2.344,0,0,1-2.107-1.97,2.324,2.324,0,0,1,.407-1.715,2.252,2.252,0,0,1,1.468-.935,2.517,2.517,0,0,1,.417-.035,2.329,2.329,0,0,1,2.309,1.947.665.665,0,0,0,.031.112v.582l-.019.075c-.019.073-.038.145-.057.218A2.341,2.341,0,0,1-108.229,261.678Zm.042-4.091a1.766,1.766,0,0,0-1.762,1.755,1.751,1.751,0,0,0,.519,1.247,1.744,1.744,0,0,0,1.241.519h.011a1.762,1.762,0,0,0,1.752-1.764,1.763,1.763,0,0,0-1.755-1.757h0Z" transform="translate(-259.141 -226.245)" fill="#5a5a5a"/>
    <path id="Path_940" data-name="Path 940" d="M-261.786,368.683l-.261-.039c-.2-.029-.4-.06-.6-.1a7.026,7.026,0,0,1-1.729-.562l.257-.508a7.176,7.176,0,0,0,2.9.637,7.2,7.2,0,0,0,2.9-.637l.262.516-.145.06a6.33,6.33,0,0,1-.785.286c-.354.094-.726.161-1.086.226-.162.029-.329.059-.494.092a.966.966,0,0,0-.1.026h-1.11Z" transform="translate(-112.276 -331.683)" fill="#5a5a5a"/>
    <path id="Path_941" data-name="Path 941" d="M-105.155,100.518a6.965,6.965,0,0,0-2.9-5.02l.318-.485a6.18,6.18,0,0,1,2.121,2.338,6.871,6.871,0,0,1,1.036,3.138Z" transform="translate(-261.496 -71.603)" fill="#5a5a5a"/>
    <path id="Path_942" data-name="Path 942" d="M-358.172,100.69a7.3,7.3,0,0,1,.684-2.54,7.357,7.357,0,0,1,2.47-2.923l.312.475a6.96,6.96,0,0,0-2.9,5.019Z" transform="translate(-22.745 -71.807)" fill="#5a5a5a"/>
  </g>
</svg>
