<svg id="Group_2430" data-name="Group 2430" xmlns="http://www.w3.org/2000/svg" width="16.125" height="15" viewBox="0 0 16.125 15">
  <path id="Path_913" data-name="Path 913" d="M-329.376,215.572l1.882-1.878.631-.63a.87.87,0,0,1,1.259-.051c.171.146.324.315.484.474s.336.336.5.5a.919.919,0,0,1-.007,1.357c-1.555,1.53-3.089,3.081-4.635,4.621a.4.4,0,0,0-.13.311c.005.981,0,1.962,0,2.943a.767.767,0,0,1-.855.86h-9.345a.761.761,0,0,1-.853-.859q0-6.634-.007-13.269a.825.825,0,0,1,.87-.872c2.419.016,4.839.007,7.259,0a.3.3,0,0,1,.246.109q1.288,1.384,2.583,2.76a.355.355,0,0,1,.105.268c0,1.076,0,2.152,0,3.228C-329.384,215.481-329.381,215.509-329.376,215.572Zm-3.847,3.8h-5.169c-.054,0-.107,0-.16,0a.164.164,0,0,1-.16-.162.162.162,0,0,1,.143-.177,1,1,0,0,1,.2-.01h5.386a.32.32,0,0,0,.258-.084q1.452-1.461,2.911-2.915a.264.264,0,0,0,.084-.2q0-1.676,0-3.353c0-.125-.033-.16-.159-.159-.743.006-1.486,0-2.229,0-.27,0-.308-.037-.309-.308,0-.791,0-1.581,0-2.372,0-.146-.036-.19-.186-.189q-3.487.007-6.973,0c-.363,0-.494.132-.494.495q0,6.652,0,13.3c0,.351.134.486.485.486h9.363c.355,0,.5-.142.5-.5q0-1.293,0-2.586c0-.049.02-.1-.024-.16-.045.042-.088.081-.129.122-.362.361-.73.717-1.082,1.087a1.5,1.5,0,0,1-.57.372c-.99.382-1.976.777-2.962,1.168-.086.034-.171.065-.249-.008s-.057-.171-.02-.263c.071-.176.14-.353.21-.529.09-.23.179-.46.276-.707h-4.091c-.139,0-.325.037-.327-.171s.181-.181.322-.181q2.033,0,4.066,0a.206.206,0,0,0,.236-.157,4.363,4.363,0,0,1,.222-.563C-333.653,220.235-333.622,219.719-333.223,219.373Zm1.133,1.5c-.009.547-.009.547.536.642a.215.215,0,0,1,.052.011.225.225,0,0,0,.281-.077c.526-.533,1.057-1.061,1.586-1.59q1.677-1.676,3.355-3.351c.077-.077.083-.121,0-.2q-.292-.275-.567-.567c-.076-.08-.119-.078-.2,0q-2.48,2.486-4.965,4.968C-332.054,220.754-332.107,220.8-332.09,220.87Zm-.338-.323c.106.029.156-.058.217-.119l3.694-3.693c.408-.408.812-.818,1.225-1.221.091-.088.09-.139,0-.223a7.077,7.077,0,0,1-.516-.517c-.107-.121-.167-.107-.275,0q-2.326,2.338-4.666,4.661c-.242.239-.416.456-.266.8a.069.069,0,0,1,0,.018c.034.25.036.251.282.262C-332.633,220.524-332.533,220.537-332.428,220.546Zm7.759-5.847a.539.539,0,0,0-.109-.345,2.354,2.354,0,0,0-.213-.239c-.255-.258-.509-.517-.77-.769a.555.555,0,0,0-.894.007c-.1.105-.206.215-.316.314-.073.066-.085.111,0,.18s.17.166.254.25q.662.662,1.326,1.323c.037.036.067.131.15.045.161-.167.329-.327.487-.5A.347.347,0,0,0-324.669,214.7Zm-5.3-2.742-2.116-2.257v1.805c0,.452,0,.452.453.452Zm-3.393,8.391c-.142.356-.265.668-.391.98-.025.063,0,.1.043.14l.705.7c.035.035.069.065.124.043l.972-.387c-.439-.14-.5-.22-.506-.666,0-.03,0-.059,0-.089.007-.143-.063-.207-.2-.2-.047,0-.095,0-.142,0C-333.148,220.863-333.261,220.772-333.362,220.349Zm7.426-4.2c.026-.023.048-.042.069-.062a2.738,2.738,0,0,1,.2-.2c.1-.081.1-.137,0-.234-.455-.443-.9-.9-1.35-1.345-.31-.31-.308-.308-.61.007-.064.067-.065.1,0,.167q.8.8,1.6,1.6C-325.992,216.1-325.964,216.123-325.936,216.148Zm-8,5.638-.393,1,1-.4Z" transform="translate(340.444 -209.083)" fill="#5a5a5a"/>
  <path id="Path_914" data-name="Path 914" d="M-299.856,319.107h-3.956a1.489,1.489,0,0,1-.181,0,.177.177,0,0,1-.165-.166.166.166,0,0,1,.136-.186.925.925,0,0,1,.219-.018h7.992c.134,0,.251.037.253.185s-.115.192-.261.192q-1.705,0-3.411,0Z" transform="translate(305.887 -313.539)" fill="#5a5a5a"/>
  <path id="Path_915" data-name="Path 915" d="M-299.842,368.494H-303.8a1.806,1.806,0,0,1-.181,0,.178.178,0,0,1-.174-.178.171.171,0,0,1,.148-.18.937.937,0,0,1,.2-.014h7.912a.927.927,0,0,1,.2.015.167.167,0,0,1,.143.181.175.175,0,0,1-.174.177c-.06.006-.121,0-.181,0Z" transform="translate(305.881 -360.571)" fill="#5a5a5a"/>
</svg>
