<svg xmlns="http://www.w3.org/2000/svg" width="17.004" height="15" viewBox="0 0 17.004 15">
  <path id="Path_919" data-name="Path 919" d="M-1326.948,196.259h-.676l-.273,0-.264,0c-.151,0-.349,0-.544-.022a.817.817,0,0,1-.755-.868q0-2.717,0-5.434a.845.845,0,0,1,.889-.9c.234,0,.485,0,.789,0h1.831v-1.849q0-1.54,0-3.081a.855.855,0,0,1,.632-.9,1.184,1.184,0,0,1,.3-.035l4.858,0h3.268a.863.863,0,0,1,.926.927c0,.37,0,.748,0,1.113q0,.25,0,.5v.561l.354.016.066,0c.047,0,.1.005.146.005h1.958a.871.871,0,0,1,.983.715l0,.012v5.777a.45.45,0,0,0-.018.05.85.85,0,0,1-.87.671c-.121,0-.251,0-.409,0h-1.234v.37q0,.154,0,.3c0,.23,0,.447,0,.671a.482.482,0,0,1-.275.5.486.486,0,0,1-.224.06.59.59,0,0,1-.353-.144c-.824-.628-1.494-1.132-2.108-1.587a.956.956,0,0,0-.492-.17c-.087-.006-.18-.009-.293-.009l-.193,0-.2,0h-.37s0,1.618,0,1.818a.851.851,0,0,1-.923.924h-1.565c-.448,0-.969,0-1.485,0a.877.877,0,0,0-.5.167c-.4.3-.811.607-1.205.9q-.471.355-.944.709a.558.558,0,0,1-.331.121.471.471,0,0,1-.307-.119.457.457,0,0,1-.178-.371q0-.257,0-.514,0-.238,0-.475Zm-.5-.316h.584c.191,0,.23.039.23.228,0,.254,0,.507,0,.771v.77a.159.159,0,0,0,.251.13l.333-.237.06-.042c.038-.026.067-.047.1-.069l.5-.374c.455-.343.926-.7,1.385-1.052a.567.567,0,0,1,.372-.128h.005c.448,0,.933,0,1.526,0h1.682a.635.635,0,0,0,.634-.633q0-.643,0-1.287a1.068,1.068,0,0,0-.01-.135c0-.012,0-.025,0-.039l-.033-.334h-1.185c-.2,0-.357,0-.508,0a.852.852,0,0,1-.892-.907q0-.415,0-.829v-2.429h-6.089c-.449,0-.649.2-.649.652q0,2.647,0,5.294c0,.447.2.647.655.648h1.061Zm9.216-2.744a.4.4,0,0,1,.266.086c.228.178.462.353.688.522l.256.192,1.214.915a.347.347,0,0,0,.447.043h0a.277.277,0,0,0,.078-.155,1.713,1.713,0,0,0-.005-.3q0-.522,0-1.043c0-.233.027-.26.266-.26h1.594c.5,0,.692-.217.668-.754-.075-1.7-.052-3.409,0-5.113.016-.518-.173-.728-.667-.728h-8.037c-.493,0-.682.21-.666.729.053,1.7.1,3.393,0,5.087-.031.555.156.778.668.778h1.622l1.6,0Zm-6.743-9.719c-.483,0-.663.181-.663.668,0,1.059,0,4.871,0,4.871h3.212v-.727c0-.287,0-.569,0-.851,0-.044,0-.089,0-.134a1.69,1.69,0,0,1,.014-.318.85.85,0,0,1,.906-.7h5.224v-.912c0-.419,0-.829,0-1.238,0-.475-.184-.66-.654-.66h-8.038Z" transform="translate(1329.46 -183.163)" fill="#5a5a5a"/>
</svg>
