<svg id="Group_2068" data-name="Group 2068" xmlns="http://www.w3.org/2000/svg" width="14.539" height="14.539" viewBox="0 0 14.539 14.539">
  <path id="Path_165" data-name="Path 165" d="M36.9,24H25.819a1.729,1.729,0,0,0-1.727,1.727V36.812a1.729,1.729,0,0,0,1.727,1.727H36.9a1.729,1.729,0,0,0,1.727-1.727V25.727A1.729,1.729,0,0,0,36.9,24Zm1.208,12.812A1.209,1.209,0,0,1,36.9,38.02H25.819a1.209,1.209,0,0,1-1.208-1.208V25.727a1.209,1.209,0,0,1,1.208-1.208H36.9a1.209,1.209,0,0,1,1.208,1.208Z" transform="translate(-24.092 -24)" fill="#707070"/>
  <g id="Group_262" data-name="Group 262" transform="translate(1.185 1.189)">
    <path id="Path_166" data-name="Path 166" d="M49.682,39,48.661,37.98a.843.843,0,0,0-1.191,0L39,46.446l-.48.48-.05.2L37.782,49.9l2.769-.692.2-.05.48-.48,8.45-8.451A.863.863,0,0,0,49.682,39ZM38.5,49.183l.408-1.628,1.22,1.22Zm10.69-9.2-8.558,8.558-1.493-1.493,8.558-8.558a.529.529,0,0,1,.749,0l.744.744A.529.529,0,0,1,49.185,39.986Z" transform="translate(-37.782 -37.734)" fill="#707070"/>
  </g>
</svg>
