<svg width="99" height="99" viewBox="0 0 99 99" fill="none" xmlns="http://www.w3.org/2000/svg">
<circle cx="49.5005" cy="49.4722" r="46.0044" stroke="#D8A709" stroke-width="6"/>
<path d="M44.2235 58.7897L41.7125 21.7727H56.7785L54.2675 58.7897H44.2235ZM49.2455 79.1207C46.9775 79.1207 45.1145 78.3917 43.6565 76.9337C42.1985 75.4757 41.4695 73.7477 41.4695 71.7497C41.4695 69.6977 42.1985 67.9967 43.6565 66.6467C45.1145 65.2427 46.9775 64.5407 49.2455 64.5407C51.5675 64.5407 53.4305 65.2427 54.8345 66.6467C56.2925 67.9967 57.0215 69.6977 57.0215 71.7497C57.0215 73.7477 56.2925 75.4757 54.8345 76.9337C53.4305 78.3917 51.5675 79.1207 49.2455 79.1207Z" fill="#D8A709"/>
</svg>
