<svg id="Component_18_1" data-name="Component 18 – 1" xmlns="http://www.w3.org/2000/svg" width="266.033" height="217.527" viewBox="0 0 266.033 217.527">
  <g id="Group_3971" data-name="Group 3971" transform="translate(-80.963 -143.662)">
    <g id="Group_4556" data-name="Group 4556" transform="translate(109.976 148.189)">
      <path id="Path_2128" data-name="Path 2128" d="M102.226,183.279h133.8c.074.1.132.268.223.289,6.529,1.434,10.063,7.2,10.045,14.191-.127,47.9-.066,95.809-.066,143.714q0,14.8,0,29.606a12.818,12.818,0,0,1-5.336,10.8c-1.474,1.109-3.307,1.4-4.863,2.306h-133.8c-.364-.647-1.079-.594-1.651-.833a11.625,11.625,0,0,1-6.3-5.4c.914-.017,1.828-.048,2.742-.048q61.54,0,123.08,0c2.924,0,4.153-1.208,4.152-4.088q0-13.621-.014-27.243c.912-.02,1.824-.053,2.736-.058,4.157-.023,6.689-2.545,6.694-6.707.008-8.217.02-16.434-.006-24.651a6.162,6.162,0,0,0-6.3-6.313c-1.043-.018-2.085-.04-3.127-.06l0-6.154c1.044-.022,2.089-.036,3.132-.067a6.176,6.176,0,0,0,6.273-6.189q.087-12.642,0-25.286a6.176,6.176,0,0,0-6.273-6.188c-1.044-.031-2.088-.046-3.132-.068q.022-3.09.044-6.18c1.043-.028,2.085-.05,3.128-.085a6.154,6.154,0,0,0,6.191-6.252q.072-12.532,0-25.066a6.154,6.154,0,0,0-6.193-6.25c-1.042-.035-2.084-.057-3.127-.085-.011-8.952-.134-17.906.032-26.854.054-2.931-1.586-4.57-4.589-4.564q-61.354.135-122.709.058c-.914,0-1.829-.031-2.743-.048a11.672,11.672,0,0,1,4.542-4.586C99.9,184.228,101.3,184.253,102.226,183.279Z" transform="translate(-82.999 -183.279)" fill="#f1f1f1"/>
      <path id="Path_2132" data-name="Path 2132" d="M455.168,467.532c2.015-.151,4.725.43,5.859-.647,1.279-1.216.38-3.954.386-6.026q.052-17.938,0-35.876c0-1.763.3-3.307,2.16-3.962,1.78-.626,2.992.276,3.947,1.688.028.042.121.04.184.058v48.657a4.943,4.943,0,0,1-4.533,2.036c-2.667-.029-5.338.177-8.006.282Q455.168,470.638,455.168,467.532Z" transform="translate(-266.81 -304.265)" fill="#e5e5e5"/>
      <path id="Path_2135" data-name="Path 2135" d="M80.742,311.049a42.348,42.348,0,0,0-4.3.02,5.326,5.326,0,0,1-5.15-1.99v-2.354c1.359-1.8,3.212-2.179,5.345-1.986,1.358.123,2.737.018,4.106.016h3.075l10.206.011c.784,0,1.571-.045,2.35.018a3.118,3.118,0,1,1-.016,6.235c-.779.061-1.566.013-2.349.014l-10.19.014Z" transform="translate(-71.291 -245.118)" fill="#e5e5e5"/>
      <path id="Path_2136" data-name="Path 2136" d="M80.742,387.821a42.2,42.2,0,0,0-4.3.02,5.326,5.326,0,0,1-5.15-1.99V383.5c1.359-1.8,3.212-2.179,5.345-1.986,1.358.123,2.737.018,4.106.016h3.075l10.206.011c.784,0,1.571-.045,2.35.018a3.118,3.118,0,1,1-.016,6.235c-.779.06-1.566.013-2.349.014l-10.19.014Z" transform="translate(-71.291 -284.221)" fill="#e5e5e5"/>
      <path id="Path_2137" data-name="Path 2137" d="M71.291,460.268c1.359-1.8,3.212-2.179,5.345-1.985,1.358.123,2.737.018,4.106.015h3.075l10.206.011c.784,0,1.571-.045,2.35.018a3.118,3.118,0,1,1-.016,6.235c-.779.06-1.566.013-2.349.014l-10.19.014H80.742a42.338,42.338,0,0,0-4.3.02,5.328,5.328,0,0,1-5.15-1.99Z" transform="translate(-71.291 -323.323)" fill="#e5e5e5"/>
      <path id="Path_2138" data-name="Path 2138" d="M93.607,249.37H90.532q-.014-23.892-.009-47.783a8.591,8.591,0,0,1,1.837-5.624c.914.016,1.829.047,2.743.047q61.354,0,122.709-.058c3-.006,4.644,1.633,4.589,4.564-.167,8.948-.043,17.9-.033,26.854l-9.421.058q-.018-8.433-.034-16.865c-.008-3.868-1.279-5.126-5.2-5.126q-54.422,0-108.843,0c-4.005,0-5.221,1.237-5.225,5.3Q93.625,230.053,93.607,249.37Z" transform="translate(-81.08 -189.733)" fill="#e1e1e1"/>
      <path id="Path_2139" data-name="Path 2139" d="M90.532,471.188h3.075q.018,19.509.038,39.019c0,3.52,1.362,4.912,4.82,4.913q54.8.008,109.6,0c3.484,0,4.828-1.375,4.842-4.893q.035-8.527.058-17.056l9.351.044q.007,13.621.014,27.243c0,2.88-1.228,4.087-4.152,4.088q-61.54,0-123.08,0c-.914,0-1.828.031-2.742.048a8.592,8.592,0,0,1-1.838-5.624Q90.482,495.08,90.532,471.188Z" transform="translate(-81.08 -329.919)" fill="#e1e1e1"/>
      <path id="Path_2140" data-name="Path 2140" d="M340.038,260.04l9.421-.059c1.043.028,2.085.05,3.127.085a6.154,6.154,0,0,1,6.193,6.25q.072,12.532,0,25.065a6.154,6.154,0,0,1-6.191,6.252c-1.042.035-2.085.057-3.128.085l-9.422-.058Z" transform="translate(-208.171 -222.345)" fill="#e5e5e5"/>
      <path id="Path_2141" data-name="Path 2141" d="M349.445,349.487c1.044.022,2.089.036,3.132.068a6.176,6.176,0,0,1,6.273,6.188q.087,12.642,0,25.286a6.176,6.176,0,0,1-6.273,6.189c-1.044.031-2.088.045-3.132.067l-9.351-.06q0-18.838,0-37.677Z" transform="translate(-208.2 -267.933)" fill="#e5e5e5"/>
      <path id="Path_2142" data-name="Path 2142" d="M349.436,476.852l-9.352-.044q0-18.851,0-37.7l9.351-.044c1.042.02,2.084.043,3.127.06a6.162,6.162,0,0,1,6.3,6.313c.026,8.217.014,16.434.006,24.651,0,4.162-2.536,6.684-6.694,6.707C351.26,476.8,350.348,476.832,349.436,476.852Z" transform="translate(-208.195 -313.556)" fill="#e5e5e5"/>
      <path id="Path_2143" data-name="Path 2143" d="M349.417,343.011l-9.351.061q-.014-3.15-.027-6.3l9.422.058Q349.439,339.921,349.417,343.011Z" transform="translate(-208.171 -261.458)" fill="#e1e1e1"/>
      <path id="Path_2144" data-name="Path 2144" d="M349.436,432.611l-9.351.044q0-3.13,0-6.259l9.351.061Q349.438,429.534,349.436,432.611Z" transform="translate(-208.195 -307.105)" fill="#e1e1e1"/>
      <path id="Path_2145" data-name="Path 2145" d="M433.99,247.654c3.769,2.167,4.838,5.486,4.82,9.711-.111,27.18-.056,54.361-.06,81.541,0,.848-.049,1.7-.074,2.544l-15.6-.009q-.024-16.771-.047-33.542c-.008-17.067.075-34.133-.058-51.2-.032-4.082,1.263-7.089,4.841-9.064A12.409,12.409,0,0,1,433.99,247.654Z" transform="translate(-250.412 -215.864)" fill="#f1f1f1"/>
      <path id="Path_2146" data-name="Path 2146" d="M423.159,439.207l15.6.009q.024,16.791.05,33.583c0,1.366.029,2.733.044,4.1q0,3.106,0,6.211c-.016,1.046-.022,2.092-.051,3.137a6.322,6.322,0,0,1-6.369,6.328c-1.046.018-2.093.023-3.139,0a6.133,6.133,0,0,1-6.153-6.084Q423.106,462.848,423.159,439.207Z" transform="translate(-250.493 -313.63)" fill="#e5e5e5"/>
      <path id="Path_2147" data-name="Path 2147" d="M438.971,231.387a12.409,12.409,0,0,0-6.177-.017c-.015-4.179-.062-8.359-.032-12.538.015-2.153,1.3-3.52,3.133-3.514s3.1,1.372,3.116,3.531C439.038,223.028,438.989,227.208,438.971,231.387Z" transform="translate(-255.394 -199.597)" fill="#e4e4e4"/>
      <path id="Path_2148" data-name="Path 2148" d="M93.628,349.021H90.553V317.644h3.075Z" transform="translate(-81.102 -251.714)" fill="#e1e1e1"/>
      <path id="Path_2149" data-name="Path 2149" d="M93.628,425.793H90.553V394.416h3.075Z" transform="translate(-81.102 -290.816)" fill="#e1e1e1"/>
      <path id="Path_2150" data-name="Path 2150" d="M96.82,334.554V303.176l10.19-.014a9.074,9.074,0,0,0,11.973,5.625,9.325,9.325,0,0,0,5.266-12.552,9.5,9.5,0,0,0-9.3-5.594,9,9,0,0,0-7.92,6.254l-10.206-.011V265.507l10.19-.014a9.074,9.074,0,0,0,11.973,5.625,9.325,9.325,0,0,0,5.266-12.552,9.5,9.5,0,0,0-9.3-5.593,9,9,0,0,0-7.92,6.254l-10.206-.011q.018-19.317.036-38.635c0-4.062,1.219-5.3,5.225-5.3q54.421,0,108.843,0c3.923,0,5.194,1.258,5.2,5.126q.018,8.432.034,16.865v37.621q.013,3.149.027,6.3,0,18.838,0,37.677,0,3.129,0,6.259,0,18.851,0,37.7-.028,8.527-.058,17.055c-.014,3.518-1.358,4.892-4.842,4.893q-54.8.007-109.6,0c-3.459,0-4.815-1.393-4.82-4.913q-.026-19.509-.038-39.019l10.19-.014a9.074,9.074,0,0,0,11.973,5.625,9.325,9.325,0,0,0,5.266-12.552,9.5,9.5,0,0,0-9.3-5.594,9,9,0,0,0-7.92,6.254Zm68.992-69.05q16.872,0,33.743,0c2.373,0,3.962-1.212,4.022-3.046.063-1.927-1.556-3.237-4.026-3.238q-33.644,0-67.289,0c-2.373,0-3.961,1.212-4.022,3.047-.063,1.927,1.556,3.237,4.026,3.237Q149.04,265.507,165.812,265.5Zm.293,69.053q-17.068,0-34.135,0c-2.157,0-3.73,1.348-3.731,3.139s1.573,3.14,3.729,3.14q33.939.009,67.877,0a3.045,3.045,0,0,0,1.891-.331c1.2-.827,2.218-1.842,1.769-3.383a3.321,3.321,0,0,0-3.463-2.58Q183.075,334.581,166.105,334.557Zm-.163-31.383q16.851,0,33.7,0c2.347,0,3.946-1.308,3.916-3.175s-1.61-3.108-3.983-3.108q-33.7,0-67.405,0c-2.347,0-3.946,1.309-3.916,3.176s1.61,3.107,3.983,3.108Q149.091,303.177,165.942,303.174Z" transform="translate(-84.294 -199.578)" fill="#fff"/>
      <path id="Path_2151" data-name="Path 2151" d="M117.6,298.323a9,9,0,0,1,7.92-6.254,9.5,9.5,0,0,1,9.3,5.593,9.325,9.325,0,0,1-5.266,12.552,9.074,9.074,0,0,1-11.973-5.625c.783,0,1.571.047,2.349-.014a3.118,3.118,0,1,0,.016-6.235C119.175,298.278,118.387,298.326,117.6,298.323Z" transform="translate(-94.871 -238.675)" fill="#f1f1f1"/>
      <path id="Path_2152" data-name="Path 2152" d="M117.6,375.094a9,9,0,0,1,7.92-6.254,9.5,9.5,0,0,1,9.3,5.594,9.325,9.325,0,0,1-5.266,12.552,9.074,9.074,0,0,1-11.973-5.625c.783,0,1.571.046,2.349-.014a3.118,3.118,0,1,0,.016-6.235C119.175,375.05,118.387,375.1,117.6,375.094Z" transform="translate(-94.871 -277.776)" fill="#f1f1f1"/>
      <path id="Path_2153" data-name="Path 2153" d="M117.6,451.866a8.995,8.995,0,0,1,7.92-6.254,9.5,9.5,0,0,1,9.3,5.594,9.325,9.325,0,0,1-5.266,12.552,9.074,9.074,0,0,1-11.973-5.625c.783,0,1.571.046,2.349-.014a3.118,3.118,0,1,0,.016-6.235C119.175,451.821,118.387,451.869,117.6,451.866Z" transform="translate(-94.871 -316.878)" fill="#f1f1f1"/>
      <path id="Path_2154" data-name="Path 2154" d="M198.425,311.112q-16.773,0-33.546,0c-2.471,0-4.089-1.311-4.026-3.237.06-1.835,1.649-3.046,4.022-3.047q33.644,0,67.289,0c2.471,0,4.09,1.311,4.026,3.238-.06,1.834-1.649,3.046-4.022,3.046Q215.3,311.115,198.425,311.112Z" transform="translate(-116.906 -245.186)" fill="#bbb"/>
      <path id="Path_2155" data-name="Path 2155" d="M198.72,458.357q16.969,0,33.938-.012a3.321,3.321,0,0,1,3.463,2.58c.449,1.541-.573,2.556-1.769,3.383a3.045,3.045,0,0,1-1.891.331q-33.939.007-67.877,0c-2.156,0-3.73-1.349-3.729-3.14s1.574-3.137,3.731-3.139Q181.652,458.349,198.72,458.357Z" transform="translate(-116.908 -323.378)" fill="#bbb"/>
      <path id="Path_2156" data-name="Path 2156" d="M198.573,387.884q-16.851,0-33.7,0c-2.373,0-3.953-1.242-3.983-3.108s1.568-3.175,3.916-3.176q33.7,0,67.405,0c2.373,0,3.952,1.242,3.983,3.108s-1.568,3.174-3.916,3.175Q215.425,387.888,198.573,387.884Z" transform="translate(-116.925 -284.288)" fill="#bbb"/>
    </g>
  </g>
  <ellipse id="Ellipse_184" data-name="Ellipse 184" cx="4.894" cy="4.894" rx="4.894" ry="4.894" transform="translate(229.911 207.738)" fill="#e4e4e4"/>
  <ellipse id="Ellipse_185" data-name="Ellipse 185" cx="4.572" cy="4.572" rx="4.572" ry="4.572" transform="translate(0 182.592)" fill="#e4e4e4"/>
  <ellipse id="Ellipse_186" data-name="Ellipse 186" cx="3.027" cy="3.027" rx="3.027" ry="3.027" transform="translate(10.304 192.121)" fill="#e4e4e4"/>
  <ellipse id="Ellipse_187" data-name="Ellipse 187" cx="3.027" cy="3.027" rx="3.027" ry="3.027" transform="translate(246.199)" fill="#e4e4e4"/>
  <ellipse id="Ellipse_188" data-name="Ellipse 188" cx="5.216" cy="5.216" rx="5.216" ry="5.216" transform="translate(255.601 4.379)" fill="#e4e4e4"/>
</svg>
