<svg xmlns="http://www.w3.org/2000/svg" width="274.049" height="231.312" viewBox="0 0 274.049 231.312">
  <g id="Group_4023" data-name="Group 4023" transform="translate(-623.372 -440.546)">
    <g id="Group_3770" data-name="Group 3770" transform="translate(-398 -216.707)">
      <g id="Group_3610" data-name="Group 3610">
        <g id="Group_3609" data-name="Group 3609">
          <path id="Path_1659" data-name="Path 1659" d="M12.644,5.743,5.569,12.817" transform="translate(1020.133 651.863)" fill="none" stroke="#fff" stroke-width="1"/>
          <path id="Path_1660" data-name="Path 1660" d="M5.572,5.743l7.015,7.045" transform="translate(1020.132 651.863)" fill="none" stroke="#fff" stroke-width="1"/>
        </g>
      </g>
    </g>
    <g id="Group_4022" data-name="Group 4022" transform="translate(-3989.524 -1084.639)">
      <g id="Group_4021" data-name="Group 4021" transform="translate(4642.927 1560.539)">
        <g id="Group_4020" data-name="Group 4020" transform="translate(0)">
          <path id="Path_1991" data-name="Path 1991" d="M13.289,0h90.617a13.289,13.289,0,0,1,13.289,13.289V147.473a13.289,13.289,0,0,1-13.289,13.289H13.289A13.289,13.289,0,0,1,0,147.473V13.289A13.289,13.289,0,0,1,13.289,0Z" transform="translate(0 15.738)" fill="#e4e4e4"/>
          <g id="Group_4018" data-name="Group 4018" transform="translate(5.251 22.217)">
            <g id="Group_4000" data-name="Group 4000" transform="translate(0 0)">
              <path id="Path_1987" data-name="Path 1987" d="M5724.447,1755.866c.03,54.639,1.794,120.537-4.343,135.127-27.034,2.634-58.687,3.479-92.118,3.637l12.707-138.341Z" transform="translate(-5622.646 -1755.866)" fill="#f1f1f1"/>
              <path id="Path_1988" data-name="Path 1988" d="M5674.177,1886.628c-42.136,6.743-70.3,7.1-93.137,5.4,2.96-31.508,4.146-83.85,5.34-136.109l50.774.113,45.953,3.033C5683.777,1813.307,5683.85,1863.408,5674.177,1886.628Z" transform="translate(-5581.04 -1755.916)" fill="#fff"/>
            </g>
            <g id="Group_4017" data-name="Group 4017" transform="translate(15.048 12.922)">
              <rect id="Rectangle_1392" data-name="Rectangle 1392" width="50.758" height="7.731" transform="translate(12.457 0) rotate(1.348)" fill="#e4e4e4"/>
              <g id="Group_4016" data-name="Group 4016" transform="translate(0 28.413)">
                <g id="Group_4003" data-name="Group 4003" transform="translate(1.699 0)">
                  <g id="Group_4001" data-name="Group 4001" transform="translate(25.43 3.883)">
                    <rect id="Rectangle_1393" data-name="Rectangle 1393" width="45.783" height="3.539" transform="matrix(1, 0.024, -0.024, 1, 0.083, 0)" fill="#e4e4e4"/>
                  </g>
                  <g id="Group_4002" data-name="Group 4002" transform="translate(0 0)">
                    <rect id="Rectangle_1395" data-name="Rectangle 1395" width="10.839" height="10.839" transform="matrix(1, 0.024, -0.024, 1, 0.255, 0)" fill="none" stroke="#e4e4e4" stroke-miterlimit="10" stroke-width="6"/>
                  </g>
                </g>
                <g id="Group_4009" data-name="Group 4009" transform="translate(0.772 29.654)">
                  <g id="Group_4007" data-name="Group 4007" transform="translate(25.43 3.184)">
                    <rect id="Rectangle_1399" data-name="Rectangle 1399" width="45.783" height="3.539" transform="translate(0.083 0) rotate(1.348)" fill="#e4e4e4"/>
                  </g>
                  <g id="Group_4008" data-name="Group 4008" transform="translate(0 0)">
                    <rect id="Rectangle_1401" data-name="Rectangle 1401" width="10.839" height="10.839" transform="matrix(1, 0.024, -0.024, 1, 0.255, 0)" fill="none" stroke="#e4e4e4" stroke-miterlimit="10" stroke-width="6"/>
                  </g>
                </g>
                <g id="Group_4015" data-name="Group 4015" transform="translate(0 59.117)">
                  <g id="Group_4013" data-name="Group 4013" transform="translate(25.278 3.88)">
                    <rect id="Rectangle_1405" data-name="Rectangle 1405" width="18.149" height="3.539" transform="matrix(1, 0.024, -0.024, 1, 0.083, 0)" fill="#e4e4e4"/>
                  </g>
                  <g id="Group_4014" data-name="Group 4014" transform="translate(0 0)">
                    <rect id="Rectangle_1406" data-name="Rectangle 1406" width="10.839" height="10.839" transform="translate(0.255 0) rotate(1.348)" fill="none" stroke="#e4e4e4" stroke-miterlimit="10" stroke-width="6"/>
                  </g>
                </g>
              </g>
            </g>
          </g>
          <g id="Group_4019" data-name="Group 4019" transform="translate(36.872)">
            <path id="Path_1990" data-name="Path 1990" d="M5902.487,1577.25v10.815h-43.45V1577.25a6.24,6.24,0,0,1,1.829-4.418,5.127,5.127,0,0,1,.441-.4,6.2,6.2,0,0,1,3.977-1.433,7.357,7.357,0,0,0,3.194-.728,7.694,7.694,0,0,0,1.2-.723,7.355,7.355,0,0,0,2.666-3.781,7.384,7.384,0,0,1,7.062-5.232h2.711a7.383,7.383,0,0,1,7.061,5.232,7.356,7.356,0,0,0,2.667,3.781,7.644,7.644,0,0,0,1.2.723,7.362,7.362,0,0,0,3.194.728,6.254,6.254,0,0,1,6.247,6.247Z" transform="translate(-5859.037 -1560.539)" fill="#e4e4e4"/>
            <ellipse id="Ellipse_189" data-name="Ellipse 189" cx="3.854" cy="3.663" rx="3.854" ry="3.663" transform="translate(17.872 2.82)" fill="#e4e4e4"/>
          </g>
        </g>
      </g>
    </g>
    <path id="Path_1992" data-name="Path 1992" d="M83.92,0A83.92,83.92,0,1,1,0,83.92,83.92,83.92,0,0,1,83.92,0Z" transform="translate(729.58 482.58)" fill="#fff"/>
    <g id="Group_3971" data-name="Group 3971" transform="translate(742.62 490.438)">
      <path id="Path_1967" data-name="Path 1967" d="M266.57,237.785A68.785,68.785,0,1,1,197.785,169,68.63,68.63,0,0,1,266.57,237.785Z" transform="translate(-123.24 -163.241)" fill="none" stroke="#dedede" stroke-width="1"/>
      <path id="Path_1968" data-name="Path 1968" d="M262.306,227.762a74.545,74.545,0,1,1-74.545-74.545A74.375,74.375,0,0,1,262.306,227.762Z" transform="translate(-113.217 -153.217)" fill="none" stroke="#f1f1f1" stroke-miterlimit="10" stroke-width="9"/>
      <path id="Path_1969" data-name="Path 1969" d="M284.444,431.464a3.093,3.093,0,0,1-.022.529,68.791,68.791,0,0,1-89.235,0,3.1,3.1,0,0,1-.022-.529,44.326,44.326,0,0,1,9.856-26.992A44.827,44.827,0,0,1,219.632,392.6a1.242,1.242,0,0,1,1.719.244,26.89,26.89,0,0,0,15.034,7.7,24.085,24.085,0,0,0,3.412.237h.015a24.086,24.086,0,0,0,3.412-.237,26.89,26.89,0,0,0,15.034-7.7,1.242,1.242,0,0,1,1.719-.244,44.827,44.827,0,0,1,14.611,11.874A44.326,44.326,0,0,1,284.444,431.464Z" transform="translate(-165.26 -305.095)" fill="#f1f1f1"/>
      <path id="Path_1970" data-name="Path 1970" d="M299.055,265.1a38.248,38.248,0,0,1-5.182,15.848c-2.675,4.638-6.01,8.71-10.685,11.495A16.658,16.658,0,0,1,274.395,295h-.015a16.659,16.659,0,0,1-8.794-2.562c-4.674-2.784-8.01-6.857-10.685-11.495A38.248,38.248,0,0,1,249.72,265.1a24.015,24.015,0,0,1,4.66-16.731,24.5,24.5,0,0,1,14.505-9.542,22.29,22.29,0,0,1,5.5-.609h.015a22.289,22.289,0,0,1,5.5.609,24.5,24.5,0,0,1,14.505,9.542A24.014,24.014,0,0,1,299.055,265.1Z" transform="translate(-199.843 -207.196)" fill="#f1f1f1"/>
      <path id="Path_1971" data-name="Path 1971" d="M402.822,494.928a22.721,22.721,0,0,0-4.2-.988,29.329,29.329,0,1,1,27.106-50.133,28.584,28.584,0,0,1,9.691,22.28,29.276,29.276,0,0,1-22.4,28.02,21.315,21.315,0,0,0-3.825.82Zm-8.107-26.859c2.568,0,5.137.051,7.7-.025,1.032-.031,1.245.318,1.234,1.279-.049,4.294-.039,8.589-.01,12.883.008,1.18-.515,2.711.232,3.449s2.278.111,3.451.251c1.1.132,1.318-.329,1.308-1.34-.047-5.047.013-10.1-.048-15.142-.014-1.129.331-1.4,1.415-1.382,4.249.061,8.5.043,12.75.013,1.18-.008,2.7.518,3.449-.236s.112-2.28.255-3.453c.134-1.1-.336-1.316-1.344-1.307-5.046.046-10.094-.014-15.14.048-1.129.014-1.4-.33-1.383-1.415.061-4.25.044-8.5.012-12.751-.009-1.18.524-2.709-.244-3.448s-2.283-.1-3.456-.249c-1.121-.138-1.3.367-1.288,1.352.043,5.047-.016,10.1.047,15.141.014,1.137-.343,1.383-1.418,1.368-4.2-.062-8.411-.046-12.617-.012-1.224.01-2.845-.555-3.569.242-.76.839-.126,2.454-.246,3.722-.081.859.291,1.037,1.071,1.025C389.49,468.043,392.1,468.068,394.715,468.068Z" transform="translate(-280.625 -332.966)" fill="#fff"/>
      <path id="Path_1972" data-name="Path 1972" d="M408.616,497.246a20.285,20.285,0,0,0-3.749-.882,26.2,26.2,0,1,1,24.214-44.783,25.535,25.535,0,0,1,8.657,19.9,26.153,26.153,0,0,1-20.01,25.031,18.993,18.993,0,0,0-3.416.732Zm-7.242-23.993c2.293,0,4.589.046,6.88-.023.922-.027,1.112.284,1.1,1.143-.044,3.836-.035,7.673-.009,11.509.007,1.055-.46,2.421.207,3.081s2.035.1,3.083.224c.979.118,1.177-.294,1.169-1.2-.042-4.508.012-9.018-.043-13.526-.012-1.009.3-1.248,1.264-1.234,3.8.054,7.593.039,11.389.012,1.054-.008,2.416.463,3.081-.211s.1-2.037.228-3.085c.12-.984-.3-1.175-1.2-1.167-4.508.041-9.017-.012-13.525.043-1.009.012-1.249-.294-1.236-1.264.055-3.8.04-7.593.011-11.39-.008-1.054.467-2.42-.218-3.08s-2.039-.093-3.087-.222c-1-.123-1.159.328-1.151,1.208.038,4.508-.014,9.018.042,13.526.013,1.016-.307,1.236-1.266,1.222-3.756-.055-7.514-.041-11.271-.011-1.093.009-2.542-.5-3.188.216-.679.75-.112,2.193-.219,3.325-.072.767.26.926.957.916C396.707,473.23,399.04,473.252,401.374,473.252Z" transform="translate(-286.067 -338.415)" fill="#f1f1f1"/>
      <rect id="Rectangle_1383" data-name="Rectangle 1383" width="4.861" height="38.458" rx="1.315" transform="translate(123.074 113.383)" fill="#bbb"/>
      <rect id="Rectangle_1384" data-name="Rectangle 1384" width="4.861" height="38.458" rx="1.315" transform="translate(144.734 130.182) rotate(90)" fill="#bbb"/>
    </g>
    <ellipse id="Ellipse_190" data-name="Ellipse 190" cx="4.894" cy="4.894" rx="4.894" ry="4.894" transform="translate(818.212 662.069)" fill="#e4e4e4"/>
    <ellipse id="Ellipse_191" data-name="Ellipse 191" cx="4.572" cy="4.572" rx="4.572" ry="4.572" transform="translate(623.372 639.922)" fill="#e4e4e4"/>
    <ellipse id="Ellipse_192" data-name="Ellipse 192" cx="3.027" cy="3.027" rx="3.027" ry="3.027" transform="translate(633.676 649.452)" fill="#e4e4e4"/>
    <ellipse id="Ellipse_193" data-name="Ellipse 193" cx="3.027" cy="3.027" rx="3.027" ry="3.027" transform="translate(780.5 454.331)" fill="#e4e4e4"/>
    <ellipse id="Ellipse_194" data-name="Ellipse 194" cx="5.216" cy="5.216" rx="5.216" ry="5.216" transform="translate(789.902 458.71)" fill="#e4e4e4"/>
  </g>
</svg>
