<svg xmlns="http://www.w3.org/2000/svg" xmlns:xlink="http://www.w3.org/1999/xlink" width="21" height="21" viewBox="0 0 21 21">
  <defs>
    <linearGradient id="linear-gradient" x1="0.5" x2="0.5" y2="1" gradientUnits="objectBoundingBox">
      <stop offset="0" stop-color="#4adede"/>
      <stop offset="1" stop-color="#6172d6"/>
    </linearGradient>
  </defs>
  <g id="Group_2129" data-name="Group 2129" transform="translate(0.581 0.406)">
    <g id="Group_1238" data-name="Group 1238" transform="translate(3.487 3.494)">
      <path id="Path_166" data-name="Path 166" d="M51.1,39.152l-1.142-1.142a.943.943,0,0,0-1.332,0L39.15,47.48l-.537.537-.056.225-.775,3.1,3.1-.775.225-.056.537-.537L51.1,40.518A.965.965,0,0,0,51.1,39.152ZM38.58,50.542l.456-1.821L40.4,50.086ZM50.539,40.253l-9.574,9.574-1.67-1.67,9.574-9.574a.592.592,0,0,1,.837,0l.833.833A.592.592,0,0,1,50.539,40.253Z" transform="translate(-37.782 -37.734)" fill="url(#linear-gradient)"/>
    </g>
    <g id="Rectangle_880" data-name="Rectangle 880" transform="translate(-0.581 -0.406)" fill="none" stroke="#4adede" stroke-width="1">
      <rect width="21" height="21" rx="4" stroke="none"/>
      <rect x="0.5" y="0.5" width="20" height="20" rx="3.5" fill="none"/>
    </g>
  </g>
</svg>
