<svg width="88" height="62" viewBox="0 0 88 62" fill="none" xmlns="http://www.w3.org/2000/svg">
<path d="M40.5359 2C42.0755 -0.666668 45.9245 -0.666667 47.4641 2L78.641 56C80.1806 58.6667 78.2561 62 75.1769 62H12.8231C9.74388 62 7.81938 58.6667 9.35898 56L40.5359 2Z" fill="#F16B6B"/>
<path d="M41.45 17H47.1L46.15 40.95H42.35L41.45 17ZM44.3 52.3C43.3667 52.3 42.5833 52 41.95 51.4C41.3167 50.7667 41 50 41 49.1C41 48.2 41.3167 47.45 41.95 46.85C42.5833 46.2167 43.3667 45.9 44.3 45.9C45.2333 45.9 46 46.2167 46.6 46.85C47.2 47.45 47.5 48.2 47.5 49.1C47.5 50 47.1833 50.7667 46.55 51.4C45.95 52 45.2 52.3 44.3 52.3Z" fill="white"/>
</svg>
