<svg width="27" height="27" viewBox="0 0 27 27" fill="none" xmlns="http://www.w3.org/2000/svg">
<path d="M4.64166 26.9982C4.64871 26.9876 4.58872 26.9691 4.52877 26.9568C3.47654 26.8324 2.48866 26.3853 1.70079 25.6768C0.912921 24.9684 0.363743 24.0334 0.128711 23.0003C0.092565 22.853 0.0643046 22.7067 0.0343301 22.5595L0 22.3832V6.67175C0.0258541 6.62744 0.0420361 6.57817 0.047567 6.52717C0.210851 5.37776 0.759016 4.31765 1.60254 3.51995C2.44606 2.72225 3.53515 2.2341 4.69192 2.13517C4.84355 2.12547 4.99863 2.12193 5.15467 2.12193C5.31072 2.12193 6.3008 2.13517 6.3008 2.13517V1.67587C6.3008 1.49956 6.30609 1.34 6.29639 1.18219C6.24691 0.929037 6.29532 0.666525 6.43177 0.447621C6.56823 0.228716 6.78255 0.0696967 7.03164 0.00263655L7.41422 0.00790964C7.65393 0.0885186 7.85626 0.253493 7.98341 0.472103C8.11056 0.690713 8.15391 0.948084 8.10545 1.19629C8.09263 1.36024 8.09023 1.52486 8.09834 1.68911V2.09283H18.906V1.68734C18.906 1.52689 18.9121 1.36996 18.906 1.2148C18.8524 0.958331 18.8972 0.691087 19.0314 0.466077C19.1657 0.241066 19.3795 0.0747272 19.6307 0L20.0088 0.00618781C20.2456 0.0809814 20.4469 0.239744 20.5747 0.452625C20.7025 0.665506 20.748 0.917786 20.7026 1.16191C20.6902 1.33589 20.6879 1.51045 20.6956 1.6847L20.7001 2.1052H21.8761C23.0011 2.10676 24.0944 2.47819 24.9874 3.16224C25.8805 3.84629 26.5238 4.805 26.8183 5.89069C26.8712 6.08111 26.9065 6.27417 26.9506 6.46723L27 6.70613L26.9956 22.4158C26.985 22.4158 26.9674 22.4722 26.9542 22.5286C26.8202 23.5613 26.3746 24.5287 25.6768 25.3017C24.9791 26.0747 24.0623 26.6167 23.0486 26.8554C22.8837 26.8942 22.719 26.9268 22.5541 26.9594L22.346 27L4.64166 26.9982ZM1.80195 21.8031C1.78038 22.6795 2.10716 23.5287 2.71068 24.1646C3.31419 24.8005 4.14519 25.1712 5.02155 25.1954L13.5026 25.1998H21.817C22.6903 25.2098 23.5328 24.8779 24.1646 24.2749C24.7964 23.672 25.1673 22.846 25.198 21.9732V10.2131H1.80281L1.80195 21.8031ZM5.42888 3.89655C4.91388 3.87144 4.39948 3.95743 3.92062 4.14863C3.44177 4.33983 3.00971 4.63179 2.65364 5.0047C2.29384 5.45276 2.03368 5.9724 1.89063 6.52895C1.74757 7.08549 1.72487 7.66614 1.82401 8.23216L1.83983 8.38115H25.1653L25.1813 8.23216C25.2789 7.66384 25.2547 7.08126 25.1101 6.52303C24.9656 5.96479 24.704 5.44361 24.3428 4.9941C23.9949 4.62945 23.5736 4.34265 23.1068 4.15256C22.64 3.96247 22.1382 3.87343 21.6345 3.89127C21.3686 3.89165 21.1033 3.91405 20.8411 3.95826L20.7009 3.98204V4.79754C20.7009 5.24715 20.7009 5.69763 20.7009 6.14988C20.7053 6.26997 20.6856 6.38973 20.6428 6.50204C20.6 6.61436 20.5352 6.71692 20.452 6.80369C20.3688 6.89046 20.2691 6.95964 20.1587 7.00713C20.0483 7.05463 19.9295 7.07949 19.8093 7.0802C19.6891 7.08091 19.5701 7.05746 19.4591 7.01127C19.3482 6.96508 19.2477 6.89711 19.1635 6.81133C19.0793 6.72554 19.0132 6.6237 18.9691 6.51189C18.9251 6.40009 18.9038 6.28056 18.9068 6.16042C18.8998 5.702 18.9024 5.24803 18.9068 4.7905V3.92474H8.10017V4.98264C8.10017 5.37318 8.10017 5.76459 8.10017 6.15601C8.09935 6.39403 8.004 6.62197 7.83511 6.7897C7.66622 6.95742 7.43765 7.05121 7.19963 7.05039C6.9616 7.04957 6.7336 6.95422 6.56587 6.78534C6.39814 6.61646 6.3044 6.38789 6.30522 6.14988C6.30522 5.94006 6.30522 5.73376 6.30522 5.52835V3.96181L6.15886 3.94239C5.91678 3.91134 5.67294 3.89602 5.42888 3.89655ZM15.3196 15.1957C15.1735 15.1744 15.0413 15.0973 14.9509 14.9806C14.8605 14.8638 14.8189 14.7166 14.8348 14.5698V13.9139C14.8166 13.7669 14.8557 13.6186 14.944 13.4997C15.0323 13.3808 15.1631 13.3006 15.3091 13.2757H22.7939C22.9415 13.2982 23.0746 13.3771 23.1653 13.4958C23.2559 13.6146 23.2969 13.7638 23.2797 13.9121V14.5583C23.2976 14.7054 23.2583 14.8537 23.1698 14.9726C23.0813 15.0914 22.9505 15.1716 22.8044 15.1966H15.3187L15.3196 15.1957ZM4.42912 15.1957C4.28299 15.1744 4.15085 15.0973 4.06042 14.9806C3.96999 14.8638 3.92838 14.7166 3.9443 14.5698V13.9139C3.9261 13.7668 3.96534 13.6183 4.05385 13.4994C4.14237 13.3805 4.27329 13.3004 4.41943 13.2757H11.9042C12.0517 13.2986 12.1846 13.3776 12.2751 13.4962C12.3656 13.6148 12.4068 13.7639 12.39 13.9121V14.5583C12.408 14.7055 12.3686 14.854 12.2799 14.9728C12.1913 15.0917 12.0601 15.1718 11.9139 15.1966H4.42826L4.42912 15.1957ZM15.3196 21.3887C15.1734 21.3677 15.0411 21.2906 14.9506 21.1738C14.8601 21.057 14.8186 20.9097 14.8348 20.7628V20.1069C14.8166 19.96 14.8557 19.8117 14.944 19.6928C15.0323 19.5739 15.1631 19.4936 15.3091 19.4687H22.7939C22.9416 19.4914 23.0748 19.5705 23.1654 19.6894C23.256 19.8083 23.2969 19.9576 23.2797 20.1061V20.7514C23.2976 20.8985 23.2583 21.0468 23.1698 21.1656C23.0813 21.2845 22.9505 21.3647 22.8044 21.3896H15.3187L15.3196 21.3887ZM4.42912 21.3887C4.28299 21.3675 4.15085 21.2903 4.06042 21.1736C3.96999 21.0569 3.92838 20.9097 3.9443 20.7628V20.1069C3.9261 19.9598 3.96534 19.8114 4.05385 19.6925C4.14237 19.5736 4.27329 19.4934 4.41943 19.4687H11.9042C12.0518 19.4918 12.1847 19.5711 12.2752 19.6898C12.3657 19.8086 12.4068 19.9577 12.39 20.1061V20.7514C12.408 20.8986 12.3686 21.047 12.2799 21.1659C12.1913 21.2847 12.0601 21.3649 11.9139 21.3896H4.42826L4.42912 21.3887Z" fill="#6172D6"/>
</svg>
