<svg xmlns="http://www.w3.org/2000/svg" width="17.635" height="12.399" viewBox="0 0 17.635 12.399">
  <path id="Path_1901" data-name="Path 1901" d="M-987.2,1874.129a1.911,1.911,0,0,1-.352.773,1.555,1.555,0,0,1-1.151.568c-.046,0-.092,0-.138,0H-1003.2a1.51,1.51,0,0,1-1.472-.883,1.619,1.619,0,0,1-.156-.677q-.015-4.64-.005-9.28a1.538,1.538,0,0,1,1.564-1.558q7.248,0,14.5,0a1.549,1.549,0,0,1,1.535,1.211c.011.044.024.087.036.131Zm-15.85-10.02c.044.049.065.075.088.1q2.91,2.895,5.823,5.788a1.535,1.535,0,0,0,2.256-.011q2.9-2.879,5.8-5.765a1.4,1.4,0,0,0,.088-.109Zm.076,10.322H-989.1l-4.37-4.459a11.1,11.1,0,0,1-.854.9,2.462,2.462,0,0,1-2.773.4,3.654,3.654,0,0,1-.82-.584c-.243-.206-.452-.451-.7-.7Zm-.818-.723,4.351-4.435-4.351-4.427Zm11.2-4.469,4.343,4.432v-8.849Z" transform="translate(1004.84 -1863.073)" fill="#81db86"/>
</svg>
