<svg xmlns="http://www.w3.org/2000/svg" width="25.271" height="25.266" viewBox="0 0 25.271 25.266">
  <g id="Group_1276" data-name="Group 1276" transform="translate(0 0)">
    <path id="Path_416" data-name="Path 416" d="M-55-152.782a7.072,7.072,0,0,1,.444-1.16,2.71,2.71,0,0,1,2.4-1.4q2.971-.038,5.943,0a2.885,2.885,0,0,1,2.848,2.855q.029,2.959,0,5.918a2.889,2.889,0,0,1-2.872,2.857q-2.935.026-5.87,0a2.9,2.9,0,0,1-2.853-2.449.593.593,0,0,0-.043-.112Zm9.671,3.261c0-.937,0-1.874,0-2.811a.955.955,0,0,0-1.044-1.042q-2.8,0-5.6,0a.959.959,0,0,0-1.054,1.056q0,2.786,0,5.572a.963.963,0,0,0,1.069,1.067q2.774,0,5.548,0a.968.968,0,0,0,1.079-1.081Q-45.328-148.141-45.329-149.521Z" transform="translate(55 155.357)" fill="#5a5a5a"/>
    <path id="Path_417" data-name="Path 417" d="M-55,67.6a7.01,7.01,0,0,1,.456-1.181,2.71,2.71,0,0,1,2.389-1.375q2.97-.037,5.941,0a2.885,2.885,0,0,1,2.851,2.85q.03,2.958,0,5.916A2.893,2.893,0,0,1-45.81,76.63a.6.6,0,0,0-.112.043h-6.513a.6.6,0,0,0-.112-.043A2.777,2.777,0,0,1-54.6,75.206a7.143,7.143,0,0,1-.4-1.1Zm1.974,3.231q0,1.381,0,2.761a.976.976,0,0,0,1.1,1.111h5.5a.971.971,0,0,0,1.1-1.086q0-2.761,0-5.522A.968.968,0,0,0-46.4,67.005q-2.774,0-5.548,0a.968.968,0,0,0-1.074,1.086Q-53.028,69.46-53.026,70.828Z" transform="translate(55 -51.408)" fill="#5a5a5a"/>
    <path id="Path_418" data-name="Path 418" d="M167.914,76.656a3.423,3.423,0,0,1-1.438-.6,2.833,2.833,0,0,1-1.168-2.264c-.021-1.973-.025-3.946,0-5.918a2.914,2.914,0,0,1,2.841-2.849q2.972-.039,5.944,0a2.914,2.914,0,0,1,2.841,2.849q.037,2.959,0,5.918a2.928,2.928,0,0,1-2.468,2.821.965.965,0,0,0-.139.044Zm3.217-9.669q-1.369,0-2.738,0a1,1,0,0,0-1.121,1.106q0,2.75,0,5.5a1,1,0,0,0,1.087,1.089q2.762,0,5.525,0a1,1,0,0,0,1.083-1.093q0-2.749,0-5.5a1,1,0,0,0-1.1-1.1C172.957,66.986,172.044,66.987,171.132,66.987Z" transform="translate(-151.681 -51.39)" fill="#5a5a5a"/>
    <path id="Path_419" data-name="Path 419" d="M177.051-149.377c0,.912,0,1.824,0,2.737a2.96,2.96,0,0,1-3.066,3.059q-2.749,0-5.5,0a2.961,2.961,0,0,1-3.078-3.072q0-2.749,0-5.5a2.961,2.961,0,0,1,3.079-3.071q2.737,0,5.474,0a2.963,2.963,0,0,1,3.091,3.084Q177.053-150.758,177.051-149.377Zm-9.671-.025c0,.921,0,1.841,0,2.762a1,1,0,0,0,1.092,1.085q2.75,0,5.5,0a1,1,0,0,0,1.1-1.1q0-2.75,0-5.5a1,1,0,0,0-1.1-1.1q-2.738,0-5.476,0a1,1,0,0,0-1.116,1.111Q167.379-150.77,167.381-149.4Z" transform="translate(-151.789 155.232)" fill="#5a5a5a"/>
  </g>
</svg>
