<svg xmlns="http://www.w3.org/2000/svg" xmlns:xlink="http://www.w3.org/1999/xlink" width="29" height="26.039" viewBox="0 0 29 26.039">
  <defs>
    <linearGradient id="linear-gradient" x1="0.5" x2="0.5" y2="1" gradientUnits="objectBoundingBox">
      <stop offset="0" stop-color="#4adede"/>
      <stop offset="1" stop-color="#6172d6"/>
    </linearGradient>
  </defs>
  <path id="Path_635" data-name="Path 635" d="M36.938,46.034a2.227,2.227,0,0,0,1.648-.645,2.178,2.178,0,0,0,.568-1.619c-.021-.4-.014-.8-.014-1.228v-.261c.443,0,.886,0,1.329-.007s.914-.007,1.371-.007c.72,0,1.316.007,1.863.014h.062a2.123,2.123,0,0,0,2.154-1.427l.09-.055v-8L46,32.761c-.035-.123-.062-.247-.1-.377a6.214,6.214,0,0,0-.263-.892,5.046,5.046,0,0,0-3.3-2.97.915.915,0,0,0,.1-.13,5.06,5.06,0,0,0,1.039-2.812.778.778,0,0,0-.7-.9h-.069a.781.781,0,0,0-.762.789A3.611,3.611,0,0,1,40.193,28.4a3.724,3.724,0,0,1-1.967.59,3.883,3.883,0,0,1-1.551-.336.316.316,0,0,1-.062-.1,5.255,5.255,0,0,0-2.022-3.656.217.217,0,0,1-.1-.261,3.735,3.735,0,0,1,3.635-3.08c.111,0,.222.007.332.014a3.684,3.684,0,0,1,3.22,2.332.024.024,0,0,0,.007.014.244.244,0,0,0,.028.062.788.788,0,0,0,1.066.521.78.78,0,0,0,.367-1.118,5.312,5.312,0,0,0-5.013-3.368c-.138,0-.284.007-.422.014a5.149,5.149,0,0,0-2.964,1.248,5.286,5.286,0,0,0-1.7,2.764v.007c-.007,0-.007,0-.014-.007a5.236,5.236,0,0,0-1.7-.281,5.4,5.4,0,0,0-1.717.288,5.311,5.311,0,0,0-7.015-3.7.776.776,0,0,0-.519.96.749.749,0,0,0,.727.528.86.86,0,0,0,.291-.048,4.351,4.351,0,0,1,1.385-.247,3.459,3.459,0,0,1,.956.137,3.631,3.631,0,0,1,2.728,3.039.2.2,0,0,1-.048.1,5.461,5.461,0,0,0-2.091,3.759.277.277,0,0,1-.069.082,3.588,3.588,0,0,1-1.489.322,3.76,3.76,0,0,1-3.677-3,3.573,3.573,0,0,1,1.018-3.341l.028-.027a1.238,1.238,0,0,0,.125-.137.747.747,0,0,0-.055-1.077.755.755,0,0,0-1.087.069c-.062.069-.125.144-.187.213a6.01,6.01,0,0,0-.8,1.05,5.111,5.111,0,0,0,.561,5.885,6.4,6.4,0,0,0-.852.4,4.872,4.872,0,0,0-2.527,4.328c-.021,1.687-.014,3.4-.007,5.055,0,.6,0,1.2.007,1.8a2.012,2.012,0,0,0,2.119,2.085h4.736v1.646a2.043,2.043,0,0,0,2.133,2.106h4.459c.637,0,1.274,0,1.911-.007s1.274-.007,1.9-.007c1.011,0,1.849.007,2.617.021C36.91,46.034,36.924,46.034,36.938,46.034Zm.533-12.313a.787.787,0,0,0-.45.151.758.758,0,0,0-.166,1.091,2.174,2.174,0,0,0,.125.185c.042.062.083.117.118.178a2.858,2.858,0,0,1,.478,1.475c.021,2.435.021,4.891.021,7.2a.46.46,0,0,1-.526.508H25.963A.464.464,0,0,1,25.436,44c0-.494,0-.981-.007-1.475-.007-1.825-.014-3.7.021-5.556a3.476,3.476,0,0,1,2.708-3.272h.007a2.149,2.149,0,0,1,.478-.075.614.614,0,0,1,.3.069,5.384,5.384,0,0,0,2.382.576,5.655,5.655,0,0,0,2.41-.569,1.1,1.1,0,0,1,.464-.082h.042a3.442,3.442,0,0,1,1.551.439.883.883,0,0,0,.422.11.744.744,0,0,0,.665-.4.731.731,0,0,0,.055-.576.842.842,0,0,0-.457-.494c-.277-.13-.554-.254-.838-.357q-.1-.041-.145-.062a1.082,1.082,0,0,1,.076-.11,5.392,5.392,0,0,0,.852-1.687c.035-.123.062-.192.076-.233.076.014.187.041.235.055a5.349,5.349,0,0,0,1.516.226,4.863,4.863,0,0,0,2.119-.487,1.673,1.673,0,0,1,.741-.172,2.541,2.541,0,0,1,.568.075,3.53,3.53,0,0,1,2.8,3.567c.007,1.708.007,3.437,0,5.117v1.482c0,.5-.138.638-.644.638H39.147V39.737c.007-.844.007-1.708-.014-2.565a5.4,5.4,0,0,0-.242-1.55,7.157,7.157,0,0,0-.665-1.345l-.076-.13A.771.771,0,0,0,37.471,33.721ZM19.232,40.739c-.561,0-.686-.123-.686-.679V33.577A4.56,4.56,0,0,1,18.6,32.8a3.549,3.549,0,0,1,3-2.908,1.368,1.368,0,0,1,.159-.014.776.776,0,0,1,.36.089,5.034,5.034,0,0,0,2.306.549h.048a5.441,5.441,0,0,0,1.683-.281,5.232,5.232,0,0,0,1.087,2.147,5.031,5.031,0,0,0-3.386,4.85v3.519ZM31.322,25.3a3.85,3.85,0,0,1,2.714,1.132,3.538,3.538,0,0,1,1.046,2.552,3.768,3.768,0,0,1-3.8,3.745h-.055a3.715,3.715,0,0,1,.062-7.429Z" transform="translate(-17.009 -20.009)" fill="url(#linear-gradient)"/>
</svg>
