<svg xmlns="http://www.w3.org/2000/svg" xmlns:xlink="http://www.w3.org/1999/xlink" width="21.594" height="21.594" viewBox="0 0 21.594 21.594">
  <defs>
    <clipPath id="clip-path">
      <rect id="Rectangle_968" data-name="Rectangle 968" width="21.594" height="21.594" fill="#fff"/>
    </clipPath>
    <clipPath id="clip-path-2">
      <rect id="Rectangle_967" data-name="Rectangle 967" width="374.1" height="498.8" fill="#fff"/>
    </clipPath>
  </defs>
  <g id="Group_2593" data-name="Group 2593" clip-path="url(#clip-path)">
    <path id="Path_1028" data-name="Path 1028" d="M1487.65,204.5h-15.7a2.453,2.453,0,0,0-2.45,2.447v15.7a2.453,2.453,0,0,0,2.45,2.447h15.7a2.436,2.436,0,0,0,2.44-2.447v-15.7a2.436,2.436,0,0,0-2.44-2.447Zm1.71,18.147a1.711,1.711,0,0,1-1.71,1.711h-15.7a1.711,1.711,0,0,1-1.71-1.711v-15.7a1.711,1.711,0,0,1,1.71-1.711h15.7a1.711,1.711,0,0,1,1.71,1.711Z" transform="translate(-1469 -204)" fill="#6be8c6" stroke="#5a5a5a" stroke-width="1"/>
    <path id="Path_1029" data-name="Path 1029" d="M1486.31,209.412l-1.15-1.142a.918.918,0,0,0-.66-.275.959.959,0,0,0-.67.275l-9.47,9.47-.54.537-.06.225-.77,3.1,3.1-.775.22-.056.54-.537,9.46-9.456a.963.963,0,0,0,.2-.313.9.9,0,0,0,0-.74A.963.963,0,0,0,1486.31,209.412Zm-12.52,11.39.45-1.821,1.37,1.365Zm11.95-10.289-9.57,9.574-1.67-1.67,9.57-9.574a.624.624,0,0,1,.42-.173.588.588,0,0,1,.42.173l.83.833a.576.576,0,0,1,0,.837Z" transform="translate(-1469 -204)" fill="#6be8c6" stroke="#5a5a5a" stroke-width="1"/>
    <g id="Group_2592" data-name="Group 2592" transform="translate(-176 -239)" clip-path="url(#clip-path-2)">
      <path id="Path_1030" data-name="Path 1030" d="M1293,231.6V55.5c0-29.1,18.3-51,46.7-56.1a61.811,61.811,0,0,1,11.4-.6c23.9,0,47.8-.1,71.7,0,3.5,0,5.4-.8,7.2-4.1,10.9-19.3,27.9-29.7,50-29.7s39.1,10.4,49.9,29.9c1.7,3,3.3,4.1,6.7,4,24.2-.2,48.5.5,72.7-.2,32.1-.9,57.8,24.8,57.7,57.9-.5,116.9-.2,233.8-.2,350.6,0,27.9-17.7,49.9-44.5,55.4a66.679,66.679,0,0,1-13.4,1q-129.15.15-258.2,0c-34.4.1-57.7-23.3-57.7-57.9ZM1386.4,24c-13.6,0-27.6-.3-41.6.1-7.1.2-13.2,3.7-18.3,8.8-6.2,6.5-8.5,14.4-8.5,23.2V409.2c1,17.3,13.4,29.2,30.7,29.2H1611a32.964,32.964,0,0,0,7.7-.7c14.9-3.6,23.2-15.1,23.2-31.9V53.2c-.9-15.7-11.7-27.8-27.1-29.2-8.2-.7-16.6-.2-24.9-.2h-17.5c0,5,.1,9.3,0,13.6-.9,27.7-23.8,51.2-51.6,51.8-27.2.6-54.4.5-81.5,0-22.9-.4-43.7-16.8-49.5-38.9C1387.6,42,1387.5,33.3,1386.4,24Zm160.9-.2h-22.6c-7.9,0-11.8-2.9-14.2-10.3-4.7-14.9-15.8-23.4-30.4-23.4s-26,8.6-30.5,23.3c-2.3,7.4-6.3,10.4-14.1,10.4h-23.1V34.1c.2,17.2,13,30.2,30.1,30.3q37.35.15,74.7,0c15.5,0,27.6-10.2,29.9-25.4C1547.9,34.3,1547.3,29.3,1547.3,23.8Z" transform="translate(-1293 35)"/>
      <path id="Path_1031" data-name="Path 1031" d="M1459.8,275.1c12.8-12.5,25.4-24.7,38-37,14.4-14,28.6-28.1,43.1-42,7.7-7.4,19.2-4.4,21.6,5.6,1.3,5.3-1,9.4-4.7,12.9-19.8,19.3-39.6,38.7-59.4,58-9.4,9.2-18.8,18.4-28.2,27.5-7.2,7-13.6,7-20.7,0-16-15.6-32-31.1-47.9-46.8-5.3-5.2-6-11.4-2.3-16.8,3.3-4.8,9.9-6.9,15.1-4.3a29.94,29.94,0,0,1,6.9,5.4C1434.1,249.9,1446.8,262.4,1459.8,275.1Z" transform="translate(-1293 35)"/>
    </g>
  </g>
</svg>
