<svg xmlns="http://www.w3.org/2000/svg" width="3.074" height="15.398" viewBox="0 0 3.074 15.398">
  <g id="Group_2898" data-name="Group 2898" transform="translate(0.4 0.4)">
    <g id="Group_2899" data-name="Group 2899">
      <path id="Path_1667" data-name="Path 1667" d="M511.833,68.45c0-.28,0-.561,0-.841s.156-.461.406-.461q.728,0,1.456,0c.253,0,.41.18.411.469q0,.831,0,1.663c0,.286-.156.463-.4.464q-.732,0-1.465,0c-.252,0-.4-.174-.4-.461S511.833,68.727,511.833,68.45Zm1.508.426v-.854H512.6v.854Z" transform="translate(-511.832 -67.146)" fill="#5a5a5a" stroke="#5a5a5a" stroke-width="0.8"/>
      <path id="Path_1668" data-name="Path 1668" d="M511.833,68.45c0-.28,0-.561,0-.841s.156-.461.406-.461q.728,0,1.456,0c.253,0,.41.18.411.469q0,.831,0,1.663c0,.286-.156.463-.4.464q-.732,0-1.465,0c-.252,0-.4-.174-.4-.461S511.833,68.727,511.833,68.45Zm1.508.426v-.854H512.6v.854Z" transform="translate(-511.832 -61.146)" fill="#5a5a5a" stroke="#5a5a5a" stroke-width="0.8"/>
      <path id="Path_1669" data-name="Path 1669" d="M511.833,68.45c0-.28,0-.561,0-.841s.156-.461.406-.461q.728,0,1.456,0c.253,0,.41.18.411.469q0,.831,0,1.663c0,.286-.156.463-.4.464q-.732,0-1.465,0c-.252,0-.4-.174-.4-.461S511.833,68.727,511.833,68.45Zm1.508.426v-.854H512.6v.854Z" transform="translate(-511.832 -55.146)" fill="#5a5a5a" stroke="#5a5a5a" stroke-width="0.8"/>
    </g>
  </g>
</svg>
