<svg xmlns="http://www.w3.org/2000/svg" xmlns:xlink="http://www.w3.org/1999/xlink" width="18.319" height="16.448" viewBox="0 0 18.319 16.448">
  <defs>
    <linearGradient id="linear-gradient" x1="0.5" x2="0.5" y2="1" gradientUnits="objectBoundingBox">
      <stop offset="0" stop-color="#4adede"/>
      <stop offset="1" stop-color="#6172d6"/>
    </linearGradient>
  </defs>
  <path id="Path_1782" data-name="Path 1782" d="M29.6,36.449a1.407,1.407,0,0,0,1.041-.407A1.376,1.376,0,0,0,31,35.019c-.013-.251-.009-.507-.009-.776v-.165c.28,0,.56,0,.84,0s.577,0,.866,0c.455,0,.831,0,1.177.009h.039a1.341,1.341,0,0,0,1.36-.9l.057-.035V28.091l-.009-.026c-.022-.078-.039-.156-.061-.238a3.925,3.925,0,0,0-.166-.563,3.188,3.188,0,0,0-2.082-1.876.579.579,0,0,0,.061-.082,3.2,3.2,0,0,0,.656-1.777.492.492,0,0,0-.442-.568h-.044a.493.493,0,0,0-.481.5,2.281,2.281,0,0,1-1.107,1.85,2.352,2.352,0,0,1-1.242.373,2.453,2.453,0,0,1-.98-.212.2.2,0,0,1-.039-.065,3.32,3.32,0,0,0-1.277-2.31.137.137,0,0,1-.066-.165,2.36,2.36,0,0,1,2.3-1.946c.07,0,.14,0,.21.009a2.327,2.327,0,0,1,2.034,1.473.015.015,0,0,0,0,.009.154.154,0,0,0,.017.039.5.5,0,0,0,.674.329.493.493,0,0,0,.232-.706,3.355,3.355,0,0,0-3.167-2.128c-.087,0-.179,0-.267.009a3.253,3.253,0,0,0-1.872.789,3.339,3.339,0,0,0-1.072,1.746v0s0,0-.009,0a3.307,3.307,0,0,0-1.072-.178,3.413,3.413,0,0,0-1.085.182,3.355,3.355,0,0,0-4.431-2.336.49.49,0,0,0-.328.607.473.473,0,0,0,.459.334.543.543,0,0,0,.184-.03,2.748,2.748,0,0,1,.875-.156,2.185,2.185,0,0,1,.6.087,2.293,2.293,0,0,1,1.723,1.92.128.128,0,0,1-.031.065,3.45,3.45,0,0,0-1.321,2.375.175.175,0,0,1-.044.052,2.266,2.266,0,0,1-.94.2A2.375,2.375,0,0,1,19.4,23.783a2.257,2.257,0,0,1,.643-2.11l.018-.017a.782.782,0,0,0,.079-.087.472.472,0,0,0-.035-.68.477.477,0,0,0-.687.043c-.039.043-.079.091-.118.134a3.8,3.8,0,0,0-.5.663,3.229,3.229,0,0,0,.354,3.718,4.041,4.041,0,0,0-.538.256,3.078,3.078,0,0,0-1.6,2.734c-.013,1.066-.009,2.145,0,3.193,0,.377,0,.758,0,1.135a1.271,1.271,0,0,0,1.339,1.317h2.992v1.04a1.291,1.291,0,0,0,1.347,1.33h2.817c.4,0,.8,0,1.207,0s.8,0,1.2,0c.639,0,1.168,0,1.653.013C29.581,36.449,29.589,36.449,29.6,36.449Zm.337-7.778a.5.5,0,0,0-.284.1.479.479,0,0,0-.1.689,1.372,1.372,0,0,0,.079.117c.026.039.053.074.074.113a1.805,1.805,0,0,1,.3.932c.013,1.538.013,3.089.013,4.545a.29.29,0,0,1-.332.321H22.665a.293.293,0,0,1-.332-.321c0-.312,0-.62,0-.932,0-1.153-.009-2.34.013-3.51a2.2,2.2,0,0,1,1.71-2.067h0a1.358,1.358,0,0,1,.3-.048.388.388,0,0,1,.188.043,3.4,3.4,0,0,0,1.5.364,3.572,3.572,0,0,0,1.522-.36.7.7,0,0,1,.293-.052h.026a2.174,2.174,0,0,1,.98.277.557.557,0,0,0,.267.069.47.47,0,0,0,.42-.251.462.462,0,0,0,.035-.364.532.532,0,0,0-.289-.312c-.175-.082-.35-.16-.529-.225q-.066-.026-.092-.039a.684.684,0,0,1,.048-.069,3.406,3.406,0,0,0,.538-1.066c.022-.078.039-.121.048-.147.048.009.118.026.149.035a3.379,3.379,0,0,0,.958.143,3.072,3.072,0,0,0,1.339-.308,1.057,1.057,0,0,1,.468-.108,1.6,1.6,0,0,1,.359.048,2.23,2.23,0,0,1,1.767,2.253c0,1.079,0,2.171,0,3.232v.936c0,.316-.087.4-.407.4H30.994v-.637c0-.533,0-1.079-.009-1.621a3.411,3.411,0,0,0-.153-.979,4.521,4.521,0,0,0-.42-.849l-.048-.082A.487.487,0,0,0,29.935,28.671ZM18.413,33.1c-.354,0-.433-.078-.433-.429V28.58a2.88,2.88,0,0,1,.035-.494,2.242,2.242,0,0,1,1.894-1.837.864.864,0,0,1,.1-.009.49.49,0,0,1,.227.056,3.18,3.18,0,0,0,1.457.347h.031a3.437,3.437,0,0,0,1.063-.178,3.3,3.3,0,0,0,.687,1.356,3.178,3.178,0,0,0-2.139,3.064v2.223Zm7.637-9.754a2.432,2.432,0,0,1,1.715.715,2.235,2.235,0,0,1,.661,1.612,2.38,2.38,0,0,1-2.4,2.366h-.035a2.347,2.347,0,0,1,.039-4.693Z" transform="translate(-17.009 -20.009)" fill="url(#linear-gradient)"/>
</svg>
