<svg xmlns="http://www.w3.org/2000/svg" width="254.999" height="80.001" viewBox="0 0 254.999 80.001">
  <g id="Group_253" data-name="Group 253" transform="translate(-10)">
    <g id="Group_251" data-name="Group 251" transform="translate(105.678 21.668)">
      <path id="Path_156" data-name="Path 156" d="M1329.184,474.972V439.727a.709.709,0,0,1,.709-.709h12.614a19.918,19.918,0,0,1,7.875,1.446,15.831,15.831,0,0,1,9.063,9.734,21.863,21.863,0,0,1,1.136,7.1,21.463,21.463,0,0,1-1.265,7.565,16.16,16.16,0,0,1-3.64,5.784,16.4,16.4,0,0,1-5.706,3.718,20.145,20.145,0,0,1-7.462,1.317h-12.614A.709.709,0,0,1,1329.184,474.972ZM1353.4,457.3a15.613,15.613,0,0,0-.723-4.854,10.878,10.878,0,0,0-2.117-3.821,9.44,9.44,0,0,0-3.434-2.479,11.6,11.6,0,0,0-4.622-.878h-5.478a.718.718,0,0,0-.718.718v22.73a.718.718,0,0,0,.718.718h5.478a11.16,11.16,0,0,0,4.673-.93,9.57,9.57,0,0,0,3.408-2.556,11.388,11.388,0,0,0,2.092-3.847A15.431,15.431,0,0,0,1353.4,457.3Z" transform="translate(-1329.184 -439.018)"/>
      <rect id="Rectangle_173" data-name="Rectangle 173" width="6.92" height="6.868" rx="3.434" transform="translate(36.302 0)" fill="#d32929"/>
      <rect id="Rectangle_174" data-name="Rectangle 174" width="6.92" height="27.059" rx="3.46" transform="translate(36.302 9.605)"/>
      <path id="Path_157" data-name="Path 157" d="M1673.437,526.856a20.933,20.933,0,0,1-6.661-1.084,16.5,16.5,0,0,1-5.1-2.7.709.709,0,0,1-.166-.918l1.884-3.165a.71.71,0,0,1,1.007-.224,21.4,21.4,0,0,0,4.209,2.233,12.935,12.935,0,0,0,4.673.9,5.909,5.909,0,0,0,3.253-.775,2.5,2.5,0,0,0,1.188-2.22,2.219,2.219,0,0,0-1.394-2.117,30.261,30.261,0,0,0-4.544-1.549q-2.633-.722-4.493-1.394a11.506,11.506,0,0,1-3-1.523,5.2,5.2,0,0,1-1.652-1.962,6.26,6.26,0,0,1-.517-2.659,8.418,8.418,0,0,1,.8-3.718,8.1,8.1,0,0,1,2.246-2.814,10.4,10.4,0,0,1,3.382-1.781,13.74,13.74,0,0,1,4.209-.62,18.108,18.108,0,0,1,5.706.878,13.777,13.777,0,0,1,4.39,2.425.709.709,0,0,1,.139.942l-2.032,3.048a.705.705,0,0,1-.993.183,15.467,15.467,0,0,0-3.414-1.846,10.95,10.95,0,0,0-3.847-.723,5.569,5.569,0,0,0-2.943.723,2.515,2.515,0,0,0-1.188,2.324,2.245,2.245,0,0,0,.284,1.188,2.492,2.492,0,0,0,.9.826,8.765,8.765,0,0,0,1.627.7q1.007.337,2.5.7,2.788.724,4.777,1.446a13.043,13.043,0,0,1,3.253,1.652,5.9,5.9,0,0,1,1.859,2.143,6.592,6.592,0,0,1,.594,2.918,7.529,7.529,0,0,1-2.943,6.274A12.681,12.681,0,0,1,1673.437,526.856Z" transform="translate(-1613.743 -490.192)"/>
      <path id="Path_158" data-name="Path 158" d="M1871.132,475.365l-7.157-10.689a.716.716,0,0,0-1.1-.111l-2.847,2.807a.857.857,0,0,0-.255.61v6.988a.709.709,0,0,1-.709.709h-5.5a.709.709,0,0,1-.709-.709V439.725a.709.709,0,0,1,.709-.709h5.5a.709.709,0,0,1,.709.709v19.259a.714.714,0,0,0,1.247.474l9.386-10.548a.708.708,0,0,1,.53-.238h5.5a.709.709,0,0,1,.533,1.177l-8.666,9.866a.716.716,0,0,0-.05.88l9.7,13.97a.709.709,0,0,1-.582,1.114h-5.65A.709.709,0,0,1,1871.132,475.365Z" transform="translate(-1777.723 -439.016)"/>
      <path id="Path_159" data-name="Path 159" d="M2291.527,526.856a20.934,20.934,0,0,1-6.662-1.084,16.507,16.507,0,0,1-5.1-2.7.709.709,0,0,1-.166-.918l1.884-3.165a.71.71,0,0,1,1.006-.224,21.4,21.4,0,0,0,4.209,2.233,12.935,12.935,0,0,0,4.673.9,5.907,5.907,0,0,0,3.253-.775,2.5,2.5,0,0,0,1.188-2.22,2.219,2.219,0,0,0-1.394-2.117,30.263,30.263,0,0,0-4.544-1.549q-2.634-.722-4.493-1.394a11.506,11.506,0,0,1-3-1.523,5.2,5.2,0,0,1-1.652-1.962,6.257,6.257,0,0,1-.517-2.659,8.418,8.418,0,0,1,.8-3.718,8.1,8.1,0,0,1,2.246-2.814,10.394,10.394,0,0,1,3.382-1.781,13.74,13.74,0,0,1,4.208-.62,18.109,18.109,0,0,1,5.706.878,13.777,13.777,0,0,1,4.389,2.425.709.709,0,0,1,.139.942l-2.032,3.048a.705.705,0,0,1-.993.183,15.466,15.466,0,0,0-3.415-1.846,10.949,10.949,0,0,0-3.847-.723,5.569,5.569,0,0,0-2.943.723,2.515,2.515,0,0,0-1.188,2.324,2.243,2.243,0,0,0,.284,1.188,2.49,2.49,0,0,0,.9.826,8.769,8.769,0,0,0,1.626.7q1.007.337,2.5.7,2.788.724,4.776,1.446a13.046,13.046,0,0,1,3.253,1.652,5.891,5.891,0,0,1,1.859,2.143,6.589,6.589,0,0,1,.594,2.918,7.528,7.528,0,0,1-2.943,6.274A12.679,12.679,0,0,1,2291.527,526.856Z" transform="translate(-2143.153 -490.192)"/>
      <path id="Path_160" data-name="Path 160" d="M2071.385,529.943a7.683,7.683,0,0,1-6.352-2.685q-2.169-2.684-2.169-7.952v-16.23a.707.707,0,0,1,.708-.707h5.5a.707.707,0,0,1,.707.707v14.733q0,6.249,4.493,6.248a7.106,7.106,0,0,0,3.9-1.214,8.629,8.629,0,0,0,3-3.542.711.711,0,0,0,.073-.316V503.076a.707.707,0,0,1,.708-.707h5.5a.708.708,0,0,1,.708.707v18.4a2.431,2.431,0,0,0,.387,1.549,1.383,1.383,0,0,0,.734.436.7.7,0,0,1,.531.67v4.709a.708.708,0,0,1-.587.7q-.654.112-1.143.149-.7.051-1.265.052a4.984,4.984,0,0,1-3.021-.852,3.353,3.353,0,0,1-1.368-2.349l-.021-.29a.706.706,0,0,0-1.231-.422,11.288,11.288,0,0,1-3.55,2.726A13.984,13.984,0,0,1,2071.385,529.943Z" transform="translate(-1957.6 -493.279)"/>
    </g>
    <g id="Group_252" data-name="Group 252" transform="translate(10)">
      <path id="Path_161" data-name="Path 161" d="M727.5,411.127a26.087,26.087,0,0,1-25.274,26.078H669.242v0c.108-.125.21-.255.307-.389a5.937,5.937,0,0,0,.514-.852c.04-.08.079-.162.115-.244a6.067,6.067,0,0,0-.628-5.991c-.1-.135-.2-.264-.307-.39h32.206a18.207,18.207,0,0,0,0-36.414H677.78a3.935,3.935,0,1,1,0-7.87h24.494A26.089,26.089,0,0,1,727.5,411.127Z" transform="translate(-658.248 -371.125)" fill="#0036ab"/>
      <circle id="Ellipse_46" data-name="Ellipse 46" cx="3.935" cy="3.935" r="3.935" transform="translate(0 58.209)" fill="#d32929"/>
      <circle id="Ellipse_47" data-name="Ellipse 47" cx="3.935" cy="3.935" r="3.935" transform="translate(29.267 72.13)" fill="#d32929"/>
      <path id="Path_162" data-name="Path 162" d="M831.215,327.993a39.815,39.815,0,0,1-3.865,17.172q-.144.308-.3.611a3.972,3.972,0,0,1-7.108-3.489c.09-.181.179-.363.265-.547a32.15,32.15,0,0,0-9.54-39.279l-.735-.545a31.968,31.968,0,0,0-18.774-6.055H778.089a3.989,3.989,0,0,1-4.016-3.825,3.936,3.936,0,0,1,3.934-4.046h13.205a39.994,39.994,0,0,1,40,40Z" transform="translate(-748.038 -287.991)" fill="#0036ab"/>
      <path id="Path_163" data-name="Path 163" d="M902.243,730.668a3.948,3.948,0,0,1-1.158,2.8,0,0,0,0,1,0,0c-.113.1-.228.205-.343.3q-1.263,1.119-2.618,2.125a39.82,39.82,0,0,1-23.319,7.871h-3.742c.033-.039.066-.078.1-.118a6.056,6.056,0,0,0-.1-7.753h2.759l.415,0,.415,0a32,32,0,0,0,20.887-8.075c.078-.067.154-.136.23-.207,0,0,0,0,0,0a3.957,3.957,0,0,1,6.472,3.055Z" transform="translate(-831.113 -663.766)" fill="#0036ab"/>
    </g>
  </g>
</svg>
