<svg xmlns="http://www.w3.org/2000/svg" width="32.885" height="28.19" viewBox="0 0 32.885 28.19">
  <g id="Group_2584" data-name="Group 2584" transform="translate(-0.995 -0.012)">
    <path id="Path_920" data-name="Path 920" d="M13.61,29.674c-.631,0-.8-.175-.8-.82V27.62H6.98a.789.789,0,0,1-.64-.2.791.791,0,0,1-.072-.663l.92-4.715H1.73a.766.766,0,0,1-.577-.157A.794.794,0,0,1,1,21.3v-.387a5.639,5.639,0,0,1,.054-1.105,3.178,3.178,0,0,1,2.959-2.717c.424-.028.875-.037,1.416-.037.451,0,.9.009,1.344.018l.388.009a3.87,3.87,0,0,1,.722.092c.09.018.18.037.271.046l.1-.5c.09-.433.18-.875.262-1.308.162-.838.325-1.667.487-2.5.153-.792.307-1.593.469-2.385.081-.424.28-.58.731-.58h2.228c.009-.046.018-.092.027-.129.027-.138.063-.267.09-.387a3.438,3.438,0,0,1,3.211-2.606c.55-.018,1.11-.018,1.66-.018.577,0,1.173.009,1.75.028a3.443,3.443,0,0,1,3.211,2.818c.045.249.108.313.316.313h.036c.253-.009.514-.018.839-.018h1.083c.5,0,.668.147.767.654.433,2.183.857,4.356,1.29,6.539a.174.174,0,0,0,.018.064,18.227,18.227,0,0,1,2.544-.193,12.375,12.375,0,0,1,2.147.175,3.124,3.124,0,0,1,2.454,3.048c.009.405.009.8.009,1.142-.009.47-.2.663-.668.663H27.691l.18.939c.162.829.325,1.639.478,2.45l.271,1.381a.727.727,0,0,1-.081.608.662.662,0,0,1-.559.2H22.071v1.216c0,.672-.171.838-.821.838H13.61Zm7.343-1.16v-.451a2.048,2.048,0,0,0-1.894-2.192c-.559-.046-1.11-.064-1.642-.064s-1.065.018-1.579.064a2.036,2.036,0,0,0-1.5.838,2.324,2.324,0,0,0-.361,1.805Zm-3.509-3.84c.451,0,.92,0,1.371.009a3.141,3.141,0,0,1,2.8,1.6.338.338,0,0,0,.343.193c1.028-.009,2.057-.009,2.941-.009h2.3a1.492,1.492,0,0,0,.2-.009h.018l-.875-4.43h-1.3a.574.574,0,0,1-.64-.626c-.009-.368-.009-.737,0-1.077a3.408,3.408,0,0,1,.992-2.339.407.407,0,0,0,.081-.295c-.28-1.51-.586-3.039-.875-4.522l-.036-.166c-.09-.451-.18-.9-.271-1.345-.036-.184-.072-.368-.108-.543H10.516v.009c-.009.046-.027.092-.036.129L10.335,12c-.37,1.888-.758,3.84-1.128,5.756a.356.356,0,0,0,.09.23,2.947,2.947,0,0,1,.893,1.648,13.32,13.32,0,0,1,.09,1.833.562.562,0,0,1-.153.405.6.6,0,0,1-.442.166H8.342l-.875,4.43a.333.333,0,0,0,.09.009H9.839c1.272,0,2.246,0,3.148-.009a.376.376,0,0,0,.253-.166,3.248,3.248,0,0,1,2.832-1.621C16.533,24.682,16.993,24.673,17.444,24.673Zm15.317-3.794v-.488a2.1,2.1,0,0,0-2.093-2.173c-.568-.009-1.046-.009-1.488-.009-.505,0-.965.009-1.407.018a2.083,2.083,0,0,0-1.615.838,2.235,2.235,0,0,0-.4,1.814Zm-23.6-.018c0-.074-.009-.157-.009-.23-.009-.221-.018-.442-.045-.645a2.055,2.055,0,0,0-1.8-1.74c-.4-.009-.812-.018-1.317-.018-.37,0-.74,0-1.11.009-.316,0-.631.009-.947.009a.755.755,0,0,0-.207.037A2.2,2.2,0,0,0,2.136,20.87H9.163ZM21.268,9.929a2.066,2.066,0,0,0-1.642-1.851c-.722-.064-1.461-.092-2.183-.092s-1.47.028-2.192.092a2.037,2.037,0,0,0-1.633,1.851Z" transform="translate(0 -1.473)" fill="#fff"/>
    <path id="Path_921" data-name="Path 921" d="M26.712,17.331a14.807,14.807,0,0,1,4.727-.028,3.02,3.02,0,0,1,2.372,2.965c.009.378.009.755.009,1.133-.009.424-.153.571-.577.571H27.614c.235,1.188.46,2.339.686,3.5l.271,1.381c.1.47-.081.7-.55.7h-6v1.308c0,.617-.135.746-.731.746H13.623c-.577,0-.713-.138-.713-.728V27.553H6.992c-.577,0-.731-.193-.622-.755.316-1.593.622-3.186.947-4.826H1.742c-.505,0-.64-.129-.64-.654a8.881,8.881,0,0,1,.045-1.473A3.108,3.108,0,0,1,4.033,17.2c1.046-.055,2.093-.028,3.139-.009a9.554,9.554,0,0,1,1.064.157c.126-.617.253-1.252.379-1.888q.487-2.445.956-4.89c.072-.378.235-.506.64-.506h2.3c.054-.212.09-.405.144-.589a3.324,3.324,0,0,1,3.121-2.533q1.7-.041,3.41,0a3.33,3.33,0,0,1,3.121,2.744c.054.295.153.4.451.387.641-.028,1.281-.009,1.921-.009.46,0,.586.12.677.58.433,2.183.857,4.356,1.29,6.539C26.676,17.239,26.694,17.294,26.712,17.331Zm-.072,4.642H25.268c-.37,0-.541-.166-.55-.543-.009-.359-.009-.709,0-1.068a3.337,3.337,0,0,1,.965-2.284.507.507,0,0,0,.108-.378c-.3-1.566-.6-3.122-.911-4.688-.126-.654-.262-1.317-.4-1.971H10.474c-.018.083-.045.147-.054.212-.424,2.164-.857,4.338-1.272,6.5a.427.427,0,0,0,.117.313,2.89,2.89,0,0,1,.866,1.6,13.51,13.51,0,0,1,.09,1.814.451.451,0,0,1-.505.479H8.309C8,23.519,7.7,25.03,7.4,26.558c.081.009.135.028.189.028,1.813,0,3.626.009,5.439-.009a.465.465,0,0,0,.325-.2A3.152,3.152,0,0,1,16.1,24.8q1.367-.014,2.733,0a3.071,3.071,0,0,1,2.724,1.556.424.424,0,0,0,.424.239c1.741-.009,3.491-.009,5.232-.009.1,0,.2-.009.334-.018C27.253,25.039,26.946,23.528,26.639,21.972ZM21.065,28.63v-.553a2.148,2.148,0,0,0-1.985-2.284,20.02,20.02,0,0,0-3.238,0,2.233,2.233,0,0,0-1.93,2.836ZM2.094,20.978H9.284c-.018-.341-.018-.663-.054-.985a2.135,2.135,0,0,0-1.885-1.823C6.226,18.132,5.1,18.16,3.97,18.16a1.036,1.036,0,0,0-.235.037A2.329,2.329,0,0,0,2.094,20.978ZM32.873,21v-.58A2.189,2.189,0,0,0,30.69,18.15c-.965-.018-1.93-.018-2.9,0a2.257,2.257,0,0,0-2.075,2.836C28.083,21,30.455,21,32.873,21ZM21.389,10.046a2.151,2.151,0,0,0-1.723-2.035,25,25,0,0,0-4.393,0,2.132,2.132,0,0,0-1.714,2.035Z" transform="translate(-0.021 -1.497)" fill="#fff"/>
    <path id="Path_922" data-name="Path 922" d="M21.223,5.611A2.777,2.777,0,0,1,18.517,2.8,2.766,2.766,0,0,1,21.25.012h.018a2.766,2.766,0,0,1,2.706,2.809,2.778,2.778,0,0,1-2.724,2.8Zm.009-4.457a1.61,1.61,0,0,0-1.588,1.658A1.607,1.607,0,0,0,22.4,3.962a1.69,1.69,0,0,0,.46-1.179,1.635,1.635,0,0,0-1.6-1.63Z" transform="translate(-3.797)" fill="#fff"/>
    <path id="Path_923" data-name="Path 923" d="M23.908,2.837a2.64,2.64,0,1,1-5.277-.009,2.639,2.639,0,1,1,5.277.009Zm-.947-.028a1.7,1.7,0,1,0-3.392.037,1.7,1.7,0,1,0,3.392-.037Z" transform="translate(-3.822 -0.025)" fill="#fff"/>
    <path id="Path_924" data-name="Path 924" d="M6.207,19a2.584,2.584,0,0,1-2.535-2.6A2.625,2.625,0,0,1,4.4,14.555a2.522,2.522,0,0,1,3.635.018A2.61,2.61,0,0,1,6.207,19Zm.018-4.061A1.407,1.407,0,0,0,4.8,16.388a1.426,1.426,0,0,0,1.425,1.455,1.4,1.4,0,0,0,1.01-.433A1.47,1.47,0,0,0,7.65,16.37,1.443,1.443,0,0,0,6.225,14.942Z" transform="translate(-0.58 -2.986)" fill="#fff"/>
    <path id="Path_925" data-name="Path 925" d="M6.243,13.909a2.5,2.5,0,0,1,2.481,2.5,2.533,2.533,0,0,1-2.481,2.523,2.486,2.486,0,0,1-2.445-2.5A2.451,2.451,0,0,1,6.243,13.909Zm-1.506,2.5a1.511,1.511,0,1,0,1.515-1.538A1.518,1.518,0,0,0,4.737,16.414Z" transform="translate(-0.608 -3.011)" fill="#fff"/>
    <path id="Path_926" data-name="Path 926" d="M36.336,19a2.607,2.607,0,0,1,.036-5.212h.045a2.549,2.549,0,0,1,2.5,2.625A2.589,2.589,0,0,1,36.372,19Zm.045-4.061a1.424,1.424,0,0,0-1.434,1.437,1.473,1.473,0,0,0,.406,1.022,1.417,1.417,0,0,0,2.021.018,1.476,1.476,0,0,0,.415-1.05A1.416,1.416,0,0,0,36.381,14.942Z" transform="translate(-7.111 -2.986)" fill="#fff"/>
    <path id="Path_927" data-name="Path 927" d="M38.839,16.443A2.463,2.463,0,1,1,36.43,13.92,2.449,2.449,0,0,1,38.839,16.443ZM36.4,14.878a1.539,1.539,0,1,0,1.488,1.52A1.5,1.5,0,0,0,36.4,14.878Z" transform="translate(-7.133 -3.014)" fill="#fff"/>
    <path id="Path_928" data-name="Path 928" d="M21.277,28.726a2.506,2.506,0,0,1-1.8-.764,2.617,2.617,0,0,1,1.786-4.448h.036a2.61,2.61,0,0,1,2.544,2.6,2.568,2.568,0,0,1-2.553,2.615Zm.009-4.052a1.438,1.438,0,0,0-1.416,1.464,1.4,1.4,0,0,0,1.425,1.437H21.3a1.349,1.349,0,0,0,.992-.424A1.508,1.508,0,0,0,22.7,26.1a1.428,1.428,0,0,0-1.407-1.427Z" transform="translate(-3.842 -5.093)" fill="#fff"/>
    <path id="Path_929" data-name="Path 929" d="M21.322,28.66a2.482,2.482,0,0,1-2.472-2.514,2.468,2.468,0,1,1,2.472,2.514Zm1.5-2.533a1.507,1.507,0,1,0-3.013.037,1.507,1.507,0,1,0,3.013-.037Z" transform="translate(-3.869 -5.118)" fill="#fff"/>
  </g>
</svg>
