<svg xmlns="http://www.w3.org/2000/svg" xmlns:xlink="http://www.w3.org/1999/xlink" width="17.343" height="16.616" viewBox="0 0 17.343 16.616">
  <defs>
    <linearGradient id="linear-gradient" x1="0.5" x2="0.5" y2="1" gradientUnits="objectBoundingBox">
      <stop offset="0" stop-color="#4adede"/>
      <stop offset="1" stop-color="#6172d6"/>
    </linearGradient>
  </defs>
  <g id="Group_1960" data-name="Group 1960" transform="translate(0 0)">
    <path id="Path_614" data-name="Path 614" d="M242.717,100.27a1.44,1.44,0,0,1-.483.674c-1.167,1.014-2.326,2.037-3.492,3.052a.24.24,0,0,0-.087.273q.537,2.336,1.067,4.674a.928.928,0,0,1-.791,1.2.962.962,0,0,1-.641-.167q-1.276-.765-2.553-1.528c-.518-.309-1.037-.616-1.552-.93a.225.225,0,0,0-.271,0q-2.05,1.233-4.1,2.457a.986.986,0,0,1-.756.153.91.91,0,0,1-.7-1.058c.247-1.138.509-2.273.765-3.409.105-.466.211-.933.322-1.4a.226.226,0,0,0-.083-.258q-1.818-1.585-3.629-3.178a.9.9,0,0,1-.314-.986.877.877,0,0,1,.792-.661c.308-.037.617-.061.926-.089l2.863-.26c.354-.032.707-.065,1.061-.093a.24.24,0,0,0,.231-.173c.61-1.441,1.232-2.876,1.839-4.319a.95.95,0,0,1,1.835-.011c.611,1.447,1.233,2.889,1.847,4.335a.229.229,0,0,0,.217.166c.68.057,1.359.12,2.038.182l2.475.227c.118.011.236.019.353.035a.9.9,0,0,1,.793.682c0,.014.02.025.03.037Zm-15.975-.045-.022.045a.766.766,0,0,1,.1.063q.695.607,1.388,1.216,1.006.881,2.012,1.762a.949.949,0,0,1,.329.987c-.171.757-.346,1.514-.518,2.272s-.345,1.524-.523,2.314l.177-.1c1.263-.755,2.527-1.506,3.786-2.268a1.027,1.027,0,0,1,1.158,0c1.254.758,2.513,1.507,3.77,2.259.055.033.112.062.179.1,0-.034,0-.051-.008-.067q-.508-2.239-1.017-4.478a.964.964,0,0,1,.327-1.017q1.295-1.13,2.585-2.264c.3-.263.6-.527.932-.821l-.763-.067c-1.23-.111-2.458-.237-3.689-.328a1.19,1.19,0,0,1-1.136-.813c-.532-1.309-1.1-2.6-1.656-3.9-.029-.068-.061-.136-.107-.238l-.813,1.9q-.511,1.2-1.021,2.392a.922.922,0,0,1-.763.616c-.476.057-.954.094-1.431.137l-2.8.248C227.061,100.189,226.9,100.208,226.742,100.225Z" transform="translate(-225.374 -93.534)" fill="url(#linear-gradient)"/>
    <path id="Path_625" data-name="Path 625" d="M1.015,6.312,6.139,5.84,8.755.789l2.58,5.05,5.414.473L12.9,10.418l.763,5.706L9.118,13.471s-5.632,2.871-5.632,2.653,1.49-5.706,1.49-5.706L.651,6.712Z" transform="translate(-0.108 -0.132)" fill="url(#linear-gradient)"/>
  </g>
</svg>
