<svg xmlns="http://www.w3.org/2000/svg" width="21.837" height="21.839" viewBox="0 0 21.837 21.839">
  <g id="Group_3963" data-name="Group 3963" transform="translate(0)">
    <path id="Path_1954" data-name="Path 1954" d="M-426.32,226.134H-441.8a.55.55,0,0,0-.1-.037,3.655,3.655,0,0,1-3.027-2.879c-.021-.095-.049-.188-.073-.282v-8.827a.757.757,0,0,0,.04-.12,3.556,3.556,0,0,1,1.167-2.142q3.6-3.265,7.2-6.532a3.61,3.61,0,0,1,5.046.014q3.573,3.247,7.151,6.489a3.584,3.584,0,0,1,1.234,2.788c0,2.565,0,5.13-.005,7.7a3.861,3.861,0,0,1-.09.886,3.58,3.58,0,0,1-2.8,2.88C-426.145,226.088-426.232,226.112-426.32,226.134Zm-7.827-2.094q3.571,0,7.143,0a1.448,1.448,0,0,0,1.541-1.531q0-3.89,0-7.781a1.773,1.773,0,0,0-.6-1.358c-2.353-2.145-4.72-4.273-7.065-6.426a1.512,1.512,0,0,0-2.013.013c-.779.7-1.548,1.4-2.322,2.1q-2.424,2.2-4.851,4.392a1.266,1.266,0,0,0-.467.8,4.5,4.5,0,0,0-.033.531q0,3.816,0,7.632a1.484,1.484,0,0,0,1.613,1.619Z" transform="translate(445 -204.294)" fill="#d8a709"/>
  </g>
</svg>
