<svg xmlns="http://www.w3.org/2000/svg" width="12.628" height="14.733" viewBox="0 0 12.628 14.733">
  <path id="Icon_metro-file-pdf" data-name="Icon metro-file-pdf" d="M14.64,5.328a1.913,1.913,0,0,1,.395.625,1.9,1.9,0,0,1,.164.723v9.471a.786.786,0,0,1-.789.789H3.36a.786.786,0,0,1-.789-.789V2.993A.786.786,0,0,1,3.36,2.2h7.366a1.9,1.9,0,0,1,.723.164,1.913,1.913,0,0,1,.625.395Zm-3.65-2.006V6.413h3.091a.9.9,0,0,0-.181-.337L11.326,3.5a.9.9,0,0,0-.337-.181Zm3.157,12.562V7.465h-3.42a.786.786,0,0,1-.789-.789V3.256H3.623V15.884H14.146ZM9.921,11.008a6.255,6.255,0,0,0,.691.46,8.158,8.158,0,0,1,.962-.058q1.209,0,1.455.4a.4.4,0,0,1,.016.428.024.024,0,0,1-.008.016l-.016.016v.008q-.049.312-.584.312a3.391,3.391,0,0,1-.945-.164A6,6,0,0,1,10.422,12a14.8,14.8,0,0,0-3.223.682q-1.258,2.154-1.99,2.154a.478.478,0,0,1-.23-.058l-.2-.1-.049-.041a.34.34,0,0,1-.049-.3,1.785,1.785,0,0,1,.46-.752,3.973,3.973,0,0,1,1.085-.793.12.12,0,0,1,.189.049.047.047,0,0,1,.016.033q.428-.7.88-1.62A12.548,12.548,0,0,0,8.169,9.1,6.646,6.646,0,0,1,7.919,7.79a3.2,3.2,0,0,1,.053-1.048q.09-.329.345-.329H8.5a.347.347,0,0,1,.288.123A.657.657,0,0,1,8.86,7.1a.178.178,0,0,1-.033.066.214.214,0,0,1,.008.066v.247A10.766,10.766,0,0,1,8.72,9.052a4.159,4.159,0,0,0,1.2,1.957ZM5.185,14.387a3.63,3.63,0,0,0,1.126-1.3,4.687,4.687,0,0,0-.719.691A2.733,2.733,0,0,0,5.185,14.387ZM8.457,6.824a2.445,2.445,0,0,0-.016,1.085q.008-.058.058-.362,0-.025.058-.354a.185.185,0,0,1,.033-.066.024.024,0,0,1-.008-.016.017.017,0,0,0,0-.012.017.017,0,0,1,0-.012.473.473,0,0,0-.107-.3.024.024,0,0,1-.008.016v.016ZM7.438,12.258a12.059,12.059,0,0,1,2.335-.666,1.24,1.24,0,0,1-.107-.078,1.472,1.472,0,0,1-.132-.111A4.355,4.355,0,0,1,8.49,9.956a10.986,10.986,0,0,1-.682,1.62q-.247.46-.37.682Zm5.311-.132a1.967,1.967,0,0,0-1.151-.2,3.11,3.11,0,0,0,1.019.23.8.8,0,0,0,.148-.008q0-.008-.016-.025Z" transform="translate(-2.571 -2.204)" fill="#5a5a5a"/>
</svg>
