<svg id="Layer_1" data-name="Layer 1" xmlns="http://www.w3.org/2000/svg" viewBox="0 0 863.99 863.5"><defs><style>.cls-1{fill:#0036ab;}.cls-2{fill:#d32929;}</style></defs><g id="Group_1135" data-name="Group 1135"><g id="Group_492" data-name="Group 492"><path id="Path_333" data-name="Path 333" class="cls-1" d="M536.18,271a15.71,15.71,0,0,1,17.11-26.34A223.08,223.08,0,0,1,654.43,443.13,15.73,15.73,0,0,1,623,441.52a191.38,191.38,0,0,0-86.84-170.47Z"/><path id="Path_334" data-name="Path 334" class="cls-1" d="M714.82,287.42c76.89,151.14,21.44,336-126,419.91a48.72,48.72,0,0,0-14.54-27.87c132-76,181.46-242,112.43-377.8a15.73,15.73,0,0,1,28.06-14.24Z"/><path id="Path_335" data-name="Path 335" class="cls-1" d="M219.49,622.73A285.33,285.33,0,0,0,417,717a15.7,15.7,0,0,1-1.71,31.35c-169.55-8.92-302.06-149.7-300.7-319.48a48.8,48.8,0,0,0,31.44.9A285.15,285.15,0,0,0,219.49,622.73Z"/><path id="Path_336" data-name="Path 336" class="cls-1" d="M233.74,70.29a48.67,48.67,0,0,0,14.93,27.64C64.48,199.28-2.68,430.76,98.68,615a380.67,380.67,0,0,0,126,135.61A15.71,15.71,0,0,1,207.77,777l-.2-.13c-190.8-124-244.95-379.2-120.95-570A412.1,412.1,0,0,1,233.74,70.29Z"/><path id="Path_337" data-name="Path 337" class="cls-1" d="M604.74,770.57a15.73,15.73,0,0,1,14.23,28,412.94,412.94,0,0,1-208.58,44.32,15.73,15.73,0,0,1,1.6-31.42,383.68,383.68,0,0,0,192.75-40.95Z"/><path id="Path_338" data-name="Path 338" class="cls-1" d="M614.12,531a15.72,15.72,0,0,1,4.61,21.74,222.59,222.59,0,0,1-296.56,72.44,48.93,48.93,0,0,0,16.51-26.76,191.24,191.24,0,0,0,253.71-62.79A15.71,15.71,0,0,1,614.12,531Z"/><path id="Path_339" data-name="Path 339" class="cls-1" d="M656.39,86C842.7,207,899.46,454,784.71,644.26a49.27,49.27,0,0,0-26.38-17.11C866.42,446.88,807.9,213.11,627.62,105A380.55,380.55,0,0,0,451.91,51.38,15.7,15.7,0,0,1,453.63,20h0A411.33,411.33,0,0,1,656.39,86Z"/><path id="Path_340" data-name="Path 340" class="cls-1" d="M592.71,157.84a49.15,49.15,0,0,0-17.23,26.32c-131.74-76.55-300.36-36.27-383.27,91.56a15.7,15.7,0,0,1-26.34-17.11C258.22,116.16,446.39,71.73,592.71,157.84Z"/><path id="Path_341" data-name="Path 341" class="cls-1" d="M431,208.71a48.63,48.63,0,0,0-1.59,31.48C323.75,241.6,239.27,328.37,240.69,434a191.13,191.13,0,0,0,20.85,84.32,15.73,15.73,0,0,1-28.05,14.24c-55.79-109.69-12.11-243.83,97.57-299.62A222.87,222.87,0,0,1,431,208.71Z"/></g><path id="Path_342" data-name="Path 342" class="cls-2" d="M294.14,43.39a26.66,26.66,0,0,1-29,44.71,25.79,25.79,0,0,1-3.6-2.81,26.66,26.66,0,0,1,32.64-41.9Z"/><path id="Path_343" data-name="Path 343" class="cls-2" d="M486.18,207.61a26.65,26.65,0,1,1-29,44.7,25.87,25.87,0,0,1-3.61-2.81,26.65,26.65,0,0,1,32.64-41.89Z"/><path id="Path_344" data-name="Path 344" class="cls-2" d="M632.52,171.51a26.65,26.65,0,0,1-29,44.7,25.79,25.79,0,0,1-3.6-2.81,26.65,26.65,0,0,1,32.64-41.89Z"/><path id="Path_345" data-name="Path 345" class="cls-2" d="M145.92,366.69a26.65,26.65,0,1,1-28.77,44.87l-.27-.17a26.65,26.65,0,0,1,29-44.7Z"/><path id="Path_346" data-name="Path 346" class="cls-2" d="M558.19,687.84a26.66,26.66,0,1,1-34.05,4.23,26.65,26.65,0,0,1,34.05-4.23Z"/><path id="Path_347" data-name="Path 347" class="cls-2" d="M311.15,565.67a26.65,26.65,0,1,1-29,44.7,25.62,25.62,0,0,1-3.6-2.81,26.65,26.65,0,0,1,32.64-41.89Z"/><path id="Path_348" data-name="Path 348" class="cls-2" d="M761.16,645.81a26.65,26.65,0,1,1-34,4.23A26.65,26.65,0,0,1,761.16,645.81Z"/></g></svg>