<svg xmlns="http://www.w3.org/2000/svg" width="17.968" height="20.535" viewBox="0 0 17.968 20.535">
  <path id="Icon_metro-file-video" data-name="Icon metro-file-video" d="M21.621,6.522a18.178,18.178,0,0,0-1.748-2,18.188,18.188,0,0,0-2-1.748,3.2,3.2,0,0,0-1.823-.846H6.1a1.606,1.606,0,0,0-1.6,1.6V20.859a1.606,1.606,0,0,0,1.6,1.6H20.862a1.606,1.606,0,0,0,1.6-1.6V8.345a3.2,3.2,0,0,0-.846-1.823ZM18.965,5.43A17.5,17.5,0,0,1,20.42,7.062H17.333V3.975A17.5,17.5,0,0,1,18.965,5.43Zm2.218,15.429a.325.325,0,0,1-.321.321H6.1a.325.325,0,0,1-.321-.321V3.532A.325.325,0,0,1,6.1,3.211H16.05V7.7a.642.642,0,0,0,.642.642h4.492ZM8.349,12.2h6.417v6.417H8.349V12.2Zm6.417,2.567,3.85-2.567v6.417l-3.85-2.567Z" transform="translate(-4.499 -1.928)" fill="#5a5a5a"/>
</svg>
