<svg id="Layer_1" data-name="Layer 1" xmlns="http://www.w3.org/2000/svg" viewBox="0 0 273.66 86.63"><defs><style>.cls-1{fill:#d32929;}.cls-2{fill:#0036ab;}</style></defs><g id="Group_1136" data-name="Group 1136"><g id="Group_251" data-name="Group 251"><path id="Path_156" data-name="Path 156" d="M110,62V26.79a.71.71,0,0,1,.71-.71h12.62a19.85,19.85,0,0,1,7.87,1.45,15.79,15.79,0,0,1,9.06,9.73,21.72,21.72,0,0,1,1.14,7.1,21.46,21.46,0,0,1-1.26,7.57,16.29,16.29,0,0,1-3.64,5.78,16.64,16.64,0,0,1-5.71,3.72,20.2,20.2,0,0,1-7.46,1.31H110.72A.7.7,0,0,1,110,62Zm24.22-17.67a15.66,15.66,0,0,0-.72-4.85,10.71,10.71,0,0,0-2.12-3.82A9.36,9.36,0,0,0,128,33.21a11.49,11.49,0,0,0-4.63-.88h-5.47a.72.72,0,0,0-.72.72h0V55.78a.72.72,0,0,0,.72.72h5.47a11.25,11.25,0,0,0,4.68-.93,9.61,9.61,0,0,0,3.4-2.56,11.47,11.47,0,0,0,2.1-3.85A15.6,15.6,0,0,0,134.23,44.36Z"/><path id="Rectangle_173" data-name="Rectangle 173" class="cls-1" d="M149.75,26.08h.05a3.44,3.44,0,0,1,3.44,3.43h0A3.44,3.44,0,0,1,149.8,33h-.05a3.43,3.43,0,0,1-3.43-3.44h0A3.43,3.43,0,0,1,149.75,26.08Z"/><path id="Rectangle_174" data-name="Rectangle 174" d="M149.78,35.69h0a3.45,3.45,0,0,1,3.46,3.46V59.28a3.45,3.45,0,0,1-3.46,3.46h0a3.45,3.45,0,0,1-3.46-3.46V39.15A3.45,3.45,0,0,1,149.78,35.69Z"/><path id="Path_157" data-name="Path 157" d="M169.71,62.74a20.61,20.61,0,0,1-6.66-1.08A16.34,16.34,0,0,1,158,59a.71.71,0,0,1-.17-.92l1.88-3.16a.72.72,0,0,1,1-.25l0,0a21.8,21.8,0,0,0,4.21,2.24,13.1,13.1,0,0,0,4.67.9,5.9,5.9,0,0,0,3.26-.78A2.49,2.49,0,0,0,174,54.79a2.22,2.22,0,0,0-1.39-2.12,30.33,30.33,0,0,0-4.54-1.54c-1.76-.49-3.26-1-4.5-1.4a11.61,11.61,0,0,1-3-1.52,5.3,5.3,0,0,1-1.65-2,6.41,6.41,0,0,1-.52-2.66,8.5,8.5,0,0,1,.8-3.72,8,8,0,0,1,2.25-2.81,10.37,10.37,0,0,1,3.38-1.79,13.94,13.94,0,0,1,4.21-.62,18.45,18.45,0,0,1,5.71.88A14,14,0,0,1,179.13,38a.71.71,0,0,1,.14.94l-2,3.05a.69.69,0,0,1-1,.19h0a15.21,15.21,0,0,0-3.41-1.85,11,11,0,0,0-3.85-.72,5.67,5.67,0,0,0-2.94.72,2.52,2.52,0,0,0-1.19,2.33,2.27,2.27,0,0,0,.28,1.19,2.53,2.53,0,0,0,.9.82,9,9,0,0,0,1.63.7c.67.23,1.5.46,2.5.7q2.79.73,4.78,1.45a12.93,12.93,0,0,1,3.25,1.65,5.9,5.9,0,0,1,1.86,2.14,6.56,6.56,0,0,1,.59,2.92,7.53,7.53,0,0,1-2.94,6.28A12.71,12.71,0,0,1,169.71,62.74Z"/><path id="Path_158" data-name="Path 158" d="M203.42,62.43l-7.15-10.69a.72.72,0,0,0-1-.2l-.1.09-2.85,2.81a.83.83,0,0,0-.26.61v7a.7.7,0,0,1-.71.71h-5.5a.7.7,0,0,1-.7-.71V26.79a.7.7,0,0,1,.7-.71h5.5a.71.71,0,0,1,.71.71V46.05a.71.71,0,0,0,.72.71.73.73,0,0,0,.53-.24L202.7,36a.69.69,0,0,1,.53-.23h5.5a.71.71,0,0,1,.71.71.72.72,0,0,1-.18.46l-8.67,9.87a.74.74,0,0,0-.05.88l9.7,14a.71.71,0,0,1-.17,1,.73.73,0,0,1-.41.12H204A.69.69,0,0,1,203.42,62.43Z"/><path id="Path_159" data-name="Path 159" d="M258.39,62.74a20.61,20.61,0,0,1-6.66-1.08,16.5,16.5,0,0,1-5.11-2.7.72.72,0,0,1-.16-.92l1.88-3.16a.72.72,0,0,1,1-.25l0,0a21.51,21.51,0,0,0,4.21,2.24,13.1,13.1,0,0,0,4.67.9,5.85,5.85,0,0,0,3.25-.78,2.5,2.5,0,0,0,1.19-2.22,2.22,2.22,0,0,0-1.39-2.12,30.07,30.07,0,0,0-4.55-1.54c-1.75-.49-3.25-1-4.49-1.4a11.61,11.61,0,0,1-3-1.52,5.3,5.3,0,0,1-1.65-2,6.25,6.25,0,0,1-.52-2.66,8.5,8.5,0,0,1,.8-3.72,8,8,0,0,1,2.25-2.81,10.37,10.37,0,0,1,3.38-1.79,13.94,13.94,0,0,1,4.21-.62,18.39,18.39,0,0,1,5.7.88A13.89,13.89,0,0,1,267.8,38a.71.71,0,0,1,.14.94l-2,3.05a.71.71,0,0,1-1,.19h0a15.5,15.5,0,0,0-3.42-1.85,11,11,0,0,0-3.84-.72,5.73,5.73,0,0,0-3,.72,2.54,2.54,0,0,0-1.19,2.33,2.09,2.09,0,0,0,1.19,2,8.91,8.91,0,0,0,1.62.7c.68.23,1.51.46,2.5.7q2.79.73,4.78,1.45a12.76,12.76,0,0,1,3.25,1.65,5.81,5.81,0,0,1,1.86,2.14,6.71,6.71,0,0,1,.6,2.92,7.54,7.54,0,0,1-2.95,6.28A12.68,12.68,0,0,1,258.39,62.74Z"/><path id="Path_160" data-name="Path 160" d="M223.8,62.74a7.67,7.67,0,0,1-6.35-2.68q-2.17-2.69-2.17-8V35.88a.7.7,0,0,1,.7-.71h5.51a.7.7,0,0,1,.7.71h0V50.61q0,6.26,4.5,6.25a7.16,7.16,0,0,0,3.9-1.22,8.66,8.66,0,0,0,3-3.54.82.82,0,0,0,.07-.31V35.88a.71.71,0,0,1,.71-.71h5.5a.7.7,0,0,1,.7.71v18.4a2.44,2.44,0,0,0,.39,1.55,1.34,1.34,0,0,0,.73.43.71.71,0,0,1,.54.67v4.71a.71.71,0,0,1-.59.7,10,10,0,0,1-1.14.15c-.47,0-.89,0-1.27,0a5,5,0,0,1-3-.85,3.36,3.36,0,0,1-1.37-2.35l0-.29a.7.7,0,0,0-.75-.65.67.67,0,0,0-.48.23A11.4,11.4,0,0,1,230,61.36,14,14,0,0,1,223.8,62.74Z"/></g><g id="Group_252" data-name="Group 252"><path id="Path_161" data-name="Path 161" class="cls-2" d="M73.59,44.41A26.09,26.09,0,0,1,48.31,70.49h-33a4.08,4.08,0,0,0,.31-.39,6.59,6.59,0,0,0,.51-.85l.12-.24a6.1,6.1,0,0,0-.63-6,4.08,4.08,0,0,0-.31-.39H47.54a18.21,18.21,0,0,0,0-36.42H23.87a3.94,3.94,0,1,1,0-7.87h24.5A26.09,26.09,0,0,1,73.59,44.41Z"/><circle id="Ellipse_46" data-name="Ellipse 46" class="cls-1" cx="8.27" cy="66.56" r="3.93"/><circle id="Ellipse_47" data-name="Ellipse 47" class="cls-1" cx="37.54" cy="80.48" r="3.93"/><path id="Path_162" data-name="Path 162" class="cls-2" d="M87.51,44.41a39.87,39.87,0,0,1-3.86,17.18l-.3.61a4,4,0,0,1-7.11-3.49c.09-.18.18-.36.26-.55A32.14,32.14,0,0,0,67,18.88l-.73-.54a31.94,31.94,0,0,0-18.77-6.06H34.39a4,4,0,0,1-4-3.82,3.93,3.93,0,0,1,3.82-4.05H47.51a40,40,0,0,1,40,40Z"/><path id="Path_163" data-name="Path 163" class="cls-2" d="M75.47,71.31a4,4,0,0,1-1.16,2.8h0c-.12.1-.23.21-.35.3q-1.26,1.13-2.61,2.13A39.86,39.86,0,0,1,48,84.41H44.29l.1-.12a6.05,6.05,0,0,0-.1-7.75h3.58a32,32,0,0,0,20.89-8.08l.23-.2h0a4,4,0,0,1,6.47,3Z"/></g></g></svg>