<svg xmlns="http://www.w3.org/2000/svg" width="14.975" height="14.656" viewBox="0 0 14.975 14.656">
  <path id="Icon_metro-alarm" data-name="Icon metro-alarm" d="M20.116,7.77l-3.44-2.805-.962,1.113,3.44,2.805ZM9.544,6.075,8.582,4.961,5.141,7.767,6.1,8.88l3.44-2.805ZM13,9.429H11.88V13.8l3.553,2.078.565-.9L13,13.25V9.429Zm-.378-2.911A6.641,6.641,0,0,0,5.89,13.068a6.641,6.641,0,0,0,6.735,6.549,6.647,6.647,0,0,0,6.742-6.549A6.647,6.647,0,0,0,12.625,6.519Zm0,11.643a5.17,5.17,0,0,1-5.241-5.094,5.17,5.17,0,0,1,5.241-5.094,5.17,5.17,0,0,1,5.241,5.094A5.168,5.168,0,0,1,12.629,18.162Z" transform="translate(-5.141 -4.961)" fill="#5a5a5a"/>
</svg>
