<svg xmlns="http://www.w3.org/2000/svg" width="24.072" height="24.092" viewBox="0 0 24.072 24.092">
  <g id="Group_3895" data-name="Group 3895" transform="translate(-0.569 -0.272)">
    <g id="Group_4026" data-name="Group 4026" transform="translate(0.569 0.272)">
      <path id="Path_2018" data-name="Path 2018" d="M198.592,212.71a6.023,6.023,0,0,1-.006-12.047h.014a6.023,6.023,0,1,1,0,12.047Zm.021-10.887a4.889,4.889,0,0,0-4.892,4.839,4.874,4.874,0,0,0,4.845,4.888h.02a4.864,4.864,0,0,0,.054-9.727Z" transform="translate(-187.139 -200.663)" fill="#5f78d6"/>
      <path id="Path_2019" data-name="Path 2019" d="M295.281,387.772q-.4,0-.8,0h-1.59c-.49,0-.7-.217-.7-.717q0-.4,0-.8c0-.514,0-1.046,0-1.569a.813.813,0,0,1,.265-.629c.329-.324.66-.656.98-.977.432-.433.879-.881,1.325-1.315a1,1,0,0,0,.326-.859,4.3,4.3,0,0,1,8.555-.854c.016.124.02.254.024.369,0,.049,0,.1.005.137a4.32,4.32,0,0,1-4.765,4.337l-.058,0a.78.78,0,0,0-.513.208c-.839.822-1.653,1.635-2.42,2.415a.809.809,0,0,1-.619.261Zm4.09-10.319a3.267,3.267,0,0,0-.721.081,3.136,3.136,0,0,0-2.354,3.757.768.768,0,0,1-.239.8c-.777.762-1.556,1.547-2.309,2.306l-.144.146a.715.715,0,0,0-.246.45c-.013.32-.011.634-.009.967q0,.177,0,.359v.287h.287l.359,0,.332,0c.208,0,.37,0,.524-.011a.9.9,0,0,0,.555-.234c.677-.664,1.568-1.542,2.456-2.453a.767.767,0,0,1,.576-.27,1.132,1.132,0,0,1,.245.029,3.207,3.207,0,0,0,.69.076,3.148,3.148,0,0,0,0-6.3Z" transform="translate(-279.594 -363.68)" fill="#5f78d6"/>
      <path id="Path_2020" data-name="Path 2020" d="M120.251,399.462q-.829,0-1.658,0a1.645,1.645,0,0,1-1.7-1.27c0-.014-.008-.028-.013-.042,0-.261-.005-.525-.011-.781a12.75,12.75,0,0,1,.043-1.8,4.185,4.185,0,0,1,1.776-2.742,11.256,11.256,0,0,1,4.171-2,20.07,20.07,0,0,1,5.389-.713c.594,0,1.208.024,1.825.071a.564.564,0,0,1,.535.586.558.558,0,0,1-.569.555h-.008c-.286,0-.578-.014-.861-.025-.357-.013-.726-.027-1.091-.027-.13,0-.25,0-.369.005a16.488,16.488,0,0,0-6.6,1.409,6.559,6.559,0,0,0-2.51,1.837,2.615,2.615,0,0,0-.6,1.749c.01.3.007.607.005.9,0,.162,0,.323,0,.485,0,.48.165.642.645.642h8.444a.948.948,0,0,1,.157.01.581.581,0,0,1,.488.641.563.563,0,0,1-.574.5c-.5,0-1.027.005-1.716.005h-5.194Z" transform="translate(-116.854 -376.507)" fill="#5f78d6"/>
      <path id="Path_2021" data-name="Path 2021" d="M379.818,424.8a.961.961,0,0,1,0-1.922h.016a.955.955,0,0,1,.944.973.945.945,0,0,1-.953.95Z" transform="translate(-360.058 -406.919)" fill="#5f78d6"/>
    </g>
  </g>
</svg>
