<svg xmlns="http://www.w3.org/2000/svg" width="16.352" height="16.35" viewBox="0 0 16.352 16.35">
  <g id="Group_2569" data-name="Group 2569" transform="translate(0 0)">
    <path id="Path_673" data-name="Path 673" d="M-1325.227-345.462a8.18,8.18,0,0,1-8.2,8.165,8.18,8.18,0,0,1-8.153-8.194,8.178,8.178,0,0,1,8.209-8.156A8.179,8.179,0,0,1-1325.227-345.462Zm-5.158-.48a14.679,14.679,0,0,0-.3-2.653,42.2,42.2,0,0,1-5.432,0,14.691,14.691,0,0,0-.3,2.652Zm-5.775,3.6a42.711,42.711,0,0,1,5.475,0,14.864,14.864,0,0,0,.3-2.645h-6.075Zm5.25.91a39.963,39.963,0,0,0-4.968,0,6.264,6.264,0,0,0,.927,2.1,3.785,3.785,0,0,0,.7.776,1.262,1.262,0,0,0,1.784-.06A5.882,5.882,0,0,0-1330.91-341.436Zm0-8.072a6.819,6.819,0,0,0-.935-2.1,4.281,4.281,0,0,0-.6-.7,1.361,1.361,0,0,0-.911-.41,1.51,1.51,0,0,0-1.12.518,4.977,4.977,0,0,0-1.114,1.817c-.106.281-.2.567-.311.875A40.248,40.248,0,0,0-1330.913-349.508Zm-9.721,3.56h3.248l.295-2.7c-.844-.11-1.7-.223-2.558-.329a.17.17,0,0,0-.135.074A7.043,7.043,0,0,0-1340.634-345.948Zm10.918-2.712.3,2.714h3.247a7.03,7.03,0,0,0-.856-2.971.194.194,0,0,0-.159-.056c-.219.023-.436.065-.655.091C-1328.47-348.8-1329.1-348.732-1329.716-348.659ZM-1340.635-345a7.189,7.189,0,0,0,.832,2.939.158.158,0,0,0,.2.095c.419-.062.838-.118,1.259-.17s.851-.1,1.257-.144l-.3-2.719Zm11.216,0c-.1.916-.2,1.813-.3,2.7.847.111,1.7.224,2.561.331a.17.17,0,0,0,.134-.076,7.052,7.052,0,0,0,.848-2.957Zm-1.8,6.441a7.256,7.256,0,0,0,3.588-2.523.327.327,0,0,0-.064-.026c-.723-.083-1.446-.164-2.169-.25-.115-.013-.117.063-.144.137-.185.5-.35,1.014-.569,1.5C-1330.759-339.317-1331-338.947-1331.222-338.556Zm-4.343-13.836a7.31,7.31,0,0,0-3.633,2.562c.759.082,1.476.158,2.192.24.132.015.185-.023.22-.155a8.105,8.105,0,0,1,1.114-2.464C-1335.643-352.253-1335.619-352.3-1335.564-352.392Zm7.946,2.549a7.313,7.313,0,0,0-3.651-2.559,8.176,8.176,0,0,1,1.262,2.7c.031.108.081.127.177.116.421-.045.842-.084,1.263-.131C-1328.261-349.755-1327.955-349.8-1327.618-349.843Zm-11.552,8.737c.642,1.024,2.857,2.567,3.586,2.5a8.508,8.508,0,0,1-1.227-2.651.187.187,0,0,0-.151-.092c-.274.015-.547.041-.82.072C-1338.238-341.223-1338.693-341.165-1339.171-341.106Z" transform="translate(1341.579 353.646)" fill="#fff"/>
  </g>
</svg>
