<svg xmlns="http://www.w3.org/2000/svg" width="23.357" height="23.459" viewBox="0 0 23.357 23.459">
  <g id="Group_3693" data-name="Group 3693" transform="translate(127.243 -212.723)">
    <path id="Path_1849" data-name="Path 1849" d="M-178.191,209.07a2.478,2.478,0,0,1,2.478,2.478v15.364a2.478,2.478,0,0,1-2.478,2.478h-15.261a2.478,2.478,0,0,1-2.478-2.478V211.548a2.478,2.478,0,0,1,2.478-2.478h15.261m0-1.57h-15.261a4.052,4.052,0,0,0-4.048,4.048v15.364a4.052,4.052,0,0,0,4.048,4.048h15.261a4.052,4.052,0,0,0,4.048-4.048V211.548a4.052,4.052,0,0,0-4.048-4.048Z" transform="translate(70.257 5.223)" fill="#fff"/>
    <g id="Rectangle_976" data-name="Rectangle 976" transform="translate(-123.582 216.506)" fill="none" stroke="#fff" stroke-width="1.5">
      <rect width="6.879" height="15.757" rx="1" stroke="none"/>
      <rect x="0.75" y="0.75" width="5.379" height="14.257" rx="0.25" fill="none"/>
    </g>
    <g id="Rectangle_978" data-name="Rectangle 978" transform="translate(-115.411 222.572)" fill="none" stroke="#fff" stroke-width="1.5">
      <rect width="7.849" height="3.758" rx="1" stroke="none"/>
      <rect x="0.75" y="0.75" width="6.349" height="2.258" rx="0.25" fill="none"/>
    </g>
    <g id="Rectangle_980" data-name="Rectangle 980" transform="translate(-115.411 216.506)" fill="none" stroke="#fff" stroke-width="1.5">
      <rect width="7.849" height="3.758" rx="1" stroke="none"/>
      <rect x="0.75" y="0.75" width="6.349" height="2.258" rx="0.25" fill="none"/>
    </g>
    <g id="Rectangle_981" data-name="Rectangle 981" transform="translate(-115.411 228.506)" fill="none" stroke="#fff" stroke-width="1.5">
      <rect width="7.849" height="3.758" rx="1" stroke="none"/>
      <rect x="0.75" y="0.75" width="6.349" height="2.258" rx="0.25" fill="none"/>
    </g>
  </g>
</svg>
