<svg xmlns="http://www.w3.org/2000/svg" width="23.857" height="23.959" viewBox="0 0 23.857 23.959">
  <g id="Group_3691" data-name="Group 3691" transform="translate(127.493 -212.473)">
    <g id="Path_1849" data-name="Path 1849" transform="translate(70.257 5.223)" fill="#6172d6">
      <path d="M -178.1910095214844 231.083984375 L -193.4524841308594 231.083984375 C -195.7532196044922 231.083984375 -197.625 229.2122039794922 -197.625 226.9114685058594 L -197.625 211.5475158691406 C -197.625 209.2467803955078 -195.7532196044922 207.375 -193.4524841308594 207.375 L -178.1910095214844 207.375 C -175.8902587890625 207.375 -174.0184631347656 209.2467803955078 -174.0184631347656 211.5475158691406 L -174.0184631347656 226.9114685058594 C -174.0184631347656 229.2122039794922 -175.8902587890625 231.083984375 -178.1910095214844 231.083984375 Z M -193.4524841308594 209.1947326660156 C -194.7498016357422 209.1947326660156 -195.8052520751953 210.2501831054688 -195.8052520751953 211.5475158691406 L -195.8052520751953 226.9114685058594 C -195.8052520751953 228.2087860107422 -194.7498016357422 229.2642211914062 -193.4524841308594 229.2642211914062 L -178.1910095214844 229.2642211914062 C -176.8936767578125 229.2642211914062 -175.8382110595703 228.2087860107422 -175.8382110595703 226.9114685058594 L -175.8382110595703 211.5475158691406 C -175.8382110595703 210.2501831054688 -176.8936767578125 209.1947326660156 -178.1910095214844 209.1947326660156 L -193.4524841308594 209.1947326660156 Z" stroke="none"/>
      <path d="M -193.4524841308594 207.5 C -195.684326171875 207.5 -197.5 209.315673828125 -197.5 211.5475158691406 L -197.5 226.9114685058594 C -197.5 229.1433410644531 -195.684326171875 230.958984375 -193.4524841308594 230.958984375 L -178.1910095214844 230.958984375 C -175.9591674804688 230.958984375 -174.1434631347656 229.1433410644531 -174.1434631347656 226.9114685058594 L -174.1434631347656 211.5475158691406 C -174.1434631347656 209.315673828125 -175.9591674804688 207.5 -178.1910095214844 207.5 L -193.4524841308594 207.5 M -178.1910095214844 229.3892211914062 L -193.4524841308594 229.3892211914062 C -194.8209686279297 229.3892211914062 -195.9302520751953 228.2799682617188 -195.9302520751953 226.9114685058594 L -195.9302520751953 211.5475158691406 C -195.9302520751953 210.1790466308594 -194.8209686279297 209.0697326660156 -193.4524841308594 209.0697326660156 L -178.1910095214844 209.0697326660156 C -176.8226776123047 209.0697326660156 -175.7132110595703 210.1790466308594 -175.7132110595703 211.5475158691406 L -175.7132110595703 226.9114685058594 C -175.7132110595703 228.2799682617188 -176.8226776123047 229.3892211914062 -178.1910095214844 229.3892211914062 M -193.4524841308594 207.25 L -178.1910095214844 207.25 C -175.8213348388672 207.25 -173.8934631347656 209.1778564453125 -173.8934631347656 211.5475158691406 L -173.8934631347656 226.9114685058594 C -173.8934631347656 229.2811279296875 -175.8213348388672 231.208984375 -178.1910095214844 231.208984375 L -193.4524841308594 231.208984375 C -195.8221435546875 231.208984375 -197.75 229.2811279296875 -197.75 226.9114685058594 L -197.75 211.5475158691406 C -197.75 209.1778564453125 -195.8221435546875 207.25 -193.4524841308594 207.25 Z M -178.1910095214844 229.1392211914062 C -176.9626007080078 229.1392211914062 -175.9632110595703 228.1398620605469 -175.9632110595703 226.9114685058594 L -175.9632110595703 211.5475158691406 C -175.9632110595703 210.3191070556641 -176.9626007080078 209.3197326660156 -178.1910095214844 209.3197326660156 L -193.4524841308594 209.3197326660156 C -194.6808776855469 209.3197326660156 -195.6802520751953 210.3191070556641 -195.6802520751953 211.5475158691406 L -195.6802520751953 226.9114685058594 C -195.6802520751953 228.1398620605469 -194.6808776855469 229.1392211914062 -193.4524841308594 229.1392211914062 L -178.1910095214844 229.1392211914062 Z" stroke="none" fill="#6172d6"/>
    </g>
    <g id="Rectangle_976" data-name="Rectangle 976" transform="translate(-123.582 216.506)" fill="none" stroke="#6172d6" stroke-width="1.5">
      <rect width="6.879" height="15.757" rx="1" stroke="none"/>
      <rect x="0.75" y="0.75" width="5.379" height="14.257" rx="0.25" fill="none"/>
    </g>
    <g id="Rectangle_978" data-name="Rectangle 978" transform="translate(-115.411 222.573)" fill="none" stroke="#6172d6" stroke-width="1.5">
      <rect width="7.849" height="3.758" rx="1" stroke="none"/>
      <rect x="0.75" y="0.75" width="6.349" height="2.258" rx="0.25" fill="none"/>
    </g>
    <g id="Rectangle_980" data-name="Rectangle 980" transform="translate(-115.411 216.507)" fill="none" stroke="#6172d6" stroke-width="1.5">
      <rect width="7.849" height="3.758" rx="1" stroke="none"/>
      <rect x="0.75" y="0.75" width="6.349" height="2.258" rx="0.25" fill="none"/>
    </g>
    <g id="Rectangle_981" data-name="Rectangle 981" transform="translate(-115.411 228.507)" fill="none" stroke="#6172d6" stroke-width="1.5">
      <rect width="7.849" height="3.758" rx="1" stroke="none"/>
      <rect x="0.75" y="0.75" width="6.349" height="2.258" rx="0.25" fill="none"/>
    </g>
  </g>
</svg>
