<svg width="244" height="233" viewBox="0 0 244 233" fill="none" xmlns="http://www.w3.org/2000/svg">
<path d="M198.997 65.7272C192.122 24.2875 151.304 -5.24696 109.858 1.8873C83.5697 6.41053 64.1627 20.7934 52.0174 44.5849C45.0855 58.1673 42.4471 72.7089 44.6542 87.9113C46.1573 98.2093 50.1655 107.681 54.9285 116.855C62.482 131.397 71.9382 144.661 81.8954 157.589L98.144 177.588L97.9728 177.817C104.734 186.133 111.444 194.5 118.173 202.847C120.367 205.573 123.652 205.585 125.84 202.828C128.891 198.985 131.859 195.071 135.011 191.31C135.252 191.025 135.588 190.751 135.956 190.523H135.962L142.704 182.067H142.501C145.044 178.954 147.34 176.089 149.687 173.319L157.957 162.951L158.382 162.418C159.06 161.554 159.631 160.817 160.202 160.08C161.788 158.028 163.367 155.969 164.927 153.898C175.106 140.43 184.638 126.543 191.887 111.156C198.693 96.6973 201.661 81.7872 198.997 65.7272ZM185.374 107.008C178.246 122.318 168.916 136.25 158.604 149.515C146.896 164.571 134.802 179.335 122.885 194.239C122.644 194.538 122.511 194.925 122.213 195.497C118.128 190.459 114.412 185.847 110.676 181.267C97.0658 164.578 83.2716 148.035 71.5069 129.935C64.1183 118.551 57.2624 106.849 53.7171 93.6353C48.4468 74.0113 52.398 55.6706 63.9027 39.4454C81.4958 14.6184 105.97 4.61267 135.893 9.9999C163.697 15.0059 185.323 37.2727 191.158 65.2189C194.221 79.875 191.602 93.648 185.374 107.008ZM90.5841 184.583L91.954 185.707L92.5439 184.939C91.8589 184.634 91.1993 184.513 90.5841 184.583ZM90.5841 184.583L91.954 185.707L92.5439 184.939C91.8589 184.634 91.1993 184.513 90.5841 184.583Z" fill="black"/>
<path d="M122.035 31.1172C148.551 31.1426 169.982 52.6343 169.963 79.1829C169.944 105.681 148.393 127.255 121.965 127.236C95.5437 127.217 74.012 105.592 74.0374 79.1067C74.0627 52.5644 95.531 31.0981 122.035 31.1172ZM121.997 38.7279C99.7168 38.7343 81.667 56.7446 81.6289 79.0241C81.5846 101.393 99.7231 119.632 121.997 119.632C144.194 119.632 162.327 101.494 162.365 79.2655C162.409 56.8336 144.372 38.7216 121.997 38.7279Z" fill="black"/>
<path d="M90.5527 183.713L91.9226 184.838L92.5125 184.069C91.8275 183.758 91.1679 183.643 90.5527 183.713ZM90.5527 183.713L91.9226 184.838L92.5125 184.069C91.8275 183.758 91.1679 183.643 90.5527 183.713Z" fill="#6172D6"/>
<path d="M92.3413 170.976L86.8616 163.276H83.8491C81.4454 163.276 79.0418 163.276 76.6381 163.282C63.6937 163.289 50.7494 163.314 37.805 163.244C32.7566 163.219 29.2748 165.296 26.9662 169.819C23.1546 177.284 19.14 184.653 15.2206 192.067C10.7113 200.599 6.13858 209.099 1.72443 217.682C-1.26272 223.476 1.44538 230.311 7.44507 232.173C9.21453 232.719 11.1869 232.795 13.0642 232.795C85.6122 232.827 158.154 232.821 230.702 232.821C238.186 232.821 240.558 231.252 243.5 224.352V220.547C242.765 218.978 242.086 217.383 241.274 215.852C233.309 200.733 225.222 185.676 217.383 170.493C214.745 165.385 211.009 163.143 205.263 163.213C197.425 163.308 189.579 163.321 181.734 163.308C174.466 163.301 167.198 163.276 159.93 163.276H157L136.007 189.018C146.193 188.986 158.281 188.967 168.466 188.961C184.468 188.948 200.469 188.948 216.47 188.929C217.903 188.923 218.772 189.291 219.413 190.663C220.573 193.141 221.943 195.523 223.466 198.401H142.381C141.595 198.401 140.688 198.166 140.034 198.471C139.66 198.649 139.261 198.82 138.867 199.011C137.859 199.487 136.876 200.053 136.337 200.866C135.322 202.372 136.115 204.049 137.453 205.313C141.48 209.112 145.508 212.924 149.529 216.735C152.319 219.384 155.103 222.053 157.888 224.708C157.792 224.873 157.691 225.045 157.596 225.21C150.879 225.21 144.163 225.261 137.453 225.147C136.591 225.134 135.601 224.391 134.91 223.736C122.01 211.564 109.154 199.354 96.2861 187.15C95.5948 186.496 94.9162 185.829 94.2059 185.2C93.6351 184.692 93.0643 184.317 92.5125 184.069L91.9227 184.838L90.5528 183.713C89.1448 183.872 87.9652 185.003 87.2802 187.036C83.31 198.795 79.3081 210.548 75.5155 222.37C74.7671 224.708 73.727 225.375 71.3741 225.274C66.554 225.077 61.7213 225.216 56.8949 225.21C56.1339 225.21 55.3728 225.14 54.3327 225.089C54.8083 223.52 55.1825 222.167 55.6265 220.846C57.453 215.369 59.324 209.906 61.1315 204.417C62.3999 200.574 60.8651 198.433 56.7744 198.42C45.7771 198.382 34.7798 198.401 23.7825 198.401H20.4719C22.1969 195.161 23.6239 192.277 25.2856 189.539C25.5837 189.05 26.8331 188.98 27.6449 188.98C38.8768 188.942 50.1151 188.954 61.3471 188.954C65.8881 188.948 66.4335 188.56 67.8351 184.342C69.1099 180.518 70.4418 176.706 71.6341 172.856C72.0717 171.452 72.6742 170.817 74.2598 170.842C74.45 170.849 74.6403 170.849 74.8306 170.849C80.3355 170.938 85.8406 170.817 91.3456 170.95M142.47 181.197C145.324 177.697 147.867 174.521 150.518 171.433C150.879 171.007 151.799 170.906 152.459 170.906C160.913 170.893 169.367 170.893 177.815 170.887C187.379 170.887 196.943 170.88 206.507 170.868C208.2 170.868 209.329 171.49 210.084 173.028C211.396 175.69 212.817 178.288 214.345 181.197H142.47ZM34.894 171.636C35.173 171.179 36.1434 170.944 36.7966 170.938C45.6376 170.899 54.4786 170.919 63.3195 170.938C63.5352 170.938 63.7444 171.09 64.163 171.249C63.1483 174.33 62.1843 177.398 61.0871 180.422C60.9349 180.848 60.1548 181.299 59.6601 181.299C49.8044 181.35 39.955 181.337 29.4524 181.337C31.3931 177.83 33.0674 174.692 34.894 171.636ZM46.424 224.238C46.2654 224.695 45.3712 225.172 44.8194 225.172C33.5875 225.223 22.3555 225.248 11.1172 225.172C8.37102 225.153 7.3753 223.247 8.65642 220.757C10.984 216.253 13.3433 211.774 15.7914 207.346C16.1338 206.73 17.0725 206.075 17.7321 206.069C28.9704 205.999 40.2023 206.031 51.4343 206.05C51.6563 206.05 51.8719 206.171 52.4681 206.342C50.4323 212.428 48.4789 218.349 46.424 224.238ZM82.5743 225.032C85.9611 214.887 89.3287 204.805 92.8169 194.348C103.63 204.601 114.209 214.639 125.168 225.032H82.5743ZM232.383 225.197C211.897 225.229 191.412 225.223 170.921 225.185C170.204 225.185 169.303 224.937 168.802 224.467C162.448 218.54 156.15 212.542 149.839 206.564C149.915 206.38 149.985 206.196 150.055 206.012H152.363C176.572 206.012 200.773 206.037 224.981 205.961C226.941 205.955 227.937 206.609 228.774 208.305C230.803 212.422 233.042 216.43 235.154 220.503C236.638 223.355 235.598 225.191 232.383 225.197Z" fill="#6172D6"/>
</svg>
