<svg xmlns="http://www.w3.org/2000/svg" width="17.185" height="12.082" viewBox="0 0 17.185 12.082">
  <path id="Path_1901" data-name="Path 1901" d="M-987.656,1873.846a1.86,1.86,0,0,1-.343.753,1.516,1.516,0,0,1-1.122.554c-.045,0-.089,0-.134,0h-13.992a1.471,1.471,0,0,1-1.434-.86,1.578,1.578,0,0,1-.152-.66q-.015-4.521,0-9.043a1.5,1.5,0,0,1,1.524-1.518q7.063,0,14.126,0a1.51,1.51,0,0,1,1.5,1.18c.011.043.024.085.036.127Zm-15.445-9.764c.043.048.063.073.086.1q2.836,2.821,5.674,5.641a1.5,1.5,0,0,0,2.2-.011q2.828-2.805,5.649-5.618a1.365,1.365,0,0,0,.086-.107Zm.074,10.058h13.521l-4.258-4.344a10.786,10.786,0,0,1-.832.878,2.4,2.4,0,0,1-2.7.385,3.554,3.554,0,0,1-.8-.569c-.236-.2-.44-.439-.682-.685Zm-.8-.7,4.24-4.322-4.24-4.313Zm10.915-4.355,4.232,4.319v-8.623Z" transform="translate(1004.84 -1863.072)" fill="#707070"/>
</svg>
