<svg id="Layer_1" data-name="Layer 1" xmlns="http://www.w3.org/2000/svg" viewBox="0 0 56 56"><defs><style>.cls-1{fill:#2197d7;}.cls-2{fill:#fff;stroke:#2197d7;stroke-width:0.47px;}</style></defs><path id="Path_373" data-name="Path 373" class="cls-1" d="M28,1.4A26.6,26.6,0,1,1,1.4,28,26.6,26.6,0,0,1,28,1.4Z"/><path id="Icon_metro-attachment" data-name="Icon metro-attachment" class="cls-2" d="M32.53,23.49,31,21.91,23,29.83a3.36,3.36,0,0,0,4.75,4.75l9.5-9.5a5.6,5.6,0,0,0-7.92-7.92l-10,10,0,0A7.81,7.81,0,0,0,30.41,38.2l0,0h0l6.81-6.81-1.58-1.58-6.82,6.81,0,0A5.56,5.56,0,0,1,21,28.74l0,0h0l10-10a3.36,3.36,0,1,1,4.83,4.67l-.08.08L26.19,33a1.12,1.12,0,1,1-1.61-1.55l0,0Z"/></svg>