<svg id="Layer_1" data-name="Layer 1" xmlns="http://www.w3.org/2000/svg" viewBox="0 0 56 56"><defs><style>.cls-1{fill:#6be8c6;}.cls-2{fill:#fff;}.cls-3{fill:none;stroke:#fff;stroke-linecap:round;stroke-width:1.9px;}</style></defs><circle id="Ellipse_32" data-name="Ellipse 32" class="cls-1" cx="28" cy="28" r="26.6"/><g id="Group_169" data-name="Group 169"><path id="Path_20" data-name="Path 20" class="cls-2" d="M43.18,21.34a4,4,0,0,0-3.93-3.94h0c-7.11,0-14.28,0-21.32,0a4,4,0,0,0-3.95,4c0,3.32,0,6.83,0,10.72a4,4,0,0,0,3.27,3.87,7.46,7.46,0,0,0,.95.11l.51,0,.56.06v1.47c0,.7,0,1.36,0,2a1.43,1.43,0,0,0,2.49,1.17l4-3.23,1.35-1.07a2.28,2.28,0,0,1,2.93,0l1.74,1.4,3.74,3a1.39,1.39,0,0,0,2.37-1.14c0-.7,0-1.4,0-2.14V36h1.35a4,4,0,0,0,3.94-4C43.21,28.37,43.21,24.77,43.18,21.34ZM40.45,31.88A1.32,1.32,0,0,1,39,33.29H36.82c-1.16,0-1.66.5-1.67,1.67V37.1l-1-.8-1-.79c-.74-.59-1.45-1.14-2.14-1.71a2,2,0,0,0-1.41-.51H28.15a4.44,4.44,0,0,0-1.36.09,4.77,4.77,0,0,0-1.16.82l-1,.82-1,.82L22,37.11V34.94c0-1.15-.51-1.64-1.69-1.65H18.2a1.36,1.36,0,0,1-1.52-1.5c0-1.83,0-3.66,0-5.48V21.67c0-1.35.8-1.54,1.66-1.54H39a1.43,1.43,0,0,1,1,.38,1.41,1.41,0,0,1,.39,1Z"/><path id="Path_89" data-name="Path 89" class="cls-3" d="M21.22,25.3H35.51"/></g></svg>