<svg xmlns="http://www.w3.org/2000/svg" width="20.527" height="15.514" viewBox="0 0 20.527 15.514">
  <g id="Meeting_listing_Video_Download_Icon" data-name="Meeting listing Video Download Icon" transform="translate(-697.639 -257.884)">
    <path id="Path_2321" data-name="Path 2321" d="M697.739,263.066c.028-.321.054-.643.084-.964a9.151,9.151,0,0,1,.565-2.646,4.454,4.454,0,0,1,.539-.941,1.315,1.315,0,0,1,1.119-.531q5.569.01,11.138,0a1.693,1.693,0,0,1,1.8,1.8v.478l.24-.117,4.149-2.075c.26-.13.46-.118.589.066a.616.616,0,0,1,.1.329q.009,5.44,0,10.88c0,.419-.3.6-.686.405q-2.075-1.036-4.148-2.076c-.07-.035-.141-.066-.248-.115v.47a1.7,1.7,0,0,1-1.817,1.811c-.238,0-.477.009-.714,0-.147-.009-.2.051-.248.183a4.547,4.547,0,0,1-3.431,3.092,4.629,4.629,0,0,1-5.37-2.991c-.079-.231-.178-.3-.413-.286-.31.023-.622,0-.933.007a1.381,1.381,0,0,1-1.131-.519,4.167,4.167,0,0,1-.785-1.694,12.511,12.511,0,0,1-.367-2.567c0-.1-.024-.194-.037-.291Zm19.48-3.967c-.087.041-.152.069-.215.1l-4.185,2.09a.424.424,0,0,1-.669-.412c0-.357,0-.714,0-1.072a.876.876,0,0,0-.977-.984q-5.55,0-11.1,0a.554.554,0,0,0-.525.257,5.9,5.9,0,0,0-.492,1.008,11.025,11.025,0,0,0-.458,3.168,14.941,14.941,0,0,0,.367,4.2,3.423,3.423,0,0,0,.573,1.3.582.582,0,0,0,.527.256c.211-.016.423,0,.635,0h.446a4.67,4.67,0,0,1,4.066-5.042,4.45,4.45,0,0,1,3.219.79A4.655,4.655,0,0,1,710.441,269h.755a.862.862,0,0,0,.952-.962c0-.37-.013-.741.009-1.11a.62.62,0,0,1,.167-.377c.15-.147.337-.092.515,0q2.064,1.036,4.132,2.067c.074.037.148.07.247.117Zm-15.242,9.468a3.815,3.815,0,1,0,3.813-3.805A3.815,3.815,0,0,0,701.977,268.567Z" transform="translate(0 0)" fill="#5a5a5a" stroke="#5a5a5a" stroke-width="0.2"/>
    <path id="Path_2322" data-name="Path 2322" d="M704.677,269.147v-3.865a1.29,1.29,0,0,1,.006-.2.418.418,0,0,1,.431-.359.407.407,0,0,1,.393.375,1.98,1.98,0,0,1,.006.217v3.84l.046.019.663-.669c.094-.094.183-.191.283-.28a.417.417,0,0,1,.59.589c-.156.171-.325.331-.488.495q-.589.589-1.177,1.18a.423.423,0,0,1-.646.023q-.83-.827-1.652-1.659a.418.418,0,0,1-.126-.45.346.346,0,0,1,.326-.275.68.68,0,0,1,.4.151c.311.284.6.6.892.9Z" transform="translate(0.691 0.889)" fill="#5a5a5a" stroke="#5a5a5a" stroke-width="0.2"/>
  </g>
</svg>
