<svg xmlns="http://www.w3.org/2000/svg" width="17.399" height="17.022" viewBox="0 0 17.399 17.022">
  <g id="Group_3807" data-name="Group 3807" transform="translate(0.15 0.15)">
    <g id="Component_17_1" data-name="Component 17 – 1" transform="translate(0 0)">
      <path id="Path_1908" data-name="Path 1908" d="M-488,220.829c.044-.3.076-.6.135-.9a6.212,6.212,0,0,1,3.971-4.9c.034-.014.067-.03.114-.052-.084-.112-.162-.212-.235-.315a4.972,4.972,0,0,1-.973-3.283,3.556,3.556,0,0,1,3.056-3.441,4.071,4.071,0,0,1,2.5.334,3.417,3.417,0,0,1,1.943,2.678,4.907,4.907,0,0,1-1.059,3.9c-.03.039-.057.08-.083.117.321.153.641.292.945.457a7.631,7.631,0,0,1,.685.442.186.186,0,0,0,.221.018,4.042,4.042,0,0,1,5.686,2.382c.084.261.127.536.189.8v.833c-.014.063-.03.126-.04.19a4.065,4.065,0,0,1-5.048,3.3.4.4,0,0,0-.252.018,12.286,12.286,0,0,1-3.449,1.075,10.294,10.294,0,0,1-3.434-.062,13.1,13.1,0,0,1-4.4-1.745c-.261-.158-.488-.313-.456-.661,0-.014-.013-.03-.02-.045Zm10.395-4.417a5.407,5.407,0,0,0-1.629-.776c-.039-.012-.1.03-.144.058-.177.115-.344.246-.526.351a2.519,2.519,0,0,1-1.782.314,3.037,3.037,0,0,1-1.333-.654.219.219,0,0,0-.255-.044,12.238,12.238,0,0,0-1.168.521,5.845,5.845,0,0,0-2.731,5.667.226.226,0,0,0,.105.147c.346.2.691.4,1.047.585a10.548,10.548,0,0,0,4.666,1.214,10.113,10.113,0,0,0,3.716-.676c.174-.065.345-.138.532-.213A4.078,4.078,0,0,1-477.605,216.412Zm-.617-4.6a3.167,3.167,0,0,0-.731-2.2,2.916,2.916,0,0,0-2.485-.922,2.773,2.773,0,0,0-2.748,2.884,4.274,4.274,0,0,0,1.77,3.575,1.8,1.8,0,0,0,2.365.033A4.34,4.34,0,0,0-478.223,211.809Zm3.278,10.895a3.238,3.238,0,0,0,3.242-3.227,3.253,3.253,0,0,0-3.254-3.238,3.24,3.24,0,0,0-3.228,3.241A3.228,3.228,0,0,0-474.945,222.7Z" transform="translate(488 -207.869)" fill="#5a5a5a" stroke="#5a5a5a" stroke-width="0.3"/>
    </g>
    <path id="Path_1909" data-name="Path 1909" d="M-242.645,436.417l.789-.791c.385-.385.77-.771,1.158-1.154a.41.41,0,0,1,.489-.09.373.373,0,0,1,.209.4.536.536,0,0,1-.133.259q-1.1,1.108-2.206,2.2a.393.393,0,0,1-.605,0q-.672-.661-1.334-1.331a.405.405,0,0,1-.014-.582.4.4,0,0,1,.581.015C-243.359,435.7-243.013,436.048-242.645,436.417Z" transform="translate(255.256 -424.254)" fill="#5a5a5a" stroke="#5a5a5a" stroke-width="0.3"/>
  </g>
</svg>
