<svg xmlns="http://www.w3.org/2000/svg" width="28.652" height="29.119" viewBox="0 0 28.652 29.119">
  <path id="Path_1793" data-name="Path 1793" d="M-300.805,259.778a.868.868,0,0,0,.936.841c.119,0,.248.007.4.007l.285,0,.279,0h10.355c.8,0,1.155-.353,1.156-1.145,0-.157,0-.315,0-.472.006-.433.012-.881-.02-1.326a6.47,6.47,0,0,0-2.065-4.482,12.036,12.036,0,0,0-1.409-1.054l-.273-.185a4.291,4.291,0,0,0,1.338-2.7,4.373,4.373,0,0,0-1.02-3.285,4.36,4.36,0,0,0-3.311-1.516,4.3,4.3,0,0,0-2.77,1.008,4.179,4.179,0,0,0-1.538,2.867,4.2,4.2,0,0,0,1.378,3.656,6.713,6.713,0,0,0-3.4,3.857,8.952,8.952,0,0,0-.341,3.338C-300.813,259.383-300.808,259.581-300.805,259.778Zm3.63-5.561a4.747,4.747,0,0,1,3.031-1.087,4.9,4.9,0,0,1,2.3.584A5.013,5.013,0,0,1-289.3,258.7h-2.178v0h-3.693l-2.785,0h-1.023A5.021,5.021,0,0,1-297.176,254.217Zm3.046-8.292.008.346a2.526,2.526,0,0,1,2.477,2.466,2.418,2.418,0,0,1-.717,1.729,2.492,2.492,0,0,1-1.779.75,2.476,2.476,0,0,1-1.77-.717,2.45,2.45,0,0,1-.707-1.752,2.49,2.49,0,0,1,2.489-2.476v-.346Zm-21.9,13.567a.958.958,0,0,0,1.09,1.07l5.512,0,5.753,0a.943.943,0,0,0,1.051-1.016l0-.18c.01-.558.02-1.134-.015-1.706a6.511,6.511,0,0,0-2.44-4.855,10.574,10.574,0,0,0-1.169-.789l-.126-.077a4.37,4.37,0,0,0,1.375-2.847,4.361,4.361,0,0,0-1.167-3.312,4.291,4.291,0,0,0-3.153-1.363,4.426,4.426,0,0,0-2.978,1.159,4.439,4.439,0,0,0-1.378,3.348,4.331,4.331,0,0,0,1.387,3.029,6.7,6.7,0,0,0-3.392,3.872,9.052,9.052,0,0,0-.355,3.182C-316.03,259.171-316.028,259.332-316.028,259.493Zm6.637-8.276a2.474,2.474,0,0,1-1.769-.748,2.418,2.418,0,0,1-.7-1.74,2.512,2.512,0,0,1,2.507-2.457h.018a2.5,2.5,0,0,1,2.447,2.481A2.49,2.49,0,0,1-309.391,251.217Zm-2.979,3a4.757,4.757,0,0,1,3.028-1.08,4.815,4.815,0,0,1,2.339.605,4.958,4.958,0,0,1,2.5,4.95h-2.214v0h-7.4A4.863,4.863,0,0,1-312.37,254.216Zm10.626,6.766a6.239,6.239,0,0,0-4.442,1.857,6.23,6.23,0,0,0-1.831,4.446,6.3,6.3,0,0,0,6.3,6.254h.017a6.3,6.3,0,0,0,6.295-6.282A6.317,6.317,0,0,0-301.744,260.982Zm.024,1.551h0v.346a4.427,4.427,0,0,1,4.408,4.363,4.279,4.279,0,0,1-1.254,3.07,4.375,4.375,0,0,1-3.123,1.319h-.012a4.363,4.363,0,0,1-4.4-4.356,4.3,4.3,0,0,1,1.265-3.081,4.36,4.36,0,0,1,3.111-1.315Zm-12.477,3.735h5.4v1.883h-6.047c-.841,0-1.186-.334-1.187-1.153q0-2.29,0-4.579v-.351c0-.08.006-.154.014-.24,0-.04.007-.085.011-.135l.023-.322h1.788Zm26.813-4.466q0,2.574,0,5.147c0,.864-.333,1.2-1.183,1.2h-6.064v-1.869h5.391v-4.9h1.808l.021-.022c0,.045.007.09.01.133C-287.392,261.59-287.384,261.694-287.384,261.8Zm-17.459,5.634a.851.851,0,0,1,.295-.611,1.019,1.019,0,0,1,.661-.266.937.937,0,0,1,.666.293c.236.234.448.482.673.745l.063.073.467-.466c.6-.6,1.171-1.168,1.731-1.735a1.061,1.061,0,0,1,.757-.358.97.97,0,0,1,.354.069.892.892,0,0,1,.537.652.94.94,0,0,1-.238.858c-.9.927-1.872,1.9-2.971,2.975a.841.841,0,0,1-.594.254.959.959,0,0,1-.667-.295c-.594-.574-1.04-1.021-1.448-1.447A1.012,1.012,0,0,1-304.843,267.436Z" transform="translate(316.034 -244.419)" fill="#5f78d6"/>
</svg>
