<svg xmlns="http://www.w3.org/2000/svg" xmlns:xlink="http://www.w3.org/1999/xlink" width="33.519" height="34.066" viewBox="0 0 33.519 34.066">
  <defs>
    <linearGradient id="linear-gradient" x1="1" y1="0.032" x2="0" y2="0.956" gradientUnits="objectBoundingBox">
      <stop offset="0" stop-color="#4adede"/>
      <stop offset="1" stop-color="#6172d6"/>
    </linearGradient>
  </defs>
  <path id="Path_1858" data-name="Path 1858" d="M-298.219,262.387a1.015,1.015,0,0,0,1.095.984c.14.006.29.008.472.008l.333,0,.326,0h12.114c.934,0,1.351-.414,1.353-1.34,0-.184,0-.368.005-.552.007-.507.014-1.03-.024-1.551a7.569,7.569,0,0,0-2.416-5.243,14.081,14.081,0,0,0-1.648-1.233l-.319-.216a5.02,5.02,0,0,0,1.565-3.156,5.116,5.116,0,0,0-1.194-3.844,5.1,5.1,0,0,0-3.873-1.774,5.033,5.033,0,0,0-3.24,1.179,4.889,4.889,0,0,0-1.8,3.354,4.918,4.918,0,0,0,1.612,4.277,7.854,7.854,0,0,0-3.977,4.512,10.473,10.473,0,0,0-.4,3.9C-298.228,261.925-298.222,262.156-298.219,262.387Zm4.246-6.505a5.554,5.554,0,0,1,3.546-1.272,5.738,5.738,0,0,1,2.7.683,5.864,5.864,0,0,1,2.977,5.829H-287.3v0h-4.32l-3.259,0h-1.2A5.874,5.874,0,0,1-293.972,255.882Zm3.563-9.7.009.405a2.955,2.955,0,0,1,2.9,2.885,2.829,2.829,0,0,1-.839,2.023,2.915,2.915,0,0,1-2.081.877,2.9,2.9,0,0,1-2.071-.839,2.866,2.866,0,0,1-.827-2.05,2.913,2.913,0,0,1,2.912-2.9v-.405Zm-25.618,15.872a1.121,1.121,0,0,0,1.275,1.252l6.448,0q3.365,0,6.73,0a1.1,1.1,0,0,0,1.229-1.189l0-.21c.011-.653.023-1.327-.017-2a7.617,7.617,0,0,0-2.855-5.679,12.374,12.374,0,0,0-1.367-.923l-.147-.09a5.112,5.112,0,0,0,1.608-3.331,5.1,5.1,0,0,0-1.365-3.874,5.02,5.02,0,0,0-3.689-1.594,5.178,5.178,0,0,0-3.484,1.356,5.193,5.193,0,0,0-1.612,3.916,5.067,5.067,0,0,0,1.622,3.544,7.833,7.833,0,0,0-3.969,4.53,10.59,10.59,0,0,0-.415,3.723C-316.029,261.677-316.027,261.865-316.027,262.053Zm7.765-9.681a2.894,2.894,0,0,1-2.069-.875,2.829,2.829,0,0,1-.822-2.036,2.939,2.939,0,0,1,2.933-2.874h.021a2.928,2.928,0,0,1,2.863,2.9A2.913,2.913,0,0,1-308.262,252.372Zm-3.485,3.508a5.565,5.565,0,0,1,3.543-1.263,5.632,5.632,0,0,1,2.736.708,5.8,5.8,0,0,1,2.923,5.79h-2.591v0H-313.8A5.689,5.689,0,0,1-311.747,255.88Zm12.431,7.915a7.3,7.3,0,0,0-5.2,2.172,7.289,7.289,0,0,0-2.142,5.2,7.376,7.376,0,0,0,7.376,7.317h.02a7.375,7.375,0,0,0,7.364-7.349A7.39,7.39,0,0,0-299.316,263.8Zm.028,1.814h0v.405a5.179,5.179,0,0,1,5.156,5.1,5.006,5.006,0,0,1-1.467,3.592,5.118,5.118,0,0,1-3.654,1.543h-.014a5.1,5.1,0,0,1-5.152-5.1,5.031,5.031,0,0,1,1.48-3.6,5.1,5.1,0,0,1,3.64-1.539Zm-14.6,4.37h6.317v2.2h-7.075c-.984,0-1.387-.391-1.389-1.349q-.006-2.679,0-5.357v-.411c0-.094.008-.18.016-.281,0-.047.009-.1.013-.158l.027-.377h2.092Zm31.368-5.225q0,3.011,0,6.021c0,1.011-.389,1.405-1.384,1.406h-7.094V270h6.307v-5.737h2.115l.024-.026c0,.053.008.1.012.156C-282.527,264.507-282.517,264.629-282.517,264.755Zm-20.425,6.591a1,1,0,0,1,.345-.715,1.192,1.192,0,0,1,.773-.311,1.1,1.1,0,0,1,.779.343c.276.274.524.564.787.872l.073.086.546-.545c.7-.7,1.37-1.366,2.026-2.029a1.241,1.241,0,0,1,.885-.419,1.135,1.135,0,0,1,.414.081,1.043,1.043,0,0,1,.628.763,1.1,1.1,0,0,1-.278,1c-1.053,1.084-2.19,2.223-3.476,3.48a.984.984,0,0,1-.695.3,1.123,1.123,0,0,1-.78-.345c-.7-.672-1.217-1.194-1.693-1.693A1.184,1.184,0,0,1-302.942,271.346Z" transform="translate(316.034 -244.419)" fill="url(#linear-gradient)"/>
</svg>
