<svg id="Group_2574" data-name="Group 2574" xmlns="http://www.w3.org/2000/svg" xmlns:xlink="http://www.w3.org/1999/xlink" width="269.968" height="259.69" viewBox="0 0 269.968 259.69">
  <defs>
    <linearGradient id="linear-gradient" x1="1.269" y1="-0.237" x2="-0.197" y2="1.31" gradientUnits="objectBoundingBox">
      <stop offset="0" stop-color="#4adede"/>
      <stop offset="1" stop-color="#6172d6"/>
    </linearGradient>
    <linearGradient id="linear-gradient-2" x1="10.427" y1="-7.477" x2="0" y2="2.93" xlink:href="#linear-gradient"/>
    <linearGradient id="linear-gradient-3" x1="6.587" y1="-9.124" x2="-3.618" y2="1" xlink:href="#linear-gradient"/>
    <linearGradient id="linear-gradient-4" x1="1" y1="0" x2="-0.442" y2="1.366" xlink:href="#linear-gradient"/>
    <linearGradient id="linear-gradient-5" x1="1.442" y1="-3.71" x2="-1.286" y2="1" xlink:href="#linear-gradient"/>
  </defs>
  <path id="Path_388" data-name="Path 388" d="M191.072,87.073a84.681,84.681,0,0,1-82.033,84.654H1.984V171.7c.34-.388.68-.825,1-1.262A18.387,18.387,0,0,0,4.654,167.7l.364-.8a19.7,19.7,0,0,0,1.675-7.936,19.608,19.608,0,0,0-3.713-11.5c-.316-.437-.655-.874-1-1.286H106.515a59.1,59.1,0,0,0,0-118.2H29.7a12.766,12.766,0,1,1,0-25.532h79.485a84.664,84.664,0,0,1,81.887,84.63Z" transform="translate(33.705 42.772)" fill="url(#linear-gradient)"/>
  <circle id="Ellipse_58" data-name="Ellipse 58" cx="12.774" cy="12.774" r="12.774" transform="translate(0 188.949)" fill="url(#linear-gradient-2)"/>
  <circle id="Ellipse_59" data-name="Ellipse 59" cx="12.774" cy="12.774" r="12.774" transform="translate(94.996 234.133)" fill="url(#linear-gradient-3)"/>
  <path id="Path_389" data-name="Path 389" d="M189.472,130.425a129.466,129.466,0,0,1-12.523,55.748c-.316.655-.655,1.335-.971,1.99A12.911,12.911,0,0,1,152,181.538a12.7,12.7,0,0,1,.9-4.708c.291-.583.582-1.189.874-1.772A104.379,104.379,0,0,0,122.8,47.567L120.423,45.8A103.736,103.736,0,0,0,59.481,26.136H17.057A12.967,12.967,0,0,1,4,13.734,12.8,12.8,0,0,1,16.79.58H59.651A129.857,129.857,0,0,1,189.472,130.425Z" transform="translate(80.496 -0.58)" fill="url(#linear-gradient-4)"/>
  <path id="Path_390" data-name="Path 390" d="M107.062,21.838a12.865,12.865,0,0,1-3.738,9.077H103.3l-1.092,1c-2.743,2.427-5.582,4.708-8.519,6.893A129.246,129.246,0,0,1,18.015,64.359H5.856l.316-.388a19.482,19.482,0,0,0,4.417-12.4A19.481,19.481,0,0,0,5.856,38.8h11.65A103.929,103.929,0,0,0,85.316,12.591l.728-.655.024-.024a12.848,12.848,0,0,1,20.994,9.926Z" transform="translate(123.807 195.331)" fill="url(#linear-gradient-5)"/>
</svg>
