<svg xmlns="http://www.w3.org/2000/svg" width="329.34" height="227.843" viewBox="0 0 329.34 227.843">
  <g id="Group_3092" data-name="Group 3092" transform="translate(-122.995 -55.734)">
    <g id="Background_Complete" data-name="Background Complete" transform="translate(122.995 55.734)">
      <g id="Group_3081" data-name="Group 3081" transform="translate(247.187 27.185)">
        <path id="Path_1732" data-name="Path 1732" d="M619.713,130.689l-5.794,28.059-3.727-3.636-6.347,4.524L599,153.617l-10.878,7.907-9.289-15.542-10.368,6.071-4.11-5.669L551.189,153.8l-3.961-8.478,9.226-44.689,49.469,10.213Z" transform="translate(-537.561 -100.634)" fill="#e1e1e1"/>
        <path id="Path_1733" data-name="Path 1733" d="M641.978,117.5l13.792,19.839L638.614,133.8Z" transform="translate(-573.617 -107.29)" fill="#d1d1d1"/>
        <path id="Path_1734" data-name="Path 1734" d="M606.387,197.133l-8.5,41.168-66.627-13.753,8.434-40.84,3.961,8.478,13.164-7.417,4.11,5.669,10.368-6.071,9.289,15.542L591.465,192l4.848,6.019,6.347-4.524Z" transform="translate(-530.262 -139.41)" fill="#e1e1e1"/>
      </g>
      <g id="Group_3082" data-name="Group 3082" transform="translate(0 37.505)">
        <path id="Path_1735" data-name="Path 1735" d="M188.978,121.957,204.722,145.9l-5.206.064-1.289,7.687-7.684-.828-2.1,13.283-17.559-4.421L167.845,173.3l-6.915-1.1-4.064,14.553-8.8-3.194L123,145.436l42.2-27.758Z" transform="translate(-122.995 -117.678)" fill="#d1d1d1"/>
        <path id="Path_1736" data-name="Path 1736" d="M192.7,117.68l23.781,4.276-14.636,9.627Z" transform="translate(-150.496 -117.679)" fill="#e1e1e1"/>
        <path id="Path_1737" data-name="Path 1737" d="M226.173,172.272l23.1,35.119-56.837,37.388-22.915-34.842,8.8,3.194,4.064-14.553,6.915,1.1,3.038-11.624,17.559,4.421,2.1-13.283,7.684.828,1.289-7.687Z" transform="translate(-145.352 -145.218)" fill="#d1d1d1"/>
      </g>
      <g id="Group_3084" data-name="Group 3084" transform="translate(153.652)">
        <path id="Path_1738" data-name="Path 1738" d="M450.07,141.817l-67.9,4.2-5.394-87.165,50.417-3.12L445.7,71.261Z" transform="translate(-376.774 -55.734)" fill="#e1e1e1"/>
        <path id="Path_1739" data-name="Path 1739" d="M460.045,55.734l18.513,15.527-17.485,1.082Z" transform="translate(-409.628 -55.734)" fill="#d1d1d1"/>
      </g>
    </g>
    <g id="Folder" transform="translate(186.077 116.637)">
      <g id="Group_3091" data-name="Group 3091" transform="translate(0)">
        <g id="Group_3088" data-name="Group 3088" transform="translate(26.915)">
          <g id="Group_3086" data-name="Group 3086">
            <path id="Path_1741" data-name="Path 1741" d="M456.108,333.474H271.638L298.312,182.2H482.781Z" transform="translate(-271.638 -166.534)" fill="#fff"/>
            <path id="Path_1742" data-name="Path 1742" d="M378.828,156.325H318.456l-2.762,15.666H380.3Z" transform="translate(-289.02 -156.325)" fill="#d1d1d1"/>
          </g>
        </g>
        <path id="Path_1745" data-name="Path 1745" d="M438.3,337.052H253.431L227.184,191.27H412.051Z" transform="translate(-227.184 -170.113)" fill="#e1e1e1"/>
        <text id="_" data-name="?" transform="translate(102.487 50.64)" fill="#fff" font-size="80" font-family="Montserrat-SemiBold, Montserrat" font-weight="600"><tspan x="-23.24" y="77">?</tspan></text>
      </g>
    </g>
  </g>
</svg>
