<svg xmlns="http://www.w3.org/2000/svg" width="295.37" height="231.846" viewBox="0 0 295.37 231.846">
  <g id="Group_3078" data-name="Group 3078" transform="translate(-617.794 -275.054)">
    <g id="Group_3076" data-name="Group 3076" transform="translate(465.856 46.479)">
      <g id="Group_3048" data-name="Group 3048" transform="translate(189.666 228.575)">
        <g id="Group_3047" data-name="Group 3047" transform="translate(0 0)">
          <g id="Group_3046" data-name="Group 3046">
            <g id="Group_3043" data-name="Group 3043">
              <path id="Path_1720" data-name="Path 1720" d="M324.85,237.573v-2.284a6.8,6.8,0,0,0-6.891-6.714H246.112a6.8,6.8,0,0,0-6.891,6.714V356.353H410.479V244.286a6.8,6.8,0,0,0-6.891-6.714Z" transform="translate(-239.221 -228.575)" fill="#f1f1f1"/>
            </g>
            <g id="Group_3044" data-name="Group 3044" transform="translate(7.603 18.672)">
              <rect id="Rectangle_1094" data-name="Rectangle 1094" width="157.653" height="110.334" fill="#fff"/>
            </g>
            <g id="Group_3045" data-name="Group 3045" transform="translate(0 28.031)">
              <path id="Path_1721" data-name="Path 1721" d="M322.407,302.086l-2.542,6.868H246.112a6.8,6.8,0,0,0-6.891,6.714v85.479a6.8,6.8,0,0,0,6.891,6.714H403.588a6.8,6.8,0,0,0,6.891-6.714V304.364a6.8,6.8,0,0,0-6.891-6.714h-74.7A6.884,6.884,0,0,0,322.407,302.086Z" transform="translate(-239.221 -297.65)" fill="#e4e4e4"/>
            </g>
          </g>
        </g>
      </g>
      <g id="Group_3054" data-name="Group 3054" transform="translate(301.661 282.563)">
        <g id="Group_3053" data-name="Group 3053" transform="translate(0 0)">
          <g id="Group_3052" data-name="Group 3052">
            <g id="Group_3049" data-name="Group 3049">
              <path id="Path_1722" data-name="Path 1722" d="M588.024,369.264v-1.942a5.787,5.787,0,0,0-5.86-5.71h-61.1a5.786,5.786,0,0,0-5.86,5.71V470.281H660.847V374.974a5.786,5.786,0,0,0-5.86-5.71Z" transform="translate(-515.2 -361.612)" fill="#f1f1f1"/>
            </g>
            <g id="Group_3050" data-name="Group 3050" transform="translate(6.466 15.879)">
              <rect id="Rectangle_1095" data-name="Rectangle 1095" width="134.077" height="93.834" fill="#fff"/>
            </g>
            <g id="Group_3051" data-name="Group 3051" transform="translate(0 23.839)">
              <path id="Path_1723" data-name="Path 1723" d="M585.946,424.13l-2.162,5.84H521.06a5.786,5.786,0,0,0-5.86,5.71v72.7a5.787,5.787,0,0,0,5.86,5.71H654.987a5.787,5.787,0,0,0,5.86-5.71V426.067a5.786,5.786,0,0,0-5.86-5.71H591.459A5.854,5.854,0,0,0,585.946,424.13Z" transform="translate(-515.2 -420.357)" fill="#e1e1e1"/>
            </g>
          </g>
        </g>
      </g>
      <g id="Group_3075" data-name="Group 3075" transform="translate(155.822 258.7)">
        <g id="Group_3074" data-name="Group 3074" transform="translate(10.322 147.908)">
          <g id="Group_3073" data-name="Group 3073">
            <path id="Path_1728" data-name="Path 1728" d="M181.389,711.96l-.131-.1.14.084Zm44.685-44.53.07-.146Z" transform="translate(-181.258 -667.283)" fill="#737373"/>
          </g>
        </g>
      </g>
    </g>
    <g id="Group_3077" data-name="Group 3077" transform="translate(617.794 305.179)">
      <g id="Group_3071" data-name="Group 3071">
        <g id="Group_3067" data-name="Group 3067">
          <g id="Group_3062" data-name="Group 3062">
            <g id="Group_3058" data-name="Group 3058" transform="translate(0 98.083)">
              <g id="Group_3057" data-name="Group 3057">
                <g id="Group_3055" data-name="Group 3055" transform="translate(15.097)">
                  <rect id="Rectangle_1096" data-name="Rectangle 1096" width="89.778" height="19.235" transform="matrix(0.602, -0.799, 0.799, 0.602, 0, 71.691)" fill="#d1d1d1"/>
                </g>
                <g id="Group_3056" data-name="Group 3056" transform="translate(0 46.081)">
                  <path id="Path_1724" data-name="Path 1724" d="M161.139,712.853l-.177-.134c-4.845-3.652-6.57-9.538-3.852-13.146l30.774-41.515,18.508,13.337-31.559,41.537C172.115,716.54,165.984,716.5,161.139,712.853Z" transform="translate(-155.822 -658.058)" fill="#d1d1d1"/>
                </g>
              </g>
            </g>
            <g id="Group_3061" data-name="Group 3061" transform="translate(14.241)">
              <g id="Group_3059" data-name="Group 3059">
                <ellipse id="Ellipse_141" data-name="Ellipse 141" cx="57.472" cy="57.897" rx="57.472" ry="57.897" transform="translate(0 89.979) rotate(-51.518)" fill="#d1d1d1"/>
              </g>
              <g id="Group_3060" data-name="Group 3060" transform="translate(11.33 11.32)">
                <ellipse id="Ellipse_142" data-name="Ellipse 142" cx="49.441" cy="49.807" rx="49.441" ry="49.807" transform="translate(0 77.397) rotate(-51.51)" fill="#f7f7f7"/>
              </g>
            </g>
          </g>
          <g id="Group_3066" data-name="Group 3066" transform="translate(95.62 38.726)">
            <g id="Group_3064" data-name="Group 3064" transform="translate(1.724)" opacity="0.22">
              <g id="Group_3063" data-name="Group 3063">
                <path id="Path_1725" data-name="Path 1725" d="M398.678,405.128a35.658,35.658,0,0,1,32.313,28.32,34.94,34.94,0,0,1-19.308,38.177c-4.031,1.9-1.337,8.3,2.7,6.4a42.018,42.018,0,0,0,23.838-43.279c-2.253-17.822-16.222-32.094-33.646-35.8a38.569,38.569,0,0,0-5.113-.7c-4.446-.337-5.262,6.538-.784,6.878Z" transform="translate(-395.696 -398.238)" fill="#f9f9f9"/>
              </g>
            </g>
            <g id="Group_3065" data-name="Group 3065" transform="translate(0 73.906)" opacity="0.31">
              <ellipse id="Ellipse_143" data-name="Ellipse 143" cx="4.549" cy="4.583" rx="4.549" ry="4.583" transform="translate(0 7.121) rotate(-51.512)" fill="#f9f9f9"/>
            </g>
          </g>
        </g>
        <g id="Group_3068" data-name="Group 3068" transform="translate(32.051 142.166)">
          <path id="Path_1726" data-name="Path 1726" d="M235.409,655.775l17.609,12.689a1.448,1.448,0,0,0,1.93-.207l.159-.18a1.448,1.448,0,0,0-.257-2.142L237.1,653.4a1.446,1.446,0,0,0-2.034.364l-.016.024A1.449,1.449,0,0,0,235.409,655.775Z" transform="translate(-234.803 -653.134)" fill="#e1e1e1"/>
        </g>
        <g id="Group_3070" data-name="Group 3070" transform="translate(43.241 28.604)">
          <g id="Group_3069" data-name="Group 3069">
            <path id="Path_1727" data-name="Path 1727" d="M310.041,473.842a49.571,49.571,0,0,1-44.974-46.714,48.691,48.691,0,0,1,40.176-50.472A49.388,49.388,0,0,1,359,445.44a48.779,48.779,0,0,1-48.961,28.4,1.319,1.319,0,0,0-.222,2.627,52.174,52.174,0,0,0,33.634-8.643A51.289,51.289,0,0,0,363.719,440.4a51.965,51.965,0,0,0-89.079-49.1,51.379,51.379,0,0,0-12.257,32.667,52.184,52.184,0,0,0,47.436,52.508A1.319,1.319,0,0,0,310.041,473.842Z" transform="translate(-262.378 -373.294)" fill="#e1e1e1"/>
          </g>
        </g>
      </g>
    </g>
    <text id="_" data-name="?" transform="translate(705.197 340.598)" fill="#e1e1e1" font-size="80" font-family="Montserrat-SemiBold, Montserrat" font-weight="600"><tspan x="-23.24" y="77">?</tspan></text>
  </g>
</svg>
