<svg id="Component_14_1" data-name="Component 14 – 1" xmlns="http://www.w3.org/2000/svg" width="282.832" height="282.546" viewBox="0 0 282.832 282.546">
  <g id="Component_12_1" data-name="Component 12 – 1">
    <rect id="Rectangle_846" data-name="Rectangle 846" width="204.865" height="219.498" rx="30" transform="translate(12.851 73.507) rotate(-21.027)" fill="#f1f1f1"/>
    <rect id="Rectangle_847" data-name="Rectangle 847" width="204.865" height="219.498" rx="30" transform="translate(21.02 63.048)" fill="#e1e1e1"/>
    <path id="Path_632" data-name="Path 632" d="M-634.043-485a23.613,23.613,0,0,1-19.863-10.78l-22.98-35.52a23.458,23.458,0,0,1-3.263-17.776,23.46,23.46,0,0,1,10.262-14.877,23.64,23.64,0,0,1,32.653,7,6.015,6.015,0,0,1-1.783,8.318,6.015,6.015,0,0,1-8.318-1.783,11.6,11.6,0,0,0-16.017-3.433,11.508,11.508,0,0,0-5.034,7.3,11.506,11.506,0,0,0,1.6,8.719l22.98,35.52a11.6,11.6,0,0,0,16.017,3.433,11.508,11.508,0,0,0,5.034-7.3,11.506,11.506,0,0,0-1.6-8.719,6.015,6.015,0,0,1,1.782-8.318,6.015,6.015,0,0,1,8.318,1.782,23.458,23.458,0,0,1,3.264,17.776,23.46,23.46,0,0,1-10.262,14.877A23.479,23.479,0,0,1-634.043-485Z" transform="translate(680.681 589.687)" fill="#f1f1f1"/>
  </g>
  <rect id="Rectangle_848" data-name="Rectangle 848" width="161" height="23" rx="11.5" transform="translate(41.416 118.028)" fill="#fff"/>
  <rect id="Rectangle_849" data-name="Rectangle 849" width="161" height="23" rx="11.5" transform="translate(41.416 166.028)" fill="#fff"/>
  <rect id="Rectangle_850" data-name="Rectangle 850" width="161" height="23" rx="11.5" transform="translate(41.416 214.028)" fill="#fff"/>
</svg>
