<svg xmlns="http://www.w3.org/2000/svg" width="185.558" height="169.101" viewBox="0 0 185.558 169.101">
  <g id="Group_3073" data-name="Group 3073" transform="translate(-1108.369 -598)">
    <g id="Group_2079" data-name="Group 2079" transform="translate(1146.552 598)">
      <rect id="Rectangle_846" data-name="Rectangle 846" width="106.749" height="114.374" rx="30" transform="translate(6.696 38.302) rotate(-21.027)" fill="#f1f1f1"/>
      <rect id="Rectangle_847" data-name="Rectangle 847" width="106.749" height="114.374" rx="30" transform="translate(10.953 32.852)" fill="#e1e1e1"/>
      <path id="Path_632" data-name="Path 632" d="M-656.379-524.625a12.3,12.3,0,0,1-10.35-5.617L-678.7-548.751a12.223,12.223,0,0,1-1.7-9.262,12.224,12.224,0,0,1,5.347-7.752,12.318,12.318,0,0,1,17.015,3.647,3.134,3.134,0,0,1-.929,4.334,3.134,3.134,0,0,1-4.334-.929,6.043,6.043,0,0,0-8.346-1.789,6,6,0,0,0-2.623,3.8,6,6,0,0,0,.834,4.543l11.974,18.508a6.043,6.043,0,0,0,8.346,1.789,6,6,0,0,0,2.623-3.8,6,6,0,0,0-.834-4.543,3.134,3.134,0,0,1,.929-4.334,3.134,3.134,0,0,1,4.334.929,12.223,12.223,0,0,1,1.7,9.262,12.224,12.224,0,0,1-5.347,7.752A12.235,12.235,0,0,1-656.379-524.625Z" transform="translate(680.681 585.174)" fill="#f1f1f1"/>
    </g>
    <g id="Group_2080" data-name="Group 2080" transform="translate(1108.369 661.725)">
      <g id="Group_3071" data-name="Group 3071" transform="translate(0 0)">
        <g id="Group_3067" data-name="Group 3067">
          <g id="Group_3062" data-name="Group 3062">
            <g id="Group_3058" data-name="Group 3058" transform="translate(0 51.237)">
              <g id="Group_3057" data-name="Group 3057" transform="translate(0 0)">
                <g id="Group_3055" data-name="Group 3055" transform="translate(7.887)">
                  <rect id="Rectangle_1096" data-name="Rectangle 1096" width="46.898" height="10.048" transform="matrix(0.602, -0.799, 0.799, 0.602, 0, 37.45)" fill="#d1d1d1"/>
                </g>
                <g id="Group_3056" data-name="Group 3056" transform="translate(0 24.072)">
                  <path id="Path_1724" data-name="Path 1724" d="M158.6,686.682l-.093-.07c-2.531-1.908-3.432-4.982-2.012-6.867l16.076-21.687,9.668,6.967-16.486,21.7C164.333,688.608,161.131,688.589,158.6,686.682Z" transform="translate(-155.822 -658.058)" fill="#d1d1d1"/>
                </g>
              </g>
            </g>
            <g id="Group_3061" data-name="Group 3061" transform="translate(7.439)">
              <g id="Group_3059" data-name="Group 3059" transform="translate(0)">
                <ellipse id="Ellipse_141" data-name="Ellipse 141" cx="30.022" cy="30.244" rx="30.022" ry="30.244" transform="translate(0 47.003) rotate(-51.518)" fill="#d1d1d1"/>
              </g>
              <g id="Group_3060" data-name="Group 3060" transform="translate(5.918 5.913)">
                <ellipse id="Ellipse_142" data-name="Ellipse 142" cx="25.827" cy="26.018" rx="25.827" ry="26.018" transform="translate(0 40.431) rotate(-51.51)" fill="#f7f7f7"/>
              </g>
            </g>
          </g>
          <g id="Group_3066" data-name="Group 3066" transform="translate(49.95 20.23)">
            <g id="Group_3064" data-name="Group 3064" transform="translate(0.9)" opacity="0.22">
              <g id="Group_3063" data-name="Group 3063">
                <path id="Path_1725" data-name="Path 1725" d="M397.254,401.837a18.627,18.627,0,0,1,16.88,14.794,18.252,18.252,0,0,1-10.086,19.943c-2.106.991-.7,4.336,1.411,3.344a21.949,21.949,0,0,0,12.453-22.608,22.315,22.315,0,0,0-17.576-18.7,20.158,20.158,0,0,0-2.671-.363c-2.322-.176-2.749,3.415-.41,3.593Z" transform="translate(-395.696 -398.238)" fill="#f9f9f9"/>
              </g>
            </g>
            <g id="Group_3065" data-name="Group 3065" transform="translate(0 38.607)" opacity="0.31">
              <ellipse id="Ellipse_143" data-name="Ellipse 143" cx="2.376" cy="2.394" rx="2.376" ry="2.394" transform="translate(0 3.72) rotate(-51.512)" fill="#f9f9f9"/>
            </g>
          </g>
        </g>
        <g id="Group_3068" data-name="Group 3068" transform="translate(16.743 74.265)">
          <path id="Path_1726" data-name="Path 1726" d="M235.119,654.513l9.2,6.629a.756.756,0,0,0,1.008-.108l.083-.094a.756.756,0,0,0-.134-1.119L236,653.274a.755.755,0,0,0-1.062.19l-.008.013A.757.757,0,0,0,235.119,654.513Z" transform="translate(-234.803 -653.134)" fill="#e1e1e1"/>
        </g>
        <g id="Group_3070" data-name="Group 3070" transform="translate(22.588 14.942)">
          <g id="Group_3069" data-name="Group 3069">
            <path id="Path_1727" data-name="Path 1727" d="M287.276,425.818a25.895,25.895,0,0,1-23.494-24.4A25.435,25.435,0,0,1,284.77,375.05a25.8,25.8,0,0,1,28.082,35.931,25.481,25.481,0,0,1-25.576,14.837.689.689,0,0,0-.116,1.372,27.254,27.254,0,0,0,17.57-4.515,26.793,26.793,0,0,0,10.586-14.328A27.145,27.145,0,0,0,268.783,382.7a26.839,26.839,0,0,0-6.4,17.065,27.26,27.26,0,0,0,24.78,27.429A.689.689,0,0,0,287.276,425.818Z" transform="translate(-262.378 -373.294)" fill="#e1e1e1"/>
          </g>
        </g>
      </g>
    </g>
    <path id="Path_1728" data-name="Path 1728" d="M18.775,29.72a6.16,6.16,0,0,1,.98-3.58,18.229,18.229,0,0,1,2.86-3.1,15.813,15.813,0,0,0,2.14-2.22,3.49,3.49,0,0,0,.7-2.14,3.265,3.265,0,0,0-1.36-2.72,5.843,5.843,0,0,0-3.64-1.04A7.5,7.5,0,0,0,13.935,18l-3.88-2.52a11.239,11.239,0,0,1,4.44-3.62,15.1,15.1,0,0,1,6.4-1.26,11.866,11.866,0,0,1,7.14,1.94,6.248,6.248,0,0,1,2.66,5.34,7.16,7.16,0,0,1-.54,2.88,7.914,7.914,0,0,1-1.3,2.1,25.69,25.69,0,0,1-2,1.98,15.426,15.426,0,0,0-2.26,2.4,4.166,4.166,0,0,0-.74,2.48Zm2.56,9.56a3.115,3.115,0,0,1-2.3-.9,3.016,3.016,0,0,1-.9-2.22,2.951,2.951,0,0,1,.9-2.2,3.153,3.153,0,0,1,2.3-.88,3.1,3.1,0,0,1,2.26.88,2.951,2.951,0,0,1,.9,2.2,3.016,3.016,0,0,1-.9,2.22A3.065,3.065,0,0,1,21.335,39.28Z" transform="translate(1136.974 680.61)" fill="#e1e1e1"/>
  </g>
</svg>
