<svg xmlns="http://www.w3.org/2000/svg" width="16.146" height="18.453" viewBox="0 0 16.146 18.453">
  <path id="Icon_metro-organization" data-name="Icon metro-organization" d="M18.338,8.848H6.805A2.307,2.307,0,0,0,4.5,11.154v1.153a2.3,2.3,0,0,0,1.153,1.987v3.78h4.613v2.307h4.613V18.074h4.613v-3.78a2.3,2.3,0,0,0,1.153-1.987V11.154A2.308,2.308,0,0,0,18.338,8.848ZM9.112,16.921H6.805V12.308H5.652V11.154A1.154,1.154,0,0,1,6.805,10H8.278a2.281,2.281,0,0,0-.319,1.153v2.307a2.3,2.3,0,0,0,1.153,1.987Zm5.766-2.307V12.308H13.725v6.92H11.418v-6.92H10.265v2.307a1.153,1.153,0,0,1-1.153-1.153V11.154A1.154,1.154,0,0,1,10.265,10h4.613a1.153,1.153,0,0,1,1.153,1.153v2.307a1.153,1.153,0,0,1-1.153,1.153Zm4.613-2.307H18.338v4.613H16.032V15.448a2.3,2.3,0,0,0,1.153-1.987V11.154A2.281,2.281,0,0,0,16.865,10h1.473a1.153,1.153,0,0,1,1.153,1.153v1.153Zm-9.52-4.66a3.417,3.417,0,0,0,5.2,0,2.3,2.3,0,1,0,.762-3.04,3.45,3.45,0,0,0-6.726,0,2.308,2.308,0,1,0,.762,3.04Zm7.214-2.259a1.153,1.153,0,1,1-1.153,1.153A1.152,1.152,0,0,1,17.185,5.388ZM12.572,3.081a2.307,2.307,0,1,1-2.307,2.307A2.308,2.308,0,0,1,12.572,3.081ZM7.959,7.694A1.153,1.153,0,1,1,9.112,6.541,1.153,1.153,0,0,1,7.959,7.694Z" transform="translate(-4.499 -1.928)"/>
</svg>
