<svg xmlns="http://www.w3.org/2000/svg" width="121.37" height="106.551" viewBox="0 0 121.37 106.551">
  <path id="Path_1752" data-name="Path 1752" d="M309.254,222.159a41.9,41.9,0,0,0-74.277,21.861h0a41.875,41.875,0,0,0,14.146,36.019L212,323.436l5.627,4.5L254.7,284.161a41.643,41.643,0,0,0,17.493,5.977,42.65,42.65,0,0,0,4.533.242,41.907,41.907,0,0,0,32.531-68.222Zm2.178,30.032a34.987,34.987,0,1,1-7.56-25.688A34.758,34.758,0,0,1,311.432,252.19Z" transform="translate(-206.567 318.551) rotate(-90)" fill="#707070"/>
</svg>
