<svg width="257" height="192" viewBox="0 0 257 192" fill="none" xmlns="http://www.w3.org/2000/svg">
<g clip-path="url(#clip0_1_26283)">
<path d="M0 49.8479C0.315124 48.9167 0.657066 47.9988 0.938666 47.0609C3.64068 38.1169 11.7803 31.8594 21.12 31.8125C35.8436 31.7321 50.5673 31.779 65.2909 31.7924C68.0935 31.7924 69.7228 33.139 69.7965 35.3968C69.877 37.7752 68.2008 39.296 65.311 39.296C51.0031 39.3161 36.7018 39.296 22.3939 39.3094C13.3425 39.3161 7.53615 45.1448 7.53615 54.2496C7.52944 92.2901 7.52944 130.337 7.53615 168.378C7.53615 177.67 13.1816 183.432 22.5213 183.439C88.1139 183.472 153.7 183.466 219.292 183.439C228.572 183.432 234.197 177.657 234.251 168.318C234.278 163.802 234.231 159.287 234.271 154.771C234.298 151.991 235.692 150.316 237.898 150.262C240.097 150.202 241.753 151.917 241.753 154.59C241.76 160.358 241.961 166.147 241.492 171.882C240.64 182.306 231.971 190.346 221.518 190.889C220.432 190.942 219.346 190.976 218.26 190.976C153.338 190.983 88.4223 190.949 23.5002 191.016C15.7294 191.023 9.03801 188.832 4.47207 182.387C2.46065 179.546 1.46164 175.982 0.00670476 172.746C0 131.785 0 90.8162 0 49.8479Z" fill="#5A5A5A"/>
<path d="M180.452 39.3099C179.292 39.3099 178.306 39.3099 177.321 39.3099C146.794 39.3099 116.261 39.3099 85.7338 39.3099C81.7378 39.3099 79.8336 38.0503 79.894 35.4576C79.9476 32.9385 81.7512 31.7862 85.6332 31.7862C116.415 31.7862 147.196 31.7862 177.978 31.7862C178.97 31.7862 179.956 31.7862 181.015 31.7862C183.013 21.8975 187.767 13.8847 195.652 7.82825C211.87 -4.63977 235.391 -1.87282 248.338 14.0053C261.378 30.0041 259.508 53.4193 244 66.8052C242.276 68.2925 241.74 69.753 241.747 71.917C241.814 92.7328 241.787 113.549 241.787 134.364C241.787 138.458 240.614 140.213 237.932 140.173C235.304 140.133 234.264 138.525 234.264 134.485C234.264 115.177 234.264 95.8615 234.264 76.5531C234.264 75.5817 234.264 74.6102 234.264 73.3038C221.646 78.1342 209.685 77.6117 198.454 70.49C187.204 63.3616 181.424 52.8967 180.452 39.3099ZM188.102 38.2915C188.122 55.2885 201.894 68.9557 218.951 68.9089C235.713 68.862 249.504 54.9736 249.477 38.1575C249.451 21.4151 235.706 7.58707 219.078 7.58037C201.773 7.57367 188.082 21.1538 188.102 38.2915Z" fill="#5A5A5A"/>
<path d="M59.2298 107.077C52.2904 107.077 45.3509 107.097 38.4115 107.07C32.109 107.043 28.2069 103.197 28.1801 96.9333C28.1398 86.0665 28.1465 75.2064 28.1801 64.3396C28.2002 58.0352 32.042 54.1695 38.3445 54.1561C52.3105 54.1159 66.2765 54.1159 80.2358 54.1561C86.5181 54.1762 90.313 58.0687 90.3264 64.3999C90.3533 75.1796 90.3466 85.9593 90.3264 96.739C90.313 103.184 86.4712 107.043 80.048 107.063C73.1086 107.097 66.1692 107.077 59.2298 107.077ZM55.3745 61.6664C50.7147 61.6664 46.303 61.6731 41.8913 61.6664C35.2536 61.6463 35.676 61.2175 35.6894 67.9239C35.7095 77.4374 35.6961 86.9442 35.6894 96.4576C35.6894 97.9785 35.8235 99.4859 37.7746 99.5127C43.5943 99.5797 49.414 99.5395 55.3678 99.5395C55.3746 86.8839 55.3745 74.4895 55.3745 61.6664ZM63.2057 61.6999C63.2057 66.8452 63.2057 71.7226 63.2057 76.7339C69.7562 76.7339 76.1459 76.7339 82.7769 76.7339C82.7769 72.2786 82.8573 67.9507 82.6897 63.6361C82.6629 62.9661 81.4963 61.8004 80.8325 61.787C75.0128 61.6396 69.1863 61.6999 63.2057 61.6999ZM63.1789 99.5328C69.1394 99.5328 74.9726 99.6065 80.799 99.439C81.4829 99.4189 82.6763 98.1259 82.7098 97.3889C82.8976 93.1547 82.797 88.9138 82.797 84.606C76.0989 84.606 69.6423 84.606 63.1789 84.606C63.1789 89.6307 63.1789 94.4478 63.1789 99.5328Z" fill="#5A5A5A"/>
<path d="M87.3494 154.289C69.6221 154.289 51.9014 154.289 34.174 154.289C33.3359 154.289 32.4978 154.315 31.6664 154.248C29.6081 154.068 28.428 152.808 28.247 150.872C28.066 148.895 29.1253 147.502 31.0764 146.993C31.8676 146.785 32.7258 146.785 33.5572 146.785C69.4276 146.778 105.291 146.772 141.162 146.792C142.067 146.792 143.019 146.825 143.877 147.086C145.701 147.643 146.633 149.036 146.459 150.892C146.284 152.728 145.191 153.967 143.274 154.228C142.449 154.342 141.604 154.302 140.773 154.302C122.965 154.289 105.157 154.289 87.3494 154.289Z" fill="#5A5A5A"/>
<path d="M192.997 84.4254C199.178 84.4254 205.36 84.3986 211.542 84.4321C215.766 84.4522 217.945 86.509 218.059 90.656C218.153 94.0796 218.153 97.5031 218.052 100.927C217.932 104.94 215.739 107.05 211.703 107.063C199.259 107.097 186.808 107.097 174.364 107.063C170.402 107.05 168.169 104.792 168.115 100.846C168.068 97.5098 168.075 94.1666 168.115 90.8302C168.155 86.6965 170.341 84.4723 174.451 84.4455C180.633 84.3919 186.815 84.4254 192.997 84.4254ZM175.832 92.063C175.832 94.6758 175.832 97.0475 175.832 99.4125C187.445 99.4125 198.863 99.4125 210.395 99.4125C210.395 96.9068 210.395 94.5485 210.395 92.063C198.81 92.063 187.391 92.063 175.832 92.063Z" fill="#5A5A5A"/>
<path d="M59.6992 161.183C68.5629 161.183 77.4333 161.176 86.297 161.19C89.3678 161.196 90.9769 162.423 91.0641 164.761C91.1512 167.179 89.3946 168.7 86.3372 168.7C68.5227 168.713 50.7014 168.72 32.8869 168.7C29.9837 168.7 28.2137 167.206 28.2003 164.921C28.1869 162.63 29.9368 161.196 32.8534 161.19C41.7975 161.17 50.7484 161.183 59.6992 161.183Z" fill="#6172D6"/>
<path d="M35.6829 128.113C35.6829 129.62 35.7365 131.121 35.6695 132.629C35.5756 134.766 34.4291 136.045 32.2836 136.28C30.2453 136.501 28.3881 135.148 28.2741 133.017C28.0931 129.687 28.0663 126.324 28.3144 123.001C28.4686 120.931 30.0308 119.705 32.1495 119.826C34.2347 119.939 35.5421 121.186 35.6628 123.356C35.7499 124.937 35.6829 126.532 35.6829 128.12C35.6762 128.113 35.6762 128.113 35.6829 128.113Z" fill="#6172D6"/>
<path d="M91.3387 128.14C91.3387 126.553 91.2716 124.958 91.3588 123.377C91.4728 121.213 92.7668 120.027 94.852 119.799C96.8031 119.592 98.667 121.099 98.7743 123.21C98.9352 126.459 98.9419 129.735 98.7609 132.984C98.6469 135.108 96.8031 136.481 94.7715 136.274C92.626 136.053 91.4661 134.786 91.3521 132.649C91.2716 131.155 91.3387 129.648 91.3387 128.14Z" fill="#6172D6"/>
<path d="M108.483 127.933C108.483 126.512 108.416 125.085 108.496 123.672C108.637 121.347 110.213 119.766 112.264 119.772C114.356 119.772 115.912 121.333 115.972 123.678C116.046 126.599 116.046 129.534 115.972 132.455C115.912 134.84 114.41 136.321 112.258 136.321C110.146 136.321 108.63 134.82 108.496 132.455C108.416 130.947 108.483 129.433 108.483 127.933Z" fill="#6172D6"/>
<path d="M179.144 128.027C179.144 129.534 179.225 131.042 179.131 132.542C178.977 134.88 177.401 136.354 175.276 136.307C173.13 136.261 171.709 134.78 171.655 132.355C171.595 129.434 171.581 126.499 171.662 123.578C171.722 121.347 173.197 119.867 175.208 119.779C177.267 119.686 178.956 121.233 179.117 123.518C179.225 125.012 179.137 126.526 179.144 128.027Z" fill="#6172D6"/>
<path d="M196.295 128.12C196.295 129.627 196.362 131.135 196.282 132.635C196.154 134.866 194.699 136.313 192.634 136.3C190.462 136.287 189.02 135.074 188.886 133.01C188.672 129.681 188.665 126.318 188.913 122.995C189.067 120.918 190.629 119.705 192.755 119.819C194.847 119.933 196.147 121.192 196.275 123.356C196.369 124.937 196.295 126.532 196.295 128.12C196.288 128.12 196.288 128.12 196.295 128.12Z" fill="#6172D6"/>
<path d="M62.6897 128.039C62.6897 126.452 62.6159 124.857 62.7098 123.276C62.8439 121.092 64.1915 119.899 66.2767 119.812C68.2747 119.725 69.857 120.877 69.9978 122.827C70.2459 126.311 70.266 129.848 69.9777 133.325C69.8101 135.389 68.1473 136.474 65.9951 136.26C63.977 136.059 62.817 134.833 62.7098 132.803C62.6159 131.222 62.6897 129.627 62.6897 128.039Z" fill="#6172D6"/>
<path d="M133.163 128.033C133.163 129.621 133.25 131.209 133.143 132.79C133.002 134.934 131.775 136.194 129.623 136.281C127.477 136.368 125.969 135.215 125.841 133.098C125.64 129.775 125.647 126.419 125.828 123.096C125.942 120.959 127.471 119.766 129.563 119.826C131.648 119.887 132.995 121.106 133.136 123.277C133.243 124.851 133.163 126.446 133.163 128.033Z" fill="#6172D6"/>
<path d="M142.992 128.054C142.992 126.466 142.919 124.878 143.013 123.29C143.14 121.106 144.488 119.913 146.573 119.813C148.564 119.719 150.153 120.865 150.294 122.814C150.542 126.298 150.555 129.829 150.28 133.313C150.113 135.383 148.457 136.468 146.311 136.261C144.293 136.066 143.126 134.847 143.019 132.81C142.925 131.229 142.992 129.641 142.992 128.054Z" fill="#6172D6"/>
<path d="M52.8937 128.087C52.8937 129.588 52.9741 131.095 52.8736 132.596C52.7194 134.901 51.3382 136.254 49.2731 136.301C47.1946 136.348 45.5989 135.041 45.4916 132.784C45.3441 129.621 45.3441 126.439 45.4983 123.27C45.6056 121.106 47.3623 119.599 49.3268 119.786C51.4119 119.987 52.7261 121.153 52.8535 123.324C52.9473 124.905 52.8736 126.493 52.8736 128.08C52.8803 128.087 52.887 128.087 52.8937 128.087Z" fill="#6172D6"/>
<path d="M213.473 127.986C213.473 129.573 213.546 131.161 213.453 132.742C213.332 134.893 212.118 136.166 209.973 136.28C207.834 136.387 206.285 135.255 206.151 133.138C205.943 129.734 205.957 126.297 206.171 122.887C206.299 120.884 207.847 119.772 209.819 119.819C211.897 119.872 213.278 121.052 213.432 123.229C213.54 124.81 213.453 126.398 213.453 127.986C213.459 127.986 213.466 127.986 213.473 127.986Z" fill="#6172D6"/>
<path d="M212.266 44.6826C218.682 38.271 224.831 32.1275 230.972 25.9906C231.562 25.401 232.145 24.798 232.749 24.2219C234.707 22.3594 236.939 22.1785 238.515 23.7261C240.084 25.267 239.963 27.5851 238.086 29.4878C232.729 34.8944 227.331 40.2608 221.948 45.6406C219.52 48.0659 217.127 50.518 214.659 52.903C212.199 55.2747 209.832 55.0268 208.015 52.1393C204.629 46.7662 201.304 41.3596 198.012 35.9261C196.61 33.6148 197.1 31.4374 199.104 30.2784C201.015 29.1796 202.98 29.7759 204.401 32.0203C206.989 36.1137 209.51 40.2407 212.266 44.6826Z" fill="#6172D6"/>
<circle cx="218.768" cy="38.3174" r="34.2939" stroke="#6172D6" stroke-width="8"/>
</g>
<defs>
<clipPath id="clip0_1_26283">
<rect width="257" height="191" fill="white" transform="translate(0 0.0234375)"/>
</clipPath>
</defs>
</svg>
