<svg id="Group_3960" data-name="Group 3960" xmlns="http://www.w3.org/2000/svg" width="22.593" height="22.593" viewBox="0 0 22.593 22.593">
  <path id="Ellipse_90" data-name="Ellipse 90" d="M11.3,2.259a9.037,9.037,0,0,0-6.39,15.428A9.037,9.037,0,1,0,17.687,4.906,8.978,8.978,0,0,0,11.3,2.259M11.3,0A11.3,11.3,0,1,1,0,11.3,11.3,11.3,0,0,1,11.3,0Z" transform="translate(0 0)" fill="#81db86"/>
  <g id="Group_1727" data-name="Group 1727" transform="translate(12.759 2.77) rotate(45)">
    <path id="Path_601" data-name="Path 601" d="M7.693,12.564l-7.7-.083.022-2,5.687.061L5.722,0l2,0Z" transform="translate(0 0)" fill="#81db86"/>
    <path id="Path_599" data-name="Path 599" transform="translate(0.164 11.478)" fill="#81db86"/>
    <path id="Path_600" data-name="Path 600" transform="translate(0.107 11.943)" fill="#81db86"/>
  </g>
</svg>
