<svg xmlns="http://www.w3.org/2000/svg" xmlns:xlink="http://www.w3.org/1999/xlink" width="25.113" height="18.887" viewBox="0 0 25.113 18.887">
  <defs>
    <linearGradient id="linear-gradient" x1="1.046" y1="0.342" x2="0" y2="0.368" gradientUnits="objectBoundingBox">
      <stop offset="0" stop-color="#4adede"/>
      <stop offset="1" stop-color="#6172d6"/>
    </linearGradient>
  </defs>
  <g id="Recent_Video_Download_Icon" data-name="Recent Video Download Icon" transform="translate(-697.639 -257.884)">
    <path id="Path_2321" data-name="Path 2321" d="M697.739,264.212c.035-.394.067-.788.1-1.182a11.216,11.216,0,0,1,.692-3.243,5.464,5.464,0,0,1,.66-1.153,1.612,1.612,0,0,1,1.372-.65q6.825.012,13.651,0a2.074,2.074,0,0,1,2.207,2.207v.585c.117-.057.205-.1.294-.143l5.085-2.543c.319-.159.563-.144.721.081a.756.756,0,0,1,.123.4q.01,6.666,0,13.334c0,.513-.369.732-.841.5q-2.543-1.269-5.084-2.544c-.086-.043-.173-.08-.3-.141v.576a2.087,2.087,0,0,1-2.226,2.219c-.291,0-.584.011-.875,0-.18-.011-.245.062-.3.225a5.573,5.573,0,0,1-4.2,3.79,5.673,5.673,0,0,1-6.582-3.666c-.1-.283-.218-.373-.506-.351-.38.028-.763,0-1.143.008a1.692,1.692,0,0,1-1.386-.637,5.109,5.109,0,0,1-.963-2.077,15.336,15.336,0,0,1-.449-3.146c-.005-.119-.029-.237-.046-.356Zm23.873-4.862c-.107.05-.186.085-.264.124q-2.565,1.282-5.13,2.562a.52.52,0,0,1-.82-.5c0-.437,0-.875,0-1.314a1.073,1.073,0,0,0-1.2-1.205q-6.8,0-13.6,0a.679.679,0,0,0-.644.315,7.222,7.222,0,0,0-.6,1.236,13.513,13.513,0,0,0-.562,3.883,18.313,18.313,0,0,0,.449,5.142,4.2,4.2,0,0,0,.7,1.588.713.713,0,0,0,.646.313c.258-.019.519,0,.778,0h.547a5.723,5.723,0,0,1,4.983-6.18,5.454,5.454,0,0,1,3.945.968,5.706,5.706,0,0,1,2.466,5.211h.925A1.057,1.057,0,0,0,715.4,270.3c0-.454-.016-.909.011-1.361a.759.759,0,0,1,.205-.462c.184-.18.413-.112.631,0q2.53,1.269,5.064,2.533c.09.046.182.086.3.143Zm-18.68,11.6a4.675,4.675,0,1,0,4.673-4.663A4.676,4.676,0,0,0,702.932,270.953Z" transform="translate(0 0)" fill="url(#linear-gradient)"/>
    <path id="Path_2321_-_Outline" data-name="Path 2321 - Outline" d="M700.566,257.884h0c1.955,0,4.045.005,6.776.005h6.875a2.165,2.165,0,0,1,2.307,2.307v.426l.149-.073,1.825-.913,3.26-1.63a.947.947,0,0,1,.419-.117.5.5,0,0,1,.428.229.856.856,0,0,1,.141.461c.007,4.449.006,8.966,0,13.334,0,.42-.229.691-.584.691a.9.9,0,0,1-.4-.105q-2.059-1.028-4.116-2.059l-.968-.485c-.05-.025-.1-.048-.159-.075v.42a2.181,2.181,0,0,1-2.326,2.319c-.173,0-.346,0-.519,0-.14,0-.255,0-.362-.008h-.029c-.09,0-.126.022-.176.16a5.676,5.676,0,0,1-4.276,3.853,5.559,5.559,0,0,1-1.257.144,5.818,5.818,0,0,1-3.316-1.06,5.688,5.688,0,0,1-2.127-2.815c-.084-.245-.171-.287-.334-.287l-.07,0c-.121.009-.252.013-.41.013l-.292,0c-.149,0-.3,0-.446,0h-.051a1.8,1.8,0,0,1-1.413-.672,5.19,5.19,0,0,1-.983-2.116,15.244,15.244,0,0,1-.453-3.166,2.275,2.275,0,0,0-.029-.246c-.005-.034-.011-.068-.015-.1V264.2q.021-.238.041-.477c.02-.235.04-.47.061-.705a11.309,11.309,0,0,1,.7-3.272,5.521,5.521,0,0,1,.672-1.174A1.708,1.708,0,0,1,700.566,257.884Zm6.776.205c-2.731,0-4.821,0-6.776-.005a1.517,1.517,0,0,0-1.291.61,5.321,5.321,0,0,0-.648,1.131,11.131,11.131,0,0,0-.685,3.214c-.021.234-.041.469-.061.7q-.02.237-.041.473V266.3c0,.031.009.061.014.092a2.477,2.477,0,0,1,.032.267,15.05,15.05,0,0,0,.446,3.125,5.011,5.011,0,0,0,.942,2.037,1.584,1.584,0,0,0,1.307.6c.152,0,.3,0,.454,0l.289,0c.154,0,.28,0,.4-.012.03,0,.058,0,.085,0,.314,0,.436.169.523.422a5.623,5.623,0,0,0,5.253,3.74,5.357,5.357,0,0,0,1.211-.139,5.487,5.487,0,0,0,4.133-3.726.362.362,0,0,1,.364-.292h.04c.1.005.214.008.351.008.173,0,.346,0,.518,0a1.993,1.993,0,0,0,2.126-2.119v-.733l.142.067.135.062c.063.029.117.053.171.08l.968.485q2.058,1.031,4.116,2.059a.707.707,0,0,0,.312.084c.24,0,.384-.184.384-.491,0-4.368,0-8.885,0-13.334a.654.654,0,0,0-.106-.347.3.3,0,0,0-.264-.143.769.769,0,0,0-.33.1l-3.26,1.63-1.825.913-.167.081-.128.062-.144.07V260.2a1.977,1.977,0,0,0-2.107-2.107Zm-6.742.818c3.1,0,6.2,0,9.09,0H714.2a1.176,1.176,0,0,1,1.3,1.305c0,.178,0,.357,0,.535,0,.255,0,.519,0,.778,0,.309.146.494.383.494a.664.664,0,0,0,.292-.078l3.764-1.879,1.366-.682c.052-.026.1-.05.165-.078l.1-.047.142-.067v12.116l-.143-.067-.111-.052c-.071-.033-.132-.061-.194-.092l-.813-.406c-1.394-.7-2.835-1.416-4.251-2.126a.775.775,0,0,0-.318-.1.269.269,0,0,0-.2.083.664.664,0,0,0-.175.4c-.019.313-.016.634-.013.945,0,.137,0,.273,0,.41a1.153,1.153,0,0,1-1.266,1.279H713.2l0-.1a5.628,5.628,0,0,0-2.424-5.126,5.291,5.291,0,0,0-3.118-1,6.131,6.131,0,0,0-.757.048,5.594,5.594,0,0,0-4.9,6.073l.008.107h-.654l-.24,0-.236,0c-.114,0-.208,0-.295.01l-.065,0a.817.817,0,0,1-.668-.354,4.327,4.327,0,0,1-.72-1.625,18.694,18.694,0,0,1-.452-5.17,13.736,13.736,0,0,1,.567-3.911,6.77,6.77,0,0,1,.565-1.171l.047-.083A.771.771,0,0,1,700.6,258.908Zm9.09.2c-2.886,0-5.985,0-9.09,0a.578.578,0,0,0-.556.264l-.047.083a6.628,6.628,0,0,0-.549,1.135,13.556,13.556,0,0,0-.557,3.854,18.507,18.507,0,0,0,.446,5.114,4.145,4.145,0,0,0,.684,1.552.608.608,0,0,0,.561.275c.091-.007.19-.01.309-.01l.24,0,.236,0h.44a5.92,5.92,0,0,1,1.329-4.123,5.767,5.767,0,0,1,3.748-2.055,6.333,6.333,0,0,1,.782-.05,5.488,5.488,0,0,1,3.233,1.035,5.8,5.8,0,0,1,2.512,5.193h.822A.955.955,0,0,0,715.3,270.3c0-.136,0-.272,0-.408,0-.314-.006-.639.014-.959a.858.858,0,0,1,.235-.527.47.47,0,0,1,.338-.14.907.907,0,0,1,.408.119c1.416.71,2.857,1.43,4.25,2.126l.814.406c.05.026.1.049.158.076V259.507l-.119.057-1.366.682-3.764,1.88a.86.86,0,0,1-.381.1c-.35,0-.579-.272-.583-.692,0-.26,0-.524,0-.78q0-.267,0-.534a.978.978,0,0,0-1.1-1.106ZM707.6,266.19h.008a4.776,4.776,0,0,1,.011,9.552h-.028a4.776,4.776,0,0,1,.009-9.552Zm.019,9.352a4.594,4.594,0,0,0,4.566-4.584,4.588,4.588,0,0,0-4.577-4.568H707.6a4.576,4.576,0,0,0-.008,9.152Z" transform="translate(0 0)" fill="url(#linear-gradient)"/>
    <path id="Path_2322" data-name="Path 2322" d="M705.06,270.145v-4.737a1.585,1.585,0,0,1,.007-.243.513.513,0,0,1,.529-.44.5.5,0,0,1,.481.459,2.416,2.416,0,0,1,.007.266v4.707l.057.024.813-.82c.115-.115.225-.234.347-.343a.511.511,0,0,1,.723.721c-.192.209-.4.405-.6.606q-.722.722-1.443,1.447a.518.518,0,0,1-.792.028q-1.017-1.013-2.025-2.034a.513.513,0,0,1-.154-.552.424.424,0,0,1,.4-.337.834.834,0,0,1,.492.184c.382.348.731.731,1.093,1.1Z" transform="translate(2.03 2.609)" fill="url(#linear-gradient)"/>
    <path id="Path_2322_-_Outline" data-name="Path 2322 - Outline" d="M705.564,272.091a.63.63,0,0,1-.445-.2c-.532-.53-1.069-1.07-1.588-1.594l-.437-.44a.612.612,0,0,1-.178-.654.519.519,0,0,1,.5-.406.927.927,0,0,1,.555.21c.271.248.53.516.779.775l.21.218v-4.593c0-.018,0-.037,0-.056a1.168,1.168,0,0,1,.009-.2.613.613,0,0,1,.632-.524.6.6,0,0,1,.577.549,1.963,1.963,0,0,1,.008.229v4.592l.292-.295.406-.41.1-.1c.08-.082.163-.167.252-.246a.638.638,0,0,1,.422-.167.613.613,0,0,1,.442,1.03c-.136.149-.28.291-.42.429l-.181.18-.991.994-.451.453A.7.7,0,0,1,705.564,272.091ZM703.395,269c-.18,0-.262.188-.289.269a.411.411,0,0,0,.13.45l.437.44c.519.523,1.056,1.064,1.587,1.593a.43.43,0,0,0,.3.142.5.5,0,0,0,.347-.17l.451-.453.991-.994.182-.181c.138-.136.28-.277.412-.422a.413.413,0,0,0-.294-.7.433.433,0,0,0-.289.117c-.084.074-.161.153-.242.236l-.1.1-.406.41-.406.41-.047.048-.18-.075V265.4a1.807,1.807,0,0,0-.007-.207.4.4,0,0,0-.386-.37h-.018a.413.413,0,0,0-.408.354,1,1,0,0,0-.007.17c0,.02,0,.039,0,.059v4.8l-.181.1-.054-.055c-.107-.109-.213-.219-.319-.329-.247-.257-.5-.523-.77-.766a.738.738,0,0,0-.429-.158Z" transform="translate(2.03 2.609)" fill="url(#linear-gradient)"/>
  </g>
</svg>
