<svg xmlns="http://www.w3.org/2000/svg" xmlns:xlink="http://www.w3.org/1999/xlink" width="18" height="22.826" viewBox="0 0 18 22.826">
  <defs>
    <clipPath id="clip-path">
      <rect id="Rectangle_1184" data-name="Rectangle 1184" width="18" height="22.826" fill="#fff"/>
    </clipPath>
  </defs>
  <g id="Group_2961" data-name="Group 2961" clip-path="url(#clip-path)">
    <path id="Path_1723" data-name="Path 1723" d="M1416.75,225.913h-4.74a3.031,3.031,0,0,1-2.17-.806,2.811,2.811,0,0,1-.84-2.092V207.431a2.777,2.777,0,0,1,2.44-2.8,2.82,2.82,0,0,1,.47-.031h1.75c.63,0,1.18,0,1.69,0h.04s.01-.013.01-.022a3.012,3.012,0,0,1,5.2,0c0,.009.01.013.01.018h.43c.28,0,.57,0,.85,0s.57,0,.86,0c.48,0,.88,0,1.24-.014h.09a2.922,2.922,0,0,1,2.05.815,2.831,2.831,0,0,1,.87,2.079c-.01,3.636-.01,7.335,0,10.914v4.7a2.782,2.782,0,0,1-2.33,2.769,3.588,3.588,0,0,1-.68.053C1421.57,225.909,1419.16,225.913,1416.75,225.913Zm-4.22-19.586c-.31,0-.56.005-.79.014a.964.964,0,0,0-.63.3,1.1,1.1,0,0,0-.3.815v15.7a1.032,1.032,0,0,0,1.1,1.006h12.16a1.539,1.539,0,0,0,.28-.023,1.034,1.034,0,0,0,.83-1.117V207.347a1.031,1.031,0,0,0-.96-1.006,4.2,4.2,0,0,0-.45-.018c-.11,0-.21,0-.32,0s-.22.005-.32.005h-.52v.3a2.771,2.771,0,0,1-2.71,2.608c-.59.013-1.22.018-1.85.018s-1.26-.005-1.94-.018a2.76,2.76,0,0,1-2.61-1.967,4.872,4.872,0,0,1-.13-.833.392.392,0,0,0-.01-.107h-.26C1412.91,206.332,1412.72,206.327,1412.53,206.327Zm2.66,0v.147a1.026,1.026,0,0,0,1.07,1.038c.54,0,1.08,0,1.67,0s1.2,0,1.8,0a1.014,1.014,0,0,0,1.06-.868,1.1,1.1,0,0,0,.01-.317h-.73a.906.906,0,0,1-.97-.672,1.1,1.1,0,0,0-1.1-.828,1.115,1.115,0,0,0-1.11.815.9.9,0,0,1-.96.681h-.4Z" transform="translate(-1409 -203.087)" fill="#505050"/>
    <path id="Path_1724" data-name="Path 1724" d="M1409.32,215.266v-7.839a2.468,2.468,0,0,1,2.17-2.5,2.99,2.99,0,0,1,.53-.027c1.11,0,2.22,0,3.32,0a.322.322,0,0,0,.34-.182,2.684,2.684,0,0,1,4.63.008.305.305,0,0,0,.31.179c1.13-.009,2.25.022,3.37-.009a2.562,2.562,0,0,1,2.68,2.577c-.02,5.2-.01,10.407-.01,15.606a2.462,2.462,0,0,1-2.06,2.466,3.3,3.3,0,0,1-.62.045q-6,.006-11.98,0a2.5,2.5,0,0,1-2.68-2.578Zm4.34-9.241c-.63,0-1.28-.014-1.93,0a1.263,1.263,0,0,0-.85.392,1.387,1.387,0,0,0-.4,1.033v15.717a1.36,1.36,0,0,0,1.43,1.3h12.16a1.686,1.686,0,0,0,.36-.031,1.342,1.342,0,0,0,1.08-1.42v-15.7a1.363,1.363,0,0,0-1.26-1.3c-.38-.031-.77-.009-1.16-.009h-.81c0,.222.01.414,0,.6a2.443,2.443,0,0,1-2.39,2.306c-1.26.027-2.52.022-3.78,0a2.449,2.449,0,0,1-2.3-1.732A8.364,8.364,0,0,1,1413.66,206.025Zm7.46-.009h-1.05a.592.592,0,0,1-.66-.459,1.476,1.476,0,0,0-2.82,0,.6.6,0,0,1-.66.463h-1.07v.458a1.36,1.36,0,0,0,1.4,1.349c1.15.005,2.31.005,3.46,0a1.346,1.346,0,0,0,1.39-1.131A3.757,3.757,0,0,0,1421.12,206.016Z" transform="translate(-1409 -203.087)" fill="#505050"/>
    <path id="Path_1725" data-name="Path 1725" d="M1417.06,218.858a.991.991,0,0,1-.7-.321c-.76-.707-1.5-1.4-2.23-2.083a.835.835,0,0,1-.14-1.148.917.917,0,0,1,.74-.379.828.828,0,0,1,.37.085,1.7,1.7,0,0,1,.4.294c.44.414.89.837,1.33,1.246l.23.214.31-.29,1.23-1.148c.21-.2.43-.4.65-.61.44-.414.9-.846,1.35-1.264a1.007,1.007,0,0,1,.68-.272.876.876,0,0,1,.86.668.862.862,0,0,1-.3.873c-.6.556-1.19,1.112-1.78,1.664-.32.307-.65.61-.98.917-.43.41-.87.819-1.31,1.224A.989.989,0,0,1,1417.06,218.858Z" transform="translate(-1409 -203.087)" fill="#505050"/>
    <path id="Path_1726" data-name="Path 1726" d="M1417.06,217.2c.59-.556,1.18-1.1,1.76-1.647.67-.623,1.33-1.251,2-1.87a.588.588,0,0,1,1,.25.557.557,0,0,1-.21.574c-.92.859-1.84,1.723-2.76,2.582-.43.409-.87.819-1.31,1.224a.611.611,0,0,1-.96,0c-.74-.7-1.48-1.385-2.22-2.083a.544.544,0,0,1-.11-.748.593.593,0,0,1,.71-.192,1.46,1.46,0,0,1,.32.241C1415.87,216.08,1416.46,216.637,1417.06,217.2Z" transform="translate(-1409 -203.087)" fill="#505050"/>
  </g>
</svg>
