<svg xmlns="http://www.w3.org/2000/svg" width="20.959" height="30.97" viewBox="0 0 20.959 30.97">
  <g id="Group_2876" data-name="Group 2876" transform="translate(740.383 338.324)">
    <path id="Path_1684" data-name="Path 1684" d="M-729.9-307.354a1.405,1.405,0,0,1-1.4-1.494c0-.34,0-.68,0-1.006v-.194l-.613-.067c-.609-.066-1.24-.133-1.853-.23a7.838,7.838,0,0,1-2.431-.845,1.387,1.387,0,0,1-1.059.375l-.107,0c-.173,0-.362-.007-.594-.007h-.8l-.343,0a1.186,1.186,0,0,1-1.251-1.254c-.006-2.995-.006-5.99,0-8.9a1.181,1.181,0,0,1,1.284-1.252h.121l.51,0,.506,0c.265,0,.483,0,.684-.01h.069a1.252,1.252,0,0,1,1.143.61,4.752,4.752,0,0,0,1.419-1.241,2.205,2.205,0,0,1,1.789-.953c.045,0,.091,0,.138,0,.143.008.3.012.483.012.134,0,.269,0,.4,0s.274,0,.411,0h.07v-3.563h-8.223c-.668,0-.841-.172-.841-.835q0-4.664,0-9.328c0-.616.17-.785.789-.785H-720.2c.6,0,.778.179.778.765q0,4.71,0,9.419c0,.57-.192.762-.76.763h-8.3v3.556a3.8,3.8,0,0,1,.522.064,2.1,2.1,0,0,1,1.536,1.247c.046.1.062.1.152.1h.027c.157-.005.328-.008.523-.008.177,0,.354,0,.53,0h.116a1.93,1.93,0,0,1,1.91,1.377,2.1,2.1,0,0,1-.717,2.326,2.125,2.125,0,0,1,.432,1.569,2.036,2.036,0,0,1-.8,1.432,2.092,2.092,0,0,1,.334,1.631,2.023,2.023,0,0,1-.968,1.4,1.815,1.815,0,0,1,.139,1.157,1.775,1.775,0,0,1-1.774,1.415c-.227,0-.473.006-.773.006h-1.2v.232c0,.343,0,.676,0,1.009a1.4,1.4,0,0,1-1.391,1.507Zm-.284-2.482c0,.395-.007.768.01,1.145a.252.252,0,0,0,.246.235h.01c.122-.005.27-.044.278-.2.02-.39.016-.792.012-1.181q0-.127,0-.253h-.55Q-730.185-309.961-730.186-309.837Zm-2.483-12.888a1.25,1.25,0,0,0-1.077.544,5.44,5.44,0,0,1-2.021,1.67c-.093.045-.108.062-.107.2.006,3.043.006,5.551,0,7.892a.185.185,0,0,0,.126.21,7.512,7.512,0,0,0,3.317.94c1.384.047,2.8.048,4.16.048q.811,0,1.622,0h0a1.383,1.383,0,0,0,.307-.034.6.6,0,0,0,.484-.435c.085-.274.059-.5-.323-.837a.675.675,0,0,1-.224-.594.612.612,0,0,1,.349-.348l.065-.036a.468.468,0,0,1,.234-.057l.036,0a.826.826,0,0,0,.718-.8.809.809,0,0,0-.53-.956.594.594,0,0,1-.491-.628.6.6,0,0,1,.655-.5.869.869,0,0,0,.818-.909.892.892,0,0,0-.722-.968.2.2,0,0,0-.035,0h-.083a.451.451,0,0,1-.276-.076.768.768,0,0,1-.344-.5c-.017-.249.27-.454.428-.509a.788.788,0,0,1,.26-.038c.038,0,.077,0,.116,0l.1,0h.045a.948.948,0,0,0,.715-.348.976.976,0,0,0,.148-.793c-.1-.5-.407-.728-1-.729l-2.413,0h-3.469a1.5,1.5,0,0,1-1.192-.447,1.343,1.343,0,0,1-.295-.962ZM-738-321.134h-.968c-.2,0-.243.024-.249.029a.59.59,0,0,0-.025.241q0,1.623,0,3.246v2.263q0,1.6,0,3.2c0,.17.026.2.028.2s.033.026.195.027l.869,0,.926,0c.248,0,.248,0,.248-.239q0-4.37,0-8.739c0-.229,0-.229-.226-.23Zm10.279-1.293a1.075,1.075,0,0,0-.736-.28h-.03v.279Zm-1.915-.01v-4.921h-.541v4.921Zm-1.836-.254a.3.3,0,0,0-.012.084.12.12,0,0,0,.032.1.275.275,0,0,0,.128.065v-.266A.413.413,0,0,0-731.47-322.691Zm10.9-5.821v-8.7h-18.682v8.7Z" transform="translate(0)" fill="#6172d6"/>
    <path id="Path_1685" data-name="Path 1685" d="M-733.381-318.542a4.9,4.9,0,0,0,1.716-1.42,1.955,1.955,0,0,1,1.721-.857c.436.025.874,0,1.311,0h.314v-4.052h-8.467c-.537,0-.6-.06-.6-.59q0-4.664,0-9.328c0-.48.061-.54.544-.54h19.391c.463,0,.534.068.534.52q0,4.71,0,9.419c0,.431-.085.518-.516.518h-8.547v4.024a6.628,6.628,0,0,1,.714.078,1.853,1.853,0,0,1,1.364,1.107.363.363,0,0,0,.41.249c.386-.013.772-.006,1.159,0a1.688,1.688,0,0,1,1.679,1.206,1.846,1.846,0,0,1-.668,2.085l-.17.121a1.949,1.949,0,0,1,.543,1.586,1.8,1.8,0,0,1-.9,1.4,1.93,1.93,0,0,1,.439,1.644,1.782,1.782,0,0,1-1.058,1.342,1.632,1.632,0,0,1,.23,1.209,1.521,1.521,0,0,1-1.54,1.222c-.63.012-1.26,0-1.89,0h-.327c0,.516,0,1,0,1.485a1.16,1.16,0,0,1-1.148,1.263,1.155,1.155,0,0,1-1.16-1.251c0-.486,0-.972,0-1.417-.91-.107-1.8-.183-2.672-.321a7.776,7.776,0,0,1-2.532-.915,1.135,1.135,0,0,1-1.1.44c-.579-.016-1.159,0-1.738-.006a.941.941,0,0,1-1.01-1.01q-.009-4.45,0-8.9a.942.942,0,0,1,1.041-1.008c.61,0,1.22.015,1.829-.005A1.035,1.035,0,0,1-733.381-318.542Zm3.831-1.644a1.572,1.572,0,0,0-1.636.614,5.2,5.2,0,0,1-1.931,1.6.392.392,0,0,0-.245.423q.008,3.945,0,7.891a.42.42,0,0,0,.255.426,7.75,7.75,0,0,0,3.425.969c1.928.065,3.859.042,5.788.052a1.6,1.6,0,0,0,.363-.04.842.842,0,0,0,.663-.6.956.956,0,0,0-.394-1.092.445.445,0,0,1-.15-.351c.025-.1.19-.168.3-.235a.511.511,0,0,1,.179-.027,1.07,1.07,0,0,0,.926-1.015,1.053,1.053,0,0,0-.69-1.211c-.183-.066-.36-.14-.331-.368s.22-.27.431-.286a1.108,1.108,0,0,0,1.044-1.139,1.136,1.136,0,0,0-.919-1.221c-.1-.019-.227.017-.3-.034a.554.554,0,0,1-.244-.323c-.006-.085.153-.223.265-.263a1.821,1.821,0,0,1,.453-.021,1.133,1.133,0,0,0,1.086-1.432,1.1,1.1,0,0,0-1.236-.926c-1.96,0-3.921,0-5.881,0C-729.245-318.8-729.678-319.293-729.55-320.186Zm11.984-5.327V-334.7h-19.17v9.189Zm-19.164,11.728q0,2.193,0,4.385c0,.368.1.473.465.475q.9,0,1.8,0c.385,0,.492-.1.492-.483q0-4.37,0-8.74c0-.362-.11-.473-.469-.474-.589,0-1.178,0-1.767,0-.427,0-.518.09-.519.513Q-736.73-315.947-736.729-313.785Zm9.066-11.063v5.409h1.03v-5.409Zm-.009,17.272c0,.561-.017,1.106.007,1.649a.494.494,0,0,0,.51.468c.271-.012.5-.149.511-.427.029-.562.009-1.126.009-1.691Zm3.168-11.852a1.292,1.292,0,0,0-1.469-.742v.742Zm-3.818,0v-.763c-.5-.044-.636.029-.648.326S-728.734-319.407-728.322-319.425Z" transform="translate(-2.756 -2.755)" fill="#6172d6"/>
    <path id="Path_1686" data-name="Path 1686" d="M-613.234-310.764m-.153.381" transform="translate(-116.655 -25.316)" fill="#6172d6"/>
    <path id="Path_1687" data-name="Path 1687" d="M-613.234-310.764m-.153.381" transform="translate(-116.655 -25.316)" fill="#6172d6"/>
    <path id="Path_1688" data-name="Path 1688" d="M-613.387-306.083" transform="translate(-116.655 -29.616)" fill="#6172d6"/>
    <path id="Path_1689" data-name="Path 1689" d="M-613.387-306.083" transform="translate(-116.655 -29.616)" fill="#6172d6"/>
  </g>
</svg>
