<svg xmlns="http://www.w3.org/2000/svg" width="104.52" height="126.88" viewBox="0 0 104.52 126.88">
  <g id="Group_4580" data-name="Group 4580" transform="translate(-107.581 -220.596)">
    <path id="Path_2165" data-name="Path 2165" d="M155.744,305.873c-2.159.063-2.157.063-2.159,2.247q-.005,5.451-.015,10.9c-1.631.111-3.32-.337-4.892.214q-12.058,4.227-24.074,8.572a8.914,8.914,0,0,0-5.79,6.436c-.3,1.114-.828,2.418,1.139,2.57a6.511,6.511,0,0,0-.323,7.75,6.59,6.59,0,0,0,9.277,1.69c3.209-2.315,3.673-6.385,1.11-9.726a3.037,3.037,0,0,1,1.483-.6q5.975-1.857,11.956-3.694l8.484-2.527,1.682,6.837c-.012,3.364-.009,6.727-.05,10.091-.008.654.188.854.844.844q3.552-.052,7.106,0c.656.01.853-.19.844-.844-.041-3.363-.037-6.727-.049-10.091L164,329.7l8.485,2.512c1.684.523,3.377,1.015,5.048,1.575,2.791.937,5.7,1.526,8.395,2.74-2.342,3.023-2.2,6.662.368,9.11a6.562,6.562,0,0,0,8.829.243c2.707-2.313,3.057-5.99.864-9.07,1.978-.15,1.431-1.468,1.135-2.571a9.025,9.025,0,0,0-5.92-6.484c-6.553-2.37-13.137-4.657-19.671-7.079-2.976-1.1-5.94-2.028-9.163-1.656q-.008-5.451-.015-10.9c0-2.184,0-2.184-2.159-2.248q-.008-4.346-.016-8.692,10.744-.016,21.488-.03c5.611,0,11.224-.021,16.835.02.9.007,1.169-.248,1.13-1.138-.07-1.591-.036-3.187-.016-4.78.045-3.625-.254-7.257.852-10.826.858-2.772,1.425-5.634,2.121-8.456a5.642,5.642,0,0,0,1.278-4.936q3.168-12.613,6.342-25.223c1.176-4.631,2.311-9.236,1.741-14.1-.579-4.95-3.223-7.48-7.671-7.019a3.6,3.6,0,0,0-.539-.08c-13.217-.006-26.434-.026-39.651.009a5.52,5.52,0,0,0-4.665,2.455,19.026,19.026,0,0,0-3.229,12.406c.217,3.231,1.525,6.153,2.428,9.191-.4,1.819-.776,3.645-1.218,5.455-.935,3.832-1.552,7.738-2.693,11.521a23.271,23.271,0,0,0-11.966-3.807q-10.254-.231-20.518-.022c-6.327.121-11.266,6.473-10.132,12.665.368,2.012,1.41,3.728,2.109,5.593-.391.229-.785.454-1.173.688a10.555,10.555,0,0,0-5.437,8.933,10.865,10.865,0,0,0,10.966,11.445c12.4.038,24.8.027,37.206.035Z" transform="translate(0 0)" fill="#fff"/>
    <path id="Path_2166" data-name="Path 2166" d="M273.48,256.123c-.9-3.038-2.21-5.961-2.428-9.191a19.025,19.025,0,0,1,3.229-12.406,5.52,5.52,0,0,1,4.665-2.455c13.217-.035,26.434-.015,39.651-.009a3.6,3.6,0,0,1,.539.08,6.785,6.785,0,0,0-3.714,2.328,18.88,18.88,0,0,0-2.992,14.607c.451,2.413,1.442,4.662,2.036,7.029Z" transform="translate(-114.858 -11.454)" fill="#cc6363"/>
    <path id="Path_2167" data-name="Path 2167" d="M186.3,403.531c-12.4-.009-24.8,0-37.207-.035a10.865,10.865,0,0,1-10.966-11.445,10.555,10.555,0,0,1,5.437-8.933c.388-.234.782-.459,1.173-.688,2.8-1.09,5.737-.734,8.632-.816l29.008-.012h5.371l.214.314c-.3.106-.6.208-.9.32a10.925,10.925,0,0,0-3.692,18.458,12.851,12.851,0,0,0,5.677,2.787Z" transform="translate(-30.531 -106.356)" fill="#f16b6b"/>
    <path id="Path_2168" data-name="Path 2168" d="M169.477,519.044c-1.967-.153-1.435-1.457-1.139-2.57a8.914,8.914,0,0,1,5.79-6.436q12.013-4.354,24.074-8.572c1.572-.551,3.261-.1,4.892-.214h8.8c3.223-.372,6.187.553,9.163,1.656,6.534,2.423,13.118,4.71,19.671,7.079a9.025,9.025,0,0,1,5.92,6.484c.3,1.1.844,2.422-1.135,2.571a2.038,2.038,0,0,0-1.3-.3c-2.921.011-5.842.01-8.762.013-2.7-1.214-5.6-1.8-8.394-2.74-1.67-.56-3.364-1.052-5.048-1.575a.97.97,0,0,0-.531-.587,11.473,11.473,0,0,1-5.369-7.868c-.084-.442.069-1.052-.709-1.4l-1.876,7.345-1.682,6.837h-8.7l-1.682-6.837q-.819-3.232-1.638-6.465c-.086-.341-.065-.836-.539-.8-.428.03-.248.5-.3.785a11.472,11.472,0,0,1-3.256,6.607c-.879.842-1.834,1.6-2.754,2.4q-5.979,1.845-11.956,3.694a3.037,3.037,0,0,0-1.482.6q-4.314,0-8.629-.008A2.147,2.147,0,0,0,169.477,519.044Z" transform="translate(-49.524 -182.23)" fill="#974b4b"/>
    <path id="Path_2169" data-name="Path 2169" d="M261.32,394.875a12.851,12.851,0,0,1-5.677-2.787,10.925,10.925,0,0,1,3.692-18.458c.3-.113.6-.214.9-.32a7.837,7.837,0,0,1,.494.8c1.852,3.944,3.668,7.906,5.553,11.835a3.936,3.936,0,0,0,5.251,2.046c2.157-.992,2.9-3.276,1.859-5.634-1.374-3.11-2.949-6.131-4.138-9.322a8.186,8.186,0,0,1,6.895,4.41c1.2,2,2.764,3.659,5.2,4.049,3.977.637,7.993.149,11.989.266.484.014.528-.356.606-.74.225-1.105.536-2.193.748-3.3.62-3.237,1.575-6.4,2.027-9.675.623-.035.972.408,1.375.771a9.089,9.089,0,0,0,2.293,1.672c1.833.823,3.436.133,5.006-.765-.7,2.822-1.263,5.684-2.121,8.456-1.106,3.569-.806,7.2-.852,10.826-.02,1.594-.053,3.19.016,4.78.039.89-.227,1.145-1.13,1.138-5.611-.041-11.224-.024-16.835-.02q-10.744.009-21.487.03Z" transform="translate(-102.805 -97.751)" fill="#974b4b"/>
    <path id="Path_2170" data-name="Path 2170" d="M316.308,347.979c-1.57.9-3.173,1.588-5.006.765a9.089,9.089,0,0,1-2.293-1.672c-.4-.363-.751-.806-1.375-.771-.049-.408-.345-.6-.658-.809a16.081,16.081,0,0,0-8.54-2.911c-5.236-.147-10.479-.086-15.718-.029a4.3,4.3,0,0,0-4.083,5.28,9.955,9.955,0,0,0,1.534,3.458c1.189,3.192,2.764,6.212,4.138,9.322,1.042,2.359.3,4.643-1.859,5.634A3.936,3.936,0,0,1,277.2,364.2c-1.884-3.929-3.7-7.891-5.553-11.835a7.839,7.839,0,0,0-.494-.8l-.215-.314a4.555,4.555,0,0,0-.567-1.525c-3.613-7.773,1.594-15.942,10.165-15.945,6.159,0,12.318.007,18.477-.006a29.166,29.166,0,0,1,4.055.453,30.99,30.99,0,0,1,6.979,2.263c.375.24.748.482,1.125.719,2.488,1.56,4.931,3.17,6.418,5.829A5.641,5.641,0,0,1,316.308,347.979Z" transform="translate(-113.719 -76.009)" fill="#290000"/>
    <path id="Path_2171" data-name="Path 2171" d="M303.72,313.712a30.99,30.99,0,0,0-6.979-2.263,29.166,29.166,0,0,0-4.055-.453c-6.159.013-12.318,0-18.477.006-8.571,0-13.778,8.172-10.165,15.945a4.556,4.556,0,0,1,.568,1.525h-5.371c.121-1.253.734-2.426.609-3.72a73.254,73.254,0,0,0,2.258-9.881c1.141-3.784,1.757-7.69,2.693-11.521.442-1.81.814-3.636,1.218-5.455l40.987-.019c-.407,2.9-1.252,5.7-1.8,8.571C304.732,308.874,303.949,311.237,303.72,313.712Z" transform="translate(-107.397 -53.226)" fill="#f16b6b"/>
    <path id="Path_2172" data-name="Path 2172" d="M380.959,272.005c.23-2.475,1.012-4.838,1.481-7.265.553-2.867,1.4-5.673,1.8-8.571-.595-2.367-1.586-4.616-2.036-7.029a18.88,18.88,0,0,1,2.992-14.607,6.786,6.786,0,0,1,3.714-2.328c4.448-.461,7.091,2.069,7.671,7.019.57,4.869-.566,9.474-1.741,14.1q-3.2,12.6-6.342,25.223c-1.487-2.658-3.929-4.268-6.418-5.829C381.707,272.488,381.334,272.245,380.959,272.005Z" transform="translate(-184.636 -11.519)" fill="#974b4b"/>
    <path id="Path_2173" data-name="Path 2173" d="M192.8,337.568a73.161,73.161,0,0,1-2.259,9.88,18.181,18.181,0,0,0-12.1-4.984c-4.829-.061-9.66-.037-14.49-.009A4.36,4.36,0,0,0,159.8,348.7c.342.841.745,1.657,1.12,2.485-2.9.082-5.833-.274-8.632.816-.7-1.864-1.741-3.58-2.109-5.593-1.134-6.191,3.806-12.544,10.132-12.665q10.256-.2,20.518.022A23.271,23.271,0,0,1,192.8,337.568Z" transform="translate(-38.087 -75.923)" fill="#290000"/>
    <path id="Path_2174" data-name="Path 2174" d="M349.625,549.288c2.921,0,5.842,0,8.762-.013a2.038,2.038,0,0,1,1.3.3c2.193,3.08,1.843,6.757-.864,9.07a6.562,6.562,0,0,1-8.829-.243C347.43,555.95,347.283,552.311,349.625,549.288Z" transform="translate(-163.698 -212.758)" fill="#290000"/>
    <path id="Path_2175" data-name="Path 2175" d="M169.449,549.572a2.147,2.147,0,0,1,1.436-.294q4.314.008,8.629.008c2.563,3.341,2.1,7.411-1.11,9.726a6.59,6.59,0,0,1-9.277-1.69A6.511,6.511,0,0,1,169.449,549.572Z" transform="translate(-49.496 -212.759)" fill="#290000"/>
    <path id="Path_2176" data-name="Path 2176" d="M272.762,478.563h-8.8q.008-5.451.015-10.9c0-2.185,0-2.185,2.159-2.247h4.452c2.159.063,2.157.063,2.159,2.248Q272.753,473.112,272.762,478.563Z" transform="translate(-110.393 -159.542)" fill="#290000"/>
    <path id="Path_2177" data-name="Path 2177" d="M264.018,549.338h8.7c.012,3.364.009,6.728.049,10.091.008.653-.188.854-.845.844q-3.552-.052-7.106,0c-.656.01-.853-.19-.845-.844C264.009,556.065,264.006,552.7,264.018,549.338Z" transform="translate(-110.396 -212.798)" fill="#290000"/>
    <path id="Path_2178" data-name="Path 2178" d="M274.363,450.223h-4.452q.012-4.349.023-8.7l2.748-.05,1.665.056Q274.355,445.877,274.363,450.223Z" transform="translate(-114.167 -144.351)" fill="#974b4b"/>
    <path id="Path_2179" data-name="Path 2179" d="M292.5,517.872l1.876-7.345c.778.35.625.96.709,1.4a11.473,11.473,0,0,0,5.369,7.868.97.97,0,0,1,.531.587Z" transform="translate(-128.504 -188.169)" fill="#600000"/>
    <path id="Path_2180" data-name="Path 2180" d="M236.285,520.532c.92-.8,1.875-1.561,2.754-2.4a11.472,11.472,0,0,0,3.256-6.607c.049-.284-.131-.755.3-.785.474-.033.453.462.539.8q.816,3.233,1.638,6.465Z" transform="translate(-92.829 -188.302)" fill="#600000"/>
    <path id="Path_2181" data-name="Path 2181" d="M177.225,366.434c-.375-.828-.778-1.644-1.12-2.485a4.36,4.36,0,0,1,4.152-6.241c4.83-.028,9.661-.052,14.49.009a18.181,18.181,0,0,1,12.1,4.984c.125,1.294-.488,2.467-.609,3.72Z" transform="translate(-54.389 -91.176)" fill="#fff"/>
    <path id="Path_2182" data-name="Path 2182" d="M296.314,366.419a9.955,9.955,0,0,1-1.534-3.458,4.3,4.3,0,0,1,4.083-5.28c5.239-.057,10.483-.118,15.718.029a16.081,16.081,0,0,1,8.54,2.911c.313.21.609.4.658.809-.451,3.271-1.406,6.438-2.026,9.675-.212,1.107-.523,2.2-.748,3.3-.078.384-.122.754-.606.74-4-.117-8.012.371-11.989-.266-2.437-.39-4-2.054-5.2-4.049A8.186,8.186,0,0,0,296.314,366.419Z" transform="translate(-129.865 -91.136)" fill="#f16b6b"/>
  </g>
</svg>
