<svg xmlns="http://www.w3.org/2000/svg" width="113.472" height="130.635" viewBox="0 0 113.472 130.635">
  <g id="Group_4578" data-name="Group 4578" transform="translate(-1348.602 -425.83)">
    <path id="Path_2136" data-name="Path 2136" d="M1358.789,569.772a7.574,7.574,0,0,0-2.9.254,4.451,4.451,0,0,0-2.925,4.484q-.011,12.37,0,24.74c0,.383.018.767-.015,1.147a2.034,2.034,0,0,1-1.824,1.984,2.078,2.078,0,0,1-2.357-1.508,5.413,5.413,0,0,1-.149-1.508q-.012-12.306,0-24.613c0-5.669,3.673-9.333,9.343-9.343,3.365-.006,6.73-.03,10.094.007a8.5,8.5,0,0,1,8.263,5.517c.375.872.835.863,1.563.756a25.232,25.232,0,0,0,11.071-4.933c4.274-3.068,8.348-6.327,11.215-10.83a13.976,13.976,0,0,0,2.151-11.293,14.7,14.7,0,0,1-.453-5.049c.631-6.307,8.063-9.314,13.143-6.728,4.092,2.082,6.312,5.594,7.442,9.862,1.583,5.979.469,11.792-1.338,17.529a57.85,57.85,0,0,1-3.439,8.354,1.738,1.738,0,0,0-.369,1.155h1.361q12.778,0,25.555,0a8.7,8.7,0,0,1,9.07,7.77,7.939,7.939,0,0,1-1.475,5.788c-.391.567-.432.829.173,1.285a8.6,8.6,0,0,1-1.531,14.8c-.687.307-.59.588-.322,1.145a8.565,8.565,0,0,1-3.953,11.878c-.665.337-.72.557-.4,1.214a8.624,8.624,0,0,1-5.755,12.513,1.815,1.815,0,0,0-.412.236h-44.484c-.115-.223-.33-.229-.541-.256a26.66,26.66,0,0,1-10.682-3.863,14.98,14.98,0,0,0-5.16-2.083c-1.861-.343-1.853-.38-2.7,1.347a9.317,9.317,0,0,1-1.365,1.984,10.074,10.074,0,0,1-5.122,2.871h-14.061a13.4,13.4,0,0,1-4.4-2.654,9,9,0,0,1-2.453-5.335c-.179-1.6.659-2.77,2-2.888,1.272-.112,2.141.794,2.333,2.432a4.442,4.442,0,0,0,4.554,4.1c.425.008.851-.012,1.276-.018l8.173-.029c3.746.246,5.651-1.528,5.651-5.263q0-20.887,0-41.773c0-3.6-2-5.424-5.655-5.152Zm84.374,4.395c-.509-.023-1.018-.066-1.526-.066q-13.912-.006-27.823-.005c-1.833,0-2.447-.545-2.68-2.319l.027-.252q.034-.255.067-.509a3.062,3.062,0,0,0,.315-.384c3.823-6.534,6.745-13.4,7.27-21.047a14.848,14.848,0,0,0-2.483-9.915c-1.47-2.057-3.273-3.725-6.142-3.289l-.512.068-.258.114c-2.557.844-3.543,2.416-3.156,5.038.279,1.887.722,3.767.811,5.663.227,4.852-1.606,9.054-4.5,12.834-4.211,5.5-9.665,9.54-15.562,13.03a22.718,22.718,0,0,1-8.912,2.923c-.983.12-1.146.455-1.143,1.332.029,8.717.018,17.435.018,26.152q0,5.486,0,10.971c0,.53-.156,1.107.741,1.158a17.748,17.748,0,0,1,8.488,2.9,23.826,23.826,0,0,0,13.124,3.491c11.93-.036,23.86-.011,35.79-.014.553,0,1.105-.036,1.658-.056.423.02.846.065,1.269.056a4.347,4.347,0,0,0,3.72-6.645c-1.137-1.9-2.956-2.236-4.982-1.985l-4.71-.062c-1.688-.023-2.707-.856-2.7-2.2.008-1.409.913-2.124,2.7-2.137l8.787-.063c.551.021,1.1.087,1.653.055a4.4,4.4,0,0,0,2.523-7.894,5.307,5.307,0,0,0-3.9-.745c-2.931-.021-5.863-.047-8.794-.058a3.969,3.969,0,0,1-1.628-.23,2.034,2.034,0,0,1-1.307-2.358,1.888,1.888,0,0,1,1.9-1.725c1.359-.038,2.719-.016,4.079-.027q4.9-.039,9.81-.084a13.079,13.079,0,0,0,1.771.086,4.68,4.68,0,0,0,4.045-3.213,4.314,4.314,0,0,0-1.684-4.733,5.241,5.241,0,0,0-4.13-.8c-.551-.024-1.1-.068-1.652-.069q-5.993-.011-11.985-.009a2.012,2.012,0,0,1-2.107-1.511,2.075,2.075,0,0,1,.922-2.434,3.059,3.059,0,0,1,1.837-.391q5.608-.023,11.216-.064c.422.017.844.058,1.265.048a4.248,4.248,0,0,0,4.125-5.37C1448.216,575.025,1446.234,573.888,1443.163,574.167Z" transform="translate(0 -69.918)" fill="#5f78d6"/>
    <path id="Path_2137" data-name="Path 2137" d="M1383.731,695.13l-8.173.029c-1.568-2.358-1.526-5.009-1.517-7.7q.058-18.359,0-36.718c-.008-2.729-.056-5.426,1.51-7.835l8.175.031c1.823,3.032,1.289,6.39,1.3,9.657q.044,16.243,0,32.485C1385.013,688.477,1385.562,691.961,1383.731,695.13Z" transform="translate(-16.763 -143.056)" fill="#dbe0f3"/>
    <path id="Path_2138" data-name="Path 2138" d="M1577.829,449.77a2.017,2.017,0,0,1-1.923,2.137c-1.595.245-3.223.16-4.81.555-5.715,1.426-9.227,5.178-11.225,10.526a24.678,24.678,0,0,0-1.584,7.96c-.053,1.8-.91,2.837-2.267,2.818-1.322-.018-2.16-1.014-2.21-2.745a24.569,24.569,0,0,0-1.137-6.635c-1.635-5.231-4.542-9.391-9.921-11.381a17.174,17.174,0,0,0-5.756-.994c-1.161-.017-2.245-.284-2.652-1.56-.5-1.566.559-2.856,2.428-2.885a17.268,17.268,0,0,0,6.956-1.408c5.2-2.354,7.831-6.712,9.239-11.987a24.775,24.775,0,0,0,.844-5.657c.052-1.723.916-2.7,2.263-2.683s2.128,1,2.217,2.741c.013.255.01.511.032.765a23.959,23.959,0,0,0,3.407,10.962,15.09,15.09,0,0,0,12.517,7.227c.552.035,1.115-.01,1.658.075A2.093,2.093,0,0,1,1577.829,449.77Zm-21.734-10.8c-2.991,5.715-3.492,6.294-9.062,10.383-.924.678-.016.776.3.974a20.974,20.974,0,0,1,8.252,9.3c.123.27.085.7.59.777a21.086,21.086,0,0,1,9.523-10.626A21.634,21.634,0,0,1,1556.1,438.97Z" transform="translate(-122.324)" fill="#5f78d6"/>
    <path id="Path_2139" data-name="Path 2139" d="M1395.952,502.374a2.256,2.256,0,0,1,2.208,2.327,18.664,18.664,0,0,0,1.812,7.364,9.49,9.49,0,0,0,8.651,5.544c1.674.063,2.586.83,2.593,2.176.008,1.378-.823,2.095-2.544,2.193-4.9.279-8.256,3.085-9.721,8.137a22.686,22.686,0,0,0-.787,4.763,2.228,2.228,0,0,1-2.15,2.365c-1.294,0-2.114-.925-2.218-2.437a16.225,16.225,0,0,0-3.106-9.271,9.651,9.651,0,0,0-7.592-3.563c-1.5-.072-2.331-.837-2.349-2.126a2.121,2.121,0,0,1,2.28-2.217c6.253-.126,9.048-4.268,10.238-9.092a21.21,21.21,0,0,0,.543-3.9A2.232,2.232,0,0,1,1395.952,502.374Zm-4.711,17.251c-.253.11-.2.237-.021.372l.259.207a16.368,16.368,0,0,1,4.47,5.419l1.688-2.662a16.978,16.978,0,0,1,2.841-2.69c.471-.332.487-.551.015-.932-.884-.714-1.708-1.5-2.557-2.259l-2.008-3.124a15.81,15.81,0,0,1-4.418,5.455Z" transform="translate(-21.185 -50.443)" fill="#5f78d6"/>
    <path id="Path_2140" data-name="Path 2140" d="M1459.65,481.274a2.3,2.3,0,0,1-2.176-1.264,1.882,1.882,0,0,1,.252-2.257,49.991,49.991,0,0,1,3.7-3.674,2,2,0,0,1,2.789.109,2.042,2.042,0,0,1,.337,2.769,30.089,30.089,0,0,1-3.95,3.951A1.5,1.5,0,0,1,1459.65,481.274Z" transform="translate(-71.575 -31.454)" fill="#5f78d6"/>
    <path id="Path_2141" data-name="Path 2141" d="M1491.362,444.967a2.131,2.131,0,0,1,2.018,3.17,17.2,17.2,0,0,1-4.2,4.2,2.131,2.131,0,0,1-2.849-2.948,22.553,22.553,0,0,1,4.116-4.117A2.5,2.5,0,0,1,1491.362,444.967Z" transform="translate(-90.517 -12.611)" fill="#5f78d6"/>
    <path id="Path_2142" data-name="Path 2142" d="M1621.647,585.329c.764,0,1.534-.058,2.291.013a2.239,2.239,0,0,1,2.136,2.139,2.151,2.151,0,0,1-2.048,2.191,34.222,34.222,0,0,1-4.7,0,2.156,2.156,0,0,1-2.016-2.225,2.253,2.253,0,0,1,2.173-2.109c.716-.062,1.442-.011,2.164-.011Z" transform="translate(-177.078 -105.094)" fill="#5f78d6"/>
    <path id="Path_2143" data-name="Path 2143" d="M1660.181,585.327c.764,0,1.533-.054,2.291.012a2.242,2.242,0,0,1,2.1,2.169,2.084,2.084,0,0,1-1.935,2.146,18.865,18.865,0,0,1-4.946-.017,1.946,1.946,0,0,1-1.81-2.088,2.089,2.089,0,0,1,1.89-2.182,19.654,19.654,0,0,1,2.415-.019Z" transform="translate(-202.494 -105.095)" fill="#5f78d6"/>
    <path id="Path_2144" data-name="Path 2144" d="M1487.985,473.674a2.492,2.492,0,0,1,1.936.715c1.02,1.018,2.056,2.02,3.054,3.058a2.241,2.241,0,0,1,.143,3.18,2.127,2.127,0,0,1-3.172-.08q-1.656-1.578-3.234-3.236a2.036,2.036,0,0,1-.395-2.357A2,2,0,0,1,1487.985,473.674Z" transform="translate(-90.615 -31.529)" fill="#5f78d6"/>
    <path id="Path_2145" data-name="Path 2145" d="M1465.022,450.762a1.965,1.965,0,0,1-1.145,1.567,2.035,2.035,0,0,1-2.392-.234c-1.221-1.121-2.408-2.289-3.52-3.517a2.04,2.04,0,0,1,.136-2.881,2.1,2.1,0,0,1,2.8-.209c1.292,1.169,2.5,2.436,3.705,3.692A1.981,1.981,0,0,1,1465.022,450.762Z" transform="translate(-71.719 -12.663)" fill="#5f78d6"/>
    <path id="Path_2146" data-name="Path 2146" d="M1643.052,564.205c0-.719-.027-1.44.006-2.158a2.119,2.119,0,0,1,2.03-2.184,2.168,2.168,0,0,1,2.269,1.966,35.927,35.927,0,0,1-.008,4.818,2.154,2.154,0,0,1-4.292-.284C1643.028,565.645,1643.051,564.924,1643.052,564.205Z" transform="translate(-194.036 -88.326)" fill="#5f78d6"/>
    <path id="Path_2147" data-name="Path 2147" d="M1643.055,602.472c0-.719-.029-1.44.005-2.159a2.166,2.166,0,0,1,1.937-2.155,2.1,2.1,0,0,1,2.3,1.758,19.646,19.646,0,0,1,.012,5.186,2.112,2.112,0,0,1-2.281,1.777,2.163,2.163,0,0,1-1.966-2.121C1643.026,604,1643.056,603.234,1643.055,602.472Z" transform="translate(-194.037 -113.558)" fill="#5f78d6"/>
    <path id="Path_2148" data-name="Path 2148" d="M1353.053,753.675a2.034,2.034,0,0,1-2.226,2.076,2.15,2.15,0,0,1-2.1-2.131,2.269,2.269,0,0,1,2.217-2.184A2.121,2.121,0,0,1,1353.053,753.675Z" transform="translate(-0.083 -214.574)" fill="#4174b9"/>
    <path id="Path_2149" data-name="Path 2149" d="M1402.454,695.138c1.83-3.168,1.282-6.653,1.293-10.047q.051-16.243,0-32.485c-.009-3.267.525-6.625-1.3-9.657,3.652-.271,5.655,1.552,5.655,5.153q0,20.887,0,41.773C1408.1,693.61,1406.2,695.384,1402.454,695.138Z" transform="translate(-35.486 -143.064)" fill="#9ba9dc"/>
    <path id="Path_2150" data-name="Path 2150" d="M1528.732,579.487c-1.788-.8-2.321-2.775-1.329-4.988.919-2.051,1.756-4.129,2.5-6.252a33.713,33.713,0,0,0,1.861-14,14.968,14.968,0,0,0-3.63-8.644,1.318,1.318,0,0,1-.44-.751c2.869-.436,4.672,1.232,6.142,3.289a14.847,14.847,0,0,1,2.482,9.915c-.525,7.647-3.447,14.513-7.27,21.047A3.071,3.071,0,0,1,1528.732,579.487Z" transform="translate(-117.505 -78.389)" fill="#9ba9dc"/>
    <path id="Path_2151" data-name="Path 2151" d="M1631.873,702.511a6.658,6.658,0,0,0,0-8.663,5.241,5.241,0,0,1,4.129.8,4.313,4.313,0,0,1,1.684,4.733,4.679,4.679,0,0,1-4.045,3.213A13.027,13.027,0,0,1,1631.873,702.511Z" transform="translate(-186.676 -176.555)" fill="#9ba9dc"/>
    <path id="Path_2152" data-name="Path 2152" d="M1626.177,664.285c.059-1.311,1.111-2.274,1.094-3.7a8.828,8.828,0,0,0-1.362-4.87c3.071-.278,5.053.858,5.657,3.245a4.248,4.248,0,0,1-4.125,5.37C1627.02,664.342,1626.6,664.3,1626.177,664.285Z" transform="translate(-182.746 -151.469)" fill="#9ba9dc"/>
    <path id="Path_2153" data-name="Path 2153" d="M1619.161,741.077a6.643,6.643,0,0,0,1.273-6.145c-.271-.833-.664-1.628-1-2.44a5.306,5.306,0,0,1,3.9.745,4.4,4.4,0,0,1-2.522,7.894C1620.266,741.164,1619.712,741.1,1619.161,741.077Z" transform="translate(-178.299 -202.054)" fill="#9ba9dc"/>
    <path id="Path_2154" data-name="Path 2154" d="M1607.167,779.307c-.057-.7.532-1.119.762-1.7a6.517,6.517,0,0,0-.325-5.831,9.69,9.69,0,0,1-.431-1.044c2.026-.25,3.845.085,4.982,1.985a4.347,4.347,0,0,1-3.72,6.645C1608.013,779.372,1607.589,779.327,1607.167,779.307Z" transform="translate(-170.392 -227.243)" fill="#9ba9dc"/>
    <path id="Path_2155" data-name="Path 2155" d="M1527.207,545.185l-.258.114Z" transform="translate(-117.531 -78.655)" fill="#bcceeb"/>
    <path id="Path_2156" data-name="Path 2156" d="M1531.885,648.3a.952.952,0,0,1-.049-.182c0-.021.049-.046.076-.069C1531.9,648.134,1531.894,648.218,1531.885,648.3Z" transform="translate(-120.752 -146.443)" fill="#bcceeb"/>
    <path id="Path_2157" data-name="Path 2157" d="M1419.22,545.5c.849.757,1.673,1.545,2.558,2.259.471.381.455.6-.016.932a16.987,16.987,0,0,0-2.842,2.691,5.77,5.77,0,0,0-1.427-1.38c-1.321-1.046-3.055-1.1-4.45-1.935a9.509,9.509,0,0,0,3.112-.9C1417.277,546.773,1418.021,545.724,1419.22,545.5Z" transform="translate(-42.468 -78.863)" fill="#9ba9dc"/>
    <path id="Path_2158" data-name="Path 2158" d="M1411.746,552.571q-.014.279-.028.558l-.259-.207.021-.371.27-.214C1411.746,552.414,1411.745,552.493,1411.746,552.571Z" transform="translate(-41.423 -83.368)" fill="#dee6f5"/>
    <path id="Path_2159" data-name="Path 2159" d="M1411.185,552.965l-.021.371C1410.983,553.2,1410.932,553.075,1411.185,552.965Z" transform="translate(-41.128 -83.782)" fill="#f4f8fc"/>
  </g>
</svg>
