<svg xmlns="http://www.w3.org/2000/svg" width="129.526" height="126.88" viewBox="0 0 129.526 126.88">
  <g id="Group_4581" data-name="Group 4581" transform="translate(510.331 -182.425)">
    <path id="Path_2183" data-name="Path 2183" d="M-222.188,359.716a33.859,33.859,0,0,1,19.145,16.6A30.886,30.886,0,0,1-199.6,387.68c.017.176.059.324.242.391v7.586c-.4,1.683-.716,3.395-1.225,5.046-4.1,13.321-13.062,21.364-26.659,24.2a23.93,23.93,0,0,1-9.022.293,1.945,1.945,0,0,1,.448-.194,32.936,32.936,0,0,0,21.279-12.281,32.82,32.82,0,0,0,7-26.324,32.406,32.406,0,0,0-11.012-19.954,35.333,35.333,0,0,0-11.817-6.793c-1.852-.658-3.824-.8-5.67-1.448.46-.353,1.015-.152,1.517-.263A37.431,37.431,0,0,1-222.188,359.716Z" transform="translate(-181.444 -116.195)" fill="#a45921"/>
    <path id="Path_2184" data-name="Path 2184" d="M-295.763,358.729c1.846.651,3.818.79,5.67,1.448a35.335,35.335,0,0,1,11.817,6.793,32.406,32.406,0,0,1,11.012,19.954,32.82,32.82,0,0,1-7,26.324,32.935,32.935,0,0,1-21.279,12.281,1.946,1.946,0,0,0-.448.194c-12.576-1.5-21.624-7.992-27.308-19.258-.208-.413-.4-.834-.6-1.252a36.756,36.756,0,0,1-2.581-12.221c.024-.293.065-.585.068-.878a32.814,32.814,0,0,1,11.892-25.572A31.937,31.937,0,0,1-295.763,358.729Zm.272,55.159c1.756,1.739,5.723.485,6.034-2.91a17.1,17.1,0,0,0,0-3.157,3.727,3.727,0,0,0-2.438-3.261,3.285,3.285,0,0,0-3.651.452,3.26,3.26,0,0,0-1.678,2.513,25.429,25.429,0,0,0-.059,3.01A3.6,3.6,0,0,0-295.491,413.888Zm.22-45.024a3.587,3.587,0,0,0-2.012,3.379q-.014,11.672,0,23.342a3.478,3.478,0,0,0,1.735,3.151,3.267,3.267,0,0,0,3.645.452,3.831,3.831,0,0,0,2.451-3.253,12.206,12.206,0,0,0,.016-1.513c0-7.363.015-14.726-.007-22.089A3.86,3.86,0,0,0-295.271,368.864Z" transform="translate(-121.715 -116.722)" fill="#f68732"/>
    <path id="Path_2185" data-name="Path 2185" d="M-458.945,289.746a50.5,50.5,0,0,1-16.374-3.3c-17.114-6.757-28.366-18.955-33.21-36.741-6.517-23.93,5.121-49.795,27.225-61.047a53.547,53.547,0,0,1,22.373-5.909c.135.362.445.318.739.329a34.832,34.832,0,0,1,7.049,1.152,53.864,53.864,0,0,1,18.221,8.343A51.517,51.517,0,0,1-422.7,202.05a52.349,52.349,0,0,1,9.1,15.876,45.733,45.733,0,0,1,2.971,14.847,2.665,2.665,0,0,1-1.638,2.59c-1.046.543-2.154.205-3.228.323a70.749,70.749,0,0,0-.777-7.117c-3.688-16.254-13.418-27-29.373-31.947a33.142,33.142,0,0,0-12.8-1.406l-2.032.108a.575.575,0,0,0-.593.1c-.876.1-1.758.161-2.627.3a41.141,41.141,0,0,0-34.142,39.327A40.146,40.146,0,0,0-487.2,263.8a39.81,39.81,0,0,0,27.429,13.374c1.775.472,3.589.07,5.378.238a12.281,12.281,0,0,0,.345,4.244c.64,2.571-1.3,6.467-3.825,7.37C-458.251,289.167-458.85,289.124-458.945,289.746Z" transform="translate(0 -0.213)" fill="#433737"/>
    <path id="Path_2186" data-name="Path 2186" d="M-314.8,235.473c1.074-.118,2.181.22,3.228-.323a2.665,2.665,0,0,0,1.638-2.59,45.733,45.733,0,0,0-2.971-14.847,52.35,52.35,0,0,0-9.1-15.876,51.519,51.519,0,0,0-10.224-9.478,53.864,53.864,0,0,0-18.221-8.343,34.833,34.833,0,0,0-7.049-1.152c-.294-.011-.6.032-.739-.329a45.918,45.918,0,0,1,11.778.8,52.081,52.081,0,0,1,27.667,14.2,52.642,52.642,0,0,1,15.441,28.8,55.969,55.969,0,0,1,.414,17.192,37.43,37.43,0,0,0-12.33-1.777l.357-4.272a1.847,1.847,0,0,0,.113-1.335Z" transform="translate(-100.693)" fill="#271e1e"/>
    <path id="Path_2187" data-name="Path 2187" d="M-358.279,473.38c.094-.622.693-.579,1.072-.715,2.527-.9,4.465-4.8,3.825-7.37a12.281,12.281,0,0,1-.345-4.244c2.054-.378,4.163-.389,6.193-.931a36.756,36.756,0,0,0,2.581,12.221A55.606,55.606,0,0,1-358.279,473.38Z" transform="translate(-100.666 -183.847)" fill="#271e1e"/>
    <path id="Path_2188" data-name="Path 2188" d="M-349.151,300.665c-2.029.542-4.139.554-6.193.931-1.789-.168-3.6.235-5.378-.238a5.758,5.758,0,0,0,5.327-5.706c.72-1.059.342-2.289.533-3.431.258-.148.242-.413.3-.658a40.312,40.312,0,0,1,4.27-11.247,39.63,39.63,0,0,1,11.273-12.7,39.255,39.255,0,0,1,10.568-5.529,9.136,9.136,0,0,0,3.243.283,2.219,2.219,0,0,0,2.29-1,2.123,2.123,0,0,0-.334-2.459,16.207,16.207,0,0,0-.209-3.128,38.884,38.884,0,0,0-4.129-13.912,40.845,40.845,0,0,0-9.6-12.342,41.8,41.8,0,0,0-16.734-8.907c-1.813-.484-3.711-.55-5.473-1.229a33.142,33.142,0,0,1,12.8,1.406c15.955,4.949,25.686,15.692,29.373,31.947a70.74,70.74,0,0,1,.777,7.117q0,.333,0,.665a2.285,2.285,0,0,0-.113,1.335l-.357,4.272c-.5.111-1.057-.09-1.517.263a31.937,31.937,0,0,0-18.76,7.815,32.813,32.813,0,0,0-11.893,25.572C-349.086,300.08-349.128,300.372-349.151,300.665Z" transform="translate(-99.048 -24.393)" fill="#fbd4b6"/>
    <path id="Path_2189" data-name="Path 2189" d="M-234.667,387.643a3.86,3.86,0,0,1,5.827,3.469c.022,7.363.007,14.726.007,22.088a12.209,12.209,0,0,1-.016,1.513,3.831,3.831,0,0,1-2.451,3.253,3.267,3.267,0,0,1-3.645-.452,2.732,2.732,0,0,0,2.065-3c0-7.79-.019-15.579.02-23.369A3.864,3.864,0,0,0-234.667,387.643Z" transform="translate(-182.319 -135.501)" fill="#d2ecef"/>
    <path id="Path_2190" data-name="Path 2190" d="M-238.079,388.719a3.864,3.864,0,0,1,1.808,3.507c-.04,7.789-.016,15.579-.02,23.369a2.732,2.732,0,0,1-2.065,3,3.478,3.478,0,0,1-1.735-3.151q-.013-11.671,0-23.342A3.587,3.587,0,0,1-238.079,388.719Z" transform="translate(-178.908 -136.577)" fill="#f0f9fd"/>
    <path id="Path_2191" data-name="Path 2191" d="M-234.953,494.117a3.285,3.285,0,0,1,3.651-.452,3.727,3.727,0,0,1,2.438,3.261,17.1,17.1,0,0,1,0,3.157c-.311,3.4-4.278,4.649-6.034,2.91a2.9,2.9,0,0,0,2-2.754c.057-1.215.052-2.436,0-3.652A2.514,2.514,0,0,0-234.953,494.117Z" transform="translate(-182.313 -205.827)" fill="#d2ecef"/>
    <path id="Path_2192" data-name="Path 2192" d="M-238.387,495.68a2.514,2.514,0,0,1,2.056,2.47c.052,1.216.057,2.437,0,3.652a2.9,2.9,0,0,1-2,2.754,3.6,3.6,0,0,1-1.8-3.352,25.436,25.436,0,0,1,.059-3.01A3.26,3.26,0,0,1-238.387,495.68Z" transform="translate(-178.88 -207.39)" fill="#f0f9fd"/>
    <path id="Path_2193" data-name="Path 2193" d="M-429.994,295.9a5.758,5.758,0,0,1-5.327,5.706,39.81,39.81,0,0,1-27.429-13.374,40.146,40.146,0,0,1-10.642-28.745,41.141,41.141,0,0,1,34.141-39.327c.869-.143,1.751-.2,2.628-.3a.62.62,0,0,0,.593-.1l2.032-.108c1.762.679,3.66.745,5.473,1.229a41.8,41.8,0,0,1,16.734,8.907,40.846,40.846,0,0,1,9.6,12.342,38.883,38.883,0,0,1,4.129,13.912,16.207,16.207,0,0,1,.209,3.129c-1.117-.659-2.35-.413-3.545-.448a2.166,2.166,0,0,0-2.3,1.159,2.08,2.08,0,0,0,.642,2.467,39.254,39.254,0,0,0-10.568,5.529,39.63,39.63,0,0,0-11.273,12.7,40.312,40.312,0,0,0-4.27,11.247c-.054.245-.039.51-.3.658-.022-.207-.036-.415-.067-.621-.194-1.315-.879-1.973-2.018-1.942-1.155.031-1.85.823-1.9,2.2-.022.627.008,1.255-.007,1.882a2.269,2.269,0,0,0,1.025,2.265A2.061,2.061,0,0,0-429.994,295.9Zm-4.25-39.356-.385.261c-.933-1.019-1.837-2.067-2.808-3.05-1.127-1.14-2.2-1.229-3.085-.346-.859.857-.745,2.012.345,3.082,2.012,1.976,4.051,3.926,6.056,5.909.727.719,1.472,1.294,2.554.851s1.213-1.373,1.209-2.4c-.018-4.126-.006-8.251-.007-12.377,0-1.81.036-3.622-.02-5.43a1.9,1.9,0,0,0-2.7-1.819,2.155,2.155,0,0,0-1.161,2.2C-434.234,247.8-434.244,252.169-434.244,256.543Zm-19.446-15.4A1.911,1.911,0,0,0-452,240.023a1.771,1.771,0,0,0-.242-2.01,25.529,25.529,0,0,0-2.125-2.151,1.868,1.868,0,0,0-2.713.058,1.94,1.94,0,0,0,.049,2.728c.589.656,1.228,1.268,1.865,1.879A1.976,1.976,0,0,0-453.69,241.148Zm-10.3,21.461v.008c.42,0,.842.023,1.26,0a1.914,1.914,0,0,0,1.992-1.852,1.833,1.833,0,0,0-1.927-2.014,19.144,19.144,0,0,0-2.893.031,1.85,1.85,0,0,0-1.776,1.92,1.912,1.912,0,0,0,1.833,1.9A12.445,12.445,0,0,0-463.985,262.609Zm29.758-33.673h-.01c0,.462-.031.927.006,1.386a1.981,1.981,0,0,0,1.928,1.947,1.924,1.924,0,0,0,1.918-1.927,22.546,22.546,0,0,0-.01-2.9,1.787,1.787,0,0,0-1.885-1.783,1.877,1.877,0,0,0-1.938,1.762A13.409,13.409,0,0,0-434.227,228.936Zm23.468,12.215a1.552,1.552,0,0,0,.558-.124,8.761,8.761,0,0,0,3.134-3.193,1.651,1.651,0,0,0-.658-2.115,1.679,1.679,0,0,0-2.219-.044,22.913,22.913,0,0,0-2.489,2.5,1.633,1.633,0,0,0-.108,1.9A1.945,1.945,0,0,0-410.76,241.151Zm-46.85,42.878a1.785,1.785,0,0,0,1.028,1.739,1.833,1.833,0,0,0,2.119-.232,27.49,27.49,0,0,0,2.14-2.13,1.9,1.9,0,0,0-.033-2.623,1.873,1.873,0,0,0-2.708-.052c-.718.642-1.37,1.358-2.051,2.042A1.861,1.861,0,0,0-457.61,284.028Z" transform="translate(-24.449 -24.64)" fill="#fce2ce"/>
    <path id="Path_2194" data-name="Path 2194" d="M-363.981,219.89a.62.62,0,0,1-.593.1A.574.574,0,0,1-363.981,219.89Z" transform="translate(-96.498 -24.778)" fill="#d2ecef"/>
    <path id="Path_2195" data-name="Path 2195" d="M-230.127,342.7a2.285,2.285,0,0,1,.113-1.335A1.846,1.846,0,0,1-230.127,342.7Z" transform="translate(-185.477 -105.224)" fill="#264d6c"/>
    <path id="Path_2196" data-name="Path 2196" d="M-351.736,433.543a2.061,2.061,0,0,1-2.433.349,2.269,2.269,0,0,1-1.025-2.265c.015-.627-.015-1.255.007-1.882.049-1.372.743-2.164,1.9-2.2,1.139-.031,1.824.627,2.018,1.942.03.206.045.414.067.621C-351.394,431.254-351.016,432.483-351.736,433.543Z" transform="translate(-102.706 -162.284)" fill="#5a5a5a"/>
    <path id="Path_2197" data-name="Path 2197" d="M-266.886,338.846a2.08,2.08,0,0,1-.642-2.467,2.166,2.166,0,0,1,2.3-1.159c1.195.035,2.428-.211,3.545.448a2.123,2.123,0,0,1,.334,2.459,2.219,2.219,0,0,1-2.29,1A9.136,9.136,0,0,1-266.886,338.846Z" transform="translate(-160.618 -101.146)" fill="#5a5a5a"/>
    <path id="Path_2198" data-name="Path 2198" d="M-370.946,298.44c0-4.374.01-8.748-.008-13.122a2.155,2.155,0,0,1,1.161-2.2,1.9,1.9,0,0,1,2.7,1.819c.056,1.808.02,3.62.02,5.43,0,4.125-.01,8.251.007,12.377,0,1.028-.124,1.956-1.208,2.4s-1.827-.132-2.554-.851c-2.005-1.983-4.044-3.933-6.056-5.909-1.09-1.07-1.2-2.225-.345-3.082.886-.884,1.958-.795,3.085.346.971.982,1.875,2.03,2.808,3.05Z" transform="translate(-87.747 -66.537)" fill="#5a5a5a"/>
    <path id="Path_2199" data-name="Path 2199" d="M-422.771,271.836a1.976,1.976,0,0,1-1.478-.62c-.637-.611-1.276-1.224-1.865-1.879a1.94,1.94,0,0,1-.049-2.728,1.868,1.868,0,0,1,2.713-.058,25.535,25.535,0,0,1,2.125,2.151,1.771,1.771,0,0,1,.242,2.01A1.911,1.911,0,0,1-422.771,271.836Z" transform="translate(-55.368 -55.328)" fill="#5a5a5a"/>
    <path id="Path_2200" data-name="Path 2200" d="M-452.1,339.136a12.445,12.445,0,0,1-1.511-.01,1.912,1.912,0,0,1-1.833-1.9,1.85,1.85,0,0,1,1.776-1.92,19.135,19.135,0,0,1,2.893-.031,1.833,1.833,0,0,1,1.927,2.014,1.914,1.914,0,0,1-1.992,1.852c-.418.027-.84,0-1.26,0Z" transform="translate(-36.334 -101.168)" fill="#5a5a5a"/>
    <path id="Path_2201" data-name="Path 2201" d="M-357.528,240.729a13.409,13.409,0,0,1,.009-1.511,1.877,1.877,0,0,1,1.938-1.762,1.787,1.787,0,0,1,1.885,1.783,22.563,22.563,0,0,1,.01,2.9,1.924,1.924,0,0,1-1.918,1.927,1.981,1.981,0,0,1-1.928-1.947c-.037-.459-.006-.924-.006-1.386Z" transform="translate(-101.149 -36.433)" fill="#5a5a5a"/>
    <path id="Path_2202" data-name="Path 2202" d="M-292.027,271.778a1.945,1.945,0,0,1-1.782-1.075,1.633,1.633,0,0,1,.108-1.9,22.908,22.908,0,0,1,2.489-2.5,1.679,1.679,0,0,1,2.219.044,1.651,1.651,0,0,1,.658,2.115,8.761,8.761,0,0,1-3.134,3.193A1.552,1.552,0,0,1-292.027,271.778Z" transform="translate(-143.182 -55.267)" fill="#5a5a5a"/>
    <path id="Path_2203" data-name="Path 2203" d="M-426.673,402.619a1.86,1.86,0,0,1,.494-1.258c.681-.684,1.333-1.4,2.051-2.042a1.873,1.873,0,0,1,2.708.052,1.9,1.9,0,0,1,.033,2.623,27.484,27.484,0,0,1-2.14,2.13,1.833,1.833,0,0,1-2.119.232A1.783,1.783,0,0,1-426.673,402.619Z" transform="translate(-55.386 -143.229)" fill="#5a5a5a"/>
  </g>
</svg>
