<svg xmlns="http://www.w3.org/2000/svg" width="107.591" height="107.805" viewBox="0 0 107.591 107.805">
  <g id="Group_4326" data-name="Group 4326" transform="translate(-157 -74)">
    <path id="Path_2003" data-name="Path 2003" d="M-315.459,259.136H-336.73V237.82Z" transform="translate(545.254 -160.691)" fill="#e4e4e4"/>
    <path id="Path_2004" data-name="Path 2004" d="M-462.956,326.9l2.616,2.406h-53.925a8.565,8.565,0,0,1-8.566-8.566V235.086a8.565,8.565,0,0,1,8.566-8.566h39.016v8.943q0,8.48,0,16.958c0,1.91.642,2.555,2.539,2.558q5.062.008,10.122.006h15.623v20.85l-1.149.2c-12.661,2.187-20.784,9.095-24.137,20.535C-475.595,307.967-472.466,318.172-462.956,326.9Z" transform="translate(679.83 -152.52)" fill="#e4e4e4"/>
    <path id="Path_2005_-_Outline" data-name="Path 2005 - Outline" d="M-305.924,419.25a24.638,24.638,0,0,0-24.56,23.8A24.811,24.811,0,0,0-306.7,468.681c.288.008.559.014.831.014a24.711,24.711,0,0,0,24.69-23.8,24.824,24.824,0,0,0-6.537-17.722,24.6,24.6,0,0,0-17.251-7.9c-.318-.014-.64-.019-.955-.019m3.455,21.346c.8,0,1.52-.014,2.24.006a34.92,34.92,0,0,1,3.962.158,3.212,3.212,0,0,1,2.661,3.214,3.228,3.228,0,0,1-2.672,3.206,29.879,29.879,0,0,1-3.632.152c-.8.022-1.606.006-2.558.006v4.6c0,2.677-1.3,4.313-3.4,4.283-2.071-.025-3.325-1.622-3.331-4.239,0-1.5,0-3.007,0-4.643-1.891,0-3.585.044-5.277-.011-2.6-.086-4.172-2.226-3.364-4.5a3.473,3.473,0,0,1,3.486-2.223c.847-.022,1.694-.006,2.542-.006h2.614v-1.883c0-1.071-.017-2.143.005-3.212.042-2.24,1.4-3.768,3.336-3.785s3.333,1.52,3.38,3.74c.025,1.293.005,2.586.005,3.876V440.6m-3.455-26.346c.414,0,.794.008,1.164.024a29.571,29.571,0,0,1,20.717,9.5,29.859,29.859,0,0,1,7.858,21.318,29.7,29.7,0,0,1-29.686,28.6c-.291,0-.591,0-.974-.016l-.079,0a29.819,29.819,0,0,1-28.556-30.836A29.627,29.627,0,0,1-305.924,414.25Z" transform="translate(540.753 -291.89)" fill="#d9d9d9"/>
    <path id="Path_2005" data-name="Path 2005" d="M-287.718,427.168a24.6,24.6,0,0,0-17.251-7.9c-.318-.014-.64-.019-.955-.019a24.638,24.638,0,0,0-24.56,23.8A24.811,24.811,0,0,0-306.7,468.681c.288.008.559.014.831.014a24.711,24.711,0,0,0,24.69-23.8A24.824,24.824,0,0,0-287.718,427.168Zm-8.561,20.012a29.879,29.879,0,0,1-3.632.152c-.8.022-1.606.006-2.558.006v4.6c0,2.677-1.3,4.311-3.4,4.283-2.071-.025-3.325-1.622-3.331-4.239,0-1.5,0-3.007,0-4.643-1.891,0-3.585.044-5.277-.011-2.6-.086-4.172-2.226-3.364-4.5a3.473,3.473,0,0,1,3.486-2.223c.847-.022,1.694-.006,2.542-.006h2.614v-1.883c0-1.071-.017-2.143.005-3.212.042-2.24,1.4-3.768,3.336-3.785s3.333,1.52,3.38,3.74c.025,1.293.005,2.586.005,3.876V440.6c.8,0,1.52-.014,2.24.006a34.92,34.92,0,0,1,3.962.158,3.212,3.212,0,0,1,2.661,3.214A3.228,3.228,0,0,1-296.279,447.18Z" transform="translate(540.754 -291.903)" fill="#e4e4e4"/>
    <path id="Path_2006" data-name="Path 2006" d="M-261.064,476.542a3.23,3.23,0,0,1-2.673,3.208,29.907,29.907,0,0,1-3.634.152c-.8.022-1.607.006-2.559.006v4.6c0,2.678-1.3,4.313-3.4,4.285-2.072-.025-3.327-1.623-3.332-4.241,0-1.5,0-3.008,0-4.645-1.892,0-3.587.044-5.279-.011-2.6-.086-4.174-2.227-3.365-4.5a3.475,3.475,0,0,1,3.487-2.224c.848-.022,1.7-.006,2.543-.006h2.615v-1.883c0-1.072-.017-2.144.006-3.213.042-2.241,1.4-3.77,3.338-3.786s3.335,1.521,3.382,3.742c.025,1.294.006,2.587.006,3.878v1.263c.8,0,1.521-.014,2.241.006a34.938,34.938,0,0,1,3.964.158A3.213,3.213,0,0,1-261.064,476.542Z" transform="translate(508.211 -324.452)" fill="#fff"/>
  </g>
</svg>
