<svg xmlns="http://www.w3.org/2000/svg" width="13.441" height="10.71" viewBox="0 0 13.441 10.71">
  <path id="Icon_material-group-add" data-name="Icon material-group-add" d="M6.325,11.619Zm7.906.824A2.413,2.413,0,0,0,16.6,9.972,2.413,2.413,0,0,0,14.231,7.5a2.276,2.276,0,0,0-.719.115,4.184,4.184,0,0,1,.712,2.356,4.266,4.266,0,0,1-.712,2.356A2.276,2.276,0,0,0,14.231,12.443Zm-3.953,0a2.413,2.413,0,0,0,2.364-2.472,2.37,2.37,0,1,0-4.736,0A2.42,2.42,0,0,0,10.278,12.443Zm5.234,1.78a3.1,3.1,0,0,1,1.091,2.34V18.21h2.372V16.562C18.975,15.294,17.1,14.511,15.512,14.223Zm-5.234-.132c-1.581,0-4.744.824-4.744,2.472V18.21h9.488V16.562C15.022,14.915,11.859,14.091,10.278,14.091Z" transform="translate(-5.534 -7.5)" fill="#6172d6"/>
</svg>
