<svg width="46" height="46" viewBox="0 0 46 46" fill="none" xmlns="http://www.w3.org/2000/svg">
<path d="M23 46C35.7025 46 46 35.7025 46 23C46 10.2975 35.7025 0 23 0C10.2975 0 0 10.2975 0 23C0 35.7025 10.2975 46 23 46Z" fill="url(#paint0_linear_265_1696)"/>
<g clip-path="url(#clip0_265_1696)">
<path d="M9.99993 17.8271C10.0952 17.6428 10.2528 17.4994 10.4436 17.4232C10.6345 17.347 10.8458 17.3431 11.0392 17.4121C12.1446 17.6431 13.2628 17.8129 14.3639 18.0596C15.5154 18.2791 16.5972 18.7786 17.5169 19.5156C18.148 20.0287 18.6155 20.7198 18.8607 21.5021C19.1058 22.2844 19.1177 23.1229 18.8946 23.912C18.5907 25.1222 18.1268 26.2849 17.5155 27.3686C16.7205 28.9187 15.9017 30.4546 15.1166 32.0089C14.7822 32.6684 14.5624 33.3814 14.4665 34.1167C14.4064 34.3538 14.4379 34.6052 14.5549 34.8193C14.672 35.0334 14.8657 35.1937 15.0957 35.2674C15.8499 35.5492 16.6506 35.68 17.4538 35.6524C17.9172 35.6667 18.3834 35.6524 18.8483 35.6524C18.935 35.6476 19.0216 35.6603 19.1034 35.6896C19.1852 35.7189 19.2608 35.7643 19.3253 35.8233C19.3897 35.8823 19.442 35.9536 19.4792 36.0332C19.5165 36.1128 19.5377 36.199 19.542 36.287C19.5492 36.3755 19.5382 36.4645 19.5098 36.5485C19.4813 36.6324 19.4363 36.7095 19.3771 36.7748C19.3178 36.8401 19.2456 36.8921 19.1655 36.9277C19.0854 36.9633 18.9988 36.9816 18.9114 36.9815C17.6464 37.0774 16.3744 36.9842 15.1361 36.7048C14.7181 36.6241 14.3268 36.4382 13.9977 36.1642C13.6687 35.8902 13.4127 35.5367 13.253 35.1362C13.0772 34.5389 13.0772 33.9025 13.253 33.3052C13.4927 32.3261 13.8595 31.3838 14.3441 30.503C15.1334 28.9715 15.9535 27.4571 16.7316 25.9227C17.1455 25.1499 17.4456 24.3196 17.6221 23.4585C17.7756 22.8129 17.7079 22.1336 17.4304 21.5323C17.153 20.931 16.6823 20.4436 16.0956 20.1502C15.0733 19.6179 13.9697 19.265 12.8315 19.1063C12.0872 18.9723 11.3427 18.8353 10.5983 18.7112C10.4664 18.6814 10.3431 18.6211 10.2379 18.5351C10.1327 18.449 10.0485 18.3395 9.9917 18.215L9.99993 17.8271Z" fill="white"/>
<path d="M35.5858 15.5099L36.1011 15.7594C36.323 15.3002 36.5324 14.8511 36.7557 14.4104C36.8218 14.2714 36.9333 14.1602 37.0715 14.0959C37.2097 14.0316 37.3656 14.0183 37.5125 14.0582C37.6513 14.0923 37.775 14.1726 37.8636 14.2863C37.9522 14.4001 38.0007 14.5406 38.0014 14.6856C37.9864 14.8501 37.9385 15.0097 37.8609 15.1548C36.5566 17.8928 35.2494 20.6288 33.9395 23.363C33.7443 23.7708 33.5577 24.1815 33.3456 24.5808C33.2797 24.7098 33.1719 24.8118 33.0408 24.87C32.9097 24.9281 32.7628 24.9388 32.6249 24.9002C32.484 24.8734 32.3569 24.7968 32.2662 24.6841C32.1755 24.5714 32.1269 24.4297 32.129 24.2842C32.1457 24.0923 32.1997 23.9058 32.2878 23.7352C33.3103 21.5876 34.3358 19.4414 35.3639 17.2967C35.4103 17.1983 35.4536 17.097 35.5041 16.9715L35.0001 16.7234C34.9467 16.829 34.8974 16.9159 34.8595 17.0086C32.4457 22.0558 30.0327 27.1039 27.6207 32.153C27.4497 32.5217 27.188 32.8395 26.8608 33.0756C25.8618 33.8048 24.8694 34.543 23.8835 35.2903C23.5393 35.5682 23.12 35.7333 22.6813 35.7637C22.6327 35.7734 22.5863 35.793 22.5455 35.8215C22.5047 35.8499 22.47 35.8866 22.4437 35.9291C22.3327 36.1088 22.2613 36.3113 22.156 36.4995C22.079 36.6544 21.9452 36.7726 21.7836 36.8288C21.6219 36.8851 21.4452 36.8749 21.2908 36.8004C21.2104 36.7615 21.1383 36.7065 21.0793 36.6386C21.0203 36.5708 20.9753 36.4915 20.9473 36.4056C20.9192 36.3197 20.9087 36.2289 20.9161 36.1387C20.9234 36.0485 20.9485 35.9607 20.9901 35.8806C21.2092 35.4528 21.4311 35.0535 21.0491 34.5815C20.9553 34.4011 20.9144 34.1973 20.9311 33.994C20.875 32.6336 20.8172 31.2746 20.7906 29.9142C20.7888 29.6099 20.8548 29.3092 20.9833 29.0343C23.8615 22.9823 26.7475 16.9345 29.6417 10.891C30.0133 10.1711 30.6173 9.60262 31.3524 9.28072C32.0874 8.95883 32.9089 8.90303 33.6796 9.12271C34.4536 9.30545 35.1501 9.73378 35.6681 10.3456C36.186 10.9574 36.4985 11.7209 36.5603 12.5252C36.5907 13.1107 36.4663 13.6937 36.1995 14.2136C36.0085 14.6315 35.8035 15.0521 35.5858 15.5099ZM28.1306 17.1626C28.0968 17.2225 28.0673 17.2682 28.0435 17.3181C26.1362 21.311 24.2276 25.3 22.3175 29.2853C22.2987 29.3129 22.2856 29.344 22.2787 29.3768C22.2718 29.4096 22.2714 29.4434 22.2774 29.4764C22.2834 29.5094 22.2957 29.5409 22.3137 29.569C22.3317 29.5971 22.3547 29.6214 22.3819 29.6404C23.3922 30.643 24.6864 31.2993 26.0828 31.517C26.1317 31.5345 26.1836 31.5417 26.2354 31.5382C26.2871 31.5347 26.3376 31.5206 26.3839 31.4967C26.4301 31.4729 26.471 31.4398 26.5042 31.3994C26.5375 31.359 26.5623 31.3121 26.5772 31.2617C28.2214 27.8003 29.8728 24.3417 31.531 20.886C31.7923 20.3398 32.0521 19.7922 32.3231 19.2247L28.1306 17.1626ZM32.906 18.0012C32.9552 17.9056 33.0001 17.8271 33.0381 17.7444C33.6785 16.4068 34.3019 15.0621 34.9634 13.7316C35.1481 13.4048 35.2419 13.0333 35.235 12.6566C35.2281 12.2799 35.1205 11.9121 34.924 11.5926C34.701 11.1952 34.374 10.8684 33.979 10.6487C33.5839 10.4289 33.1368 10.3247 32.6869 10.3477C32.2727 10.345 31.8671 10.4679 31.5221 10.7006C31.1771 10.9333 30.9081 11.2652 30.7499 11.6539L29.1544 14.9965L28.708 15.9363L32.906 18.0012ZM22.1501 31.2261C22.1838 32.1459 22.2177 32.9872 22.2444 33.8272C22.2444 34.0411 22.2766 34.245 22.4845 34.3491C22.5817 34.3898 22.6888 34.4004 22.792 34.3796C22.8952 34.3588 22.9901 34.3075 23.0646 34.2322C23.6948 33.7568 24.3266 33.2872 24.9605 32.8232C25.0053 32.7948 25.0524 32.77 25.1011 32.7491C24.0365 32.4193 23.0366 31.904 22.146 31.2261H22.1501Z" fill="white"/>
</g>
<defs>
<linearGradient id="paint0_linear_265_1696" x1="43.424" y1="1.748" x2="0" y2="0" gradientUnits="userSpaceOnUse">
<stop stop-color="#4ADEDE"/>
<stop offset="1" stop-color="#6172D6"/>
</linearGradient>
<clipPath id="clip0_265_1696">
<rect width="28" height="28" fill="white" transform="translate(10 9)"/>
</clipPath>
</defs>
</svg>
