<svg xmlns="http://www.w3.org/2000/svg" width="135.999" height="143.917" viewBox="0 0 135.999 143.917">
  <g id="Group_1683" data-name="Group 1683" transform="translate(-416.001 -477)">
    <g id="Group_688" data-name="Group 688" transform="translate(1846.469 136.015)">
      <path id="Path_435" data-name="Path 435" d="M-1430.413,412.937q0-26.629-.014-53.258c-.013-6.3,2.211-11.467,7.325-15.249a17.361,17.361,0,0,1,10.64-3.378c19.788.023,39.578.188,59.362-.065,9.673-.124,18.753,7.186,18.627,18.531-.128,11.549-.029,23.1-.029,34.649q0,35.934.017,71.867c.01,6.025-1.943,11.1-6.691,14.929a17.369,17.369,0,0,1-11.279,3.86c-19.734-.019-39.471-.209-59.2.077a18.276,18.276,0,0,1-18.809-18.866C-1430.266,448.338-1430.414,430.636-1430.413,412.937Zm89.044,0q0-26.553,0-53.107c0-7.467-4.389-11.9-11.837-11.9q-29.285-.018-58.572.012a14.54,14.54,0,0,0-3.649.38c-5.164,1.36-8.116,5.5-8.116,11.26q0,53.187,0,106.374c0,7.571,4.372,11.981,11.917,11.984q29.208.014,58.413-.012a15.389,15.389,0,0,0,3.652-.358c5.065-1.252,8.186-5.485,8.188-11.044Q-1341.355,439.736-1341.369,412.942Z" transform="translate(0 0)" fill="#e1e1e1"/>
      <path id="Path_436" data-name="Path 436" d="M-1342.4,606.785a10.307,10.307,0,0,1,10.361-10.221,10.318,10.318,0,0,1,10.167,10.421,10.233,10.233,0,0,1-10.2,10.184A10.23,10.23,0,0,1-1342.4,606.785Zm10.321-3.249a3.291,3.291,0,0,0-3.416,3.255,3.409,3.409,0,0,0,3.376,3.509,3.424,3.424,0,0,0,3.339-3.392A3.286,3.286,0,0,0-1332.084,603.536Z" transform="translate(-50.316 -146.03)" fill="#e1e1e1"/>
      <path id="Path_437" data-name="Path 437" d="M-1341.3,379.887c-4.384,0-8.766.007-13.151,0-2.377-.005-3.843-1.257-3.9-3.3-.063-2.123,1.378-3.538,3.833-3.548q13.23-.053,26.463,0c2.47.009,3.933,1.381,3.907,3.482s-1.509,3.365-4,3.37Q-1334.726,379.9-1341.3,379.887Z" transform="translate(-41.202 -18.298)" fill="#e1e1e1"/>
    </g>
    <g id="Ellipse_88" data-name="Ellipse 88" transform="translate(472 589) rotate(-90)" fill="#fff" stroke="#e1e1e1" stroke-width="6">
      <circle cx="40" cy="40" r="40" stroke="none"/>
      <circle cx="40" cy="40" r="37" fill="none"/>
    </g>
    <line id="Line_1" data-name="Line 1" x2="51.764" y2="54.065" transform="translate(484.968 574.882) rotate(-90)" fill="none" stroke="#e1e1e1" stroke-width="6"/>
  </g>
</svg>
