<svg xmlns="http://www.w3.org/2000/svg" width="20.778" height="20.763" viewBox="0 0 20.778 20.763">
  <path id="Icon_open-spreadsheet" data-name="Icon open-spreadsheet" d="M1.854,0A2.014,2.014,0,0,0,0,2.117V17.645a2.014,2.014,0,0,0,1.854,2.117h16.07a2.014,2.014,0,0,0,1.854-2.117V2.117A2.014,2.014,0,0,0,17.924,0Zm.618,2.823H4.945V5.647H2.472Zm4.945,0h9.889V5.647H7.417ZM2.472,8.47H4.945v2.823H2.472Zm4.945,0h9.889v2.823H7.417ZM2.472,14.116H4.945V16.94H2.472Zm4.945,0h9.889V16.94H7.417Z" transform="translate(0.5 0.5)" fill="none" stroke="#5a5a5a" stroke-width="1"/>
</svg>
