<svg xmlns="http://www.w3.org/2000/svg" width="17.058" height="17.062" viewBox="0 0 17.058 17.062">
  <g id="Group_4566" data-name="Group 4566" transform="translate(115.143 -214.813)">
    <path id="Path_2121" data-name="Path 2121" d="M-115.143,223.344a8.538,8.538,0,0,1,8.517-8.532,8.535,8.535,0,0,1,8.541,8.523,8.532,8.532,0,0,1-8.524,8.539A8.536,8.536,0,0,1-115.143,223.344Zm1.489,0a7.044,7.044,0,0,0,7.026,7.037,7.035,7.035,0,0,0,7.053-7.023,7.039,7.039,0,0,0-7.039-7.057A7.047,7.047,0,0,0-113.654,223.346Z" fill="#81db86"/>
    <path id="Path_2122" data-name="Path 2122" d="M-16.933,333.767c.077-.092.118-.149.167-.2q2.125-2.128,4.252-4.254a.75.75,0,0,1,1.084-.058.736.736,0,0,1,.073.993,1.534,1.534,0,0,1-.129.141q-2.421,2.422-4.842,4.845a.743.743,0,0,1-.8.251.927.927,0,0,1-.35-.212q-1.12-1.1-2.227-2.223a.745.745,0,0,1-.034-1.073.745.745,0,0,1,1.086.019q.8.789,1.585,1.586A1.5,1.5,0,0,1-16.933,333.767Z" transform="translate(-90.784 -108.942)" fill="#81db86"/>
  </g>
</svg>
