<svg xmlns="http://www.w3.org/2000/svg" width="37.956" height="37.889" viewBox="0 0 37.956 37.889">
  <g id="Group_4555" data-name="Group 4555" transform="translate(-506.319 29.745)">
    <path id="Path_2127" data-name="Path 2127" d="M534.024,8.144h-2.338a1.307,1.307,0,0,0-.321-.137,10.945,10.945,0,0,1-7.417-4.278,1.568,1.568,0,0,0-1.427-.654q-6.068.038-12.137.008a3.813,3.813,0,0,1-4.048-3.891q-.037-11.328,0-22.656a3.711,3.711,0,0,1,3.16-3.7c.605-.11,1.23-.113,1.943-.173v-2.405h2.5v2.411h17.772v-2.4h2.462v2.425c.248.017.42.035.593.039,3.077.074,4.457,1.49,4.458,4.576s.013,6.173-.012,9.26c-.006.688-.063.584.579,1.195A24.658,24.658,0,0,1,542.4-9.421a11.96,11.96,0,0,1,1.877,4.976V-2.4c-.054.2-.124.687-.16.888a11.109,11.109,0,0,1-7.094,8.838A24.159,24.159,0,0,1,534.024,8.144ZM516.171-9.764c1.48-.161,2.748-.333,4.023-.422a.931.931,0,0,0,.921-.656c.515-1.217,1.078-2.415,1.663-3.711l1.687,3.7a11.4,11.4,0,0,1,12.175-3.118V-17.13H508.926a1.622,1.622,0,0,0-.07.307q-.006,8,0,16c0,.936.5,1.391,1.489,1.4,1.888.016,3.775.005,5.663.005h6.078l-.674-4.129-2.707,1.509c.3-1.433.6-2.681.8-3.944a1.388,1.388,0,0,0-.333-1.05C518.259-7.937,517.277-8.77,516.171-9.764Zm25.586,6.513a8.906,8.906,0,0,0-8.859-8.871,8.957,8.957,0,0,0-8.892,8.857,8.888,8.888,0,0,0,8.922,8.891A8.857,8.857,0,0,0,541.757-3.252ZM534.146-22.3h-2.508v-2.38h-17.78v2.4h-2.474v-2.47c-.491,0-.877-.019-1.259,0a1.17,1.17,0,0,0-1.238,1.077c-.075,1.306-.022,2.619-.022,3.943h27.848c0-1.024,0-1.978,0-2.932,0-1.882-.611-2.369-2.567-1.969Z" fill="#d8a709"/>
    <path id="Path_2128" data-name="Path 2128" d="M633.41,94.621l1.8,1.786-6.2,6.188L624.466,98l1.6-1.544,2.663,2.846Z" transform="translate(-96.898 -101.999)" fill="#d8a709"/>
  </g>
</svg>
