<svg xmlns="http://www.w3.org/2000/svg" width="19.423" height="18.795" viewBox="0 0 19.423 18.795">
  <path id="Path_1733" data-name="Path 1733" d="M632.48,274.169a10.991,10.991,0,0,1,1.064,2.627c.227.741.446,1.486.694,2.221a3.367,3.367,0,0,0,.382.751,2.041,2.041,0,0,0,3.571-.052,4.6,4.6,0,0,0,.606-2.515c-.007-.666-.069-1.331-.109-2.047H639q3.061,0,6.122,0a2.362,2.362,0,0,0,1.691-4.15.4.4,0,0,1-.085-.321,2.333,2.333,0,0,0-.869-2.6.312.312,0,0,1-.1-.263,2.293,2.293,0,0,0-.91-2.581c-.057-.041-.065-.187-.047-.275a2.554,2.554,0,0,0-.105-1.558,2.217,2.217,0,0,0-2.12-1.378q-4.131-.054-8.263,0a6,6,0,0,0-1.413.383c-.237-.388-.7-.42-1.2-.409-.78.017-1.561,0-2.342,0s-1.142.354-1.143,1.115q0,4.532,0,9.065c0,.313,0,.626,0,.939a.98.98,0,0,0,1.111,1.08q1.321.006,2.643,0C632.136,274.2,632.3,274.182,632.48,274.169Zm4.982.036c.022.144.028.229.049.312a9.539,9.539,0,0,1,.318,2.978,3.263,3.263,0,0,1-.62,1.945,1.021,1.021,0,0,1-1.591.039,1.8,1.8,0,0,1-.364-.537,16.848,16.848,0,0,1-.557-1.619,13.834,13.834,0,0,0-1.538-3.938.779.779,0,0,1-.069-.4c0-2.935,0-5.87-.009-8.805a1,1,0,0,1,.6-1,2.672,2.672,0,0,1,1.051-.235c2.453-.02,4.906-.011,7.359-.009a4.88,4.88,0,0,1,.567.034,1.269,1.269,0,0,1,1.217,1.537,7.789,7.789,0,0,1-.451,1.233c1.542.116,1.912,1.5.887,2.824.706.067,1.311.275,1.492,1.022a2,2,0,0,1-.55,1.788c.9.151,1.372.6,1.42,1.319a1.39,1.39,0,0,1-1.546,1.508c-2.409.007-4.817,0-7.226,0Zm-8.254-11.249h2.874v10.3h-2.874Z" transform="translate(-628.215 -261.998)" fill="#f16b6b"/>
</svg>
