<svg xmlns="http://www.w3.org/2000/svg" width="20" height="19.999" viewBox="0 0 20 19.999">
  <path id="Path_1734" data-name="Path 1734" d="M632.607,269.047a11.919,11.919,0,0,0,1.1-2.795c.234-.789.459-1.581.714-2.363a3.632,3.632,0,0,1,.394-.8,2.07,2.07,0,0,1,3.677.055,5.025,5.025,0,0,1,.624,2.676c-.008.708-.071,1.416-.113,2.178h.32q3.152,0,6.3,0a2.427,2.427,0,0,1,2.408,1.551,2.587,2.587,0,0,1-.666,2.865.43.43,0,0,0-.088.342,2.528,2.528,0,0,1-.895,2.769.338.338,0,0,0-.1.279,2.483,2.483,0,0,1-.937,2.746c-.058.043-.067.2-.049.292a2.8,2.8,0,0,1-.109,1.658A2.282,2.282,0,0,1,643,281.969q-4.253.057-8.508,0a6.021,6.021,0,0,1-1.455-.407c-.244.413-.721.447-1.234.436-.8-.018-1.607,0-2.411-.005a1.033,1.033,0,0,1-1.177-1.187q0-4.823,0-9.646c0-.333,0-.666,0-1a1.025,1.025,0,0,1,1.144-1.149q1.36-.007,2.721,0C632.253,269.011,632.423,269.034,632.607,269.047Zm5.13-.038c.023-.153.029-.244.051-.331a10.468,10.468,0,0,0,.327-3.169,3.552,3.552,0,0,0-.639-2.069,1.03,1.03,0,0,0-1.639-.042,1.927,1.927,0,0,0-.374.571c-.213.566-.418,1.139-.574,1.723a15.017,15.017,0,0,1-1.584,4.19.854.854,0,0,0-.071.428c0,3.123,0,6.246-.01,9.369a1.072,1.072,0,0,0,.614,1.061,2.676,2.676,0,0,0,1.082.25c2.526.021,5.052.012,7.578.009a4.872,4.872,0,0,0,.584-.037,1.341,1.341,0,0,0,1.253-1.635,8.458,8.458,0,0,0-.465-1.312c1.588-.124,1.969-1.6.914-3,.727-.072,1.35-.292,1.536-1.088a2.175,2.175,0,0,0-.567-1.9c.925-.161,1.413-.636,1.462-1.4a1.455,1.455,0,0,0-1.592-1.6c-2.48-.007-4.96,0-7.44,0Zm-8.5,11.97H632.2V270.02h-2.959Z" transform="translate(-628.215 -261.998)" fill="#6de595"/>
</svg>
