<svg width="18" height="21" viewBox="0 0 18 21" fill="none" xmlns="http://www.w3.org/2000/svg">
<path d="M4.33766 20.5008L4.32454 20.4972C4.28742 20.4869 4.24944 20.4767 4.21101 20.4664C4.12055 20.4422 4.02755 20.4173 3.93724 20.3887L3.93567 20.3882C3.44705 20.2245 3.02013 19.9123 2.71271 19.4941C2.4055 19.0762 2.23242 18.5727 2.21676 18.0518C2.21197 17.953 2.21207 17.8536 2.21217 17.7569C2.21219 17.7431 2.2122 17.7293 2.2122 17.7157C2.2122 14.0068 2.2137 10.298 2.21669 6.5892L2.21669 6.58209L2.21771 6.57506C2.2243 6.52915 2.21336 6.48256 2.18739 6.44487C2.16144 6.40722 2.12258 6.3814 2.07902 6.37219L2.07011 6.37031L2.06169 6.36685C1.68529 6.21218 1.3696 5.93654 1.16282 5.58252C0.956077 5.22858 0.869524 4.81571 0.916275 4.40723C0.963329 3.98383 1.15302 3.58966 1.45365 3.29151C1.75434 2.99329 2.14755 2.80946 2.5668 2.77149L2.57096 2.77111L2.57097 2.7712C3.1258 2.74423 3.68377 2.74387 4.23884 2.7435C4.47302 2.74335 4.70669 2.7432 4.93939 2.74105L4.94031 2.74104V2.74105H5.01488C5.01674 2.69603 5.0185 2.65104 5.02026 2.60612C5.02724 2.42781 5.03418 2.25036 5.04681 2.07476L5.04689 2.07371C5.08656 1.5931 5.30309 1.14497 5.65382 0.818673C6.00446 0.492458 6.46351 0.311972 6.93968 0.31352M4.33766 20.5008L6.93987 0.413521M4.33766 20.5008L4.35127 20.5008L4.33766 20.5008ZM6.93968 0.31352C6.93986 0.31352 6.94004 0.313521 6.94023 0.313522L6.93987 0.413521M6.93968 0.31352C6.9395 0.313521 6.93932 0.313522 6.93915 0.313524L6.93987 0.413521M6.93968 0.31352C8.31729 0.303512 9.69693 0.294406 11.0759 0.31352M6.93987 0.413521C8.31804 0.403509 9.6971 0.394407 11.0753 0.413521M11.0759 0.31352C11.0756 0.31352 11.0753 0.313521 11.075 0.313521L11.0753 0.413521M11.0759 0.31352C11.3342 0.313067 11.5898 0.365874 11.8273 0.468698C12.0651 0.571629 12.2796 0.72251 12.458 0.912089C12.6363 1.10167 12.7748 1.32599 12.8649 1.57138C12.9549 1.81602 12.995 2.07656 12.9829 2.33729M11.0759 0.31352C11.0761 0.313523 11.0764 0.313527 11.0767 0.313531L11.0753 0.413521M11.0753 0.413521L12.9829 2.33729M12.9829 2.33729C12.9829 2.3381 12.9829 2.33891 12.9828 2.33972L12.8829 2.33497H12.9829V2.33588V2.33679V2.33729ZM15.9532 6.35992L15.9449 6.36181C15.8981 6.37253 15.8567 6.40082 15.829 6.44154C15.8013 6.48229 15.7896 6.53237 15.7966 6.58175L15.7985 6.59549L15.7975 6.59549C15.8035 10.3169 15.8053 14.038 15.8029 17.7589C15.8209 18.1436 15.7581 18.5278 15.6189 18.8861C15.4793 19.2452 15.266 19.5702 14.993 19.8394L14.9924 19.8401C14.6618 20.1598 14.2457 20.374 13.7958 20.4555M15.9532 6.35992L13.7958 20.4555M15.9532 6.35992L15.961 6.35667L15.9532 6.35992ZM13.7958 20.4555C13.7972 20.4552 13.7986 20.4548 13.8 20.4544L13.7733 20.358L13.791 20.4564C13.7926 20.4561 13.7942 20.4558 13.7958 20.4555ZM3.23576 17.7848V6.6175V6.41179L3.23577 6.51179L3.33576 6.51178M3.23576 17.7848L13.3483 19.4624C10.4479 19.469 7.5487 19.469 4.65069 19.4624L4.65147 19.3624C4.65132 19.3624 4.65118 19.3624 4.65103 19.3624C4.3353 19.3598 4.03102 19.2409 3.79482 19.0274C3.55846 18.8137 3.40638 18.5199 3.36731 18.2005L3.36736 18.2005L3.36686 18.1973C3.34569 18.061 3.33529 17.9232 3.33576 17.7852V17.7848V17.763V17.7412V17.7194V17.6976V17.6758V17.654V17.6322V17.6103V17.5885V17.5667V17.5449V17.5231V17.5013V17.4795V17.4576V17.4358V17.414V17.3922V17.3704V17.3486V17.3268V17.305V17.2831V17.2613V17.2395V17.2177V17.1959V17.1741V17.1523V17.1305V17.1086V17.0868V17.065V17.0432V17.0214V16.9996V16.9778V16.956V16.9341V16.9123V16.8905V16.8687V16.8469V16.8251V16.8033V16.7815V16.7596V16.7378V16.716V16.6942V16.6724V16.6506V16.6288V16.607V16.5851V16.5633V16.5415V16.5197V16.4979V16.4761V16.4543V16.4324V16.4106V16.3888V16.367V16.3452V16.3234V16.3016V16.2798V16.2579V16.2361V16.2143V16.1925V16.1707V16.1489V16.1271V16.1053V16.0834V16.0616V16.0398V16.018V15.9962V15.9744V15.9526V15.9308V15.9089V15.8871V15.8653V15.8435V15.8217V15.7999V15.7781V15.7563V15.7345V15.7126V15.6908V15.669V15.6472V15.6254V15.6036V15.5818V15.56V15.5381V15.5163V15.4945V15.4727V15.4509V15.4291V15.4073V15.3855V15.3636V15.3418V15.32V15.2982V15.2764V15.2546V15.2328V15.211V15.1891V15.1673V15.1455V15.1237V15.1019V15.0801V15.0583V15.0365V15.0146V14.9928V14.971V14.9492V14.9274V14.9056V14.8838V14.862V14.8402V14.8183V14.7965V14.7747V14.7529V14.7311V14.7093V14.6875V14.6657V14.6438V14.622V14.6002V14.5784V14.5566V14.5348V14.513V14.4912V14.4693V14.4475V14.4257V14.4039V14.3821V14.3603V14.3385V14.3167V14.2949V14.273V14.2512V14.2294V14.2076V14.1858V14.164V14.1422V14.1204V14.0985V14.0767V14.0549V14.0331V14.0113V13.9895V13.9677V13.9459V13.9241V13.9022V13.8804V13.8586V13.8368V13.815V13.7932V13.7714V13.7496V13.7277V13.7059V13.6841V13.6623V13.6405V13.6187V13.5969V13.5751V13.5533V13.5314V13.5096V13.4878V13.466V13.4442V13.4224V13.4006V13.3788V13.3569V13.3351V13.3133V13.2915V13.2697V13.2479V13.2261V13.2043V13.1825V13.1606V13.1388V13.117V13.0952V13.0734V13.0516V13.0298V13.008V12.9862V12.9643V12.9425V12.9207V12.8989V12.8771V12.8553V12.8335V12.8117V12.7898V12.768V12.7462V12.7244V12.7026V12.6808V12.659V12.6372V12.6154V12.5935V12.5717V12.5499V12.5281V12.5063V12.4845V12.4627V12.4409V12.4191V12.3972V12.3754V12.3536V12.3318V12.31V12.2882V12.2664V12.2446V12.2228V12.2009V12.1791V12.1573V12.1355V12.1137V12.0919V12.0701V12.0483V12.0265V12.0046V11.9828V11.961V11.9392V11.9174V11.8956V11.8738V11.852V11.8302V11.8083V11.7865V11.7647V11.7429V11.7211V11.6993V11.6775V11.6557V11.6339V11.612V11.5902V11.5684V11.5466V11.5248V11.503V11.4812V11.4594V11.4376V11.4157V11.3939V11.3721V11.3503V11.3285V11.3067V11.2849V11.2631V11.2413V11.2194V11.1976V11.1758V11.154V11.1322V11.1104V11.0886V11.0668V11.045V11.0231V11.0013V10.9795V10.9577V10.9359V10.9141V10.8923V10.8705V10.8487V10.8268V10.805V10.7832V10.7614V10.7396V10.7178V10.696V10.6742V10.6524V10.6306V10.6087V10.5869V10.5651V10.5433V10.5215V10.4997V10.4779V10.4561V10.4343V10.4124V10.3906V10.3688V10.347V10.3252V10.3034V10.2816V10.2598V10.238V10.2162V10.1943V10.1725V10.1507V10.1289V10.1071V10.0853V10.0635V10.0417V10.0199V9.99805V9.97624V9.95442V9.93261V9.9108V9.88899V9.86718V9.84537V9.82356V9.80175V9.77994V9.75813V9.73632V9.71451V9.6927V9.67089V9.64908V9.62727V9.60546V9.58365V9.56184V9.54003V9.51822V9.49641V9.4746V9.45278V9.43097V9.40916V9.38735V9.36554V9.34373V9.32192V9.30011V9.2783V9.25649V9.23468V9.21287V9.19106V9.16925V9.14744V9.12563V9.10382V9.08201V9.0602V9.03839V9.01658V8.99477V8.97296V8.95115V8.92934V8.90753V8.88572V8.86391V8.8421V8.82029V8.79848V8.77667V8.75486V8.73305V8.71124V8.68943V8.66762V8.64581V8.624V8.60219V8.58038V8.55857V8.53676V8.51495V8.49314V8.47133V8.44952V8.42771V8.4059V8.38409V8.36228V8.34047V8.31866V8.29685V8.27504V8.25323V8.23142V8.20961V8.1878V8.16599V8.14418V8.12237V8.10056V8.07875V8.05694V8.03513V8.01332V7.99151V7.9697V7.94789V7.92608V7.90427V7.88246V7.86065V7.83884V7.81703V7.79522V7.77341V7.7516V7.72979V7.70798V7.68617V7.66436V7.64255V7.62074V7.59893V7.57712V7.55531V7.5335V7.51169V7.48988V7.46807V7.44626V7.42445V7.40264V7.38083V7.35902V7.33721V7.3154V7.2936V7.27179V7.24998V7.22817V7.20636V7.18455V7.16274V7.14093V7.11912V7.09731V7.0755V7.05369V7.03188V7.01007V6.98826V6.96645V6.94464V6.92283V6.90102V6.87921V6.8574V6.83559V6.81378V6.79198V6.77017V6.74836V6.72655V6.70474V6.68293V6.66112V6.63931V6.6175V6.51178M3.23576 17.7848C3.23527 17.9281 3.24607 18.0711 3.26805 18.2126L3.23576 17.7848ZM3.33576 6.51178L14.669 6.50999L3.33576 6.51178ZM11.2759 1.47666L11.2715 1.47565L11.2716 1.47555C11.1882 1.4522 11.102 1.44088 11.0155 1.44193L11.0143 1.44194L11.2759 1.47666ZM11.2759 1.47666C11.4254 1.51134 11.5603 1.59342 11.6612 1.71133C11.7618 1.82901 11.8232 1.97626 11.8363 2.13192M11.2759 1.47666L11.8363 2.13192M11.8363 2.13192C11.8482 2.32928 11.851 2.52709 11.8445 2.72468L11.8363 2.13192ZM7.00242 1.44193H6.99457H6.9863L6.99457 1.34193L7.00242 1.44193ZM7.00242 1.44193H7.01027M7.00242 1.44193H7.01027M7.01027 1.44193H7.01812M7.01027 1.44193H7.01812M7.01812 1.44193H7.02597M7.01812 1.44193H7.02597M7.02597 1.44193H7.03382M7.02597 1.44193H7.03382M7.03382 1.44193H7.04167M7.03382 1.44193H7.04167M7.04167 1.44193H7.04952M7.04167 1.44193H7.04952M7.04952 1.44193H7.05737M7.04952 1.44193H7.05737M7.05737 1.44193H7.06522M7.05737 1.44193H7.06522M7.06522 1.44193H7.07307M7.06522 1.44193H7.07307M7.07307 1.44193H7.08091M7.07307 1.44193H7.08091M7.08091 1.44193H7.08876M7.08091 1.44193H7.08876M7.08876 1.44193H7.09661M7.08876 1.44193H7.09661M7.09661 1.44193H7.10446M7.09661 1.44193H7.10446M7.10446 1.44193H7.11231M7.10446 1.44193H7.11231M7.11231 1.44193H7.12016M7.11231 1.44193H7.12016M7.12016 1.44193H7.12801M7.12016 1.44193H7.12801M7.12801 1.44193H7.13586M7.12801 1.44193H7.13586M7.13586 1.44193H7.14371M7.13586 1.44193H7.14371M7.14371 1.44193H7.15156M7.14371 1.44193H7.15156M7.15156 1.44193H7.15941M7.15156 1.44193H7.15941M7.15941 1.44193H7.16726M7.15941 1.44193H7.16726M7.16726 1.44193H7.17511M7.16726 1.44193H7.17511M7.17511 1.44193H7.18296M7.17511 1.44193H7.18296M7.18296 1.44193H7.19081M7.18296 1.44193H7.19081M7.19081 1.44193H7.19866M7.19081 1.44193H7.19866M7.19866 1.44193H7.20651M7.19866 1.44193H7.20651M7.20651 1.44193H7.21435M7.20651 1.44193H7.21435M7.21435 1.44193H7.2222M7.21435 1.44193H7.2222M7.2222 1.44193H7.23005M7.2222 1.44193H7.23005M7.23005 1.44193H7.2379M7.23005 1.44193H7.2379M7.2379 1.44193H7.24575M7.2379 1.44193H7.24575M7.24575 1.44193H7.2536M7.24575 1.44193H7.2536M7.2536 1.44193H7.26145M7.2536 1.44193H7.26145M7.26145 1.44193H7.2693M7.26145 1.44193H7.2693M7.2693 1.44193H7.27715M7.2693 1.44193H7.27715M7.27715 1.44193H7.285M7.27715 1.44193H7.285M7.285 1.44193H7.29285M7.285 1.44193H7.29285M7.29285 1.44193H7.3007M7.29285 1.44193H7.3007M7.3007 1.44193H7.30855M7.3007 1.44193H7.30855M7.30855 1.44193H7.3164M7.30855 1.44193H7.3164M7.3164 1.44193H7.32425M7.3164 1.44193H7.32425M7.32425 1.44193H7.3321M7.32425 1.44193H7.3321M7.3321 1.44193H7.33995M7.3321 1.44193H7.33995M7.33995 1.44193H7.3478M7.33995 1.44193H7.3478M7.3478 1.44193H7.35565M7.3478 1.44193H7.35565M7.35565 1.44193H7.3635M7.35565 1.44193H7.3635M7.3635 1.44193H7.37135M7.3635 1.44193H7.37135M7.37135 1.44193H7.3792M7.37135 1.44193H7.3792M7.3792 1.44193H7.38704M7.3792 1.44193H7.38704M7.38704 1.44193H7.39489M7.38704 1.44193H7.39489M7.39489 1.44193H7.40274M7.39489 1.44193H7.40274M7.40274 1.44193H7.41059M7.40274 1.44193H7.41059M7.41059 1.44193H7.41844M7.41059 1.44193H7.41844M7.41844 1.44193H7.42629M7.41844 1.44193H7.42629M7.42629 1.44193H7.43414M7.42629 1.44193H7.43414M7.43414 1.44193H7.44199M7.43414 1.44193H7.44199M7.44199 1.44193H7.44984M7.44199 1.44193H7.44984M7.44984 1.44193H7.45769M7.44984 1.44193H7.45769M7.45769 1.44193H7.46554M7.45769 1.44193H7.46554M7.46554 1.44193H7.47339M7.46554 1.44193H7.47339M7.47339 1.44193H7.48124M7.47339 1.44193H7.48124M7.48124 1.44193H7.48909M7.48124 1.44193H7.48909M7.48909 1.44193H7.49694M7.48909 1.44193H7.49694M7.49694 1.44193H7.50479M7.49694 1.44193H7.50479M7.50479 1.44193H7.51264M7.50479 1.44193H7.51264M7.51264 1.44193H7.52049M7.51264 1.44193H7.52049M7.52049 1.44193H7.52834M7.52049 1.44193H7.52834M7.52834 1.44193H7.53619M7.52834 1.44193H7.53619M7.53619 1.44193H7.54404M7.53619 1.44193H7.54404M7.54404 1.44193H7.55189H7.54404ZM12.8829 2.72739V2.82739H12.9829V2.82634V2.82528V2.82423V2.82317V2.82212V2.82107V2.82001V2.81896V2.81791V2.81686V2.81581V2.81476V2.81371V2.81266V2.81161V2.81057V2.80952V2.80847V2.80743V2.80638V2.80533V2.80429V2.80325V2.8022V2.80116V2.80012V2.79908V2.79803V2.79699V2.79595V2.79491V2.79387V2.79283V2.7918V2.79076V2.78972V2.78868V2.78765V2.78661V2.78558V2.78454V2.78351V2.78247V2.78144V2.78041V2.77937V2.77834V2.77731V2.77628V2.77525V2.77422V2.77319V2.77216V2.77113V2.7701V2.76908V2.76805V2.76702V2.766V2.76497V2.76395V2.76292V2.7619V2.76087V2.75985V2.75883V2.75781V2.75678V2.75576V2.75474V2.75372V2.7527V2.75168V2.75066V2.74965V2.74863V2.74761V2.74659V2.74558V2.74456V2.74354V2.74253V2.74151V2.7405V2.73949V2.73847V2.73746V2.73645V2.73544V2.73442V2.73341V2.7324V2.73139V2.73122C12.9523 2.72925 12.9186 2.72739 12.8829 2.72739ZM15.153 2.73647C15.1519 2.73652 15.1509 2.73658 15.1499 2.73663L15.1551 2.83649L15.156 2.7365C15.155 2.73649 15.154 2.73648 15.153 2.73647ZM9.00667 5.36427H9.00661C6.9874 5.36548 4.96848 5.36427 2.94981 5.36245V5.36237L2.94605 5.36251C2.8206 5.36712 2.69506 5.35699 2.5719 5.3323C2.41412 5.2892 2.27501 5.19306 2.17746 5.05914C2.07931 4.92441 2.02917 4.75954 2.03554 4.59171C2.04268 4.42105 2.10802 4.25845 2.22009 4.13169C2.3321 4.005 2.48377 3.92201 2.64898 3.89656C2.73884 3.88335 2.82957 3.87703 2.92037 3.87765L2.92037 3.87765H2.92105H15.0932C15.3637 3.87765 15.5711 3.94551 15.7138 4.06098C15.8549 4.1752 15.9428 4.34396 15.961 4.56766L15.9611 4.56871C15.9787 4.75907 15.921 4.9485 15.8011 5.09534C15.6813 5.24212 15.5093 5.33424 15.3231 5.35197L15.3228 5.352C15.2307 5.36104 15.1382 5.36514 15.0457 5.36427H15.0448H9.00667ZM9.00667 5.46427H15.0448C15.1409 5.46516 15.2369 5.46091 15.3326 5.45152C15.5457 5.43123 15.7421 5.32585 15.8786 5.15857C16.0152 4.99129 16.0807 4.77581 16.0607 4.55952L9.00667 5.46427ZM16.8856 3.98882L16.9794 3.9542C16.9794 3.95403 16.9793 3.95385 16.9793 3.95368C16.9792 3.95348 16.9791 3.95329 16.979 3.95309L16.8856 3.98882ZM14.4754 18.8607C14.6872 18.5383 14.7915 18.1555 14.7731 17.7685L14.4754 18.8607Z" fill="#5A5A5A" stroke="#5A5A5A" stroke-width="0.2"/>
<path d="M6.73789 17.2776L6.73782 17.2776C6.68663 17.3716 6.60655 17.4464 6.50939 17.4904C6.41429 17.5335 6.30806 17.5448 6.20622 17.5225C6.10051 17.5112 6.00087 17.4672 5.92075 17.3968L5.98678 17.3217L5.92075 17.3968C5.83934 17.3252 5.78215 17.2299 5.75681 17.1241M6.73789 17.2776L6.81202 7.96141C6.78653 7.85074 6.72578 7.75141 6.63886 7.6789C6.55354 7.60773 6.44769 7.56634 6.33708 7.56106C6.22732 7.54451 6.11523 7.56446 6.01766 7.6179C5.91826 7.67235 5.83961 7.75839 5.79367 7.86245L5.79366 7.86245L5.79325 7.86341C5.74457 7.97686 5.72042 8.09952 5.72238 8.22314V8.23922V8.25612V8.27301V8.28991V8.3068V8.3237V8.34059V8.35749V8.37438V8.39128V8.40818V8.42507V8.44197V8.45886V8.47576V8.49265V8.50955V8.52644V8.54334V8.56023V8.57713V8.59402V8.61092V8.62781V8.64471V8.6616V8.6785V8.69539V8.71229V8.72918V8.74608V8.76297V8.77987V8.79676V8.81366V8.83055V8.84745V8.86434V8.88124V8.89813V8.91503V8.93192V8.94882V8.96571V8.9826V8.9995V9.01639V9.03329V9.05018V9.06708V9.08397V9.10087V9.11776V9.13465V9.15155V9.16844V9.18534V9.20223V9.21912V9.23602V9.25291V9.26981V9.2867V9.30359V9.32049V9.33738V9.35428V9.37117V9.38806V9.40496V9.42185V9.43875V9.45564V9.47253V9.48943V9.50632V9.52321V9.54011V9.557V9.57389V9.59079V9.60768V9.62457V9.64147V9.65836V9.67526V9.69215V9.70904V9.72593V9.74283V9.75972V9.77661V9.79351V9.8104V9.82729V9.84419V9.86108V9.87797V9.89487V9.91176V9.92865V9.94554V9.96244V9.97933V9.99622V10.0131V10.03V10.0469V10.0638V10.0807V10.0976V10.1145V10.1314V10.1483V10.1652V10.182V10.1989V10.2158V10.2327V10.2496V10.2665V10.2834V10.3003V10.3172V10.3341V10.351V10.3679V10.3848V10.4016V10.4185V10.4354V10.4523V10.4692V10.4861V10.503V10.5199V10.5368V10.5537V10.5706V10.5875V10.6043V10.6212V10.6381V10.655V10.6719V10.6888V10.7057V10.7226V10.7395V10.7564V10.7733V10.7902V10.807V10.8239V10.8408V10.8577V10.8746V10.8915V10.9084V10.9253V10.9422V10.9591V10.976V10.9929V11.0097V11.0266V11.0435V11.0604V11.0773V11.0942V11.1111V11.128V11.1449V11.1618V11.1787V11.1955V11.2124V11.2293V11.2462V11.2631V11.28V11.2969V11.3138V11.3307V11.3476V11.3645V11.3813V11.3982V11.4151V11.432V11.4489V11.4658V11.4827V11.4996V11.5165V11.5334V11.5502V11.5671V11.584V11.6009V11.6178V11.6347V11.6516V11.6685V11.6854V11.7023V11.7191V11.736V11.7529V11.7698V11.7867V11.8036V11.8205V11.8374V11.8543V11.8712V11.888V11.9049V11.9218V11.9387V11.9556V11.9725V11.9894V12.0063V12.0232V12.0401V12.0569V12.0738V12.0907V12.1076V12.1245V12.1414V12.1583V12.1752V12.1921V12.2089V12.2258V12.2427V12.2596V12.2765V12.2934V12.3103V12.3272V12.3441V12.3609V12.3778V12.3947V12.4116V12.4285V12.4454V12.4623V12.4792V12.4961V12.5129V12.5298V12.5467V12.5636V12.5805V12.5974V12.6143V12.6312V12.6481V12.6649V12.6818V12.6987V12.7156V12.7325V12.7494V12.7663V12.7832V12.8V12.8169V12.8338V12.8507V12.8676V12.8845V12.9014V12.9183V12.9352V12.952V12.9689V12.9858V13.0027V13.0196V13.0365V13.0534V13.0703V13.0871V13.104V13.1209V13.1378V13.1547V13.1716V13.1885V13.2054V13.2222V13.2391V13.256V13.2729V13.2898V13.3067V13.3236V13.3405V13.3573V13.3742V13.3911V13.408V13.4249V13.4418V13.4587V13.4756V13.4924V13.5093V13.5262V13.5431V13.56V13.5769V13.5938V13.6107V13.6275V13.6444V13.6613V13.6782V13.6951V13.712V13.7289V13.7457V13.7626V13.7795V13.7964V13.8133V13.8302V13.8471V13.864V13.8808V13.8977V13.9146V13.9315V13.9484V13.9653V13.9822V13.999V14.0159V14.0328V14.0497V14.0666V14.0835V14.1004V14.1172V14.1341V14.151V14.1679V14.1848V14.2017V14.2186V14.2354V14.2523V14.2692V14.2861V14.303V14.3199V14.3368V14.3536V14.3705V14.3874V14.4043V14.4212V14.4381V14.455V14.4718V14.4887V14.5056V14.5225V14.5394V14.5563V14.5732V14.59V14.6069V14.6238V14.6407V14.6576V14.6745V14.6914V14.7082V14.7251V14.742V14.7589V14.7758V14.7927V14.8095V14.8264V14.8433V14.8602V14.8771V14.894V14.9109V14.9277V14.9446V14.9615V14.9784V14.9953V15.0122V15.0291V15.0459V15.0628V15.0797V15.0966V15.1135V15.1304V15.1472V15.1641V15.181V15.1979V15.2148V15.2317V15.2485V15.2654V15.2823V15.2992V15.3161V15.333V15.3499V15.3667V15.3836V15.4005V15.4174V15.4343V15.4512V15.468V15.4849V15.5018V15.5187V15.5356V15.5525V15.5693V15.5862V15.6031V15.62V15.6369V15.6538V15.6706V15.6875V15.7044V15.7213V15.7382V15.7551V15.7719V15.7888V15.8057V15.8226V15.8395V15.8564V15.8732V15.8901V15.907V15.9239V15.9408V15.9577V15.9745V15.9914V16.0083V16.0252V16.0421V16.059V16.0758V16.0927V16.1096V16.1265V16.1434V16.1603V16.1771V16.194V16.2109V16.2278V16.2447V16.2615V16.2784V16.2953V16.3122V16.3291V16.346V16.3628V16.3797V16.3966V16.4135V16.4304V16.4473V16.4641V16.481V16.4979V16.5148V16.5317V16.5485V16.5654V16.5823V16.5992V16.6161V16.633V16.6498V16.6667V16.6836V16.7005V16.7174V16.7342V16.7511V16.768V16.7849V16.8018V16.8187V16.8355V16.8524L5.72237 16.8693L5.72238 16.8701C5.72304 16.9559 5.73462 17.0413 5.75681 17.1241M6.73789 17.2776L6.73971 17.2739M6.73789 17.2776L6.73971 17.2739M5.75681 17.1241C5.75669 17.1236 5.75657 17.1231 5.75645 17.1226L5.85376 17.0996L5.75721 17.1256C5.75708 17.1251 5.75695 17.1246 5.75681 17.1241ZM6.73971 17.2739C6.80578 17.1397 6.83999 16.9918 6.83967 16.8419M6.73971 17.2739L6.83967 16.8419M6.83967 16.8419V16.8336V16.8252V16.8167V16.8083V16.7999V16.7915V16.783V16.7746V16.7662V16.7578V16.7494V16.7409V16.7325V16.7241V16.7157V16.7073V16.6988V16.6904V16.682V16.6736V16.6651V16.6567V16.6483V16.6399V16.6315V16.623V16.6146V16.6062V16.5978V16.5894V16.5809V16.5725V16.5641V16.5557V16.5473V16.5388V16.5304V16.522V16.5136V16.5051V16.4967V16.4883V16.4799V16.4715V16.463V16.4546V16.4462V16.4378V16.4294V16.4209V16.4125V16.4041V16.3957V16.3872V16.3788V16.3704V16.362V16.3536V16.3451V16.3367V16.3283V16.3199V16.3115V16.303V16.2946V16.2862V16.2778V16.2694V16.2609V16.2525V16.2441V16.2357V16.2272V16.2188V16.2104V16.202V16.1936V16.1851V16.1767V16.1683V16.1599V16.1515V16.143V16.1346V16.1262V16.1178V16.1094V16.1009V16.0925V16.0841V16.0757V16.0672V16.0588V16.0504V16.042V16.0336V16.0251V16.0167V16.0083V15.9999V15.9915V15.983V15.9746V15.9662V15.9578V15.9493V15.9409V15.9325V15.9241V15.9157V15.9072V15.8988V15.8904V15.882V15.8736V15.8651V15.8567V15.8483V15.8399V15.8315V15.823V15.8146V15.8062V15.7978V15.7893V15.7809V15.7725V15.7641V15.7557V15.7472V15.7388V15.7304V15.722V15.7136V15.7051V15.6967V15.6883V15.6799V15.6714V15.663V15.6546V15.6462V15.6378V15.6293V15.6209V15.6125V15.6041V15.5957V15.5872V15.5788V15.5704V15.562V15.5536V15.5451V15.5367V15.5283V15.5199V15.5114V15.503V15.4946V15.4862V15.4778V15.4693V15.4609V15.4525V15.4441V15.4357V15.4272V15.4188V15.4104V15.402V15.3935V15.3851V15.3767V15.3683V15.3599V15.3514V15.343V15.3346V15.3262V15.3178V15.3093V15.3009V15.2925V15.2841V15.2757V15.2672V15.2588V15.2504V15.242V15.2335V15.2251V15.2167V15.2083V15.1999V15.1914V15.183V15.1746V15.1662V15.1578V15.1493V15.1409V15.1325V15.1241V15.1156V15.1072V15.0988V15.0904V15.082V15.0735V15.0651V15.0567V15.0483V15.0399V15.0314V15.023V15.0146V15.0062V14.9978V14.9893V14.9809V14.9725V14.9641V14.9556V14.9472V14.9388V14.9304V14.922V14.9135V14.9051V14.8967V14.8883V14.8799V14.8714V14.863V14.8546V14.8462V14.8377V14.8293V14.8209V14.8125V14.8041V14.7956V14.7872V14.7788V14.7704V14.762V14.7535V14.7451V14.7367V14.7283V14.7199V14.7114V14.703V14.6946V14.6862V14.6777V14.6693V14.6609V14.6525V14.6441V14.6356V14.6272V14.6188V14.6104V14.602V14.5935V14.5851V14.5767V14.5683V14.5598V14.5514V14.543V14.5346V14.5262V14.5177V14.5093V14.5009V14.4925V14.4841V14.4756V14.4672V14.4588V14.4504V14.442V14.4335V14.4251V14.4167V14.4083V14.3998V14.3914V14.383V14.3746V14.3662V14.3577V14.3493V14.3409V14.3325V14.3241V14.3156V14.3072V14.2988V14.2904V14.282V14.2735V14.2651V14.2567V14.2483V14.2398V14.2314V14.223V14.2146V14.2062V14.1977V14.1893V14.1809V14.1725V14.1641V14.1556V14.1472V14.1388V14.1304V14.1219V14.1135V14.1051V14.0967V14.0883V14.0798V14.0714V14.063V14.0546V14.0462V14.0377V14.0293V14.0209V14.0125V14.0041V13.9956V13.9872V13.9788V13.9704V13.9619V13.9535V13.9451V13.9367V13.9283V13.9198V13.9114V13.903V13.8946V13.8862V13.8777V13.8693V13.8609V13.8525V13.844V13.8356V13.8272V13.8188V13.8104V13.8019V13.7935V13.7851V13.7767V13.7683V13.7598V13.7514V13.743V13.7346V13.7262V13.7177V13.7093V13.7009V13.6925V13.684V13.6756V13.6672V13.6588V13.6504V13.6419V13.6335V13.6251V13.6167V13.6083V13.5998V13.5914V13.583V13.5746V13.5661V13.5577V13.5493V13.5409V13.5325V13.524V13.5156V13.5072V13.4988V13.4904V13.4819V13.4735V13.4651V13.4567V13.4483V13.4398V13.4314V13.423V13.4146V13.4061V13.3977V13.3893V13.3809V13.3725V13.364V13.3556V13.3472V13.3388V13.3304V13.3219V13.3135V13.3051V13.2967V13.2882V13.2798V13.2714V13.263V13.2546V13.2461V13.2377V13.2293V13.2209V13.2125V13.204V13.1956V13.1872V13.1788V13.1704V13.1619V13.1535V13.1451V13.1367V13.1282V13.1198V13.1114V13.103V13.0946V13.0861V13.0777V13.0693V13.0609V13.0525V13.044V13.0356V13.0272V13.0188V13.0103V13.0019V12.9935V12.9851V12.9767V12.9682V12.9598V12.9514V12.943V12.9346V12.9261V12.9177V12.9093V12.9009V12.8925V12.884V12.8756V12.8672V12.8588V12.8503V12.8419V12.8335V12.8251V12.8167V12.8082V12.7998V12.7914V12.783V12.7746V12.7661V12.7577V12.7493V12.7409V12.7324V12.724V12.7156V12.7072V12.6988V12.6903V12.6819V12.6735V12.6651V12.6567V12.6482V12.6398V12.6314V12.623V12.6146V12.6061V12.5977V12.5893V12.5809V12.5724V12.564V12.5556V12.5472V12.5388V12.5304C6.83967 12.5304 6.83967 12.5304 6.83967 12.5303C6.84027 11.1129 6.84115 9.69447 6.84235 8.27517L6.83967 16.8419Z" fill="#5A5A5A" stroke="#5A5A5A" stroke-width="0.2"/>
<path d="M8.99652 17.5345L8.99555 17.5345C8.86899 17.5322 8.74721 17.4861 8.65034 17.4041C8.55349 17.3222 8.48738 17.2093 8.4626 17.0844L8.46205 17.0817L8.46209 17.0817C8.44696 16.9924 8.44078 16.9018 8.44365 16.8113C8.44305 15.3864 8.44305 13.9619 8.44365 12.5376V12.5292V12.5208V12.5123V12.5039V12.4955V12.4871V12.4786V12.4702V12.4618V12.4534V12.445V12.4365V12.4281V12.4197V12.4113V12.4028V12.3944V12.386V12.3776V12.3691V12.3607V12.3523V12.3439V12.3355V12.327V12.3186V12.3102V12.3018V12.2933V12.2849V12.2765V12.2681V12.2597V12.2512V12.2428V12.2344V12.226V12.2175V12.2091V12.2007V12.1923V12.1838V12.1754V12.167V12.1586V12.1502V12.1417V12.1333V12.1249V12.1165V12.108V12.0996V12.0912V12.0828V12.0744V12.0659V12.0575V12.0491V12.0407V12.0322V12.0238V12.0154V12.007V11.9986V11.9901V11.9817V11.9733V11.9649V11.9564V11.948V11.9396V11.9312V11.9227V11.9143V11.9059V11.8975V11.8891V11.8806V11.8722V11.8638V11.8554V11.8469V11.8385V11.8301V11.8217V11.8133V11.8048V11.7964V11.788V11.7796V11.7711V11.7627V11.7543V11.7459V11.7375V11.729V11.7206V11.7122V11.7038V11.6953V11.6869V11.6785V11.6701V11.6617V11.6532V11.6448V11.6364V11.628V11.6195V11.6111V11.6027V11.5943V11.5859V11.5774V11.569V11.5606V11.5522V11.5437V11.5353V11.5269V11.5185V11.5101V11.5016V11.4932V11.4848V11.4764V11.4679V11.4595V11.4511V11.4427V11.4343V11.4258V11.4174V11.409V11.4006V11.3921V11.3837V11.3753V11.3669V11.3585V11.35V11.3416V11.3332V11.3248V11.3163V11.3079V11.2995V11.2911V11.2827V11.2742V11.2658V11.2574V11.249V11.2406V11.2321V11.2237V11.2153V11.2069V11.1984V11.19V11.1816V11.1732V11.1648V11.1563V11.1479V11.1395V11.1311V11.1226V11.1142V11.1058V11.0974V11.089V11.0805V11.0721V11.0637V11.0553V11.0468V11.0384V11.03V11.0216V11.0132V11.0047V10.9963V10.9879V10.9795V10.9711V10.9626V10.9542V10.9458V10.9374V10.9289V10.9205V10.9121V10.9037V10.8953V10.8868V10.8784V10.87V10.8616V10.8532V10.8447V10.8363V10.8279V10.8195V10.811V10.8026V10.7942V10.7858V10.7774V10.7689V10.7605V10.7521V10.7437V10.7352V10.7268V10.7184V10.71V10.7016V10.6931V10.6847V10.6763V10.6679V10.6595V10.651V10.6426V10.6342V10.6258V10.6173V10.6089V10.6005V10.5921V10.5837V10.5752V10.5668V10.5584V10.55V10.5416V10.5331V10.5247V10.5163V10.5079V10.4994V10.491V10.4826V10.4742V10.4658V10.4573V10.4489V10.4405V10.4321V10.4237V10.4152V10.4068V10.3984V10.39V10.3816V10.3731V10.3647V10.3563V10.3479V10.3394V10.331V10.3226V10.3142V10.3058V10.2973V10.2889V10.2805V10.2721V10.2637V10.2552V10.2468V10.2384V10.23V10.2216V10.2131V10.2047V10.1963V10.1879V10.1794V10.171V10.1626V10.1542V10.1458V10.1373V10.1289V10.1205V10.1121V10.1037V10.0952V10.0868V10.0784V10.07V10.0616V10.0531V10.0447V10.0363V10.0279V10.0194V10.011V10.0026V9.99418V9.98576V9.97734V9.96892V9.9605V9.95208V9.94366V9.93524V9.92682V9.9184V9.90998V9.90155V9.89313V9.88471V9.87629V9.86787V9.85945V9.85103V9.84261V9.83419V9.82577V9.81735V9.80893V9.80051V9.79208V9.78366V9.77524V9.76682V9.7584V9.74998V9.74156V9.73314V9.72472V9.7163V9.70788V9.69946V9.69104V9.68262V9.6742V9.66578V9.65735V9.64893V9.64051V9.63209V9.62367V9.61525V9.60683V9.59841V9.58999V9.58157V9.57315V9.56473V9.55631V9.54789V9.53947V9.53105V9.52263V9.51421V9.50578V9.49736V9.48894V9.48052V9.4721V9.46368V9.45526V9.44684V9.43842V9.43V9.42158V9.41316V9.40474V9.39632V9.3879V9.37948V9.37106V9.36264V9.35422V9.3458V9.33738V9.32896V9.32054V9.31212V9.3037V9.29527V9.28685V9.27843V9.27001V9.26159V9.25317V9.24475V9.23633V9.22791V9.21949V9.21107V9.20265V9.19423V9.18581V9.17739V9.16897V9.16055V9.15213V9.14371V9.13529V9.12687V9.11845V9.11003V9.10161V9.09319V9.08477V9.07635V9.06793V9.05951V9.05109V9.04267V9.03425V9.02583V9.01741V9.00899V9.00057V8.99215V8.98373V8.97531V8.96689V8.95847V8.95005V8.94163V8.93321V8.92479V8.91637V8.90795V8.89953V8.89111V8.88269V8.87427V8.86585V8.85743V8.84901V8.84059V8.83217V8.82375V8.81533V8.80691V8.79849V8.79007V8.78165V8.77323V8.76481V8.75639V8.74797V8.73955V8.73113V8.72271V8.71429V8.70587V8.69745V8.68903V8.68061V8.67219V8.66377V8.65535V8.64693V8.63851V8.63009V8.62167V8.61325V8.60483V8.59641V8.58799V8.57957V8.57115V8.56273V8.55432V8.5459V8.53748V8.52906V8.52064V8.51222V8.5038V8.49538V8.48696V8.47854V8.47012V8.4617V8.45328V8.44486V8.43644V8.42802V8.4196V8.41118V8.40276V8.39434V8.38592V8.3775V8.36908V8.36066V8.35224V8.34382V8.33541V8.32699V8.31857V8.31015V8.30173V8.29331V8.28489V8.27647V8.26805V8.25963V8.25121V8.24279V8.23437V8.22595C8.44365 8.04376 8.48256 7.88669 8.56834 7.76914C8.65575 7.64935 8.78414 7.58125 8.93927 7.56511C9.07746 7.54511 9.21775 7.5807 9.3302 7.66403C9.44267 7.74737 9.51824 7.87169 9.54134 8.01023C9.55817 8.09242 9.56624 8.1762 9.56542 8.26014M8.99652 17.5345L9.46542 8.25963M8.99652 17.5345C9.12313 17.5356 9.24604 17.4923 9.34451 17.4122C9.44278 17.3323 9.51066 17.2206 9.53711 17.0963C9.5566 17.007 9.5661 16.9158 9.56542 16.8243M8.99652 17.5345L9.46542 16.8247M9.56542 8.26014C9.56542 8.26031 9.56541 8.26049 9.56541 8.26066L9.46542 8.25963M9.56542 8.26014V8.25963H9.46542M9.56542 8.26014V8.27636V8.29309V8.30982V8.32655V8.34328V8.36V8.37673V8.39346V8.41019V8.42692V8.44365V8.46038V8.4771V8.49383V8.51056V8.52729V8.54402V8.56075V8.57748V8.5942V8.61093V8.62766V8.64439V8.66112V8.67785V8.69458V8.71131V8.72803V8.74476V8.76149V8.77822V8.79495V8.81168V8.82841V8.84513V8.86186V8.87859V8.89532V8.91205V8.92878V8.94551V8.96223V8.97896V8.99569V9.01242V9.02915V9.04588V9.06261V9.07934V9.09606V9.11279V9.12952V9.14625V9.16298V9.17971V9.19644V9.21316V9.22989V9.24662V9.26335V9.28008V9.29681V9.31354V9.33026V9.34699V9.36372V9.38045V9.39718V9.41391V9.43064V9.44737V9.46409V9.48082V9.49755V9.51428V9.53101V9.54774V9.56447V9.58119V9.59792V9.61465V9.63138V9.64811V9.66484V9.68157V9.69829V9.71502V9.73175V9.74848V9.76521V9.78194V9.79867V9.81539V9.83212V9.84885V9.86558V9.88231V9.89904V9.91577V9.9325V9.94922V9.96595V9.98268V9.99941V10.0161V10.0329V10.0496V10.0663V10.0831V10.0998V10.1165V10.1332V10.15V10.1667V10.1834V10.2002V10.2169V10.2336V10.2503V10.2671V10.2838V10.3005V10.3173V10.334V10.3507V10.3674V10.3842V10.4009V10.4176V10.4344V10.4511V10.4678V10.4845V10.5013V10.518V10.5347V10.5515V10.5682V10.5849V10.6016V10.6184V10.6351V10.6518V10.6686V10.6853V10.702V10.7187V10.7355V10.7522V10.7689V10.7857V10.8024V10.8191V10.8358V10.8526V10.8693V10.886V10.9028V10.9195V10.9362V10.9529V10.9697V10.9864V11.0031V11.0199V11.0366V11.0533V11.07V11.0868V11.1035V11.1202V11.137V11.1537V11.1704V11.1871V11.2039V11.2206V11.2373V11.2541V11.2708V11.2875V11.3042V11.321V11.3377V11.3544V11.3712V11.3879V11.4046V11.4213V11.4381V11.4548V11.4715V11.4883V11.505V11.5217V11.5384V11.5552V11.5719V11.5886V11.6054V11.6221V11.6388V11.6555V11.6723V11.689V11.7057V11.7225V11.7392V11.7559V11.7726V11.7894V11.8061V11.8228V11.8396V11.8563V11.873V11.8897V11.9065V11.9232V11.9399V11.9567V11.9734V11.9901V12.0068V12.0236V12.0403V12.057V12.0738V12.0905V12.1072V12.1239V12.1407V12.1574V12.1741V12.1909V12.2076V12.2243V12.241V12.2578V12.2745V12.2912V12.308V12.3247V12.3414V12.3581V12.3749V12.3916V12.4083V12.4251V12.4418V12.4585V12.4752V12.492V12.5087V12.5254V12.5422V12.5589V12.5756V12.5923V12.6091V12.6258V12.6425V12.6593V12.676V12.6927V12.7094V12.7262V12.7429V12.7596V12.7764V12.7931V12.8098V12.8265V12.8433V12.86V12.8767V12.8935V12.9102V12.9269V12.9436V12.9604V12.9771V12.9938V13.0106V13.0273V13.044V13.0608V13.0775V13.0942V13.1109V13.1277V13.1444V13.1611V13.1779V13.1946V13.2113V13.228V13.2448V13.2615V13.2782V13.295V13.3117V13.3284V13.3451V13.3619V13.3786V13.3953V13.4121V13.4288V13.4455V13.4622V13.479V13.4957V13.5124V13.5292V13.5459V13.5626V13.5793V13.5961V13.6128V13.6295V13.6463V13.663V13.6797V13.6964V13.7132V13.7299V13.7466V13.7634V13.7801V13.7968V13.8135V13.8303V13.847V13.8637V13.8805V13.8972V13.9139V13.9306V13.9474V13.9641V13.9808V13.9976V14.0143V14.031V14.0477V14.0645V14.0812V14.0979V14.1147V14.1314V14.1481V14.1648V14.1816V14.1983V14.215V14.2318V14.2485V14.2652V14.2819V14.2987V14.3154V14.3321V14.3489V14.3656V14.3823V14.399V14.4158V14.4325V14.4492V14.466V14.4827V14.4994V14.5161V14.5329V14.5496V14.5663V14.5831V14.5998V14.6165V14.6332V14.65V14.6667V14.6834V14.7002V14.7169V14.7336V14.7503V14.7671V14.7838V14.8005V14.8173V14.834V14.8507V14.8674V14.8842V14.9009V14.9176V14.9344V14.9511V14.9678V14.9845V15.0013V15.018V15.0347V15.0515V15.0682V15.0849V15.1016V15.1184V15.1351V15.1518V15.1686V15.1853V15.202V15.2187V15.2355V15.2522V15.2689V15.2857V15.3024V15.3191V15.3358V15.3526V15.3693V15.386V15.4028V15.4195V15.4362V15.4529V15.4697V15.4864V15.5031V15.5199V15.5366V15.5533V15.57V15.5868V15.6035V15.6202V15.637V15.6537V15.6704V15.6871V15.7039V15.7206V15.7373V15.7541V15.7708V15.7875V15.8042V15.821V15.8377V15.8544V15.8712V15.8879V15.9046V15.9213V15.9381V15.9548V15.9715V15.9883V16.005V16.0217V16.0384V16.0552V16.0719V16.0886V16.1054V16.1221V16.1388V16.1555V16.1723V16.189V16.2057V16.2225V16.2392V16.2559V16.2726V16.2894V16.3061V16.3228V16.3396V16.3563V16.373V16.3897V16.4065V16.4232V16.4399V16.4567V16.4734V16.4901V16.5068V16.5236V16.5403V16.557V16.5738V16.5905V16.6072V16.6239V16.6407V16.6574V16.6741V16.6909V16.7076V16.7243V16.741V16.7578V16.7745V16.7912V16.808V16.8243M9.46542 8.25963V16.8247M9.56542 16.8243C9.56542 16.8242 9.56542 16.824 9.56541 16.8239L9.46542 16.8247M9.56542 16.8243V16.8247H9.46542" fill="#5A5A5A" stroke="#5A5A5A" stroke-width="0.2"/>
<path d="M11.1665 8.28058V8.28893V8.29727V8.30562V8.31396V8.32231V8.33065V8.339V8.34734V8.35569V8.36403V8.37237V8.38072V8.38906V8.39741V8.40575V8.4141V8.42244V8.43079V8.43913V8.44748V8.45582V8.46417V8.47251V8.48086V8.4892V8.49755V8.50589V8.51424V8.52258V8.53092V8.53927V8.54761V8.55596V8.5643V8.57265V8.58099V8.58934V8.59768V8.60603V8.61437V8.62272V8.63106V8.63941V8.64775V8.6561V8.66444V8.67279V8.68113V8.68948V8.69782V8.70616V8.71451V8.72285V8.7312V8.73954V8.74789V8.75623V8.76458V8.77292V8.78127V8.78961V8.79796V8.8063V8.81465V8.82299V8.83134V8.83968V8.84803V8.85637V8.86472V8.87306V8.8814V8.88975V8.89809V8.90644V8.91478V8.92313V8.93147V8.93982V8.94816V8.95651V8.96485V8.9732V8.98154V8.98989V8.99823V9.00658V9.01492V9.02327V9.03161V9.03996V9.0483V9.05664V9.06499V9.07333V9.08168V9.09002V9.09837V9.10671V9.11506V9.1234V9.13175V9.14009V9.14844V9.15678V9.16513V9.17347V9.18182V9.19016V9.19851V9.20685V9.2152V9.22354V9.23188V9.24023V9.24857V9.25692V9.26526V9.27361V9.28195V9.2903V9.29864V9.30699V9.31533V9.32368V9.33202V9.34037V9.34871V9.35706V9.3654V9.37375V9.38209V9.39043V9.39878V9.40712V9.41547V9.42381V9.43216V9.4405V9.44885V9.45719V9.46554V9.47388V9.48223V9.49057V9.49892V9.50726V9.51561V9.52395V9.5323V9.54064V9.54899V9.55733V9.56567V9.57402V9.58236V9.59071V9.59905V9.6074V9.61574V9.62409V9.63243V9.64078V9.64912V9.65747V9.66581V9.67416V9.6825V9.69085V9.69919V9.70754V9.71588V9.72423V9.73257V9.74091V9.74926V9.7576V9.76595V9.77429V9.78264V9.79098V9.79933V9.80767V9.81602V9.82436V9.83271V9.84105V9.8494V9.85774V9.86609V9.87443V9.88278V9.89112V9.89947V9.90781V9.91615V9.9245V9.93284V9.94119V9.94953V9.95788V9.96622V9.97457V9.98291V9.99126V9.9996V10.0079V10.0163V10.0246V10.033V10.0413V10.0497V10.058V10.0664V10.0747V10.0831V10.0914V10.0997V10.1081V10.1164V10.1248V10.1331V10.1415V10.1498V10.1582V10.1665V10.1748V10.1832V10.1915V10.1999V10.2082V10.2166V10.2249V10.2333V10.2416V10.2499V10.2583V10.2666V10.275V10.2833V10.2917V10.3V10.3084V10.3167V10.325V10.3334V10.3417V10.3501V10.3584V10.3668V10.3751V10.3835V10.3918V10.4002V10.4085V10.4168V10.4252V10.4335V10.4419V10.4502V10.4586V10.4669V10.4753V10.4836V10.4919V10.5003V10.5086V10.517V10.5253V10.5337V10.542V10.5504V10.5587V10.567V10.5754V10.5837V10.5921V10.6004V10.6088V10.6171V10.6255V10.6338V10.6421V10.6505V10.6588V10.6672V10.6755V10.6839V10.6922V10.7006V10.7089V10.7173V10.7256V10.7339V10.7423V10.7506V10.759V10.7673V10.7757V10.784V10.7924V10.8007V10.809V10.8174V10.8257V10.8341V10.8424V10.8508V10.8591V10.8675V10.8758V10.8841V10.8925V10.9008V10.9092V10.9175V10.9259V10.9342V10.9426V10.9509V10.9592V10.9676V10.9759V10.9843V10.9926V11.001V11.0093V11.0177V11.026V11.0344V11.0427V11.051V11.0594V11.0677V11.0761V11.0844V11.0928V11.1011V11.1095V11.1178V11.1261V11.1345V11.1428V11.1512V11.1595V11.1679V11.1762V11.1846V11.1929V11.2012V11.2096V11.2179V11.2263V11.2346V11.243V11.2513V11.2597V11.268V11.2764V11.2847V11.293V11.3014V11.3097V11.3181V11.3264V11.3348V11.3431V11.3515V11.3598V11.3681V11.3765V11.3848V11.3932V11.4015V11.4099V11.4182V11.4266V11.4349V11.4432V11.4516V11.4599V11.4683V11.4766V11.485V11.4933V11.5017V11.51V11.5183V11.5267V11.535V11.5434V11.5517V11.5601V11.5684V11.5768V11.5851V11.5935V11.6018V11.6101V11.6185V11.6268V11.6352V11.6435V11.6519V11.6602V11.6686V11.6769V11.6852V11.6936V11.7019V11.7103V11.7186V11.727V11.7353V11.7437V11.752V11.7603V11.7687V11.777V11.7854V11.7937V11.8021V11.8104V11.8188V11.8271V11.8354V11.8438V11.8521V11.8605V11.8688V11.8772V11.8855V11.8939V11.9022V11.9106V11.9189V11.9272V11.9356V11.9439V11.9523V11.9606V11.969V11.9773V11.9857V11.994V12.0023V12.0107V12.019V12.0274V12.0357V12.0441V12.0524V12.0608V12.0691V12.0774V12.0858V12.0941V12.1025V12.1108V12.1192V12.1275V12.1359V12.1442V12.1526V12.1609V12.1692V12.1776V12.1859V12.1943V12.2026V12.211V12.2193V12.2277V12.236V12.2443V12.2527V12.261V12.2694V12.2777V12.2861V12.2944V12.3028V12.3111V12.3194V12.3278V12.3361V12.3445V12.3528V12.3612V12.3695V12.3779V12.3862V12.3945V12.4029V12.4112V12.4196V12.4279V12.4363V12.4446V12.453V12.4613V12.4697V12.478V12.4863V12.4947V12.503V12.5114V12.5197V12.5281V12.5364V12.5448L11.1665 12.5531C11.1665 12.5531 11.1665 12.5531 11.1665 12.5531C11.1659 13.9712 11.1656 15.3893 11.1656 16.8074C11.1656 17.0194 11.2039 17.1979 11.2957 17.3269C11.3914 17.4613 11.5352 17.5279 11.7112 17.5327C11.8903 17.5376 12.0409 17.4706 12.1433 17.336C12.2425 17.2058 12.2883 17.0231 12.2883 16.8083V16.7917V16.775V16.7584V16.7417V16.7251V16.7084V16.6918V16.6751V16.6585V16.6418V16.6252V16.6085V16.5919V16.5752V16.5586V16.5419V16.5253V16.5086V16.492V16.4753V16.4586V16.442V16.4253V16.4087V16.392V16.3754V16.3587V16.3421V16.3254V16.3088V16.2921V16.2755V16.2588V16.2422V16.2255V16.2089V16.1922V16.1756V16.1589V16.1423V16.1256V16.109V16.0923V16.0757V16.059V16.0424V16.0257V16.0091V15.9924V15.9758V15.9591V15.9425V15.9258V15.9092V15.8925V15.8759V15.8592V15.8426V15.8259V15.8093V15.7926V15.776V15.7593V15.7427V15.726V15.7094V15.6927V15.6761V15.6594V15.6428V15.6261V15.6095V15.5928V15.5762V15.5595V15.5429V15.5262V15.5096V15.4929V15.4763V15.4596V15.443V15.4263V15.4097V15.393V15.3763V15.3597V15.343V15.3264V15.3097V15.2931V15.2764V15.2598V15.2431V15.2265V15.2098V15.1932V15.1765V15.1599V15.1432V15.1266V15.1099V15.0933V15.0766V15.06V15.0433V15.0267V15.01V14.9934V14.9767V14.9601V14.9434V14.9268V14.9101V14.8935V14.8768V14.8602V14.8435V14.8269V14.8102V14.7936V14.7769V14.7603V14.7436V14.727V14.7103V14.6937V14.677V14.6604V14.6437V14.627V14.6104V14.5937V14.5771V14.5604V14.5438V14.5271V14.5105V14.4938V14.4772V14.4605V14.4439V14.4272V14.4106V14.3939V14.3773V14.3606V14.344V14.3273V14.3107V14.294V14.2774V14.2607V14.2441V14.2274V14.2108V14.1941V14.1775V14.1608V14.1442V14.1275V14.1109V14.0942V14.0776V14.0609V14.0442V14.0276V14.0109V13.9943V13.9776V13.961V13.9443V13.9277V13.911V13.8944V13.8777V13.8611V13.8444V13.8278V13.8111V13.7945V13.7778V13.7612V13.7445V13.7279V13.7112V13.6946V13.6779V13.6613V13.6446V13.628V13.6113V13.5947V13.578V13.5614V13.5447V13.528V13.5114V13.4947V13.4781V13.4614V13.4448V13.4281V13.4115V13.3948V13.3782V13.3615V13.3449V13.3282V13.3116V13.2949V13.2783V13.2616V13.245V13.2283V13.2117V13.195V13.1784V13.1617V13.1451V13.1284V13.1118V13.0951V13.0784V13.0618V13.0451V13.0285V13.0118V12.9952V12.9785V12.9619V12.9452V12.9286V12.9119V12.8953V12.8786V12.862V12.8453V12.8287V12.812V12.7954V12.7787V12.7621V12.7454V12.7288V12.7121V12.6955V12.6788V12.6621V12.6455V12.6288V12.6122V12.5955V12.5789V12.5622V12.5456V12.5289V12.5123V12.4956V12.479V12.4623V12.4457V12.429V12.4124V12.3957V12.3791V12.3624V12.3458V12.3291V12.3125V12.2958V12.2791V12.2625V12.2458V12.2292V12.2125V12.1959V12.1792V12.1626V12.1459V12.1293V12.1126V12.096V12.0793V12.0627V12.046V12.0294V12.0127V11.9961V11.9794V11.9628V11.9461V11.9294V11.9128V11.8961V11.8795V11.8628V11.8462V11.8295V11.8129V11.7962V11.7796V11.7629V11.7463V11.7296V11.713V11.6963V11.6797V11.663V11.6464V11.6297V11.6131V11.5964V11.5797V11.5631V11.5464V11.5298V11.5131V11.4965V11.4798V11.4632V11.4465V11.4299V11.4132V11.3966V11.3799V11.3633V11.3466V11.33V11.3133V11.2967V11.28V11.2633V11.2467V11.23V11.2134V11.1967V11.1801V11.1634V11.1468V11.1301V11.1135V11.0968V11.0802V11.0635V11.0469V11.0302V11.0136V10.9969V10.9802V10.9636V10.9469V10.9303V10.9136V10.897V10.8803V10.8637V10.847V10.8304V10.8137V10.7971V10.7804V10.7638V10.7471V10.7305V10.7138V10.6972V10.6805V10.6638V10.6472V10.6305V10.6139V10.5972V10.5806V10.5639V10.5473V10.5306V10.514V10.4973V10.4807V10.464V10.4474V10.4307V10.4141V10.3974V10.3807V10.3641V10.3474V10.3308V10.3141V10.2975V10.2808V10.2642V10.2475V10.2309V10.2142V10.1976V10.1809V10.1643V10.1476V10.1309V10.1143V10.0976V10.081V10.0643V10.0477V10.031V10.0144V9.99772V9.98107V9.96442V9.94776V9.93111V9.91446V9.8978V9.88115V9.8645V9.84784V9.83119V9.81454V9.79788V9.78123V9.76458V9.74792V9.73127V9.71462V9.69796V9.68131V9.66466V9.648V9.63135V9.6147V9.59804V9.58139V9.56474V9.54808V9.53143V9.51478V9.49812V9.48147V9.46481V9.44816V9.43151V9.41485V9.3982V9.38155V9.36489V9.34824V9.33159V9.31493V9.29828V9.28163V9.26497V9.24832V9.23167V9.21501V9.19836V9.18171V9.16505V9.1484V9.13174V9.11509V9.09844V9.08178V9.06513V9.04848V9.03182V9.01517V8.99852V8.98186V8.96521V8.94855V8.9319V8.91525V8.89859V8.88194V8.86529V8.84863V8.83198V8.81532V8.79867V8.78202V8.76536V8.74871V8.73206V8.7154V8.69875V8.68209V8.66544V8.64879V8.63213V8.61548V8.59883V8.58217V8.56552V8.54886V8.53221V8.51556V8.4989V8.48225V8.46559V8.44894V8.43229V8.41563V8.39898V8.38233V8.36567V8.34902V8.33236V8.31571V8.29906V8.2824C12.2883 8.06657 12.2409 7.88474 12.1411 7.75531C12.0383 7.62206 11.8886 7.55567 11.713 7.55893C11.5394 7.56215 11.3958 7.62825 11.2994 7.76167C11.2066 7.88999 11.1665 8.0683 11.1665 8.28058Z" fill="#5A5A5A" stroke="#5A5A5A" stroke-width="0.2"/>
</svg>
