<svg xmlns="http://www.w3.org/2000/svg" width="91.389" height="91.386" viewBox="0 0 91.389 91.386">
  <g id="Group_2875" data-name="Group 2875" transform="translate(1538.978 73.827)" opacity="0.5">
    <path id="Path_1682" data-name="Path 1682" d="M-1538.978,15.061a2.487,2.487,0,0,1,2.577-1.336c1.628.05,3.258.013,5.02.013V12.527q0-18.865,0-37.73c0-.357-.009-.715.023-1.069a1.843,1.843,0,0,1,1.988-1.836c3.181-.012,6.363,0,9.544,0h.84c-.183-2.013-.507-3.956-.512-5.9a23.507,23.507,0,0,1,17.789-22.817q8.877-2.248,17.781-4.516a18.606,18.606,0,0,1-.429-2.151,5.391,5.391,0,0,1,1.6-4.376c1.415-1.444,2.827-2.893,4.291-4.286a5.605,5.605,0,0,1,8.014.037c2.433,2.36,4.8,4.783,7.2,7.179q6.781,6.779,13.561,13.56c2.81,2.812,2.8,6.093-.015,8.925q-1.6,1.612-3.216,3.217c-2.674,2.673-4.7,3.006-8.135,1.3-.16.225-.336.452-.492.693-3.4,5.231-6.855,10.424-10.16,15.714a36.8,36.8,0,0,1-5.484,6.3,2.49,2.49,0,0,0-.8,1.941c.03,8.622.018,17.245.018,25.867v1.17h4.243c.416,0,.833-.012,1.249.009a1.948,1.948,0,0,1,1.965,1.381,1.959,1.959,0,0,1-.933,2.216c-.091.064-.171.144-.256.216h-67.266Zm75.117-55.791c-.239-.257-.454-.5-.681-.731q-7.931-8.024-15.853-16.056a1.317,1.317,0,0,0-1.467-.416c-6.312,1.629-12.641,3.189-18.947,4.839a19.654,19.654,0,0,0-13.955,24.936h9.519c.3-.509.551-.982.851-1.418a11.757,11.757,0,0,1,19.343-.073c1.236,1.694,1.2,2.288-.263,3.754q-3.525,3.538-7.058,7.068c-2.352,2.356-4.733,4.685-7.047,7.078-2.445,2.528-1.9,6.322,1.05,7.745a4.866,4.866,0,0,0,5.737-1c3.35-3.376,6.671-6.781,10.017-10.162,3.528-3.565,7.236-6.978,9.628-11.5.139-.261.32-.5.481-.749Zm-63.673,54.344h45.592V-10.226a2.322,2.322,0,0,0-.807.664c-2.548,2.581-5.03,5.233-7.671,7.715a8.531,8.531,0,0,1-13.8-3.268c-1.312-3.589-.385-6.795,2.238-9.492,2.9-2.983,5.865-5.907,8.818-8.84a3.319,3.319,0,0,1,.859-.451l-.3-.336h-34.926Zm53.083-83.727a5.712,5.712,0,0,0-1.335.69q-2.158,2.062-4.228,4.215a1.879,1.879,0,0,0,.022,2.653c.357.4.756.756,1.132,1.136q9.837,9.95,19.675,19.9a1.941,1.941,0,0,0,3.041.043q2.01-1.959,3.974-3.966a1.931,1.931,0,0,0,.019-2.983q-10.419-10.44-20.87-20.849A6.708,6.708,0,0,0-1474.452-70.112Zm-26.044,41.93h11.628C-1491.707-31.7-1498.022-31.677-1500.5-28.182Z" transform="translate(0)" fill="#acacac"/>
  </g>
</svg>
