<svg id="Group_2440" data-name="Group 2440" xmlns="http://www.w3.org/2000/svg" xmlns:xlink="http://www.w3.org/1999/xlink" width="64.167" height="64.467" viewBox="0 0 64.167 64.467">
  <defs>
    <linearGradient id="linear-gradient" x1="0.5" x2="0.5" y2="1" gradientUnits="objectBoundingBox">
      <stop offset="0" stop-color="#4adede"/>
      <stop offset="1" stop-color="#6172d6"/>
    </linearGradient>
  </defs>
  <path id="Path_920" data-name="Path 920" d="M32,0h.467a32,32,0,0,1,32,32v.167a32,32,0,0,1-32,32H32a32,32,0,0,1-32-32V32A32,32,0,0,1,32,0Z" transform="translate(0 64.467) rotate(-90)" fill="url(#linear-gradient)"/>
  <g id="Group_2441" data-name="Group 2441" transform="translate(16.792 20.064)">
    <g id="Group_1265" data-name="Group 1265" transform="translate(0 0)">
      <path id="Union_5" data-name="Union 5" d="M29.1,24.219c-1.616-.49-3.234-.978-4.848-1.478a.739.739,0,0,0-.59.055,11.974,11.974,0,0,1-9.644.5.7.7,0,0,0-.469.012,9.6,9.6,0,0,1-7.96-.181.824.824,0,0,0-.528-.04c-1.279.371-2.551.767-3.827,1.147a.9.9,0,0,1-1.219-.668,1.384,1.384,0,0,1,.06-.612c.368-1.249.757-2.492,1.121-3.742a.76.76,0,0,0-.03-.5A9.573,9.573,0,0,1,7.171,5.308c.371-.107.758-.156,1.133-.255a.643.643,0,0,0,.332-.2A12.033,12.033,0,0,1,28.995,17.517a.586.586,0,0,0-.036.39c.513,1.724,1.037,3.445,1.56,5.167a.828.828,0,0,0,.064.128v.479c-.29.465-.5.659-.86.659A2.236,2.236,0,0,1,29.1,24.219ZM5.974,21.24a7.692,7.692,0,0,0,3.258.98,7.263,7.263,0,0,0,2.245-.18C6.552,18.116,5.113,13.214,7.171,7.258l-.006,0a.043.043,0,0,0-.027,0c-.038.01-.075.026-.112.039a7.577,7.577,0,0,0-3,2.058,7.674,7.674,0,0,0-1.035,8.861A1.278,1.278,0,0,1,3.1,19.323c-.158.439-.278.891-.412,1.339-.127.423-.252.846-.389,1.308.124-.03.2-.044.272-.066.828-.249,1.658-.492,2.483-.75a1.268,1.268,0,0,1,.38-.062A1.073,1.073,0,0,1,5.974,21.24ZM15.67,2.2a10.115,10.115,0,0,0-7.5,8.725,9.73,9.73,0,0,0,3.014,8.4A10.073,10.073,0,0,0,23.311,20.9a1.08,1.08,0,0,1,.889-.09c.625.2,1.255.382,1.883.573l2.194.662c-.422-1.393-.819-2.716-1.226-4.036a1.178,1.178,0,0,1,.1-.974,10.089,10.089,0,0,0,1.162-6.689,10.237,10.237,0,0,0-10.045-8.5A9.8,9.8,0,0,0,15.67,2.2ZM14.149,16.366a.923.923,0,1,1,.022-1.839c.907,0,1.812,0,2.717,0,.886,0,1.773,0,2.658,0a.924.924,0,1,1,.038,1.839q-1.4.006-2.808.006Q15.463,16.372,14.149,16.366Zm.033-3.4a.936.936,0,0,1-1.007-.784.9.9,0,0,1,.637-1.017,1.444,1.444,0,0,1,.412-.042q2.03,0,4.058,0c1.393,0,2.786,0,4.179,0a.913.913,0,0,1,.364,1.758,1.316,1.316,0,0,1-.465.083q-2.476,0-4.952,0Zm0-3.4a.935.935,0,0,1-1.009-.816.907.907,0,0,1,.673-.994,1.52,1.52,0,0,1,.384-.036q2.029,0,4.059,0t4.059,0a.931.931,0,1,1,.011,1.847l-4.089,0Z" fill="#fff"/>
    </g>
  </g>
</svg>
