<svg xmlns="http://www.w3.org/2000/svg" width="206.676" height="206.676" viewBox="0 0 206.676 206.676">
  <defs>
    <style>
      .cls-1 {
        fill: #f2b92c;
      }

      .cls-2 {
        fill: #fefdfb;
      }

      .cls-3 {
        fill: #fefefe;
      }
    </style>
  </defs>
  <g id="Group_642" data-name="Group 642" transform="translate(0 0)">
    <ellipse id="Ellipse_67" data-name="Ellipse 67" class="cls-1" cx="103.338" cy="103.338" rx="103.338" ry="103.338" transform="translate(0 0)"/>
    <g id="Group_641" data-name="Group 641" transform="translate(28.826 28.844)">
      <path id="Path_409" data-name="Path 409" class="cls-2" d="M4966.464,3485.321c.534.5.953.872,1.341,1.273q21.595,21.59,43.226,43.164c1.223,1.213,1.059,1.844-.076,2.937-4.7,4.585-9.358,9.208-13.907,13.932-1.312,1.369-1.966,1.123-3.171-.084-8.473-8.578-17.072-17.044-25.509-25.659-1.559-1.579-2.319-1.5-3.827.028-8.391,8.543-16.917,16.928-25.313,25.455-1.417,1.438-2.161,1.494-3.573.02-4.47-4.668-9.077-9.225-13.711-13.729-1.178-1.14-1.178-1.759-.015-2.931q21.675-21.535,43.221-43.164C4965.547,3486.167,4965.966,3485.794,4966.464,3485.321Z" transform="translate(-4892.141 -3485.321)"/>
      <path id="Path_410" data-name="Path 410" class="cls-2" d="M4937.322,3766.176c.662.637,1.22,1.157,1.769,1.692,8.45,8.453,16.971,16.866,25.345,25.415,1.556,1.6,2.336,1.46,3.813-.054,8.377-8.529,16.929-16.923,25.306-25.452,1.439-1.454,2.192-1.468,3.6,0,4.476,4.665,9.064,9.213,13.718,13.711,1.188,1.168,1.117,1.8-.025,2.939q-21.65,21.552-43.2,43.209c-1.111,1.126-1.666.99-2.7-.048q-21.557-21.654-43.187-43.215c-.962-.948-1.369-1.547-.161-2.73,4.862-4.693,9.6-9.508,14.379-14.28C4936.372,3766.977,4936.808,3766.624,4937.322,3766.176Z" transform="translate(-4891.997 -3679.438)"/>
      <path id="Path_411" data-name="Path 411" class="cls-2" d="M4843.848,3707.171c-.456-.433-.807-.747-1.132-1.078-4.849-4.834-9.652-9.7-14.546-14.484-.993-.979-.993-1.511,0-2.5q7.341-7.171,14.51-14.507c1.049-1.078,1.593-.812,2.492.1q7.095,7.21,14.306,14.317c.843.832,1.369,1.369.22,2.492-4.984,4.835-9.842,9.786-14.744,14.685C4844.629,3706.52,4844.272,3706.806,4843.848,3707.171Z" transform="translate(-4827.425 -3615.664)"/>
      <path id="Path_412" data-name="Path 412" class="cls-3" d="M5030.936,3707.052c-.546-.5-.981-.865-1.369-1.262-4.778-4.77-9.508-9.587-14.357-14.286-1.248-1.214-1.021-1.881.1-2.971q7.121-6.972,14.1-14.113c1.081-1.095,1.751-1.386,2.971-.125,4.707,4.852,9.5,9.607,14.317,14.331,1,.99,1.3,1.616.119,2.764-4.9,4.778-9.7,9.655-14.558,14.5C5031.867,3706.28,5031.426,3706.625,5030.936,3707.052Z" transform="translate(-4956.633 -3615.362)"/>
      <path id="Path_413" data-name="Path 413" class="cls-2" d="M5235.6,3690.459c-.489.518-.859.939-1.259,1.333-4.772,4.77-9.587,9.5-14.269,14.34-1.169,1.2-1.734.866-2.7-.125-4.659-4.738-9.344-9.457-14.119-14.091-1.188-1.151-1.165-1.776.017-2.919,4.771-4.631,9.455-9.347,14.114-14.1.967-1,1.556-1.276,2.69-.093,4.692,4.834,9.511,9.564,14.28,14.334C5234.74,3689.537,5235.122,3689.953,5235.6,3690.459Z" transform="translate(-5086.568 -3615.751)"/>
    </g>
  </g>
</svg>
