<svg xmlns="http://www.w3.org/2000/svg" width="292.284" height="292.284" viewBox="0 0 292.284 292.284">
  <defs>
    <style>
      .cls-1 {
        fill: #f6921a;
      }

      .cls-2 {
        fill: #fefefd;
      }
    </style>
  </defs>
  <g id="Group_630" data-name="Group 630" transform="translate(0 0)">
    <circle id="Ellipse_64" data-name="Ellipse 64" class="cls-1" cx="103.338" cy="103.338" r="103.338" transform="translate(0 146.142) rotate(-45)"/>
    <path id="Path_349" data-name="Path 349" class="cls-2" d="M3132.044,3592.164c1.3.413,2.511.755,3.692,1.174,7.333,2.623,11.865,7.621,12.821,15.488a31.469,31.469,0,0,1-2.072,16.368c-2.286,5.367-6.361,8.942-11.618,11.282a50.819,50.819,0,0,1-14.819,3.655c-1.842.218-3.692.351-5.543.478-.55.04-.7.209-.692.772.033,5.873.026,11.743.065,17.613.007.75-.153,1-.954.993-3.249-.04-6.5-.02-9.751.025-.7.006-.96-.1-.96-.914.025-5.757-.021-11.517-.014-17.273,0-.665-.149-.877-.837-.871-2.543.02-5.08-.006-7.611-.051-.648-.014-.859.15-.854.846.04,5.811.025,11.627.072,17.44,0,.7-.181.852-.858.837q-4.961-.038-9.92.031c-.687.009-.858-.172-.858-.852,0-5.844-.04-11.686-.036-17.528.007-.741-.163-.976-.923-.976-7.235.028-14.48,0-21.715.028-.7.008-.79-.161-.685-.8.7-4.1,1.376-8.207,2.007-12.323.1-.659.344-.8.984-.8,2.708.028,5.414.192,8.119-.045a3.959,3.959,0,0,0,3.836-4.207q-.01-12.569-.046-25.141c-.025-8.611-.1-17.22-.054-25.822a5.859,5.859,0,0,0-5.344-5.938,57.855,57.855,0,0,0-6.492-.125c-.917.009-1.833.011-2.734.045-.417.02-.617-.017-.609-.523.019-3.763.016-7.525-.033-11.288-.014-.735.45-.591.845-.594q6.074-.038,12.14-.054c3.2-.02,6.394-.048,9.578-.026.685.006.9-.155.9-.877-.046-5.759-.032-11.514-.09-17.273-.007-.769.2-.993.963-.984,3.221.031,6.441.04,9.662-.031.819-.011,1.042.19,1.04,1.007-.025,5.641.025,11.29.007,16.937,0,.619.116.814.79.795,2.569-.085,5.13-.113,7.692-.113.7,0,.84-.257.829-.891q-.042-8.3-.061-16.589c0-1.148,0-1.157,1.133-1.157,3.221-.008,6.438.009,9.658-.04.7-.005.849.192.849.86,0,5.811.04,11.63.032,17.443-.007.7.214.852.848.908a49.351,49.351,0,0,1,15.125,3.369c4.438,1.881,8.31,4.566,10.285,9.084,3.214,7.327,3.333,14.614-1.453,21.46a16.664,16.664,0,0,1-5.492,4.688C3132.639,3591.827,3132.388,3591.972,3132.044,3592.164Zm-17.867,33.251a24.848,24.848,0,0,0,5.543-2.076c3.63-1.952,5.876-4.829,5.957-9.1a10.219,10.219,0,0,0-5.518-9.632,24.183,24.183,0,0,0-8-2.679c-6.163-1.078-12.379-.817-18.592-.69-.641.012-.5.376-.5.727q.028,12.1.044,24.193c0,.583.209.7.75.7,2-.014,3.985.028,5.982.014A64.579,64.579,0,0,0,3114.177,3625.415Zm-4.061-37.034a21.642,21.642,0,0,0,4.167-1.485c3.572-1.777,5.788-4.5,5.9-8.611a9.639,9.639,0,0,0-5.474-9.42,21.223,21.223,0,0,0-6.321-2.025c-4.922-.852-9.883-.645-14.837-.529-.515.012-.591.258-.58.693.019,1.768.014,3.528.019,5.3.014,5.5.035,11,.035,16.49,0,.571.16.82.754.781s1.2-.009,1.8,0A59.109,59.109,0,0,0,3110.116,3588.382Z" transform="translate(-2955.33 -3451.75)"/>
  </g>
</svg>
