<svg xmlns="http://www.w3.org/2000/svg" width="24.026" height="9.68" viewBox="0 0 24.026 9.68">
  <path id="Path_936" data-name="Path 936" d="M-702.207,655.7a.6.6,0,0,0-.039.155.911.911,0,0,1-.667.917,9.315,9.315,0,0,1-2.555.561,10.765,10.765,0,0,1-4.8-.594.786.786,0,0,1-.553-1.05c.171-.811.323-1.626.482-2.44a1.237,1.237,0,0,0,.008-.161,35.734,35.734,0,0,0-7.8,0c.094.53.179,1.045.279,1.557.07.361.16.718.242,1.076a.769.769,0,0,1-.527,1.005,10.544,10.544,0,0,1-5.307.539,16.808,16.808,0,0,1-2.108-.52.881.881,0,0,1-.642-.88,12.482,12.482,0,0,1,1.073-5.971.871.871,0,0,1,.54-.484,26.707,26.707,0,0,1,5.633-1.374,34.294,34.294,0,0,1,6.481-.279,29.02,29.02,0,0,1,8.576,1.639,1,1,0,0,1,.62.589,13.022,13.022,0,0,1,1.03,4.1,1.81,1.81,0,0,0,.038.2Zm-17.035-.153c-.154-.978-.3-1.89-.44-2.8-.107-.694.143-1.023.842-1.085,1.074-.1,2.148-.211,3.224-.26a34.565,34.565,0,0,1,6.132.273.764.764,0,0,1,.745.934c-.077.574-.167,1.146-.26,1.718-.064.391-.143.779-.216,1.169.059.023.094.04.131.05a9.82,9.82,0,0,0,5.166-.015.238.238,0,0,0,.211-.271,10.986,10.986,0,0,0-.822-4.354.471.471,0,0,0-.263-.225,27.788,27.788,0,0,0-7.812-1.42,33.089,33.089,0,0,0-5.875.233,24.708,24.708,0,0,0-5.216,1.207.412.412,0,0,0-.219.208,11.009,11.009,0,0,0-.819,4.354c0,.167.062.224.215.267a9.716,9.716,0,0,0,3.647.3C-720.324,655.762-719.783,655.637-719.242,655.542Z" transform="translate(726.233 -647.706)" fill="#f16b6b"/>
</svg>
