<svg xmlns="http://www.w3.org/2000/svg" xmlns:xlink="http://www.w3.org/1999/xlink" width="65.167" height="65.467" viewBox="0 0 65.167 65.467">
  <defs>
    <linearGradient id="linear-gradient" x1="0.5" x2="0.5" y2="1" gradientUnits="objectBoundingBox">
      <stop offset="0" stop-color="#4adede"/>
      <stop offset="1" stop-color="#6172d6"/>
    </linearGradient>
  </defs>
  <g id="Group_2537" data-name="Group 2537" transform="translate(-568.5 -353.674)">
    <path id="Path_921" data-name="Path 921" d="M32,0h.467a32,32,0,0,1,32,32v.167a32,32,0,0,1-32,32H32a32,32,0,0,1-32-32V32A32,32,0,0,1,32,0Z" transform="translate(569 418.64) rotate(-90)" fill="none" stroke="#4adede" stroke-width="1"/>
    <g id="Group_2522" data-name="Group 2522" transform="translate(582.001 369.046)">
      <path id="Union_5" data-name="Union 5" d="M36.314,30.224C34.3,29.612,32.277,29,30.264,28.379a.922.922,0,0,0-.736.068,14.943,14.943,0,0,1-12.035.627.879.879,0,0,0-.585.015,11.982,11.982,0,0,1-9.934-.226,1.029,1.029,0,0,0-.659-.05c-1.6.463-3.184.957-4.777,1.431a1.124,1.124,0,0,1-1.521-.833,1.727,1.727,0,0,1,.075-.764c.46-1.559.945-3.11,1.4-4.67a.948.948,0,0,0-.037-.624,11.946,11.946,0,0,1,7.5-16.729c.463-.134.946-.2,1.414-.318a.8.8,0,0,0,.414-.255A15.016,15.016,0,0,1,36.184,21.86a.732.732,0,0,0-.045.486c.64,2.151,1.295,4.3,1.946,6.448a1.033,1.033,0,0,0,.08.16v.6c-.362.581-.628.822-1.074.822A2.79,2.79,0,0,1,36.314,30.224ZM7.456,26.507a9.6,9.6,0,0,0,4.066,1.223,9.063,9.063,0,0,0,2.8-.224C8.176,22.608,6.38,16.49,8.949,9.057l-.007,0a.054.054,0,0,0-.033,0c-.047.013-.094.032-.14.049A9.456,9.456,0,0,0,5.027,11.67,9.577,9.577,0,0,0,3.735,22.728a1.6,1.6,0,0,1,.136,1.386c-.2.548-.347,1.112-.514,1.671-.159.528-.315,1.056-.486,1.633.155-.038.248-.054.34-.082,1.034-.311,2.069-.614,3.1-.936a1.582,1.582,0,0,1,.474-.077A1.339,1.339,0,0,1,7.456,26.507Zm12.1-23.764a12.624,12.624,0,0,0-9.362,10.889,12.142,12.142,0,0,0,3.762,10.485,12.571,12.571,0,0,0,15.135,1.963,1.348,1.348,0,0,1,1.109-.113c.78.245,1.566.477,2.35.715l2.738.826c-.527-1.739-1.021-3.39-1.53-5.037a1.47,1.47,0,0,1,.129-1.215,12.59,12.59,0,0,0,1.45-8.347A12.776,12.776,0,0,0,22.8,2.3,12.229,12.229,0,0,0,19.555,2.743Zm-1.9,17.681a1.151,1.151,0,1,1,.028-2.295c1.132,0,2.261,0,3.391,0,1.106,0,2.213,0,3.318,0a1.154,1.154,0,1,1,.047,2.295q-1.752.008-3.5.008Q19.3,20.431,17.658,20.424Zm.042-4.237a1.168,1.168,0,0,1-1.257-.978,1.127,1.127,0,0,1,.794-1.269,1.8,1.8,0,0,1,.514-.053q2.533,0,5.065,0c1.739,0,3.476,0,5.215,0a1.14,1.14,0,0,1,.455,2.194,1.642,1.642,0,0,1-.58.1q-3.09.005-6.18.005Zm0-4.243a1.167,1.167,0,0,1-1.26-1.019,1.132,1.132,0,0,1,.84-1.24,1.9,1.9,0,0,1,.479-.045q2.533,0,5.066,0t5.066,0a1.161,1.161,0,1,1,.014,2.3l-5.1,0Z" transform="translate(0 0)" fill="url(#linear-gradient)"/>
    </g>
  </g>
</svg>
