<svg width="555" height="648" viewBox="0 0 555 648" fill="none" xmlns="http://www.w3.org/2000/svg">
<path d="M302.658 150.703C302.073 153.452 300.421 155.856 298.063 157.386C295.706 158.917 292.837 159.448 290.088 158.863C287.339 158.279 284.935 156.626 283.404 154.269C281.874 151.911 281.343 149.043 281.927 146.293C287.418 120.503 299.6 96.6125 317.248 77.0216C334.888 57.4119 357.375 42.787 382.453 34.6146C383.779 34.1825 385.176 34.0156 386.566 34.1235C387.955 34.2315 389.31 34.6121 390.553 35.2436C393.063 36.5191 394.963 38.7393 395.836 41.4158C396.708 44.0923 396.482 47.0058 395.207 49.5155C393.931 52.0252 391.711 53.9254 389.034 54.7981C367.494 61.7973 348.174 74.3403 333.015 91.1677C317.85 108.007 307.38 128.539 302.658 150.703Z" fill="white"/>
<path d="M269.688 34.2366C288.494 13.3301 311.243 -3.65787 336.629 -15.7528C362.015 -27.8478 389.539 -34.8117 417.623 -36.2451C470.934 -39.0929 523.377 -21.8668 564.615 12.0376C558.308 15.6417 553.372 21.2339 550.579 27.9402C513.491 -2.27189 466.481 -17.5892 418.715 -15.0256C393.415 -13.7358 368.619 -7.46321 345.749 3.43218C322.879 14.3276 302.385 29.6313 285.443 48.4655C283.556 50.5551 280.917 51.8095 278.105 51.9527C275.293 52.096 272.54 51.1164 270.45 49.2295C268.36 47.3426 267.106 44.7028 266.963 41.891C266.82 39.0792 267.799 36.3257 269.686 34.2361L269.688 34.2366Z" fill="white"/>
<path d="M600.644 264.998C612.18 242.435 619.146 217.817 621.143 192.555C623.14 167.294 620.129 141.887 612.282 117.792C611.419 115.117 611.654 112.21 612.935 109.709C614.216 107.207 616.439 105.318 619.113 104.455C621.787 103.592 624.695 103.827 627.196 105.108C629.697 106.389 631.587 108.611 632.45 111.286C649.477 163.728 645.618 220.717 621.676 270.385C597.734 320.053 555.555 358.57 503.923 377.916C503.851 370.649 501.378 363.61 496.889 357.896C541.864 340.977 578.877 307.837 600.644 264.998Z" fill="white"/>
<path d="M249.251 389.534C255.5 385.843 260.351 380.187 263.047 373.448C296.952 402.078 337.697 421.434 381.31 429.629C424.923 437.824 469.915 434.578 511.9 420.207C553.885 405.837 591.43 380.832 620.874 347.632C650.319 314.431 670.657 274.167 679.908 230.766C680.493 228.017 682.145 225.614 684.502 224.083C686.859 222.553 689.727 222.022 692.476 222.607C695.225 223.191 697.628 224.844 699.159 227.201C700.689 229.558 701.22 232.426 700.635 235.175C690.628 282.177 668.606 325.781 636.719 361.734C604.832 397.686 564.169 424.758 518.699 440.308C473.229 455.857 424.504 459.353 377.279 450.454C330.054 441.556 285.943 420.566 249.251 389.534Z" fill="white"/>
<path d="M447.477 38.715C448.062 35.9645 449.716 33.559 452.074 32.0278C454.433 30.4965 457.303 29.9649 460.054 30.5499C479.347 34.6416 497.644 42.4937 513.902 53.6577C530.183 64.8319 544.102 79.1036 554.866 95.658C565.611 112.226 572.981 130.751 576.554 150.172C579.578 166.563 579.856 183.342 577.376 199.823C574.461 198.173 571.31 196.981 568.032 196.29C564.252 195.479 560.359 195.345 556.532 195.894C558.534 181.967 558.251 167.807 555.693 153.972C552.598 137.32 546.254 121.441 537.023 107.241C527.809 93.0255 515.882 80.7662 501.927 71.1638C487.956 61.5555 472.228 54.7974 455.642 51.2766C452.895 50.6915 450.492 49.04 448.961 46.6849C447.43 44.3297 446.897 41.4633 447.477 38.715Z" fill="white"/>
<path d="M157.031 119.66C167.173 71.9311 189.709 27.7155 222.369 -8.5372C255.024 -44.7897 296.652 -71.8017 343.063 -86.8548C386.48 -100.953 432.701 -104.142 477.642 -96.1393C475.808 -93.0435 474.492 -89.6682 473.748 -86.1474C472.993 -82.6115 472.823 -78.9757 473.245 -75.3847C431.927 -82.6484 389.457 -79.6621 349.562 -66.6879C306.7 -52.7667 268.261 -27.8004 238.115 5.69809C207.948 39.1686 187.131 79.9952 177.758 124.068C168.369 168.157 170.757 213.941 184.681 256.814C185.518 259.479 185.268 262.368 183.984 264.85C182.701 267.332 180.489 269.206 177.829 270.063C175.17 270.921 172.28 270.693 169.788 269.429C167.296 268.165 165.405 265.967 164.527 263.315C149.444 216.921 146.859 167.371 157.031 119.66Z" fill="white"/>
<path d="M217.701 142.367C223.938 146.092 231.226 147.668 238.446 146.853C234.928 168.652 235.185 190.894 239.207 212.606C246.146 250.123 264.064 284.736 290.69 312.063C317.316 339.389 351.453 358.198 388.777 366.108C391.526 366.692 393.93 368.345 395.46 370.702C396.99 373.059 397.521 375.927 396.937 378.676C396.352 381.424 394.7 383.828 392.343 385.358C389.986 386.889 387.117 387.42 384.369 386.835C356.857 381.005 330.764 369.812 307.58 353.895C284.396 337.978 264.576 317.649 249.25 294.069C233.943 270.467 223.438 244.079 218.335 216.414C213.821 191.956 213.606 166.898 217.701 142.367Z" fill="white"/>
<path d="M288.784 231.942C296.068 232.039 303.177 229.713 308.995 225.329C317.129 245.7 330.322 263.66 347.327 277.515C364.332 291.369 384.588 300.66 406.182 304.51C427.776 308.359 449.994 306.641 470.739 299.516C491.484 292.392 510.071 280.096 524.743 263.791C526.63 261.703 529.269 260.45 532.08 260.308C534.89 260.165 537.643 261.145 539.731 263.032C541.819 264.919 543.072 267.558 543.214 270.369C543.357 273.18 542.377 275.932 540.49 278.02C523.316 297.068 501.554 311.405 477.275 319.668C452.995 327.931 427.005 329.844 401.777 325.225C376.55 320.607 352.923 309.611 333.145 293.283C313.367 276.955 298.096 255.838 288.784 231.942Z" fill="white"/>
<path d="M218.189 358.215C219.181 353.55 221.985 349.471 225.985 346.874C229.985 344.277 234.853 343.376 239.517 344.368C244.182 345.36 248.261 348.164 250.858 352.164C253.455 356.164 254.356 361.032 253.364 365.696C253.152 366.705 252.851 367.693 252.466 368.649C250.788 372.826 247.606 376.221 243.547 378.166C239.488 380.11 234.848 380.461 230.542 379.151C226.237 377.84 222.579 374.963 220.292 371.086C218.005 367.21 217.254 362.617 218.189 358.215Z" fill="white"/>
<path d="M275.156 197.61C276.148 192.946 278.952 188.866 282.952 186.27C286.952 183.673 291.819 182.771 296.484 183.763C301.148 184.755 305.228 187.56 307.825 191.56C310.421 195.559 311.323 200.427 310.331 205.092C310.118 206.1 309.817 207.089 309.432 208.045C307.757 212.223 304.575 215.622 300.515 217.567C296.455 219.513 291.813 219.866 287.506 218.554C283.199 217.243 279.541 214.364 277.254 210.486C274.967 206.608 274.219 202.014 275.156 197.61Z" fill="white"/>
<path d="M217.051 114.207C218.043 109.542 220.848 105.463 224.848 102.866C228.848 100.269 233.716 99.3675 238.38 100.36C243.045 101.352 247.124 104.156 249.721 108.156C252.318 112.156 253.22 117.024 252.228 121.688C252.015 122.697 251.714 123.685 251.329 124.642C249.652 128.818 246.469 132.214 242.41 134.158C238.351 136.102 233.711 136.454 229.405 135.143C225.1 133.832 221.442 130.955 219.155 127.079C216.868 123.202 216.117 118.609 217.051 114.207Z" fill="white"/>
<path d="M457.562 373.377C458.554 368.713 461.358 364.634 465.358 362.037C469.358 359.44 474.226 358.538 478.89 359.53C483.555 360.523 487.634 363.327 490.231 367.327C492.828 371.327 493.729 376.194 492.737 380.859C492.524 381.868 492.224 382.856 491.839 383.812C490.161 387.988 486.979 391.384 482.92 393.328C478.861 395.273 474.221 395.624 469.915 394.313C465.61 393.003 461.952 390.125 459.665 386.249C457.378 382.373 456.628 377.78 457.562 373.377Z" fill="white"/>
<path d="M542.894 221.248C543.913 216.61 546.725 212.564 550.716 209.992C554.707 207.419 559.554 206.53 564.198 207.518C568.842 208.506 572.907 211.29 575.506 215.264C578.105 219.238 579.027 224.078 578.07 228.729C577.858 229.738 577.557 230.726 577.171 231.682C575.494 235.86 572.312 239.257 568.253 241.202C564.193 243.147 559.552 243.499 555.246 242.188C550.939 240.877 547.281 237.999 544.994 234.122C542.707 230.245 541.958 225.651 542.894 221.248Z" fill="white"/>
</svg>
