<svg xmlns="http://www.w3.org/2000/svg" xmlns:xlink="http://www.w3.org/1999/xlink" width="893.902" height="893.902" viewBox="0 0 893.902 893.902">
  <defs>
    <clipPath id="clip-path">
      <rect id="Rectangle_507" data-name="Rectangle 507" width="691.902" height="691.902" transform="translate(-2928 -18566)" fill="none" stroke="#707070" stroke-width="1"/>
    </clipPath>
  </defs>
  <g id="Mask_Group_24" data-name="Mask Group 24" transform="translate(16531.509 -8493.081) rotate(-111)" clip-path="url(#clip-path)">
    <g id="Group_1669" data-name="Group 1669" transform="translate(-3058.538 -18606.568)">
      <path id="Path_571" data-name="Path 571" d="M86.273,13.084a13.093,13.093,0,0,1,26.186,0,185.621,185.621,0,0,1-24.88,92.793,185.79,185.79,0,0,1-67.9,68.008,13.114,13.114,0,0,1-13.141-22.7A159.5,159.5,0,0,0,64.889,92.834a159.62,159.62,0,0,0,21.384-79.75Z" transform="matrix(0.545, -0.839, 0.839, 0.545, 503.866, 316.593)" fill="#fff"/>
      <path id="Path_572" data-name="Path 572" d="M350.711,19.689a263.939,263.939,0,0,1-160.662,123.2A263.812,263.812,0,0,1,0,122.321,40.614,40.614,0,0,0,12.876,99.495a237.781,237.781,0,0,0,170.4,18.031A237.756,237.756,0,0,0,328.014,6.543a13.115,13.115,0,0,1,22.7,13.146Z" transform="matrix(0.545, -0.839, 0.839, 0.545, 503.212, 548.403)" fill="#fff"/>
      <path id="Path_573" data-name="Path 573" d="M34.4,161.32A237.793,237.793,0,0,0,58.172,342.209a13.089,13.089,0,0,1-22.7,13.046A264.548,264.548,0,0,1,122.264,0,40.689,40.689,0,0,0,135.91,22.386,237.648,237.648,0,0,0,34.4,161.32Z" transform="matrix(0.545, -0.839, 0.839, 0.545, 143.867, 485.529)" fill="#fff"/>
      <path id="Path_574" data-name="Path 574" d="M505.818,40.807A40.587,40.587,0,0,0,493.28,63.793a317.3,317.3,0,0,0-467.1,279.575,13.091,13.091,0,1,1-26.182,0A343.446,343.446,0,0,1,505.818,40.807Z" transform="matrix(0.545, -0.839, 0.839, 0.545, 0, 486.052)" fill="#fff"/>
      <path id="Path_575" data-name="Path 575" d="M198.391,161.919a13.1,13.1,0,0,1-13.1,13.1,185.53,185.53,0,0,1-71.015-14.085,185.753,185.753,0,0,1-60.3-40.228A185.481,185.481,0,0,1,13.755,60.4,185.742,185.742,0,0,1,0,.609,40.306,40.306,0,0,0,12.2,2.477,40.411,40.411,0,0,0,26.2,0,159.8,159.8,0,0,0,37.989,50.447a159.361,159.361,0,0,0,34.574,51.675A159.243,159.243,0,0,0,124.249,136.7a159.277,159.277,0,0,0,61.046,12.137A13.1,13.1,0,0,1,198.391,161.919Z" transform="matrix(0.545, -0.839, 0.839, 0.545, 382.971, 546.275)" fill="#fff"/>
      <path id="Path_576" data-name="Path 576" d="M332.01,178.252A343.231,343.231,0,0,1,286,349.971,343.208,343.208,0,0,1,160.272,475.639,343.431,343.431,0,0,1,.02,521.45a40.732,40.732,0,0,0,2.138-13.076A40.83,40.83,0,0,0,0,495.238a316.769,316.769,0,0,0,147.234-42.3A316.971,316.971,0,0,0,263.312,336.815a316.909,316.909,0,0,0,42.516-158.563A317.121,317.121,0,0,0,263.342,19.61,13.083,13.083,0,0,1,286.028,6.573,342.848,342.848,0,0,1,332.01,178.252Z" transform="matrix(0.545, -0.839, 0.839, 0.545, 331.696, 278.447)" fill="#fff"/>
      <path id="Path_577" data-name="Path 577" d="M277.338,252.6a41.008,41.008,0,0,0-26.223-.09,237.9,237.9,0,0,0-17.821-79.266A238.14,238.14,0,0,0,13.086,26.182,13.091,13.091,0,0,1,13.086,0,264.5,264.5,0,0,1,200.219,77.378a264.479,264.479,0,0,1,57.32,85.9A264.277,264.277,0,0,1,277.338,252.6Z" transform="matrix(0.545, -0.839, 0.839, 0.545, 246.035, 252.013)" fill="#fff"/>
      <path id="Path_578" data-name="Path 578" d="M317.8,83.842a40.6,40.6,0,0,0-22.726,13.186A159.422,159.422,0,0,0,24.459,106,13.11,13.11,0,0,1,1.772,92.852,185.725,185.725,0,0,1,317.8,83.842Z" transform="matrix(0.545, -0.839, 0.839, 0.545, 230.714, 420.282)" fill="#fff"/>
      <path id="Path_579" data-name="Path 579" d="M44.432,22.211A22.216,22.216,0,1,1,0,22.211a21.793,21.793,0,0,1,.327-3.8,22.217,22.217,0,0,1,44.105,3.8Z" transform="matrix(0.545, -0.839, 0.839, 0.545, 316.959, 87.113)" fill="#4adede"/>
      <path id="Path_580" data-name="Path 580" d="M44.432,22.211A22.216,22.216,0,0,1,0,22.211a21.828,21.828,0,0,1,.327-3.8,22.216,22.216,0,0,1,44.105,3.8Z" transform="matrix(0.545, -0.839, 0.839, 0.545, 477.063, 223.996)" fill="#4adede"/>
      <path id="Path_581" data-name="Path 581" d="M44.433,22.211A22.216,22.216,0,0,1,0,22.211a21.873,21.873,0,0,1,.327-3.8,22.217,22.217,0,0,1,44.105,3.8Z" transform="matrix(0.545, -0.839, 0.839, 0.545, 599.049, 193.892)" fill="#4adede"/>
      <path id="Path_582" data-name="Path 582" d="M44.432,22.211A22.216,22.216,0,1,1,0,22.211a21.85,21.85,0,0,1,.327-3.8,22.217,22.217,0,0,1,44.105,3.8Z" transform="matrix(0.545, -0.839, 0.839, 0.545, 193.424, 356.633)" fill="#4adede"/>
      <path id="Path_583" data-name="Path 583" d="M44.433,22.211A22.217,22.217,0,0,1,0,22.211a21.747,21.747,0,0,1,.328-3.8,22.217,22.217,0,0,1,44.106,3.8Z" transform="matrix(0.545, -0.839, 0.839, 0.545, 331.181, 522.499)" fill="#4adede"/>
    </g>
  </g>
</svg>
