<svg xmlns="http://www.w3.org/2000/svg" xmlns:xlink="http://www.w3.org/1999/xlink" width="45.792" height="36.444" viewBox="0 0 45.792 36.444">
  <defs>
    <linearGradient id="linear-gradient" x1="0.5" x2="0.5" y2="1" gradientUnits="objectBoundingBox">
      <stop offset="0" stop-color="#4adede"/>
      <stop offset="1" stop-color="#6172d6"/>
    </linearGradient>
  </defs>
  <g id="Group_1273" data-name="Group 1273" transform="translate(0)">
    <path id="Union_5" data-name="Union 5" d="M43.57,36.263c-2.42-.734-4.843-1.464-7.258-2.213a1.106,1.106,0,0,0-.883.082,17.929,17.929,0,0,1-14.44.752,1.055,1.055,0,0,0-.7.018,14.376,14.376,0,0,1-11.919-.271,1.234,1.234,0,0,0-.791-.06c-1.916.555-3.82,1.148-5.731,1.717a1.349,1.349,0,0,1-1.825-1,2.072,2.072,0,0,1,.09-.916c.552-1.871,1.133-3.731,1.678-5.6a1.138,1.138,0,0,0-.045-.749A14.334,14.334,0,0,1,10.738,7.948c.555-.16,1.135-.234,1.7-.381a.963.963,0,0,0,.5-.306A18.017,18.017,0,0,1,43.415,26.228a.878.878,0,0,0-.054.583c.768,2.581,1.553,5.159,2.335,7.737a1.24,1.24,0,0,0,.1.192v.717c-.435.7-.753.986-1.288.986A3.347,3.347,0,0,1,43.57,36.263ZM8.946,31.8a11.517,11.517,0,0,0,4.878,1.468A10.875,10.875,0,0,0,17.186,33c-7.375-5.876-9.53-13.216-6.448-22.135,0,0,0,0-.008,0a.065.065,0,0,0-.04,0c-.057.015-.112.038-.167.059A11.346,11.346,0,0,0,6.032,14,11.491,11.491,0,0,0,4.482,27.27a1.914,1.914,0,0,1,.163,1.663c-.236.657-.417,1.334-.617,2-.19.634-.378,1.267-.583,1.959.186-.045.3-.065.408-.1,1.24-.373,2.482-.737,3.718-1.123a1.9,1.9,0,0,1,.568-.093A1.606,1.606,0,0,1,8.946,31.8ZM23.463,3.291A15.146,15.146,0,0,0,12.23,16.355a14.568,14.568,0,0,0,4.514,12.58A15.083,15.083,0,0,0,34.9,31.29a1.617,1.617,0,0,1,1.331-.135c.936.294,1.878.572,2.82.858L42.34,33c-.632-2.086-1.226-4.067-1.836-6.043a1.764,1.764,0,0,1,.154-1.458A15.106,15.106,0,0,0,42.4,15.487,15.329,15.329,0,0,0,27.358,2.765,14.673,14.673,0,0,0,23.463,3.291ZM21.186,24.5a1.382,1.382,0,1,1,.033-2.753c1.358-.005,2.713,0,4.069,0,1.327,0,2.655,0,3.98,0a1.384,1.384,0,1,1,.057,2.753q-2.1.009-4.205.009Q23.154,24.514,21.186,24.5Zm.05-5.084a1.4,1.4,0,0,1-1.508-1.174,1.352,1.352,0,0,1,.953-1.523,2.162,2.162,0,0,1,.617-.064q3.04-.005,6.077,0c2.086,0,4.171-.005,6.257,0a1.367,1.367,0,0,1,.545,2.633,1.97,1.97,0,0,1-.7.124q-3.708.006-7.415.006Q23.651,19.424,21.236,19.421Zm0-5.09a1.4,1.4,0,0,1-1.511-1.222,1.358,1.358,0,0,1,1.008-1.488,2.275,2.275,0,0,1,.575-.053q3.039-.005,6.078,0t6.078,0a1.393,1.393,0,1,1,.017,2.765l-6.122,0Z" fill="url(#linear-gradient)"/>
  </g>
</svg>
