<svg xmlns="http://www.w3.org/2000/svg" width="36.173" height="36.173" viewBox="0 0 36.173 36.173">
  <g id="Group_1241" data-name="Group 1241" transform="translate(-15.129 -15)">
    <path id="Path_134" data-name="Path 134" d="M34.848,50.673H31.584a2.331,2.331,0,0,1-2.329-2.328V45.764a1.174,1.174,0,0,0-.714-1.09l-.179-.077a1.192,1.192,0,0,0-1.309.252l-1.827,1.827a2.332,2.332,0,0,1-3.293,0l-2.308-2.308a2.331,2.331,0,0,1,0-3.293l1.9-1.9a1.207,1.207,0,0,0,.249-1.316l-.019-.046a1.2,1.2,0,0,0-1.111-.766H17.957a2.331,2.331,0,0,1-2.328-2.328V31.454a2.331,2.331,0,0,1,2.328-2.328h2.716a1.206,1.206,0,0,0,1.111-.763l.012-.029a1.206,1.206,0,0,0-.25-1.316l-1.92-1.92a2.331,2.331,0,0,1,0-3.293L21.934,19.5a2.332,2.332,0,0,1,3.293,0l1.867,1.868a1.2,1.2,0,0,0,1.337.24l.08-.034a1.2,1.2,0,0,0,.745-1.1v-2.64A2.331,2.331,0,0,1,31.584,15.5h3.264a2.331,2.331,0,0,1,2.329,2.328V20.34a1.185,1.185,0,0,0,.743,1.1l.233.094a1.171,1.171,0,0,0,1.278-.265L41.2,19.5a2.331,2.331,0,0,1,3.293,0L46.8,21.8a2.331,2.331,0,0,1,0,3.293l-1.7,1.7a1.182,1.182,0,0,0-.257,1.3q.068.156.132.313a1.181,1.181,0,0,0,1.092.718h2.4A2.331,2.331,0,0,1,50.8,31.454v3.264a2.331,2.331,0,0,1-2.328,2.328H46.1a1.179,1.179,0,0,0-1.094.723h0q-.067.168-.139.333a1.181,1.181,0,0,0,.259,1.293l1.68,1.68a2.331,2.331,0,0,1,0,3.293L44.5,46.676a2.328,2.328,0,0,1-3.293,0l-1.732-1.732a1.169,1.169,0,0,0-1.279-.264c-.092.038-.184.076-.277.112a1.183,1.183,0,0,0-.739,1.1v2.453A2.331,2.331,0,0,1,34.848,50.673Zm-6.96-7.315a2.32,2.32,0,0,1,.93.2l.163.07a2.309,2.309,0,0,1,1.413,2.14v2.581a1.191,1.191,0,0,0,1.19,1.19h3.264a1.191,1.191,0,0,0,1.19-1.19V45.892A2.328,2.328,0,0,1,37.5,43.73q.127-.05.252-.1a2.3,2.3,0,0,1,2.523.51l1.732,1.732a1.19,1.19,0,0,0,1.683,0L46,43.563a1.191,1.191,0,0,0,0-1.683L44.32,40.2a2.327,2.327,0,0,1-.5-2.552q.065-.151.127-.3A2.3,2.3,0,0,1,46.1,35.907h2.374a1.191,1.191,0,0,0,1.19-1.19V31.454a1.191,1.191,0,0,0-1.19-1.19h-2.4a2.3,2.3,0,0,1-2.147-1.429q-.058-.143-.12-.285a2.328,2.328,0,0,1,.495-2.56l1.7-1.7a1.191,1.191,0,0,0,0-1.683L43.692,20.3a1.191,1.191,0,0,0-1.683,0l-1.773,1.774a2.308,2.308,0,0,1-2.517.513l-.212-.085a2.331,2.331,0,0,1-1.469-2.163V17.828a1.191,1.191,0,0,0-1.19-1.19H31.584a1.191,1.191,0,0,0-1.19,1.19v2.64a2.339,2.339,0,0,1-1.442,2.152l-.07.03a2.336,2.336,0,0,1-2.593-.481L24.422,20.3a1.192,1.192,0,0,0-1.683,0L20.431,22.61a1.192,1.192,0,0,0,0,1.683l1.92,1.92a2.343,2.343,0,0,1,.495,2.561l-.535-.195.527.216a2.341,2.341,0,0,1-2.164,1.47H17.957a1.191,1.191,0,0,0-1.19,1.19v3.264a1.191,1.191,0,0,0,1.19,1.19h2.691a2.339,2.339,0,0,1,2.168,1.481l.011.028a2.347,2.347,0,0,1-.494,2.562l-1.9,1.9a1.192,1.192,0,0,0,0,1.683l2.308,2.308a1.191,1.191,0,0,0,1.683,0l1.827-1.827A2.316,2.316,0,0,1,27.888,43.359Z" transform="translate(0 0)" fill="#fff" stroke="#fff" stroke-width="1"/>
    <path id="Path_135" data-name="Path 135" d="M83.71,89.4A5.689,5.689,0,1,1,89.4,83.71,5.7,5.7,0,0,1,83.71,89.4Zm0-10.239a4.55,4.55,0,1,0,4.55,4.55A4.556,4.556,0,0,0,83.71,79.16Z" transform="translate(-50.552 -50.657)" fill="#fff" stroke="#fff" stroke-width="1"/>
  </g>
</svg>
