<svg xmlns="http://www.w3.org/2000/svg" width="37.272" height="37.272" viewBox="0 0 37.272 37.272">
  <g id="Group_1240" data-name="Group 1240" transform="translate(-24.128 -24.128)">
    <path id="Path_132" data-name="Path 132" d="M42.764,60.9A18.136,18.136,0,1,1,60.9,42.764,18.157,18.157,0,0,1,42.764,60.9Zm0-34.967A16.831,16.831,0,1,0,59.6,42.764,16.85,16.85,0,0,0,42.764,25.933Z" fill="#fff" stroke="#fff" stroke-width="1"/>
    <g id="Group_230" data-name="Group 230" transform="translate(38.275 32.01)">
      <path id="Path_133" data-name="Path 133" d="M91.16,70.777a5.507,5.507,0,0,1,.962-1.522,18.545,18.545,0,0,1,1.493-1.436,12.351,12.351,0,0,0,1.823-1.91,3.329,3.329,0,0,0,.589-2,3.127,3.127,0,0,0-1.215-2.584,4.007,4.007,0,0,0-3.419-.862,4.923,4.923,0,0,0-2.479,1.684,1.056,1.056,0,0,1-1.226.073h0a1.067,1.067,0,0,1-.072-1.456A5.549,5.549,0,0,1,91.548,58.6a6.654,6.654,0,0,1,4.81,1.35A4.326,4.326,0,0,1,98.152,63.6a5.244,5.244,0,0,1-.388,2.082,5.645,5.645,0,0,1-.948,1.536,19.572,19.572,0,0,1-1.479,1.464,12.186,12.186,0,0,0-1.838,2,3.355,3.355,0,0,0-.527,1.3,1.056,1.056,0,0,1-1.036.865h0A1.054,1.054,0,0,1,90.9,71.568,4.371,4.371,0,0,1,91.16,70.777Zm-.388,7.8a1.459,1.459,0,0,1-.431-1.048,1.4,1.4,0,0,1,.431-1.048,1.472,1.472,0,0,1,1.063-.416,1.508,1.508,0,0,1,1.091.416,1.4,1.4,0,0,1,.431,1.048,1.434,1.434,0,0,1-.445,1.048,1.466,1.466,0,0,1-1.077.445A1.42,1.42,0,0,1,90.772,78.573Z" transform="translate(-87.365 -58.561)" fill="#fff" stroke="#fff" stroke-width="1"/>
    </g>
  </g>
</svg>
