<svg xmlns="http://www.w3.org/2000/svg" width="41.29" height="42.58" viewBox="0 0 41.29 42.58">
  <g id="Group_1348" data-name="Group 1348" transform="translate(318.123 -154.17)">
    <path id="Path_424" data-name="Path 424" d="M-276.866,161.822a7.387,7.387,0,0,0-4.366-6.872,16.58,16.58,0,0,0-2.266-.78h-27.962a1.316,1.316,0,0,1-.273.121,7.654,7.654,0,0,0-6.379,7.826q-.023,8.841,0,17.679a7.715,7.715,0,0,0,7.919,7.92c.671,0,1.342,0,2.04,0-.129,1.021-.248,1.941-.36,2.865q-.284,2.322-.559,4.643a1.265,1.265,0,0,0,.636,1.345,1.275,1.275,0,0,0,1.481-.133l.489-.354c3.663-2.664,7.322-5.335,11-7.978a2.154,2.154,0,0,1,1.165-.371c3.274-.03,6.548.006,9.822-.024a7.709,7.709,0,0,0,7.623-7.68C-276.837,173.962-276.811,167.892-276.866,161.822Zm-2.558,17.732A5.223,5.223,0,0,1-285,185.126c-2.191.006-4.383-.008-6.574.008a1.56,1.56,0,0,1-.422-.039l-3.809.015c-1.23.89-2.456,1.788-3.686,2.682q-2.93,2.133-5.861,4.266c-.18.13-.366.248-.76.515.223-1.817.423-3.432.619-5.046.085-.7.18-1.4.239-2.1a2.236,2.236,0,0,0,.009-.282l-2.667.011c0,.009-.008.02-.012.03-.212-.012-.424-.021-.638-.027h-.036a18.546,18.546,0,0,1-2.971-.214,4.992,4.992,0,0,1-3.953-4.9q-.057-9.1,0-18.211a5.141,5.141,0,0,1,5.365-5.084c4.911-.017,9.822,0,14.735,0q5.213,0,10.427,0a5.221,5.221,0,0,1,5.573,5.579Q-279.414,170.94-279.423,179.554Z" fill="#f6f9fc"/>
    <path id="Path_425" data-name="Path 425" d="M-271.675,239.168a3.918,3.918,0,0,0-3.918,3.857,3.927,3.927,0,0,0,3.845,3.934,3.935,3.935,0,0,0,3.921-3.86A3.932,3.932,0,0,0-271.675,239.168Zm-.07,5.141a1.213,1.213,0,0,1-1.221-1.315,1.215,1.215,0,0,1,1.283-1.181,1.236,1.236,0,0,1,1.234,1.242A1.235,1.235,0,0,1-271.744,244.309Z" transform="translate(-36.089 -72.126)" fill="#f6f9fc"/>
    <path id="Path_426" data-name="Path 426" d="M-135.359,239.173a3.922,3.922,0,0,0-3.959,3.753,3.921,3.921,0,0,0,3.831,4.037,3.909,3.909,0,0,0,3.915-3.8A3.9,3.9,0,0,0-135.359,239.173Zm-.115,5.141a1.251,1.251,0,0,1-1.237-1.246,1.243,1.243,0,0,1,1.308-1.248,1.218,1.218,0,0,1,1.224,1.245A1.224,1.224,0,0,1-135.474,244.314Z" transform="translate(-151.726 -72.129)" fill="#f6f9fc"/>
    <path id="Path_427" data-name="Path 427" d="M-203.474,239.17a3.885,3.885,0,0,0-3.847,3.927,3.893,3.893,0,0,0,3.836,3.865,3.89,3.89,0,0,0,3.884-3.968A3.89,3.89,0,0,0-203.474,239.17Zm.041,5.143a1.255,1.255,0,0,1-1.307-1.257,1.255,1.255,0,0,1,1.251-1.24,1.261,1.261,0,0,1,1.31,1.26A1.26,1.26,0,0,1-203.433,244.313Z" transform="translate(-94.022 -72.127)" fill="#f6f9fc"/>
  </g>
</svg>
