<svg id="Icon_feather-video" data-name="Icon feather-video" xmlns="http://www.w3.org/2000/svg" xmlns:xlink="http://www.w3.org/1999/xlink" width="44.65" height="29.4" viewBox="0 0 44.65 29.4">
  <defs>
    <linearGradient id="linear-gradient" x1="0.5" x2="0.5" y2="1" gradientUnits="objectBoundingBox">
      <stop offset="0" stop-color="#4adede"/>
      <stop offset="1" stop-color="#6172d6"/>
    </linearGradient>
  </defs>
  <path id="Union_4" data-name="Union 4" d="M5.171,29.4A5.176,5.176,0,0,1,0,24.23V5.169A5.175,5.175,0,0,1,5.171,0H26.136a5.175,5.175,0,0,1,5.171,5.169v6.891l11.2-8a1.357,1.357,0,0,1,2.147,1.1V24.23a1.359,1.359,0,0,1-2.147,1.1l-11.2-8V24.23A5.176,5.176,0,0,1,26.136,29.4ZM2.716,5.169V24.23a2.458,2.458,0,0,0,2.456,2.454H26.136a2.457,2.457,0,0,0,2.456-2.454V5.169a2.456,2.456,0,0,0-2.456-2.454H5.171A2.457,2.457,0,0,0,2.716,5.169ZM32.285,14.7l9.649,6.892V7.808Z" fill="url(#linear-gradient)"/>
</svg>
