<svg xmlns="http://www.w3.org/2000/svg" width="206.676" height="206.676" viewBox="0 0 206.676 206.676">
  <defs>
    <style>
      .cls-1 {
        fill: #fff;
      }

      .cls-2 {
        fill: #393939;
      }

      .cls-3 {
        fill: #343434;
      }

      .cls-4 {
        fill: #141414;
      }

      .cls-5 {
        fill: #3c3c3b;
      }

      .cls-6 {
        fill: #8b8b8b;
      }
    </style>
  </defs>
  <g id="Group_634" data-name="Group 634" transform="translate(0 0)">
    <ellipse id="Ellipse_65" data-name="Ellipse 65" class="cls-1" cx="103.338" cy="103.338" rx="103.338" ry="103.338" transform="translate(0 0)"/>
    <g id="Group_633" data-name="Group 633" transform="translate(50.037 16.534)">
      <path id="Path_357" data-name="Path 357" class="cls-2" d="M3969.268,3685.949a.125.125,0,0,0,.073-.009,3.843,3.843,0,0,1,1.208-.614q3.488-1.6,6.982-3.183,3.068-1.4,6.136-2.792,3.527-1.613,7.061-3.214,2.988-1.358,5.98-2.721,3.552-1.613,7.1-3.222c2.008-.917,4.014-1.825,6.022-2.741q3.51-1.6,7.024-3.186c1.723-.795,3.443-1.57,5.171-2.356.181-.082.351-.26.591-.139a.526.526,0,0,1,.054.139,4.668,4.668,0,0,1,.014.594v54.216a1.3,1.3,0,0,1-.116.787c-1.6-.942-3.213-1.876-4.817-2.829q-20.594-12.166-41.2-24.349-3.645-2.16-7.287-4.3Z" transform="translate(-3969.268 -3597.568)"/>
      <path id="Path_358" data-name="Path 358" class="cls-3" d="M4141.743,3574.324v-55.362c0-.125.006-.255.006-.374a2.149,2.149,0,0,1-.042-.555v-62.746c0-.237-.116-.538.189-.7q1.736,2.834,3.448,5.675,24.693,40.987,49.385,81.959c.107.181.2.368.311.549-.24.122-.45-.037-.631-.116-1.36-.62-2.715-1.228-4.065-1.845q-4-1.824-7.983-3.635-4-1.811-7.969-3.618c-2.676-1.225-5.378-2.458-8.06-3.669q-3.921-1.8-7.854-3.567-4.031-1.846-8.107-3.686c-2.614-1.188-5.217-2.376-7.831-3.567a2.434,2.434,0,0,1-.232-.113c-.227-.1-.356-.054-.356.22v.461q0,26.907-.014,53.812c0,.274.079.571-.107.826C4141.813,3574.313,4141.808,3574.352,4141.743,3574.324Z" transform="translate(-4088.435 -3454.397)"/>
      <path id="Path_359" data-name="Path 359" class="cls-4" d="M4142.137,3717.753v-55.065c0-.6,0-.6.58-.337,3.069,1.395,6.127,2.795,9.2,4.184,2.021.925,4.057,1.858,6.1,2.784,2.934,1.333,5.879,2.656,8.817,3.995q2.517,1.15,5.047,2.308,3.628,1.638,7.242,3.287c1.684.767,3.361,1.539,5.053,2.3q3.539,1.608,7.084,3.216c1.3.585,2.6,1.177,3.9,1.768a.862.862,0,0,0,.192.063c.012.234-.212.24-.336.314q-13.364,7.905-26.733,15.811-12.74,7.528-25.464,15.056A1.492,1.492,0,0,1,4142.137,3717.753Z" transform="translate(-4088.746 -3597.887)"/>
      <path id="Path_360" data-name="Path 360" class="cls-5" d="M4141.645,3805q5.576-3.3,11.141-6.6,15.806-9.323,31.6-18.648c3.327-1.963,6.667-3.932,9.992-5.9.119-.068.209-.2.374-.156-.009.164-.119.246-.2.356q-26.309,37.074-52.632,74.149c-.107.133-.119.379-.374.356a1.46,1.46,0,0,1-.136-.7q0-21.073.012-42.126C4141.422,3805.479,4141.365,3805.191,4141.645,3805Z" transform="translate(-4088.244 -3674.959)"/>
      <path id="Path_361" data-name="Path 361" class="cls-6" d="M4022.756,3804.7a1.089,1.089,0,0,0-.073.62q0,21.183-.009,42.349c0,.192-.014.4-.017.588-.752-.925-1.4-1.915-2.087-2.88q-9.106-12.832-18.207-25.658-9.085-12.807-18.159-25.6-7.239-10.206-14.481-20.405c-.077-.116-.156-.234-.312-.458.312.169.526.277.736.4q15.692,9.275,31.384,18.555,10.43,6.17,20.872,12.334A2.563,2.563,0,0,0,4022.756,3804.7Z" transform="translate(-3969.364 -3674.652)"/>
      <path id="Path_362" data-name="Path 362" class="cls-2" d="M4141.709,3454.171c-.13.156-.065.354-.065.523q0,31.465-.008,62.9c0,.192.065.4-.071.577v-.006a.6.6,0,0,1-.147-.427c-.006-.172-.006-.339-.006-.515v-62.183a2.2,2.2,0,0,1,.153-1.038l.079-.02Z" transform="translate(-4088.245 -3453.984)"/>
      <path id="Path_363" data-name="Path 363" class="cls-6" d="M4022.755,3454.051v64c0,.057,0,.11-.006.175-2.509,1.14-5,2.289-7.511,3.435-2.653,1.21-5.3,2.4-7.949,3.612q-6.866,3.111-13.737,6.232-4.791,2.186-9.6,4.368-7.107,3.25-14.229,6.478a1.067,1.067,0,0,1-.2.054c.792-1.332,1.576-2.676,2.376-4.005q10.176-16.906,20.374-33.814,13.011-21.578,26.021-43.178c1.432-2.379,2.854-4.75,4.294-7.121A2.2,2.2,0,0,1,4022.755,3454.051Z" transform="translate(-3969.443 -3454.031)"/>
    </g>
  </g>
</svg>
