<svg xmlns="http://www.w3.org/2000/svg" xmlns:xlink="http://www.w3.org/1999/xlink" width="18.07" height="22.717" viewBox="0 0 18.07 22.717">
  <defs>
    <linearGradient id="linear-gradient" x1="0.5" x2="0.5" y2="1" gradientUnits="objectBoundingBox">
      <stop offset="0" stop-color="#4adede"/>
      <stop offset="1" stop-color="#6172d6"/>
    </linearGradient>
  </defs>
  <path id="Path_795" data-name="Path 795" d="M-851.139,152.333H-852.7l-.033-.008-.063-.016a.594.594,0,0,0-.072-.018c-.12-.016-.242-.029-.363-.043-.235-.026-.477-.053-.717-.1a6.958,6.958,0,0,1-4.756-3.046c-1.057-1.59-2.125-3.21-3.158-4.778l-.833-1.262a2.655,2.655,0,0,1-.183-.336,1.86,1.86,0,0,1,.427-2.171,1.812,1.812,0,0,1,1.371-.407,1.848,1.848,0,0,1,1.271.716c.4.521.794,1.061,1.173,1.583l.22.3v-9.617c0-.1,0-.2.008-.3a1.53,1.53,0,0,1,.579-1.085,1.517,1.517,0,0,1,1.18-.314,1.537,1.537,0,0,1,1.318,1.619v6.1a.811.811,0,0,0,.023.208c.021.08.052.1.136.1h0c.082,0,.112-.023.132-.1a1.032,1.032,0,0,0,.025-.251q0-2.023,0-4.045v-2.707c0-.4,0-.807.01-1.213a1.519,1.519,0,0,1,1.443-1.432,1.546,1.546,0,0,1,1.148.419,1.6,1.6,0,0,1,.478,1.173q0,2.185,0,4.37v3.458a.934.934,0,0,0,.021.229c.018.066.049.106.148.1a.125.125,0,0,0,.129-.122,1.335,1.335,0,0,0,.014-.215q0-1.457,0-2.914v-3.814a5.108,5.108,0,0,1,.023-.519,1.52,1.52,0,0,1,1.326-1.3,1.589,1.589,0,0,1,1.234.383,1.694,1.694,0,0,1,.511,1.274q0,3.362,0,6.723v1.109a.763.763,0,0,0,0,.125.163.163,0,0,0,.112.13.1.1,0,0,0,.109-.025.385.385,0,0,0,.07-.22c.006-1.192.006-2.4.006-3.568V134.91a3.53,3.53,0,0,1,.033-.487,1.541,1.541,0,0,1,1.216-1.278,1.563,1.563,0,0,1,1.626.736,2.147,2.147,0,0,1,.224,1.135q0,1.834,0,3.669c0,2.366,0,4.814-.006,7.221a8.929,8.929,0,0,1-.126,1.457,5.664,5.664,0,0,1-4.733,4.8c-.26.047-.523.085-.777.121l-.355.052Zm-1.494-.532h1.454l.339-.05c.251-.036.508-.073.758-.118a5.151,5.151,0,0,0,4.3-4.365,8.4,8.4,0,0,0,.117-1.37c.006-2.407.006-4.853.006-7.22v-3.67a1.645,1.645,0,0,0-.151-.866,1.024,1.024,0,0,0-1.067-.482,1,1,0,0,0-.791.83,3,3,0,0,0-.028.413v1.605c0,1.17,0,2.38-.006,3.571a.894.894,0,0,1-.221.589.627.627,0,0,1-.648.161.69.69,0,0,1-.477-.548,1.173,1.173,0,0,1-.012-.219v-7.826a1.17,1.17,0,0,0-.338-.878,1.05,1.05,0,0,0-.827-.245.994.994,0,0,0-.844.829,4.624,4.624,0,0,0-.02.466v6.727a1.854,1.854,0,0,1-.021.3.659.659,0,0,1-.627.565.646.646,0,0,1-.686-.5,1.43,1.43,0,0,1-.04-.366v-7.827a1.079,1.079,0,0,0-.314-.79,1.02,1.02,0,0,0-.758-.271.991.991,0,0,0-.934.918c-.013.4-.011.8-.01,1.192v6.754a1.536,1.536,0,0,1-.041.385.634.634,0,0,1-.651.5.642.642,0,0,1-.648-.5,1.329,1.329,0,0,1-.04-.344c0-1.991,0-4.044,0-6.1a1,1,0,0,0-.865-1.092.991.991,0,0,0-.771.2,1,1,0,0,0-.376.712c-.006.079-.006.162-.006.251v11.2l-.476-.618-.076-.1c-.043-.055-.077-.1-.109-.142q-.262-.356-.521-.713c-.376-.519-.768-1.055-1.165-1.568a1.321,1.321,0,0,0-.908-.512,1.285,1.285,0,0,0-.972.287,1.333,1.333,0,0,0-.285,1.536,2.163,2.163,0,0,0,.145.269l.833,1.263c1.033,1.568,2.1,3.187,3.157,4.776a6.445,6.445,0,0,0,4.407,2.817c.222.04.445.063.681.092.125.014.251.028.372.044a1,1,0,0,1,.151.034Z" transform="translate(863.146 -129.67)" stroke="#fff" stroke-width="0.1" fill="url(#linear-gradient)"/>
</svg>
