<svg xmlns="http://www.w3.org/2000/svg" width="34" height="33.944" viewBox="0 0 34 33.944">
  <g id="Group_1684" data-name="Group 1684" transform="translate(443 -152.627)">
    <path id="Path_685" data-name="Path 685" d="M-409,167.415c-.032.1-.067.2-.1.308a3.505,3.505,0,0,1-2.464,2.542l-.253.077c-.009,0-.015.013-.043.038,0,1.13-.005,2.277,0,3.425a.727.727,0,0,1-.388.771.733.733,0,0,1-.842-.2q-2.24-1.921-4.492-3.827a.57.57,0,0,0-.312-.148c-.474-.016-.949-.007-1.471-.007v.4q0,3.959,0,7.918a3.5,3.5,0,0,1-3.618,3.614c-3.651,0-7.3,0-10.952.009a.937.937,0,0,0-.552.209c-1.5,1.257-2.984,2.53-4.475,3.8-.1.085-.215.153-.323.229h-.4a.839.839,0,0,1-.47-.865c.019-1.137.007-2.274.007-3.389-.027-.028-.033-.039-.041-.042l-.253-.078a3.52,3.52,0,0,1-2.477-2.574c-.026-.093-.057-.185-.086-.277v-11.8c.049-.166.1-.332.147-.5a3.524,3.524,0,0,1,3.327-2.482c2.158-.007,4.315,0,6.473,0h.413v-.4q0-3.96,0-7.92a3.5,3.5,0,0,1,3.616-3.616q2.589,0,5.179,0a.656.656,0,0,1,.692.54.662.662,0,0,1-.456.751,1.341,1.341,0,0,1-.361.029q-2.473,0-4.946,0a2.224,2.224,0,0,0-2.4,2.4q0,5.169,0,10.338a2.221,2.221,0,0,0,2.384,2.378q5.61,0,11.22,0a1.152,1.152,0,0,1,.81.3c1.154,1,2.32,1.981,3.482,2.969.057.048.116.092.215.171.007-.137.016-.23.016-.323,0-.806,0-1.613,0-2.419a.642.642,0,0,1,.648-.688,2.214,2.214,0,0,0,2.207-2.391q0-5.169,0-10.338a2.219,2.219,0,0,0-2.377-2.386q-2.54,0-5.079,0a.584.584,0,0,1-.633-.38.888.888,0,0,1,.053-.644.745.745,0,0,1,.545-.288c1.848-.02,3.7-.032,5.543,0a3.5,3.5,0,0,1,3.2,2.762,1.885,1.885,0,0,0,.073.21Zm-21.034,2.952c.023.065.056.166.094.266q1.173,3.108,2.345,6.216a.673.673,0,0,1-.363.932.676.676,0,0,1-.889-.463c-.145-.369-.289-.739-.413-1.115a.315.315,0,0,0-.363-.242q-1.56.014-3.12,0a.317.317,0,0,0-.355.254q-.2.578-.43,1.145a.669.669,0,0,1-.884.418.661.661,0,0,1-.358-.906c.976-2.572,1.958-5.142,2.95-7.745a4.141,4.141,0,0,1-.816-3.237h-6.591c-.122,0-.244,0-.365.006a2.2,2.2,0,0,0-2.08,2.243q-.011,5.3,0,10.6a2.2,2.2,0,0,0,1.968,2.247c.814.118.887.2.887,1.031v2.427c.136-.108.222-.171.3-.24,1.137-.967,2.276-1.93,3.405-2.906a1.151,1.151,0,0,1,.808-.3q5.61.012,11.22,0a2.219,2.219,0,0,0,2.392-2.371q0-3.943,0-7.886v-.381Zm-1.134.81-1.316,3.454h2.618Z" fill="#5a5a5a"/>
    <path id="Path_686" data-name="Path 686" d="M-244.454,193.558c1.217,0,2.378,0,3.54,0a1.914,1.914,0,0,1,.363.023.647.647,0,0,1,.545.618.628.628,0,0,1-.517.67,3.351,3.351,0,0,1-.626.04c-.552,0-1.1,0-1.693,0a7.365,7.365,0,0,1-1.386,4.232,5.918,5.918,0,0,0,2.855,1.552c.193.045.393.062.585.109a.648.648,0,0,1,.538.779.663.663,0,0,1-.792.526,7.231,7.231,0,0,1-3.862-1.758c-.058-.051-.118-.1-.177-.149-.007-.006-.02-.005-.053-.013-.166.138-.34.289-.522.43a7.159,7.159,0,0,1-3.494,1.482.679.679,0,0,1-.848-.572.687.687,0,0,1,.669-.752,5.441,5.441,0,0,0,2.114-.727c.421-.255.811-.562,1.237-.861a7.383,7.383,0,0,1-1.409-4.258c-.125-.007-.241-.018-.357-.019-.564,0-1.129,0-1.693,0-.5-.007-.8-.279-.791-.7.009-.4.307-.653.795-.655,1.085,0,2.169,0,3.254,0h.4c0-.553,0-1.08,0-1.607a.687.687,0,0,1,.672-.774.684.684,0,0,1,.653.76C-244.452,192.465-244.454,192.992-244.454,193.558Zm-1.6,1.372a5.927,5.927,0,0,0,.943,3.116,5.872,5.872,0,0,0,.919-3.116Z" transform="translate(-175.703 -35.136)" fill="#5a5a5a"/>
    <path id="Path_687" data-name="Path 687" d="M-198.659,153.4a.656.656,0,0,1-.7.63.656.656,0,0,1-.623-.707.654.654,0,0,1,.683-.614A.654.654,0,0,1-198.659,153.4Z" transform="translate(-221.499 -0.078)" fill="#5a5a5a"/>
  </g>
</svg>
