<svg xmlns="http://www.w3.org/2000/svg" xmlns:xlink="http://www.w3.org/1999/xlink" width="127" height="25" viewBox="0 0 127 25">
  <defs>
    <linearGradient id="linear-gradient" y1="0.5" x2="1" y2="0.5" gradientUnits="objectBoundingBox">
      <stop offset="0" stop-color="#10174b"/>
      <stop offset="1" stop-color="#003e92"/>
    </linearGradient>
  </defs>
  <g id="Group_1684" data-name="Group 1684" transform="translate(-1547 -733)">
    <g id="Rectangle_515" data-name="Rectangle 515" transform="translate(1547 733)" fill="#fff" stroke="#eaeaea" stroke-width="1">
      <rect width="40" height="25" rx="4" stroke="none"/>
      <rect x="0.5" y="0.5" width="39" height="24" rx="3.5" fill="none"/>
    </g>
    <g id="Rectangle_516" data-name="Rectangle 516" transform="translate(1590 733)" fill="#fff" stroke="#eaeaea" stroke-width="1">
      <rect width="40" height="25" rx="4" stroke="none"/>
      <rect x="0.5" y="0.5" width="39" height="24" rx="3.5" fill="none"/>
    </g>
    <g id="Rectangle_517" data-name="Rectangle 517" transform="translate(1634 733)" fill="#fff" stroke="#eaeaea" stroke-width="1">
      <rect width="40" height="25" rx="4" stroke="none"/>
      <rect x="0.5" y="0.5" width="39" height="24" rx="3.5" fill="none"/>
    </g>
    <path id="Path_591" data-name="Path 591" d="M509.829,319.68l-4.358,10.4h-2.843l-2.145-8.3a1.138,1.138,0,0,0-.639-.913,11.254,11.254,0,0,0-2.654-.885l.063-.3h4.577a1.253,1.253,0,0,1,1.24,1.06l1.133,6.017,2.8-7.077Zm11.141,7c.012-2.744-3.794-2.9-3.768-4.121.008-.373.363-.769,1.141-.871a5.076,5.076,0,0,1,2.652.465l.473-2.2a7.229,7.229,0,0,0-2.517-.461c-2.658,0-4.53,1.413-4.545,3.437-.018,1.5,1.335,2.332,2.355,2.83,1.047.509,1.4.836,1.395,1.292-.008.7-.836,1.006-1.61,1.018a5.625,5.625,0,0,1-2.763-.657l-.487,2.279a8.147,8.147,0,0,0,2.991.552c2.826,0,4.674-1.4,4.683-3.558m7.021,3.4h2.488l-2.171-10.4h-2.3a1.224,1.224,0,0,0-1.145.763l-4.036,9.635h2.824l.561-1.553h3.45Zm-3-3.684,1.416-3.9.815,3.9Zm-11.316-6.713-2.224,10.4h-2.69l2.225-10.4Z" transform="translate(1052.155 420.635)" fill="url(#linear-gradient)"/>
    <g id="Group_1680" data-name="Group 1680" transform="translate(1643.344 736.636)">
      <path id="Path_592" data-name="Path 592" d="M99.566,28.015H93.389v-11.1h6.177Z" transform="translate(-85.055 -15.404)" fill="#6c6bbd"/>
      <path id="Path_593" data-name="Path 593" d="M8.726,7.06a7.048,7.048,0,0,1,2.7-5.551,7.06,7.06,0,1,0,0,11.1,7.048,7.048,0,0,1-2.7-5.551" fill="#d32011"/>
      <path id="Path_594" data-name="Path 594" d="M139.42,7.06A7.06,7.06,0,0,1,128,12.611a7.061,7.061,0,0,0,0-11.1A7.06,7.06,0,0,1,139.42,7.06" transform="translate(-116.575)" fill="#0099df"/>
      <path id="Path_595" data-name="Path 595" d="M54.761,171.144a.87.87,0,0,1,.29.051l-.126.384a.66.66,0,0,0-.255-.047c-.267,0-.4.172-.4.482v1.051h-.408v-1.874h.4v.228a.553.553,0,0,1,.494-.275Zm-1.507.42h-.667v.847c0,.188.066.314.271.314a.751.751,0,0,0,.36-.106l.118.349a.956.956,0,0,1-.509.145c-.483,0-.651-.259-.651-.694v-.855H51.8v-.373h.381v-.569h.412v.569h.667v.373Zm-5.22.4a.483.483,0,0,1,.5-.455.466.466,0,0,1,.474.455Zm1.4.165a.9.9,0,0,0-.891-.984.985.985,0,0,0,.028,1.968,1.139,1.139,0,0,0,.768-.263l-.2-.3a.891.891,0,0,1-.545.2.521.521,0,0,1-.561-.459h1.392c0-.051.008-.1.008-.157Zm1.792-.459a1.2,1.2,0,0,0-.584-.161c-.224,0-.357.083-.357.22s.141.161.317.184l.192.027c.408.059.655.232.655.561,0,.357-.314.612-.855.612a1.353,1.353,0,0,1-.812-.243l.192-.318a1,1,0,0,0,.624.2c.278,0,.427-.082.427-.228,0-.106-.106-.165-.329-.2L50.5,172.3c-.42-.059-.647-.247-.647-.553,0-.373.306-.6.781-.6a1.4,1.4,0,0,1,.764.2l-.176.329Zm5.03-.138a.617.617,0,0,0-.234.044.561.561,0,0,0-.187.124.575.575,0,0,0-.124.191.689.689,0,0,0,0,.489.576.576,0,0,0,.124.191.562.562,0,0,0,.187.124.643.643,0,0,0,.468,0,.56.56,0,0,0,.188-.124.571.571,0,0,0,.125-.191.689.689,0,0,0,0-.489.57.57,0,0,0-.125-.191.559.559,0,0,0-.188-.124.616.616,0,0,0-.234-.044Zm0-.387a1.055,1.055,0,0,1,.4.076.98.98,0,0,1,.321.208.953.953,0,0,1,.212.313,1.046,1.046,0,0,1,0,.786.956.956,0,0,1-.212.314.988.988,0,0,1-.321.208,1.12,1.12,0,0,1-.808,0,.977.977,0,0,1-.32-.208.966.966,0,0,1-.211-.314,1.046,1.046,0,0,1,0-.786.956.956,0,0,1,.531-.522,1.055,1.055,0,0,1,.4-.076Zm-10.6.984a.568.568,0,1,1,.569.6.563.563,0,0,1-.569-.6Zm1.518,0v-.937h-.408v.228a.711.711,0,0,0-.592-.275.986.986,0,0,0,0,1.969.711.711,0,0,0,.592-.275v.228h.408Zm-2.3.937v-1.177a.7.7,0,0,0-.737-.745.725.725,0,0,0-.659.333.689.689,0,0,0-.62-.333.62.62,0,0,0-.549.278v-.231H41.9v1.874h.412v-1.039a.439.439,0,0,1,.459-.5c.271,0,.408.176.408.494v1.043h.412v-1.039a.442.442,0,0,1,.459-.5c.279,0,.412.176.412.494v1.043Z" transform="translate(-38.16 -155.396)" fill="#110f0d"/>
    </g>
    <g id="Group_1681" data-name="Group 1681" transform="translate(1434.289 262.934)">
      <g id="Group_1681-2" data-name="Group 1681" transform="translate(165.991 488.579)">
        <path id="Path_596" data-name="Path 596" d="M180.327,648.2a.676.676,0,0,0-.228-.15.763.763,0,0,0-.289-.054,1.092,1.092,0,0,0-.173.014.756.756,0,0,0-.176.051.665.665,0,0,0-.164.1.6.6,0,0,0-.135.161.658.658,0,0,0-.25-.24.738.738,0,0,0-.361-.087.841.841,0,0,0-.141.013.641.641,0,0,0-.145.043.573.573,0,0,0-.257.216v-.224h-.384v1.83h.388v-1.014a.546.546,0,0,1,.037-.207.449.449,0,0,1,.1-.152.411.411,0,0,1,.145-.093.494.494,0,0,1,.177-.032.382.382,0,0,1,.3.124.525.525,0,0,1,.108.355v1.018h.388v-1.014a.544.544,0,0,1,.037-.207.447.447,0,0,1,.1-.152.411.411,0,0,1,.145-.093.494.494,0,0,1,.177-.032.382.382,0,0,1,.3.124.525.525,0,0,1,.108.355v1.018h.388v-1.15a.8.8,0,0,0-.053-.294A.672.672,0,0,0,180.327,648.2Z" transform="translate(-177.623 -647.303)" fill="#161615"/>
        <path id="Path_597" data-name="Path 597" d="M215.989,648.268a.716.716,0,0,0-.237-.2.724.724,0,0,0-.338-.074.892.892,0,0,0-.649.271.925.925,0,0,0-.195.3,1.094,1.094,0,0,0,0,.773.927.927,0,0,0,.195.3.892.892,0,0,0,.649.271.731.731,0,0,0,.338-.073.7.7,0,0,0,.237-.195v.22h.4v-1.83h-.4Zm-.015.926a.556.556,0,0,1-.113.185.525.525,0,0,1-.174.123.594.594,0,0,1-.457,0,.516.516,0,0,1-.173-.126.558.558,0,0,1-.109-.186.695.695,0,0,1,0-.454.558.558,0,0,1,.109-.186.516.516,0,0,1,.173-.126.593.593,0,0,1,.457,0,.523.523,0,0,1,.174.123.557.557,0,0,1,.113.185.7.7,0,0,1,0,.466Z" transform="translate(-211.238 -647.303)" fill="#161615"/>
        <path id="Path_598" data-name="Path 598" d="M241.661,648.979a.987.987,0,0,0-.468-.175l-.189-.029q-.063-.01-.118-.022a.386.386,0,0,1-.1-.033.182.182,0,0,1-.064-.053.132.132,0,0,1-.024-.08.182.182,0,0,1,.091-.158.459.459,0,0,1,.255-.06.933.933,0,0,1,.169.015,1.369,1.369,0,0,1,.158.038,1.136,1.136,0,0,1,.239.1l.172-.311a1.174,1.174,0,0,0-.334-.142,1.585,1.585,0,0,0-.407-.051,1.119,1.119,0,0,0-.315.041.724.724,0,0,0-.238.117.509.509,0,0,0-.151.184.555.555,0,0,0-.053.244.451.451,0,0,0,.158.358.879.879,0,0,0,.463.179l.191.025a.6.6,0,0,1,.241.073.151.151,0,0,1,.076.129.183.183,0,0,1-.105.163.641.641,0,0,1-.311.06,1.2,1.2,0,0,1-.2-.015,1.016,1.016,0,0,1-.162-.041.787.787,0,0,1-.132-.059.978.978,0,0,1-.108-.072l-.185.3a.983.983,0,0,0,.208.12,1.445,1.445,0,0,0,.214.072,1.351,1.351,0,0,0,.2.034q.094.009.164.009a1.3,1.3,0,0,0,.352-.044.793.793,0,0,0,.262-.123.546.546,0,0,0,.162-.189.522.522,0,0,0,.056-.242A.437.437,0,0,0,241.661,648.979Z" transform="translate(-234.676 -647.323)" fill="#161615"/>
        <path id="Path_599" data-name="Path 599" d="M283.042,648.266a.782.782,0,0,0-.273-.2.867.867,0,0,0-.35-.07.952.952,0,0,0-.37.07.831.831,0,0,0-.287.2.894.894,0,0,0-.187.3,1.1,1.1,0,0,0-.067.392,1.088,1.088,0,0,0,.069.4.878.878,0,0,0,.193.3.855.855,0,0,0,.3.195,1.01,1.01,0,0,0,.378.069,1.352,1.352,0,0,0,.4-.057,1,1,0,0,0,.356-.2l-.2-.285a.893.893,0,0,1-.253.142.8.8,0,0,1-.276.051.65.65,0,0,1-.187-.027.489.489,0,0,1-.162-.083.5.5,0,0,1-.124-.144.593.593,0,0,1-.071-.212h1.352q0-.034.006-.073t0-.076a1.138,1.138,0,0,0-.064-.391A.92.92,0,0,0,283.042,648.266Zm-1.116.539a.686.686,0,0,1,.054-.182.491.491,0,0,1,.1-.143.413.413,0,0,1,.143-.093.518.518,0,0,1,.19-.032.425.425,0,0,1,.311.118.571.571,0,0,1,.153.332Z" transform="translate(-272.32 -647.303)" fill="#161615"/>
        <path id="Path_600" data-name="Path 600" d="M343.465,648.268a.715.715,0,0,0-.237-.2.724.724,0,0,0-.338-.074.892.892,0,0,0-.649.271.925.925,0,0,0-.195.3,1.094,1.094,0,0,0,0,.773.926.926,0,0,0,.195.3.893.893,0,0,0,.649.271.732.732,0,0,0,.338-.073.7.7,0,0,0,.237-.195v.22h.4v-1.83h-.4Zm-.015.926a.556.556,0,0,1-.113.185.524.524,0,0,1-.174.123.594.594,0,0,1-.457,0,.516.516,0,0,1-.173-.126.558.558,0,0,1-.109-.186.695.695,0,0,1,0-.454.558.558,0,0,1,.109-.186.517.517,0,0,1,.173-.126.593.593,0,0,1,.457,0,.523.523,0,0,1,.174.123.557.557,0,0,1,.113.185.7.7,0,0,1,0,.466Z" transform="translate(-327.439 -647.303)" fill="#161615"/>
        <path id="Path_601" data-name="Path 601" d="M263.109,644.3a.541.541,0,0,1-.19.036.328.328,0,0,1-.114-.019.235.235,0,0,1-.092-.06.291.291,0,0,1-.062-.106.472.472,0,0,1-.023-.157v-.8h.641v-.363h-.641v-.554h-.4v.554h-.365v.363h.365v.8a.733.733,0,0,0,.173.538.654.654,0,0,0,.484.173.862.862,0,0,0,.312-.054,1.3,1.3,0,0,0,.171-.08l-.136-.334A1.039,1.039,0,0,1,263.109,644.3Z" transform="translate(-254.413 -642.087)" fill="#161615"/>
        <path id="Path_602" data-name="Path 602" d="M307.492,648a.732.732,0,0,0-.3.061.646.646,0,0,0-.227.227v-.24H306.6v1.83h.366V648.87a.62.62,0,0,1,.032-.208.448.448,0,0,1,.09-.155.372.372,0,0,1,.137-.1.464.464,0,0,1,.176-.033.78.78,0,0,1,.157.017.645.645,0,0,1,.08.021l.118-.382a.728.728,0,0,0-.1-.024A1,1,0,0,0,307.492,648Z" transform="translate(-295.192 -647.303)" fill="#161615"/>
        <path id="Path_603" data-name="Path 603" d="M370.23,648a.731.731,0,0,0-.3.061.645.645,0,0,0-.227.227v-.24h-.362v1.83h.366V648.87a.621.621,0,0,1,.032-.208.45.45,0,0,1,.09-.155.372.372,0,0,1,.138-.1.464.464,0,0,1,.176-.033.778.778,0,0,1,.157.017.652.652,0,0,1,.08.021l.118-.382a.726.726,0,0,0-.1-.024A1,1,0,0,0,370.23,648Z" transform="translate(-352.381 -647.303)" fill="#161615"/>
        <path id="Path_604" data-name="Path 604" d="M385.164,640.131v.965a.716.716,0,0,0-.237-.2.724.724,0,0,0-.338-.074.893.893,0,0,0-.649.271.926.926,0,0,0-.195.3,1.093,1.093,0,0,0,0,.773.926.926,0,0,0,.195.3.893.893,0,0,0,.649.271.733.733,0,0,0,.338-.073.7.7,0,0,0,.237-.195v.22h.4v-2.573Zm-.015,1.891a.556.556,0,0,1-.113.185.524.524,0,0,1-.174.123.594.594,0,0,1-.457,0,.516.516,0,0,1-.173-.126.559.559,0,0,1-.109-.186.695.695,0,0,1,0-.454.559.559,0,0,1,.109-.186.517.517,0,0,1,.173-.126.593.593,0,0,1,.457,0,.524.524,0,0,1,.174.123.555.555,0,0,1,.113.185.7.7,0,0,1,0,.466Z" transform="translate(-365.45 -640.131)" fill="#161615"/>
        <path id="Path_605" data-name="Path 605" d="M321.575,648.539a.538.538,0,0,1,.181-.12.594.594,0,0,1,.227-.043h0a.712.712,0,0,1,.25.043.6.6,0,0,1,.194.115l.192-.32a.978.978,0,0,0-.243-.142,1.083,1.083,0,0,0-.785,0,.927.927,0,0,0-.517.507,1.016,1.016,0,0,0,0,.764.936.936,0,0,0,.205.3.947.947,0,0,0,.311.2,1.085,1.085,0,0,0,.785,0,.98.98,0,0,0,.243-.142l-.192-.32a.6.6,0,0,1-.194.115.712.712,0,0,1-.25.043h0a.594.594,0,0,1-.227-.043.535.535,0,0,1-.181-.12.559.559,0,0,1-.12-.185.665.665,0,0,1,0-.476A.561.561,0,0,1,321.575,648.539Z" transform="translate(-308.319 -647.303)" fill="#161615"/>
      </g>
      <g id="Group_1682" data-name="Group 1682" transform="translate(186.751 490.884)">
        <path id="Path_606" data-name="Path 606" d="M412.552,666.2a.19.19,0,0,1,.075.015.2.2,0,0,1,.061.04.187.187,0,0,1,.041.059.181.181,0,0,1,0,.145.19.19,0,0,1-.041.06.2.2,0,0,1-.061.04.189.189,0,0,1-.075.015.2.2,0,0,1-.076-.015.193.193,0,0,1-.061-.04.188.188,0,0,1-.041-.06.186.186,0,0,1,0-.145.185.185,0,0,1,.041-.059.192.192,0,0,1,.061-.04A.2.2,0,0,1,412.552,666.2Zm0,.322a.129.129,0,0,0,.052-.011.134.134,0,0,0,.071-.072.138.138,0,0,0,0-.105.133.133,0,0,0-.028-.043.136.136,0,0,0-.043-.029.13.13,0,0,0-.052-.011.134.134,0,0,0-.053.011.139.139,0,0,0-.043.029.131.131,0,0,0-.029.043.139.139,0,0,0,0,.105.132.132,0,0,0,.029.043.135.135,0,0,0,.043.029A.133.133,0,0,0,412.552,666.517Zm.011-.218a.078.078,0,0,1,.052.015.051.051,0,0,1,.018.041.045.045,0,0,1-.013.033.065.065,0,0,1-.037.017l.052.059h-.056l-.046-.058h-.005v.058h-.047V666.3Zm-.036.04v.03h.035a.034.034,0,0,0,.017,0,.012.012,0,0,0,.006-.012.013.013,0,0,0-.006-.012.03.03,0,0,0-.017,0Z" transform="translate(-412.359 -666.195)" fill="#161615"/>
      </g>
      <g id="Group_1683" data-name="Group 1683" transform="translate(164.862 473.875)">
        <path id="Path_607" data-name="Path 607" d="M173.416,480.77a6.881,6.881,0,0,1,2.618-5.407,6.9,6.9,0,1,0,0,10.813A6.881,6.881,0,0,1,173.416,480.77Z" transform="translate(-164.862 -473.875)" fill="#d90010"/>
        <path id="Path_609" data-name="Path 609" d="M2.618,0c.628-.363,2.618,2.421,2.618,5.407s-1.845,5.816-2.618,5.407A6.591,6.591,0,0,1,0,5.407,6.926,6.926,0,0,1,2.618,0Z" transform="translate(8.554 1.489)" fill="#e54800"/>
        <path id="Path_608" data-name="Path 608" d="M295.462,473.875a6.865,6.865,0,0,0-4.277,1.489,6.891,6.891,0,0,1,0,10.813,6.895,6.895,0,1,0,4.277-12.3Z" transform="translate(-280.013 -473.875)" fill="#f78b00"/>
      </g>
    </g>
  </g>
</svg>
