<svg xmlns="http://www.w3.org/2000/svg" xmlns:xlink="http://www.w3.org/1999/xlink" width="51.227" height="39.078" viewBox="0 0 51.227 39.078">
  <defs>
    <linearGradient id="linear-gradient" x1="0.5" x2="0.5" y2="1" gradientUnits="objectBoundingBox">
      <stop offset="0" stop-color="#4adede"/>
      <stop offset="1" stop-color="#6172d6"/>
    </linearGradient>
  </defs>
  <path id="Union_1" data-name="Union 1" d="M-6534.229-1040.577h-1.382l0,0h-8.448a.614.614,0,0,1-.065,0h-1.171c-.027,0-.062,0-.1,0h-3.485a.5.5,0,0,1-.062,0h-1.144a.779.779,0,0,1-.8-.529l-1.941-5.818h-9.991a2.528,2.528,0,0,1-2.526-2.524V-1064.3a2.516,2.516,0,0,1,2.455-2.526h.007l8.044.013a2.522,2.522,0,0,1,1.822.741l4.106,4.106h3.1a2.5,2.5,0,0,1,1.791.748,2.5,2.5,0,0,1,.731,1.682h7.1a2.494,2.494,0,0,1,.731-1.682,2.507,2.507,0,0,1,1.792-.748h3.1l4.121-4.119a2.5,2.5,0,0,1,1.785-.741h8a2.528,2.528,0,0,1,2.526,2.526v14.582a2.527,2.527,0,0,1-2.526,2.524h-9.991l-2.025,6.08a.73.73,0,0,1-.756.536c-.023,0-.046,0-.073,0h-4.5c-.042,0-.086.006-.131.006Zm-1.183,0Zm2.878-2.62h1.8l1.629-4.887a2.518,2.518,0,0,1,2.394-1.727h9.967v-14.392h-7.869l-4.119,4.121a2.531,2.531,0,0,1-1,.615h5.7a2.526,2.526,0,0,1,2.521,2.394l0,.054,0,2.687a2.552,2.552,0,0,1-.69,1.831,2.543,2.543,0,0,1-1.832.786h-5.125Zm-20.564-11.14h2.786a2.519,2.519,0,0,1,2.346,1.588l3.819,9.552h8.757l3.819-9.55a2.519,2.519,0,0,1,2.348-1.59h5.088l0-2.51h-28.959Zm-9.636,4.8h9.967a2.521,2.521,0,0,1,2.4,1.727l1.538,4.617h1.867l-3.407-8.519h-2.811a2.538,2.538,0,0,1-2.531-2.376l0-.04.011-2.722a2.542,2.542,0,0,1,.689-1.826,2.551,2.551,0,0,1,1.833-.789h3.44a2.521,2.521,0,0,1-1-.615l-4.106-4.106-7.884-.013Zm36.266-23.938a6.177,6.177,0,0,1,6.17-6.171,6.177,6.177,0,0,1,6.17,6.171,6.178,6.178,0,0,1-6.17,6.171A6.178,6.178,0,0,1-6526.469-1073.481Zm2.62,0a3.554,3.554,0,0,0,3.551,3.549,3.554,3.554,0,0,0,3.551-3.549,3.554,3.554,0,0,0-3.551-3.551A3.554,3.554,0,0,0-6523.849-1073.481Zm-41.505,0a6.178,6.178,0,0,1,6.171-6.171,6.177,6.177,0,0,1,6.17,6.171,6.178,6.178,0,0,1-6.17,6.171A6.178,6.178,0,0,1-6565.354-1073.481Zm2.62,0a3.554,3.554,0,0,0,3.551,3.549,3.554,3.554,0,0,0,3.551-3.549,3.554,3.554,0,0,0-3.551-3.551A3.554,3.554,0,0,0-6562.734-1073.481Z" transform="translate(6565.354 1079.652)" fill="url(#linear-gradient)"/>
</svg>
