<svg xmlns="http://www.w3.org/2000/svg" xmlns:xlink="http://www.w3.org/1999/xlink" width="44.281" height="44.281" viewBox="0 0 44.281 44.281">
  <defs>
    <linearGradient id="linear-gradient" x1="0.5" x2="0.5" y2="1" gradientUnits="objectBoundingBox">
      <stop offset="0" stop-color="#4adede"/>
      <stop offset="1" stop-color="#6172d6"/>
    </linearGradient>
  </defs>
  <g id="Group_1258" data-name="Group 1258" transform="translate(-408 -408)">
    <path id="Path_46" data-name="Path 46" d="M408,444.584V419.07a1.834,1.834,0,0,0,.081-.281,8.533,8.533,0,0,1,7.77-7.335c.768-.049,1.542-.007,2.351-.007,0-.485.025-.873,0-1.256A1.923,1.923,0,0,1,419.589,408h.692a1.962,1.962,0,0,1,1.385,2.246c-.029.368,0,.741,0,1.133H438.62c0-.392.025-.765,0-1.133A1.963,1.963,0,0,1,440,408h.692a1.926,1.926,0,0,1,1.391,2.192c-.031.394-.005.792-.005,1.21.543,0,1.017-.005,1.491,0a8.576,8.576,0,0,1,8.415,6.333c.12.439.2.89.3,1.335v25.514a1.394,1.394,0,0,0-.077.24,8.53,8.53,0,0,1-6.533,7.216c-.389.092-.783.162-1.174.241H415.784a1.405,1.405,0,0,0-.241-.075,8.558,8.558,0,0,1-7.337-6.615C408.129,445.257,408.068,444.92,408,444.584Zm3.459-19.5v.48q0,9.015,0,18.03a5.089,5.089,0,0,0,5.217,5.225q13.468.013,26.936,0a5.088,5.088,0,0,0,5.209-5.233q0-9.015,0-18.029v-.472Zm.031-3.509h37.3c.578-5.394-3.245-7.213-6.714-6.628,0,1.091.008,2.185,0,3.28a1.726,1.726,0,1,1-3.451.01c-.016-1.106,0-2.213,0-3.346H421.662c0,.182,0,.338,0,.494,0,.951.012,1.9,0,2.854a1.726,1.726,0,1,1-3.452-.014c-.008-.5,0-1.009,0-1.513,0-.6,0-1.2,0-1.794C414.1,414.385,410.952,416.677,411.49,421.572Z" fill="url(#linear-gradient)"/>
    <path id="Path_47" data-name="Path 47" d="M485.126,688.457c.561,0,1.123-.009,1.684,0a1.725,1.725,0,0,1,.034,3.449q-1.727.032-3.454,0a1.725,1.725,0,0,1,.009-3.449C483.975,688.447,484.551,688.457,485.126,688.457Z" transform="translate(-65.182 -248.113)" fill="url(#linear-gradient)"/>
    <path id="Path_48" data-name="Path 48" d="M662.247,688.455c.561,0,1.123-.009,1.684,0a1.726,1.726,0,1,1,0,3.451c-1.137.016-2.274.018-3.411,0a1.725,1.725,0,0,1,0-3.45C661.1,688.445,661.672,688.456,662.247,688.455Z" transform="translate(-221.885 -248.111)" fill="url(#linear-gradient)"/>
    <path id="Path_49" data-name="Path 49" d="M662.22,603.417c-.561,0-1.123.011-1.684,0a1.726,1.726,0,1,1,.016-3.453q1.684-.017,3.368,0a1.726,1.726,0,1,1,.027,3.452C663.371,603.429,662.8,603.417,662.22,603.417Z" transform="translate(-221.887 -169.819)" fill="url(#linear-gradient)"/>
    <path id="Path_50" data-name="Path 50" d="M485.092,603.417c-.561,0-1.123.011-1.684,0a1.726,1.726,0,1,1,.022-3.452q1.684-.017,3.368,0a1.726,1.726,0,1,1,.021,3.453C486.244,603.428,485.668,603.417,485.092,603.417Z" transform="translate(-65.185 -169.818)" fill="url(#linear-gradient)"/>
    <path id="Path_51" data-name="Path 51" d="M573.553,603.417c-.561,0-1.123.011-1.684,0a1.726,1.726,0,1,1,.02-3.452q1.684-.017,3.368,0a1.726,1.726,0,1,1,.023,3.453C574.7,603.428,574.128,603.417,573.553,603.417Z" transform="translate(-143.444 -169.818)" fill="url(#linear-gradient)"/>
    <path id="Path_52" data-name="Path 52" d="M573.613,688.456c.561,0,1.123-.011,1.684,0a1.724,1.724,0,0,1,.029,3.447q-1.748.037-3.5,0a1.724,1.724,0,0,1,.014-3.447C572.433,688.444,573.023,688.456,573.613,688.456Z" transform="translate(-143.444 -248.111)" fill="url(#linear-gradient)"/>
  </g>
</svg>
