<svg xmlns="http://www.w3.org/2000/svg" xmlns:xlink="http://www.w3.org/1999/xlink" width="48.346" height="46.081" viewBox="0 0 48.346 46.081">
  <defs>
    <linearGradient id="linear-gradient" x1="0.5" x2="0.5" y2="1" gradientUnits="objectBoundingBox">
      <stop offset="0" stop-color="#4adede"/>
      <stop offset="1" stop-color="#6172d6"/>
    </linearGradient>
  </defs>
  <path id="Union_2" data-name="Union 2" d="M-6997.727-1054.47a5.838,5.838,0,0,1-5.832-5.832v-29.884a5.839,5.839,0,0,1,5.832-5.832h5.5v-3.528a1,1,0,0,1,1-1.005h23.67a1,1,0,0,1,1,1.005v3.528h5.5a5.838,5.838,0,0,1,5.83,5.832v29.884a5.837,5.837,0,0,1-5.83,5.832Zm-2.821-35.064v28.581a3.476,3.476,0,0,0,3.473,3.471h35.38a3.475,3.475,0,0,0,3.471-3.471v-28.581a3.475,3.475,0,0,0-3.471-3.471h-4.851v3.529a1,1,0,0,1-1,1h-23.67a1,1,0,0,1-1-1v-3.529h-4.851A3.476,3.476,0,0,0-7000.548-1089.534Zm11.335-1.949h19.656v-6.057h-19.656Zm-4.913,28.288-2.441-2.441a1,1,0,0,1-.3-.71,1,1,0,0,1,.3-.71l.71-.71a1,1,0,0,1,.708-.294,1,1,0,0,1,.71.294l1.023,1.023,3.291-3.289a.994.994,0,0,1,.708-.294,1,1,0,0,1,.71.292l.71.712a1,1,0,0,1,.3.708,1,1,0,0,1-.3.71l-4.709,4.711a1,1,0,0,1-.71.293A1,1,0,0,1-6994.125-1063.2Zm12.657-1.854a.958.958,0,0,1-.933-1v-1.009a.959.959,0,0,1,.933-1h17.767a.96.96,0,0,1,.935,1v1.009a.959.959,0,0,1-.935,1Zm-12.657-4.946-2.441-2.441a1,1,0,0,1-.3-.71,1,1,0,0,1,.3-.71l.71-.71a1,1,0,0,1,.708-.293,1,1,0,0,1,.71.293l1.023,1.023,3.291-3.289a.994.994,0,0,1,.708-.293,1,1,0,0,1,.71.292l.71.712a1,1,0,0,1,.3.708,1,1,0,0,1-.3.71l-4.709,4.711a1,1,0,0,1-.71.293A1,1,0,0,1-6994.125-1070Zm12.657-1.854a.958.958,0,0,1-.933-1v-1.009a.958.958,0,0,1,.933-1h17.767a.96.96,0,0,1,.935,1v1.009a.959.959,0,0,1-.935,1Zm-12.657-4.946-2.441-2.441a1,1,0,0,1-.3-.71,1,1,0,0,1,.3-.71l.71-.71a1,1,0,0,1,.708-.293,1,1,0,0,1,.71.293l1.023,1.023,3.291-3.289a.994.994,0,0,1,.708-.293,1,1,0,0,1,.71.292l.71.712a1,1,0,0,1,.3.708,1,1,0,0,1-.3.71l-4.709,4.711a1,1,0,0,1-.71.294A1,1,0,0,1-6994.125-1076.8Zm12.657-1.854a.958.958,0,0,1-.933-1v-1.009a.958.958,0,0,1,.933-1h17.767a.96.96,0,0,1,.935,1v1.009a.959.959,0,0,1-.935,1Z" transform="translate(7003.559 1100.551)" fill="url(#linear-gradient)"/>
</svg>
