<svg xmlns="http://www.w3.org/2000/svg" xmlns:xlink="http://www.w3.org/1999/xlink" width="64" height="64" viewBox="0 0 64 64">
  <defs>
    <linearGradient id="linear-gradient" x1="0.5" x2="0.5" y2="1" gradientUnits="objectBoundingBox">
      <stop offset="0" stop-color="#4adede"/>
      <stop offset="1" stop-color="#6172d6"/>
    </linearGradient>
  </defs>
  <g id="Group_2525" data-name="Group 2525" transform="translate(-568.5 -694.673)">
    <g id="Group_378" data-name="Group 378" transform="translate(588.017 708.591)">
      <path id="Path_15" data-name="Path 15" d="M-422.454-930.853a16.114,16.114,0,0,1,2.408.845,6.559,6.559,0,0,1,3.741,6.029c.035,4.075.023,8.151,0,12.227a6.957,6.957,0,0,1-5.739,6.788c-3.664.857-7.738-1.376-8.673-4.788a8.13,8.13,0,0,1-.3-2.073c-.027-4.029-.041-8.058,0-12.087a6.7,6.7,0,0,1,4.372-6.406,14.224,14.224,0,0,1,1.778-.536Zm-6.257,12.976c0,2.008-.011,4.017.008,6.025a5.776,5.776,0,0,0,.177,1.453,5.056,5.056,0,0,0,5.454,3.44,4.817,4.817,0,0,0,4.449-4.482c.033-4.285.041-8.571,0-12.855-.028-2.748-2.922-4.9-5.825-4.424a4.8,4.8,0,0,0-4.258,4.714C-428.722-921.964-428.711-919.92-428.711-917.877Z" transform="translate(436.14 930.853)" fill="url(#linear-gradient)"/>
      <path id="Path_16" data-name="Path 16" d="M-487.311-657.386v-2.854c-.586-.1-1.168-.175-1.732-.313-4.6-1.125-7.636-3.814-9.06-8.024a15.132,15.132,0,0,1-.519-3.1,1.065,1.065,0,0,1,.245-.864,1.065,1.065,0,0,1,.819-.369,1.134,1.134,0,0,1,.852.289,1.134,1.134,0,0,1,.373.819,16.908,16.908,0,0,0,.4,2.517,9.115,9.115,0,0,0,5.044,5.817,10.411,10.411,0,0,0,10.349-.484,9.075,9.075,0,0,0,4.463-6.564c.08-.495.078-1,.146-1.5a1.074,1.074,0,0,1,1.08-.9,1.1,1.1,0,0,1,.819.28,1.1,1.1,0,0,1,.362.787,10.8,10.8,0,0,1-1.446,5.413,12.189,12.189,0,0,1-7.425,5.7c-.783.229-1.607.338-2.444.509v2.814c.146.006.28.017.414.017H-481a2.329,2.329,0,0,1,.666.08,1.042,1.042,0,0,1,.725,1.141,1.114,1.114,0,0,1-1,.908,3.39,3.39,0,0,1-.376.01h-10.53a1.106,1.106,0,0,1-.821-.278,1.106,1.106,0,0,1-.368-.785,1.084,1.084,0,0,1,.355-.792,1.084,1.084,0,0,1,.822-.278c1.241-.02,2.482-.007,3.723-.008Z" transform="translate(498.632 691.061)" fill="url(#linear-gradient)"/>
    </g>
    <g id="Group_2528" data-name="Group 2528">
      <path id="Path_921" data-name="Path 921" d="M31.272,0h.456A31.345,31.345,0,0,1,63,31.418v.164A31.345,31.345,0,0,1,31.728,63h-.456A31.345,31.345,0,0,1,0,31.582v-.164A31.345,31.345,0,0,1,31.272,0Z" transform="translate(569 758.173) rotate(-90)" fill="none" stroke="#4adede" stroke-width="1"/>
    </g>
  </g>
</svg>
