<svg xmlns="http://www.w3.org/2000/svg" width="63" height="63" viewBox="0 0 63 63">
  <g id="Group_2217" data-name="Group 2217" transform="translate(-395.048 -623)">
    <circle id="Ellipse_58" data-name="Ellipse 58" cx="31.5" cy="31.5" r="31.5" transform="translate(395.048 623)" fill="#f16b6b"/>
    <g id="Group_1202" data-name="Group 1202" transform="translate(1134.083 -0.739)">
      <path id="Path_401" data-name="Path 401" d="M-688.839,660.14a.949.949,0,0,0-.061.241,1.418,1.418,0,0,1-1.039,1.427,14.5,14.5,0,0,1-3.977.873,16.755,16.755,0,0,1-7.468-.925,1.224,1.224,0,0,1-.861-1.634c.266-1.263.5-2.531.75-3.8a1.94,1.94,0,0,0,.013-.251,55.618,55.618,0,0,0-12.147.005c.147.825.279,1.626.434,2.423.109.561.25,1.117.376,1.675a1.2,1.2,0,0,1-.821,1.564,16.411,16.411,0,0,1-8.26.838,26.182,26.182,0,0,1-3.281-.809,1.371,1.371,0,0,1-1-1.37,19.425,19.425,0,0,1,1.67-9.293,1.355,1.355,0,0,1,.84-.754,41.557,41.557,0,0,1,8.767-2.139,53.387,53.387,0,0,1,10.088-.435,45.17,45.17,0,0,1,13.348,2.551,1.557,1.557,0,0,1,.965.916,20.272,20.272,0,0,1,1.6,6.384,2.769,2.769,0,0,0,.06.315Zm-26.513-.239c-.239-1.523-.464-2.941-.684-4.36-.167-1.08.222-1.593,1.31-1.689,1.672-.148,3.343-.329,5.019-.4a53.8,53.8,0,0,1,9.543.425,1.189,1.189,0,0,1,1.159,1.454c-.119.893-.259,1.784-.4,2.673-.1.608-.223,1.212-.337,1.819.092.035.146.062.2.078a15.284,15.284,0,0,0,8.04-.024.371.371,0,0,0,.329-.422,17.1,17.1,0,0,0-1.279-6.776.733.733,0,0,0-.409-.35,43.251,43.251,0,0,0-12.159-2.211,51.5,51.5,0,0,0-9.143.363,38.459,38.459,0,0,0-8.119,1.878.641.641,0,0,0-.341.323,17.133,17.133,0,0,0-1.274,6.777c.006.259.1.349.335.415a15.12,15.12,0,0,0,5.676.465C-717.036,660.245-716.194,660.049-715.352,659.9Z" transform="translate(0 0)" fill="#fff"/>
    </g>
  </g>
</svg>
