<svg xmlns="http://www.w3.org/2000/svg" xmlns:xlink="http://www.w3.org/1999/xlink" width="64" height="64" viewBox="0 0 64 64">
  <defs>
    <linearGradient id="linear-gradient" x1="0.5" x2="0.5" y2="1" gradientUnits="objectBoundingBox">
      <stop offset="0" stop-color="#4adede"/>
      <stop offset="1" stop-color="#6172d6"/>
    </linearGradient>
  </defs>
  <g id="Group_2107" data-name="Group 2107" transform="translate(0.5 -0.967)">
    <g id="Group_2500" data-name="Group 2500">
      <g id="Group_2503" data-name="Group 2503">
        <rect id="Rectangle_481" data-name="Rectangle 481" width="63" height="63" rx="31.5" transform="translate(0 64.467) rotate(-90)" fill="none" stroke="#4adede" stroke-width="1"/>
        <g id="Group_2430" data-name="Group 2430" transform="translate(17.302 15.522)">
          <path id="Path_913" data-name="Path 913" d="M-315.784,223.54l4.193-4.185,1.407-1.4a1.937,1.937,0,0,1,1.376-.656,1.937,1.937,0,0,1,1.424.542c.382.326.722.7,1.079,1.055.376.373.749.749,1.124,1.124a2.047,2.047,0,0,1,.659,1.516,2.047,2.047,0,0,1-.675,1.508c-3.465,3.409-6.883,6.865-10.326,10.3a.883.883,0,0,0-.289.692c.012,2.186.007,4.371.006,6.557a1.709,1.709,0,0,1-.481,1.423,1.709,1.709,0,0,1-1.419.493h-20.822a1.7,1.7,0,0,1-1.421-.488,1.7,1.7,0,0,1-.479-1.425q0-14.782-.015-29.565a1.839,1.839,0,0,1,.534-1.407,1.839,1.839,0,0,1,1.405-.537c5.391.036,10.782.016,16.173.01a.678.678,0,0,1,.548.244q2.869,3.084,5.756,6.15a.79.79,0,0,1,.235.6c-.01,2.4-.008,4.8-.008,7.192C-315.8,223.339-315.794,223.4-315.784,223.54Zm-8.571,8.47h-11.517c-.119,0-.239,0-.357-.006a.365.365,0,0,1-.357-.361.361.361,0,0,1,.318-.4,2.243,2.243,0,0,1,.435-.023h12a.713.713,0,0,0,.575-.187q3.235-3.255,6.487-6.494a.588.588,0,0,0,.186-.454q-.008-3.735,0-7.47c0-.278-.074-.357-.354-.355-1.656.013-3.311.007-4.967.006-.6,0-.687-.083-.688-.685,0-1.762-.009-3.523.007-5.285,0-.326-.08-.423-.415-.422q-7.769.016-15.537.008c-.808,0-1.1.294-1.1,1.1V240.63c0,.783.3,1.084,1.08,1.084H-317.7c.791,0,1.106-.317,1.107-1.108v-5.762c0-.11.045-.232-.054-.355-.1.094-.2.18-.288.271-.806.8-1.626,1.6-2.41,2.422a3.348,3.348,0,0,1-1.271.829c-2.206.852-4.4,1.73-6.6,2.6-.192.076-.38.145-.555-.018s-.128-.381-.045-.586q.237-.588.467-1.18l.615-1.576h-9.115c-.309,0-.724.082-.728-.381s.4-.4.719-.4q4.53,0,9.06.005a.458.458,0,0,0,.526-.349,9.722,9.722,0,0,1,.494-1.254C-325.314,233.93-325.243,232.782-324.355,232.01Zm2.525,3.334c-.02,1.219-.02,1.219,1.194,1.431a.481.481,0,0,1,.116.025.5.5,0,0,0,.626-.171c1.171-1.187,2.354-2.363,3.534-3.543q3.735-3.735,7.475-7.467c.172-.171.184-.27,0-.44q-.65-.613-1.263-1.264c-.169-.179-.266-.175-.439,0q-5.526,5.54-11.062,11.069c-.1.1-.218.2-.181.36Zm-.753-.72c.235.064.347-.129.483-.265q4.116-4.113,8.23-8.228c.908-.908,1.81-1.823,2.729-2.72.2-.2.2-.309,0-.5a15.786,15.786,0,0,1-1.149-1.153c-.238-.27-.371-.238-.613,0q-5.183,5.208-10.4,10.386c-.539.532-.926,1.016-.593,1.79a.154.154,0,0,1,0,.039c.075.558.08.559.628.583C-323.04,234.575-322.817,234.6-322.583,234.624Zm17.288-13.029a1.2,1.2,0,0,0-.243-.768,5.25,5.25,0,0,0-.474-.533c-.568-.575-1.134-1.152-1.715-1.713a1.236,1.236,0,0,0-1-.5,1.236,1.236,0,0,0-.992.512c-.234.234-.459.479-.7.7-.163.146-.189.248-.009.4.2.171.378.37.566.558q1.475,1.475,2.953,2.947c.082.081.15.291.335.1.359-.371.733-.728,1.085-1.106a.774.774,0,0,0,.2-.6Zm-11.81-6.109-4.715-5.029v4.022c0,1.007,0,1.007,1.01,1.007Zm-7.559,18.7c-.316.793-.59,1.489-.871,2.183-.057.14.008.223.1.311q.787.782,1.571,1.568c.078.078.155.144.277.1l2.165-.862c-.979-.311-1.108-.49-1.127-1.483,0-.066-.006-.132,0-.2.015-.319-.14-.461-.455-.445-.105.005-.211,0-.317,0-.867-.028-1.118-.23-1.343-1.175Zm16.546-9.36c.057-.051.108-.093.155-.139a6.1,6.1,0,0,1,.452-.446c.226-.181.232-.306.011-.522-1.014-.988-2.007-2-3.008-3-.692-.692-.687-.687-1.359.016-.142.149-.144.227,0,.371q1.79,1.774,3.568,3.56c.056.056.118.1.181.158Zm-17.82,12.562-.877,2.231,2.234-.884Z" transform="translate(340.444 -209.083)" fill="url(#linear-gradient)"/>
          <path id="Path_914" data-name="Path 914" d="M-295.691,319.517h-7.784a2.761,2.761,0,0,1-.357-.01.361.361,0,0,1-.326-.348.345.345,0,0,1,.268-.39,1.714,1.714,0,0,1,.431-.038h15.729c.263,0,.493.078.5.387,0,.331-.227.4-.513.4h-7.948Z" transform="translate(308.015 -307.082)" fill="url(#linear-gradient)"/>
          <path id="Path_915" data-name="Path 915" d="M-295.669,368.9h-7.785a3.341,3.341,0,0,1-.357-.007.362.362,0,0,1-.342-.373.354.354,0,0,1,.291-.377,1.743,1.743,0,0,1,.393-.029H-287.9a1.72,1.72,0,0,1,.393.03.345.345,0,0,1,.282.379.356.356,0,0,1-.342.369,3.474,3.474,0,0,1-.357.006Z" transform="translate(308.009 -351.223)" fill="url(#linear-gradient)"/>
        </g>
      </g>
    </g>
  </g>
</svg>
