<svg xmlns="http://www.w3.org/2000/svg" xmlns:xlink="http://www.w3.org/1999/xlink" width="28.742" height="36.15" viewBox="0 0 28.742 36.15">
  <defs>
    <linearGradient id="linear-gradient" x1="0.5" x2="0.5" y2="1" gradientUnits="objectBoundingBox">
      <stop offset="0" stop-color="#4adede"/>
      <stop offset="1" stop-color="#6172d6"/>
    </linearGradient>
  </defs>
  <path id="Path_795" data-name="Path 795" d="M-844.06,165.764h-2.492l-.052-.013-.1-.026a.946.946,0,0,0-.115-.029c-.192-.025-.385-.047-.578-.068-.374-.042-.76-.085-1.142-.154a11.09,11.09,0,0,1-7.581-4.855c-1.685-2.534-3.387-5.117-5.034-7.615l-1.327-2.012a4.219,4.219,0,0,1-.291-.536,2.964,2.964,0,0,1,.681-3.461,2.888,2.888,0,0,1,2.186-.649,2.946,2.946,0,0,1,2.026,1.142c.639.831,1.265,1.691,1.87,2.523l.35.481V135.163c0-.153,0-.311.012-.474a2.438,2.438,0,0,1,.923-1.73,2.418,2.418,0,0,1,1.881-.5,2.449,2.449,0,0,1,2.1,2.58v9.726a1.3,1.3,0,0,0,.036.332c.034.127.083.164.217.165h0c.131,0,.179-.036.21-.159a1.651,1.651,0,0,0,.04-.4q0-3.224,0-6.448v-4.314c0-.633-.005-1.287.016-1.934a2.421,2.421,0,0,1,2.3-2.283,2.464,2.464,0,0,1,1.83.668,2.558,2.558,0,0,1,.762,1.87q0,3.483,0,6.966v5.511a1.494,1.494,0,0,0,.034.365c.028.106.078.169.235.163a.2.2,0,0,0,.205-.2,2.13,2.13,0,0,0,.022-.342q0-2.322,0-4.644v-6.08a8.17,8.17,0,0,1,.036-.828,2.423,2.423,0,0,1,2.113-2.08,2.533,2.533,0,0,1,1.966.61,2.7,2.7,0,0,1,.814,2.031q0,5.358,0,10.716v1.768a1.21,1.21,0,0,0,.007.2.26.26,0,0,0,.178.207.16.16,0,0,0,.174-.04.613.613,0,0,0,.111-.35c.01-1.9.01-3.823.01-5.687v-2.56a5.642,5.642,0,0,1,.053-.776,2.457,2.457,0,0,1,1.938-2.037,2.491,2.491,0,0,1,2.592,1.173,3.423,3.423,0,0,1,.357,1.809q0,2.924,0,5.848c0,3.772,0,7.673-.01,11.51a14.233,14.233,0,0,1-.2,2.322,9.028,9.028,0,0,1-7.544,7.65c-.414.075-.833.135-1.239.193-.189.027-.378.054-.566.083Zm-2.382-.848h2.318l.541-.079c.4-.057.81-.116,1.208-.188a8.21,8.21,0,0,0,6.859-6.957,13.383,13.383,0,0,0,.186-2.183c.01-3.836.01-7.736.01-11.508v-5.849a2.622,2.622,0,0,0-.241-1.38,1.632,1.632,0,0,0-1.7-.769,1.6,1.6,0,0,0-1.261,1.323,4.779,4.779,0,0,0-.045.659v2.559c0,1.865,0,3.794-.01,5.692a1.425,1.425,0,0,1-.353.938,1,1,0,0,1-1.033.256,1.1,1.1,0,0,1-.761-.873,1.876,1.876,0,0,1-.019-.349V133.734a1.864,1.864,0,0,0-.539-1.4,1.674,1.674,0,0,0-1.318-.391,1.584,1.584,0,0,0-1.345,1.321,7.382,7.382,0,0,0-.032.743V144.73a2.941,2.941,0,0,1-.034.478,1.051,1.051,0,0,1-1,.9,1.03,1.03,0,0,1-1.093-.79,2.275,2.275,0,0,1-.063-.584V132.258a1.719,1.719,0,0,0-.5-1.259,1.626,1.626,0,0,0-1.209-.432,1.579,1.579,0,0,0-1.488,1.464c-.021.631-.018,1.278-.016,1.9V144.7a2.447,2.447,0,0,1-.066.613,1.01,1.01,0,0,1-1.038.8,1.023,1.023,0,0,1-1.033-.795,2.125,2.125,0,0,1-.064-.549c0-3.173,0-6.446,0-9.728a1.6,1.6,0,0,0-1.378-1.741,1.579,1.579,0,0,0-1.229.325,1.6,1.6,0,0,0-.6,1.135c-.01.126-.01.259-.009.4V153.01l-.759-.985-.121-.156c-.069-.088-.122-.156-.173-.226q-.417-.567-.83-1.136c-.6-.827-1.225-1.682-1.857-2.5a2.105,2.105,0,0,0-1.448-.816,2.048,2.048,0,0,0-1.55.458,2.124,2.124,0,0,0-.455,2.449,3.443,3.443,0,0,0,.231.429l1.327,2.013c1.646,2.5,3.349,5.08,5.032,7.613a10.273,10.273,0,0,0,7.025,4.49c.354.064.71.1,1.086.146.2.022.4.044.593.07a1.582,1.582,0,0,1,.241.055Z" transform="translate(863.168 -129.669)" stroke="#fff" stroke-width="0.1" fill="url(#linear-gradient)"/>
</svg>
