<svg xmlns="http://www.w3.org/2000/svg" xmlns:xlink="http://www.w3.org/1999/xlink" width="206" height="49" viewBox="0 0 206 49">
  <defs>
    <clipPath id="clip-path">
      <rect id="Rectangle_428" data-name="Rectangle 428" width="206" height="49" rx="4" transform="translate(-0.08 3)" fill="#fff" stroke="#5a5a5a" stroke-width="1"/>
    </clipPath>
  </defs>
  <g id="Mask_Group_24" data-name="Mask Group 24" transform="translate(0.08 -3)" clip-path="url(#clip-path)">
    <g id="Group_1679" data-name="Group 1679" transform="translate(-102.81 -340.629)">
      <path id="Path_586" data-name="Path 586" d="M175.777,386.87h8.191c4.4,0,6.053,2.226,5.8,5.5-.422,5.4-3.686,8.386-8.017,8.386h-2.186c-.593,0-.993.392-1.154,1.458l-.938,6.191c-.061.4-.272.638-.59.667h-5.136c-.483,0-.655-.37-.529-1.17l3.136-19.858A1.252,1.252,0,0,1,175.777,386.87Z" transform="translate(-21.841 -27.358)" fill="#0094cb" fill-rule="evenodd"/>
      <path id="Path_587" data-name="Path 587" d="M320.766,385.134c2.764,0,5.313,1.5,4.964,5.235-.414,4.43-2.8,6.9-6.556,6.907H315.9c-.472,0-.7.384-.823,1.174l-.632,4.032c-.1.609-.407.909-.87.909h-3.05c-.487,0-.656-.311-.548-1.006l2.522-16.161c.124-.795.428-1.09.967-1.09Zm-4.969,8.651h2.485c1.553-.059,2.586-1.134,2.69-3.076a1.876,1.876,0,0,0-2.034-2.05l-2.339.011-.8,5.115Zm18.225,8.368c.278-.253.563-.385.522-.073l-.1.749c-.052.39.1.6.468.6h2.71c.456,0,.679-.185.791-.89l1.67-10.482c.084-.527-.043-.785-.444-.785h-2.979c-.269,0-.4.151-.469.561l-.111.645c-.058.337-.212.395-.355.056-.506-1.2-1.8-1.734-3.6-1.7-4.18.086-7,3.259-7.3,7.327a5.037,5.037,0,0,0,4.993,5.617,5.387,5.387,0,0,0,4.206-1.628Zm-2.268-1.61a2.722,2.722,0,0,1-2.792-3.195,3.892,3.892,0,0,1,3.742-3.194,2.722,2.722,0,0,1,2.792,3.194,3.891,3.891,0,0,1-3.742,3.195Zm13.636-9.305h-2.738c-.567,0-.8.415-.617.943l3.412,9.992-3.362,4.752c-.281.4-.064.759.332.759h3.089a.946.946,0,0,0,.918-.451l10.493-15.053c.323-.464.171-.949-.359-.949l-2.921,0c-.5,0-.7.2-.99.615l-4.377,6.35-1.947-6.361A.841.841,0,0,0,345.391,391.237Z" transform="translate(-131.389 -25.989)" fill="#003082" fill-rule="evenodd"/>
      <path id="Path_588" data-name="Path 588" d="M543.433,385.134c2.764,0,5.313,1.5,4.964,5.235-.414,4.43-2.8,6.9-6.556,6.907h-3.275c-.472,0-.7.384-.823,1.174l-.632,4.032c-.1.609-.407.909-.87.909h-3.05c-.487,0-.656-.311-.548-1.006l2.521-16.161c.124-.795.428-1.09.967-1.09Zm-4.969,8.651h2.485c1.553-.059,2.586-1.134,2.69-3.076a1.876,1.876,0,0,0-2.034-2.05l-2.339.011-.8,5.115Zm18.225,8.368c.278-.253.563-.385.522-.073l-.1.749c-.052.39.1.6.468.6h2.71c.456,0,.679-.185.791-.89l1.67-10.482c.084-.527-.044-.785-.444-.785h-2.979c-.269,0-.4.151-.469.561l-.111.645c-.057.337-.212.395-.355.056-.506-1.2-1.8-1.734-3.6-1.7-4.18.086-7,3.259-7.3,7.327a5.037,5.037,0,0,0,4.993,5.617,5.386,5.386,0,0,0,4.206-1.628Zm-2.268-1.61a2.722,2.722,0,0,1-2.792-3.195,3.892,3.892,0,0,1,3.742-3.194,2.722,2.722,0,0,1,2.792,3.194,3.892,3.892,0,0,1-3.742,3.195Zm12.5,2.9h-3.128a.369.369,0,0,1-.383-.433l2.751-17.41a.54.54,0,0,1,.52-.433h3.128a.369.369,0,0,1,.383.433l-2.75,17.41A.54.54,0,0,1,566.922,403.446Z" transform="translate(-307.107 -25.989)" fill="#0094cb" fill-rule="evenodd"/>
      <path id="Path_589" data-name="Path 589" d="M148.816,354.543h8.2c2.309,0,5.048.07,6.88,1.568a4.95,4.95,0,0,1,1.718,4.309c-.5,5.807-4.248,9.059-9.269,9.059H152.3c-.688,0-1.145.423-1.339,1.569l-1.128,6.658c-.073.432-.275.687-.644.717h-5.05c-.56,0-.76-.4-.613-1.259l3.637-21.358C147.308,354.951,147.813,354.543,148.816,354.543Z" fill="#003082" fill-rule="evenodd"/>
      <path id="Path_590" data-name="Path 590" d="M179.427,397.107l1.432-9.062a1.252,1.252,0,0,1,1.426-1.175h8.191a8,8,0,0,1,3.31.6c-.823,5.572-4.427,8.668-9.146,8.668H180.6C180.064,396.139,179.666,396.411,179.427,397.107Z" transform="translate(-28.348 -26.171)" fill="#00236d" fill-rule="evenodd"/>
    </g>
  </g>
</svg>
