<svg xmlns="http://www.w3.org/2000/svg" width="200" height="200" viewBox="0 0 200 200">
  <g id="Group_2203" data-name="Group 2203" transform="translate(-263.079 -625.079)">
    <path id="Path_804" data-name="Path 804" d="M100,0A100,100,0,1,1,0,100,100,100,0,0,1,100,0Z" transform="translate(263.079 625.079)" fill="#5a5a5a"/>
    <g id="Group_2122" data-name="Group 2122" transform="translate(328.079 689.297)">
      <path id="Path_594" data-name="Path 594" d="M259.415-8.235h-5.437A29.265,29.265,0,0,0,243-31.131a28.566,28.566,0,0,0-19.958-6.6,28.46,28.46,0,0,0-14.121,4.377,29.692,29.692,0,0,0-10.283,10.744,29.375,29.375,0,0,0-3.757,14.331h-5.463A34.539,34.539,0,0,1,195.89-28.5a35.008,35.008,0,0,1,17.023-12.813c-.2-.171-.326-.29-.464-.392a19.893,19.893,0,0,1-7.495-21.64c2.147-7.552,7.218-12.3,14.809-14.319,1.07-.284,2.189-.385,3.285-.57h2.734c1.1.186,2.216.286,3.286.57,7.592,2.015,12.722,6.753,14.792,14.325,2.166,7.92-.038,14.785-6,20.427-.586.554-1.244,1.031-1.917,1.583.2.091.338.164.482.216a34.323,34.323,0,0,1,12.484,7.9,34.275,34.275,0,0,1,9.956,18.89c.234,1.338.368,2.693.548,4.04Zm-35-64.529a14.808,14.808,0,0,0-14.76,14.732,14.81,14.81,0,0,0,14.766,14.795,14.808,14.808,0,0,0,14.76-14.732A14.81,14.81,0,0,0,224.414-72.764Z" transform="translate(-189.415 78.235)" fill="#fff"/>
    </g>
  </g>
</svg>
