<svg xmlns="http://www.w3.org/2000/svg" xmlns:xlink="http://www.w3.org/1999/xlink" width="63" height="63" viewBox="0 0 63 63">
  <defs>
    <linearGradient id="linear-gradient" x1="0.5" x2="0.5" y2="1" gradientUnits="objectBoundingBox">
      <stop offset="0" stop-color="#4adede"/>
      <stop offset="1" stop-color="#6172d6"/>
    </linearGradient>
  </defs>
  <g id="Group_2498" data-name="Group 2498" transform="translate(-433.048 -623)">
    <path id="Path_402" data-name="Path 402" d="M31.5,0A31.5,31.5,0,1,1,0,31.5,31.5,31.5,0,0,1,31.5,0Z" transform="translate(433.048 623)" fill="url(#linear-gradient)"/>
    <g id="Group_378" data-name="Group 378" transform="translate(452.065 636.591)">
      <path id="Path_15" data-name="Path 15" d="M-422.454-930.853a16.12,16.12,0,0,1,2.408.845,6.559,6.559,0,0,1,3.741,6.029c.035,4.075.023,8.151,0,12.227a6.957,6.957,0,0,1-5.739,6.788c-3.664.857-7.738-1.376-8.673-4.788a8.13,8.13,0,0,1-.3-2.073c-.027-4.029-.041-8.058,0-12.087a6.7,6.7,0,0,1,4.372-6.406,14.235,14.235,0,0,1,1.778-.536Zm-6.257,12.976c0,2.008-.011,4.017.008,6.025a5.774,5.774,0,0,0,.177,1.453,5.056,5.056,0,0,0,5.454,3.44,4.817,4.817,0,0,0,4.449-4.482c.033-4.285.041-8.571,0-12.855-.028-2.748-2.922-4.9-5.825-4.424a4.8,4.8,0,0,0-4.258,4.714C-428.722-921.964-428.711-919.92-428.711-917.877Z" transform="translate(436.14 930.853)" fill="#fff"/>
      <path id="Path_16" data-name="Path 16" d="M-487.311-657.386v-2.854c-.586-.1-1.168-.175-1.732-.313-4.6-1.125-7.636-3.814-9.06-8.024a15.134,15.134,0,0,1-.519-3.1,1.065,1.065,0,0,1,1.064-1.233,1.134,1.134,0,0,1,1.225,1.108,16.913,16.913,0,0,0,.4,2.517,9.115,9.115,0,0,0,5.044,5.817,10.411,10.411,0,0,0,10.349-.484,9.075,9.075,0,0,0,4.463-6.564c.08-.495.078-1,.146-1.5a1.074,1.074,0,0,1,1.08-.9,1.1,1.1,0,0,1,1.182,1.067,10.8,10.8,0,0,1-1.446,5.413,12.189,12.189,0,0,1-7.425,5.7c-.783.229-1.607.338-2.444.509v2.814c.146.006.28.017.414.017,1.191,0,2.382,0,3.573,0a2.331,2.331,0,0,1,.666.08,1.042,1.042,0,0,1,.725,1.141,1.114,1.114,0,0,1-1,.908,3.406,3.406,0,0,1-.376.01h-10.342c-.063,0-.125,0-.188,0a1.106,1.106,0,0,1-1.189-1.063,1.084,1.084,0,0,1,1.177-1.07c1.241-.02,2.482-.007,3.723-.008Z" transform="translate(498.632 691.061)" fill="#fff"/>
    </g>
    <line id="Line_52" data-name="Line 52" x1="33.5" y2="30" transform="translate(447.798 640.5)" fill="none" stroke="#f5f5f5" stroke-width="2"/>
  </g>
</svg>
