<svg width="41" height="41" viewBox="0 0 41 41" fill="none" xmlns="http://www.w3.org/2000/svg">
<path d="M36.78 1L4.5921 1.00004C2.60824 1.00004 1 2.60828 1 4.59214V36.4079C1 38.3918 2.60824 40 4.5921 40L36.78 40C38.7639 40 40.3721 38.3917 40.3721 36.4079V4.5921C40.3721 2.60824 38.7639 1 36.78 1Z" stroke="#E1E1E1"/>
<path d="M32.0271 29.9022C30.723 29.506 29.4131 29.1097 28.1096 28.7076C28.0315 28.6817 27.9488 28.6722 27.8668 28.6798C27.7847 28.6873 27.7052 28.7118 27.6331 28.7516C26.4335 29.3566 25.1211 29.7051 23.7795 29.775C22.4378 29.8449 21.0963 29.6347 19.8403 29.1576C19.7167 29.1175 19.583 29.1209 19.4616 29.1673C18.4413 29.6045 17.3392 29.8176 16.2295 29.7924C15.1198 29.7671 14.0285 29.5041 13.0292 29.021C12.8944 28.9636 12.7444 28.9522 12.6025 28.9886C11.5665 29.2884 10.5409 29.6083 9.50939 29.9152C9.40973 29.955 9.30251 29.9723 9.1954 29.9658C9.08829 29.9593 8.98393 29.9292 8.88982 29.8777C8.7957 29.8261 8.71414 29.7544 8.65099 29.6676C8.58784 29.5809 8.54465 29.4812 8.52453 29.3758C8.5034 29.2094 8.52 29.0403 8.57309 28.8811C8.87094 27.8717 9.18498 26.8674 9.4796 25.8573C9.51752 25.7238 9.50908 25.5813 9.45564 25.4532C8.95992 24.4354 8.69366 23.3211 8.67568 22.1891C8.6577 21.0571 8.88843 19.935 9.35158 18.9019C9.81473 17.8689 10.499 16.95 11.3561 16.2104C12.2132 15.4707 13.2222 14.9282 14.3119 14.6211C14.6117 14.5343 14.9245 14.4916 15.2275 14.4152C15.3318 14.3893 15.4255 14.3316 15.4956 14.2501C16.9553 12.304 19.0915 10.9759 21.4826 10.5277C23.8736 10.0796 26.3458 10.5441 28.4112 11.8295C30.4765 13.115 31.985 15.1279 32.6388 17.4711C33.2926 19.8143 33.0443 22.3174 31.9429 24.4865C31.8974 24.585 31.8872 24.6961 31.9137 24.8012C32.3281 26.194 32.7523 27.5855 33.1738 28.9763C33.188 29.0123 33.2054 29.0469 33.2256 29.0799V29.4684C32.9912 29.8446 32.819 30.0007 32.5302 30.0007C32.3586 29.9919 32.1892 29.9588 32.0271 29.9022ZM13.3413 27.4955C14.1488 27.9526 15.0484 28.2232 15.9741 28.2874C16.5823 28.3335 17.194 28.2846 17.7871 28.1423C13.8075 24.9708 12.6446 21.0094 14.3081 16.1965H14.3035C14.2966 16.1943 14.2891 16.1943 14.2822 16.1965C14.2517 16.2049 14.2213 16.2172 14.1915 16.2282C13.2611 16.5768 12.4295 17.1466 11.7685 17.8884C10.9003 18.8459 10.3529 20.0507 10.2029 21.3344C10.0529 22.6182 10.3078 23.9167 10.932 25.0485C11.0133 25.1818 11.0635 25.3318 11.0788 25.4872C11.094 25.6426 11.0739 25.7994 11.02 25.946C10.8905 26.3008 10.7953 26.666 10.6872 27.028C10.5842 27.3699 10.4832 27.7117 10.3725 28.0853C10.4729 28.0607 10.5331 28.0504 10.5927 28.0322C11.2622 27.8309 11.9324 27.6347 12.5999 27.4262C12.6991 27.394 12.8026 27.3772 12.9068 27.3763C13.0596 27.3771 13.2095 27.4182 13.3413 27.4955ZM21.1761 12.1081C19.569 12.5282 18.1279 13.428 17.045 14.6876C15.962 15.9472 15.2885 17.5068 15.1142 19.1588C14.949 20.4027 15.0839 21.6681 15.5077 22.8492C15.9314 24.0303 16.6318 25.0928 17.5501 25.9479C18.818 27.2054 20.4642 28.0111 22.2352 28.2408C24.0061 28.4705 25.8034 28.1114 27.3501 27.219C27.4577 27.1563 27.5774 27.1173 27.7012 27.1047C27.8251 27.0921 27.9502 27.1061 28.0682 27.1458C28.5733 27.3045 29.0822 27.4547 29.5898 27.6088L31.3627 28.1436C31.0215 27.0176 30.7016 25.9486 30.372 24.8821C30.3287 24.7527 30.3138 24.6154 30.3282 24.4797C30.3426 24.3439 30.386 24.2129 30.4556 24.0954C31.3835 22.4564 31.7152 20.5466 31.3944 18.6907C31.0646 16.7741 30.0701 15.035 28.5856 13.7788C27.101 12.5226 25.2214 11.8295 23.2767 11.8213C22.5666 11.8223 21.8605 11.9187 21.1761 12.1081ZM19.9459 23.5567C19.8434 23.5633 19.7406 23.5487 19.6441 23.5138C19.5475 23.4789 19.4592 23.4243 19.3847 23.3537C19.3101 23.283 19.251 23.1976 19.2111 23.103C19.1711 23.0084 19.1511 22.9066 19.1524 22.8039C19.1536 22.7012 19.1761 22.5999 19.2184 22.5063C19.2606 22.4126 19.3218 22.3288 19.398 22.2599C19.4742 22.1911 19.5638 22.1387 19.6612 22.1062C19.7586 22.0736 19.8617 22.0615 19.964 22.0707C20.697 22.0707 21.428 22.0707 22.1597 22.0707C22.8759 22.0707 23.5926 22.0707 24.3081 22.0707C24.412 22.0576 24.5174 22.0666 24.6176 22.0969C24.7178 22.1273 24.8105 22.1783 24.8897 22.2468C24.9689 22.3153 25.0328 22.3996 25.0774 22.4943C25.1219 22.5891 25.146 22.6921 25.1481 22.7968C25.1503 22.9014 25.1304 23.0054 25.0898 23.1019C25.0492 23.1984 24.9888 23.2852 24.9124 23.3569C24.8361 23.4285 24.7456 23.4833 24.6467 23.5178C24.5479 23.5522 24.4429 23.5654 24.3386 23.5567C23.5823 23.5601 22.8269 23.5619 22.0723 23.5619C21.3644 23.5614 20.656 23.5597 19.9472 23.5567H19.9459ZM19.9731 20.8132C19.7825 20.8302 19.5925 20.7743 19.4415 20.6568C19.2904 20.5393 19.1895 20.3689 19.1592 20.1799C19.1294 20.0038 19.1653 19.8229 19.2601 19.6714C19.3549 19.52 19.5019 19.4086 19.6733 19.3583C19.782 19.3309 19.8941 19.3193 20.0061 19.3239C21.0995 19.3239 22.1927 19.3239 23.2857 19.3239C24.4117 19.3239 25.5365 19.3239 26.6625 19.3239C26.8345 19.3208 27.0023 19.3778 27.1368 19.4852C27.2712 19.5926 27.364 19.7436 27.3989 19.9121C27.4338 20.0806 27.4088 20.256 27.3281 20.408C27.2475 20.56 27.1162 20.6791 26.9571 20.7446C26.8368 20.7886 26.7096 20.8105 26.5815 20.8093C25.2477 20.8115 23.9138 20.8126 22.5799 20.8126L19.9731 20.8132ZM19.9731 18.0658C19.7781 18.0829 19.5841 18.0237 19.432 17.9006C19.2798 17.7776 19.1813 17.6003 19.1572 17.406C19.1345 17.2289 19.1773 17.0496 19.2774 16.9018C19.3776 16.7539 19.5282 16.6477 19.7011 16.6031C19.8029 16.5803 19.9071 16.5705 20.0113 16.574C21.1047 16.574 22.1981 16.574 23.2915 16.574C24.385 16.574 25.4784 16.574 26.5718 16.574C26.6781 16.5586 26.7865 16.5662 26.8897 16.5962C26.9928 16.6263 27.0883 16.6781 27.1698 16.7481C27.2512 16.8182 27.3167 16.9049 27.3618 17.0024C27.4069 17.0999 27.4306 17.206 27.4312 17.3134C27.4319 17.4208 27.4095 17.5272 27.3656 17.6252C27.3217 17.7233 27.2573 17.8108 27.1767 17.8818C27.0961 17.9529 27.0012 18.0059 26.8985 18.0371C26.7957 18.0684 26.6874 18.0773 26.5809 18.0632H23.2786L19.9731 18.0658Z" fill="#5A5A5A"/>
</svg>
