<svg xmlns="http://www.w3.org/2000/svg" width="13" height="13" viewBox="0 0 13 13">
  <g id="Group_3512" data-name="Group 3512" transform="translate(-139 -533)">
    <rect id="Rectangle_1305" data-name="Rectangle 1305" width="13" height="13" rx="1" transform="translate(139 533)" fill="#6172d6"/>
    <path id="Icon_metro-file-audio" data-name="Icon metro-file-audio" d="M6.818,6.312a.253.253,0,0,1,.171.255V11.2a.253.253,0,0,1-.171.255.469.469,0,0,1-.1.017.307.307,0,0,1-.2-.077L5.1,9.971H3.981A.263.263,0,0,1,3.708,9.7V8.065a.263.263,0,0,1,.273-.272H5.1L6.519,6.371a.261.261,0,0,1,.3-.06Zm3.563,5.863a.519.519,0,0,0,.427-.2,4.879,4.879,0,0,0,0-6.178.542.542,0,0,0-.769-.085.522.522,0,0,0-.2.37.538.538,0,0,0,.124.4,3.8,3.8,0,0,1,0,4.8.538.538,0,0,0-.124.4.494.494,0,0,0,.2.362.522.522,0,0,0,.342.128Zm-1.8-1.259a.551.551,0,0,0,.4-.17,2.708,2.708,0,0,0,0-3.727.538.538,0,0,0-.385-.17.522.522,0,0,0-.393.145.543.543,0,0,0-.017.774,1.621,1.621,0,0,1,0,2.23.543.543,0,0,0,.017.774.569.569,0,0,0,.376.145Z" transform="translate(137.691 530.621)" fill="#fff"/>
  </g>
</svg>
