<svg xmlns="http://www.w3.org/2000/svg" width="13" height="13" viewBox="0 0 13 13">
  <g id="Group_3513" data-name="Group 3513" transform="translate(-139 -660)">
    <rect id="Rectangle_1311" data-name="Rectangle 1311" width="13" height="13" rx="1" transform="translate(139 660)" fill="#6172d6"/>
    <g id="Group_3491" data-name="Group 3491" transform="translate(-3899.783 2946.708)">
      <g id="Group_3492" data-name="Group 3492" transform="translate(4041.783 -2283.707)">
        <path id="Path_1813" data-name="Path 1813" d="M3976.028-2295.866v.465a.145.145,0,0,1-.144.152h-2.942a.152.152,0,0,1-.152-.152v-.465a.15.15,0,0,1,.152-.144h2.942A.143.143,0,0,1,3976.028-2295.866Z" transform="translate(-3970.617 2302.865)" fill="#fff"/>
        <path id="Path_1814" data-name="Path 1814" d="M3976.7-2304.12h-5.418a1.061,1.061,0,0,0-1.065,1.065v4.793a1.061,1.061,0,0,0,1.065,1.065h.473v-.161a.541.541,0,0,1,.55-.541h3.415a.545.545,0,0,1,.541.541v.161h.448a1.066,1.066,0,0,0,1.065-1.065v-4.793A1.073,1.073,0,0,0,3976.7-2304.12Zm-4.311,4.336a.2.2,0,0,1-.16.211h-.753a.192.192,0,0,1-.16-.2V-2300a.182.182,0,0,1,.152-.211h.761a.188.188,0,0,1,.16.211Zm1.86-1.445a.182.182,0,0,1-.16.2h-2.621a.176.176,0,0,1-.152-.2v-.212a.183.183,0,0,1,.152-.211h2.621a.189.189,0,0,1,.16.211Zm2.054-1.446v.017a.184.184,0,0,1-.161.186h-4.666a.182.182,0,0,1-.16-.2v-.211a.2.2,0,0,1,.152-.211h4.675a.2.2,0,0,1,.161.211Z" transform="translate(-3970.22 2304.12)" fill="#fff"/>
      </g>
    </g>
  </g>
</svg>
