<svg xmlns="http://www.w3.org/2000/svg" width="24.609" height="24.568" viewBox="0 0 24.609 24.568">
  <g id="Add_Participant_White" data-name="Add Participant White" transform="translate(-666.37 -262.322)">
    <g id="Group_3632-2" data-name="Group 3632-2">
      <path id="Path_594-2" data-name="Path 594-2" d="M682.93,285.68a8.961,8.961,0,0,0-2.38-4.82,8.03,8.03,0,0,0-.97-.87,8.274,8.274,0,0,0-2-1.14.694.694,0,0,1-.08-.03c-.03-.02-.03-.02-.05-.02l-.53-.22.43-.37c.06-.06.13-.11.19-.17a3.27,3.27,0,0,0,.27-.24.6.6,0,0,0,.08-.08l.1-.14h.04a5.053,5.053,0,0,0,1.18-4.85l-.01-.03a4.663,4.663,0,0,0-3.06-3.43c-.14-.04-.25-.07-.35-.1h-.03a2.732,2.732,0,0,0-.48-.1c-.08-.01-.17-.02-.26-.04h-.61l-.25.04a2.766,2.766,0,0,0-.5.1h-.01a4.675,4.675,0,0,0-3.43,3.53v.02a5.119,5.119,0,0,0,1.72,5.36.746.746,0,0,1,.17.14l.38.38-.5.2a8.327,8.327,0,0,0-4.07,3.26,9.214,9.214,0,0,0-1.55,4.82h.66a8.643,8.643,0,0,1,.97-3.62,8.03,8.03,0,0,1,2.67-2.97,6.971,6.971,0,0,1,3.69-1.22c.12,0,.24-.01.37-.01a7.269,7.269,0,0,1,1.6.18,7.094,7.094,0,0,1,3.24,1.67,8.281,8.281,0,0,1,2.83,5.98h.66v-.17C683.02,286.38,682.98,286.02,682.93,285.68Zm-8.2-7.37h-.04l-.4-.03h-.03a4.288,4.288,0,0,1-.03-8.45c.15-.03.3-.03.46-.05h.04a4.054,4.054,0,0,1,1.67.43,4.265,4.265,0,0,1-1.67,8.1Z" fill="#fff"/>
      <g id="Group_4282" data-name="Group 4282">
        <g id="Group_2454-2" data-name="Group 2454-2">
          <path id="Line_46-2" data-name="Line 46-2" d="M685.258,272.932V262.323h.832v10.609Z" fill="#fff"/>
        </g>
      </g>
      <g id="Group_4283" data-name="Group 4283">
        <g id="Group_2454-3" data-name="Group 2454-3">
          <path id="Line_46-3" data-name="Line 46-3" d="M680.37,267.174h10.609v.906H680.37Z" fill="#fff"/>
        </g>
      </g>
    </g>
  </g>
</svg>
