<svg xmlns="http://www.w3.org/2000/svg" width="21.028" height="16.594" viewBox="0 0 21.028 16.594">
  <g id="Chat_White" data-name="Chat White" transform="translate(-1345.001 -521.574)">
    <g id="Group_4340" data-name="Group 4340">
      <path id="Path_2105" data-name="Path 2105" d="M674.832-383.135h-7.323a.349.349,0,0,0-.24.118.348.348,0,0,0-.086.253.361.361,0,0,0,.132.246.361.361,0,0,0,.268.079h7.34a.346.346,0,0,0,.232-.133.346.346,0,0,0,.072-.259.359.359,0,0,0-.4-.3Z" transform="translate(685.432 914.963)" fill="#fff"/>
      <path id="Path_2106" data-name="Path 2106" d="M680.579-377.275l-.013-.029-.224-.738c-.295-.972-.591-1.946-.883-2.932a.726.726,0,0,1,.049-.486,8.2,8.2,0,0,0-2.394-10.285,8.14,8.14,0,0,0-4.92-1.643,8.171,8.171,0,0,0-6.586,3.3l-.09.108-.128.079-.3.074c-.08.021-.163.044-.269.066-.134.027-.267.054-.4.092a6.428,6.428,0,0,0-1.079.411,6.429,6.429,0,0,0-3.283,3.706,6.456,6.456,0,0,0,.307,4.958.849.849,0,0,1,.032.556c-.14.481-.285.962-.431,1.442l-.366,1.217a.625.625,0,0,0-.014.341.332.332,0,0,0,.31.21.412.412,0,0,0,.15-.033l1.04-.313c.556-.169,1.111-.337,1.679-.5a.919.919,0,0,1,.221-.028.883.883,0,0,1,.36.077,6.526,6.526,0,0,0,2.825.647,6.5,6.5,0,0,0,2.566-.528.793.793,0,0,1,.287-.054.819.819,0,0,1,.262.044,8.139,8.139,0,0,0,2.9.532,8.2,8.2,0,0,0,3.67-.869.81.81,0,0,1,.4-.1.83.83,0,0,1,.254.041c.938.289,3.442,1.049,3.442,1.049a1.23,1.23,0,0,0,.339.069h.023c.1-.01.17-.088.283-.3v-.1Zm-4.67-1.393a7.438,7.438,0,0,1-3.712.995,7.378,7.378,0,0,1-5.228-2.148,7.19,7.19,0,0,1-2.227-6.2,7.493,7.493,0,0,1,5.528-6.434,7.243,7.243,0,0,1,1.922-.262,7.534,7.534,0,0,1,7.4,6.266,7.477,7.477,0,0,1-.859,4.939.533.533,0,0,0-.045.445c.209.676,1.033,3.4,1.033,3.4s-3.142-.947-3.437-1.04a.453.453,0,0,0-.147-.024A.468.468,0,0,0,675.909-378.668Zm-8.454.841a5.445,5.445,0,0,1-1.27.151c-.137,0-.274-.006-.41-.016a5.8,5.8,0,0,1-2.438-.734.443.443,0,0,0-.222-.063h-.007a.578.578,0,0,0-.176.03c-.4.126-.807.247-1.244.377l-.515.154-.723.178.5-1.691c.069-.238.138-.476.223-.709a.612.612,0,0,0-.058-.535,5.731,5.731,0,0,1,.771-6.617,5.726,5.726,0,0,1,2.259-1.542c.031-.012.267-.091.267-.091l.475-.107-.178.375a3.4,3.4,0,0,0-.147.365,8.247,8.247,0,0,0,2.75,9.73,3.852,3.852,0,0,0,.566.389l.285.163Z" transform="translate(685.432 914.963)" fill="#fff"/>
      <path id="Path_2107" data-name="Path 2107" d="M667.59-387.249h9.21l.057.005h.065a.349.349,0,0,0,.233-.138.359.359,0,0,0,.067-.263.367.367,0,0,0-.4-.3H667.6a.793.793,0,0,0-.16.016.34.34,0,0,0-.251.372A.371.371,0,0,0,667.59-387.249Z" transform="translate(685.432 914.963)" fill="#fff"/>
      <path id="Path_2108" data-name="Path 2108" d="M677-384.88a.341.341,0,0,0,.211-.324.345.345,0,0,0-.354-.336h-9.273a.754.754,0,0,0-.163.019.335.335,0,0,0-.235.38.36.36,0,0,0,.353.3s8.079,0,9.256-.006a.625.625,0,0,0,.205-.033Z" transform="translate(685.432 914.963)" fill="#fff"/>
    </g>
  </g>
</svg>
