<svg xmlns="http://www.w3.org/2000/svg" width="35.914" height="35.914" viewBox="0 0 35.914 35.914">
  <g id="Leave_call_Selected" data-name="Leave call Selected" transform="translate(-754.138 -259.599)">
    <g id="Group_3641" data-name="Group 3641" transform="translate(751.779 257.24)">
      <path id="Path_921" data-name="Path 921" d="M17.827,0h.26A17.869,17.869,0,0,1,35.914,17.91V18a17.869,17.869,0,0,1-17.827,17.91h-.26A17.869,17.869,0,0,1,0,18V17.91A17.869,17.869,0,0,1,17.827,0Z" transform="translate(2.359 38.273) rotate(-90)" fill="#f16b6b"/>
    </g>
    <path id="Union_26" data-name="Union 26" d="M783.61,278.69a12.4,12.4,0,0,0-1-3.98.534.534,0,0,0-.35-.32,28.374,28.374,0,0,0-8.45-1.62c-.58-.03-1.15-.04-1.74-.04a34.72,34.72,0,0,0-4.65.32,26.678,26.678,0,0,0-5.56,1.35.445.445,0,0,0-.27.25,12.079,12.079,0,0,0-1.03,5.81.426.426,0,0,0,.31.42l.23.06a13.99,13.99,0,0,0,1.82.44,9.142,9.142,0,0,0,1.59.13,10.15,10.15,0,0,0,3.57-.66.343.343,0,0,0,.18-.46l-.08-.37c-.05-.24-.11-.48-.16-.72-.08-.36-.14-.72-.2-1.09l-.18-.96.65-.06a37.854,37.854,0,0,1,3.81-.2,37.462,37.462,0,0,1,3.79.2l.66.08-.26,1.33c-.07.3-.35,1.75-.35,1.75l-.04.1a.357.357,0,0,0,.3.43,9.922,9.922,0,0,0,3.52.62c.36,0,.72-.02,1.09-.05a9.267,9.267,0,0,0,2.48-.55.47.47,0,0,0,.33-.48v-.1l.02-.09.01-.02.01-1.28A1.257,1.257,0,0,1,783.61,278.69Zm-1.11,1.83a10.862,10.862,0,0,1-2.75.38,10.4,10.4,0,0,1-2.65-.36l-.54-.15.18-.89.16-.93c.07-.45.15-.95.22-1.49a.4.4,0,0,0-.03-.24.466.466,0,0,0-.33-.15,32.046,32.046,0,0,0-4.54-.31c-.5,0-1.01.01-1.51.03-.67.03-1.35.09-2.02.15l-1.25.11a.621.621,0,0,0-.31.1.541.541,0,0,0-.06.47l.5,3.23-.93.18a11.673,11.673,0,0,1-1.16.19,9.6,9.6,0,0,1-1.1.06,9.906,9.906,0,0,1-2.68-.36.678.678,0,0,1-.58-.71,11.457,11.457,0,0,1,.87-4.57.889.889,0,0,1,.47-.42,24.869,24.869,0,0,1,5.3-1.23,32.325,32.325,0,0,1,4.32-.28c.55,0,1.1.01,1.63.04a28.248,28.248,0,0,1,7.95,1.45,1.067,1.067,0,0,1,.54.47,11.688,11.688,0,0,1,.85,4.53A.667.667,0,0,1,782.5,280.52Z" fill="#fff"/>
  </g>
</svg>
