<svg xmlns="http://www.w3.org/2000/svg" width="18.032" height="22.709" viewBox="0 0 18.032 22.709">
  <g id="Raise_Hand_White" data-name="Raise Hand White" transform="translate(-375.934 -267.131)">
    <path id="Path_2095" data-name="Path 2095" d="M393.73,271.31a1.634,1.634,0,0,0-1.38-.79,1.527,1.527,0,0,0-.3.03,1.586,1.586,0,0,0-1.25,1.32,2.737,2.737,0,0,0-.04.5v5.17a.329.329,0,0,1-.06.19c-.01.01-.02.01-.04.01h-.02a.107.107,0,0,1-.07-.09.486.486,0,0,1-.01-.12V269.7a1.742,1.742,0,0,0-.53-1.32,1.639,1.639,0,0,0-1.08-.4,1.213,1.213,0,0,0-.19.01,1.571,1.571,0,0,0-1.37,1.35c-.01.17-.02.35-.02.52v6.73a1.475,1.475,0,0,1-.01.21v.01a.085.085,0,0,1-.08.07h-.02c-.06,0-.07-.02-.08-.06a.858.858,0,0,1-.02-.22v-7.83a1.638,1.638,0,0,0-.5-1.21,1.56,1.56,0,0,0-1.09-.43h-.09a1.554,1.554,0,0,0-1.49,1.48c-.01.34-.01.69-.01,1.02v6.95a1.64,1.64,0,0,1-.02.23c-.02.06-.03.07-.09.07s-.07-.01-.09-.07a1.23,1.23,0,0,1-.02-.2v-6.09a1.589,1.589,0,0,0-1.36-1.68,1.925,1.925,0,0,0-.24-.01,1.6,1.6,0,0,0-.98.34,1.577,1.577,0,0,0-.59,1.12c-.01.1-.01.2-.01.3v9.46l-.13-.17c-.36-.5-.77-1.06-1.17-1.59a1.9,1.9,0,0,0-1.31-.73,1.5,1.5,0,0,0-.22-.02,1.834,1.834,0,0,0-1.63,2.67,2.9,2.9,0,0,0,.19.34l.83,1.26.2.31c.97,1.46,1.97,2.98,2.96,4.47a7.019,7.019,0,0,0,4.79,3.07c.24.04.48.07.71.09h.01c.1.01.23.03.36.04.02.01.04.01.06.02l.07.02.03.01h1.59c.12-.02.24-.03.36-.05.25-.04.51-.08.77-.12a5.688,5.688,0,0,0,3.19-1.64,5.585,5.585,0,0,0,1.59-3.2,10.418,10.418,0,0,0,.13-1.47V272.48A2.238,2.238,0,0,0,393.73,271.31Zm-.39,4.82c0,2.37,0,4.82-.01,7.22a8.934,8.934,0,0,1-.11,1.37,5.081,5.081,0,0,1-4.27,4.32c-.25.05-.53.09-.75.12l-.34.05h-1.45a.833.833,0,0,0-.15-.04c-.12-.02-.25-.03-.37-.04-.05-.01-.1-.01-.15-.02-.19-.02-.36-.04-.53-.07a6.436,6.436,0,0,1-4.38-2.8c-.92-1.39-1.92-2.91-3.15-4.78l-.84-1.26a2.148,2.148,0,0,1-.14-.26,1.184,1.184,0,0,1,1.06-1.76.756.756,0,0,1,.15.01,1.233,1.233,0,0,1,.87.49c.41.53.82,1.09,1.17,1.57.17.23.34.47.52.71a1.1,1.1,0,0,0,.11.14l.07.1.48.62.09.11V270.59a2.007,2.007,0,0,1,.01-.25.948.948,0,0,1,.35-.68.977.977,0,0,1,.59-.2.756.756,0,0,1,.15.01.949.949,0,0,1,.82,1.04v6.1a1.472,1.472,0,0,0,.04.36.684.684,0,0,0,.67.54h.06a.694.694,0,0,0,.67-.54,1.81,1.81,0,0,0,.04-.4v-6.8c0-.38,0-.76.01-1.14a.929.929,0,0,1,.88-.87.2.2,0,0,1,.07-.01.969.969,0,0,1,.65.26,1.032,1.032,0,0,1,.3.76v7.82a1.581,1.581,0,0,0,.04.38.7.7,0,0,0,.68.54h.06a.725.725,0,0,0,.68-.61c.01-.1.02-.21.02-.31v-6.73a3.39,3.39,0,0,1,.02-.45.923.923,0,0,1,.8-.79.57.57,0,0,1,.13-.01,1.021,1.021,0,0,1,.65.24,1.146,1.146,0,0,1,.33.84v7.83a.906.906,0,0,0,.01.23.725.725,0,0,0,.51.58.522.522,0,0,0,.21.04.689.689,0,0,0,.49-.21.942.942,0,0,0,.24-.62v-5.18a2.829,2.829,0,0,1,.03-.41.947.947,0,0,1,.75-.78,1.1,1.1,0,0,1,.18-.02.965.965,0,0,1,.83.47,1.54,1.54,0,0,1,.15.85Z" fill="#fff"/>
  </g>
</svg>
