<svg xmlns="http://www.w3.org/2000/svg" width="22.83" height="17.861" viewBox="0 0 22.83 17.861">
  <g id="Users_Purple" data-name="Users Purple" transform="translate(-617.14 -269.029)">
    <g id="Group_3632" data-name="Group 3632">
      <path id="Path_594" data-name="Path 594" d="M633.83,286.72c-.04-.34-.08-.7-.12-1.04a8.976,8.976,0,0,0-2.39-4.82,10.008,10.008,0,0,0-.96-.88,8.235,8.235,0,0,0-2-1.13.2.2,0,0,1-.08-.04c-.02-.01-.03-.01-.05-.02l-.53-.21.42-.37c.07-.06.13-.12.2-.17a3.28,3.28,0,0,0,.27-.24.5.5,0,0,0,.07-.08l.11-.14h.04a5.065,5.065,0,0,0,1.18-4.86l-.01-.02a4.63,4.63,0,0,0-1.23-2.29,4.571,4.571,0,0,0-1.84-1.14c-.14-.05-.25-.07-.34-.1l-.03-.01a4.044,4.044,0,0,0-.48-.09,2.17,2.17,0,0,1-.25-.04h-.63a2,2,0,0,0-.24.04,4.01,4.01,0,0,0-.5.09l-.02.01A4.663,4.663,0,0,0,621,272.7l-.01.02a5.137,5.137,0,0,0,1.72,5.36.794.794,0,0,1,.17.14l.39.39-.51.19a8.428,8.428,0,0,0-4.07,3.26,9.3,9.3,0,0,0-1.55,4.82h.67a8.631,8.631,0,0,1,.96-3.62,8.03,8.03,0,0,1,2.67-2.97,7,7,0,0,1,3.7-1.22c.11-.01.24-.01.36-.01a7.181,7.181,0,0,1,1.59.18,7,7,0,0,1,3.24,1.67,8.284,8.284,0,0,1,2.85,5.98h.66Zm-8.32-8.41h-.04l-.4-.03h-.02a4.295,4.295,0,0,1-.04-8.46c.16-.02.3-.03.46-.04h.04a4.2,4.2,0,0,1,1.67.42,4.321,4.321,0,0,1,1.87,5.83,4.211,4.211,0,0,1-1.86,1.85A4.1,4.1,0,0,1,625.51,278.31Z" fill="#6172d6"/>
      <path id="Path_2094" data-name="Path 2094" d="M639.97,286.72v.17h-.66a8.329,8.329,0,0,0-2.84-5.98,8.442,8.442,0,0,0-3-1.56,12.025,12.025,0,0,0-1.25-.86,6.754,6.754,0,0,0,2.08-1.28.1.1,0,0,0,.04-.05,4.344,4.344,0,0,0,.1-6.08,4.3,4.3,0,0,0-2.96-1.3c-.08-.09-.15-.16-.23-.24-.15-.16-.28-.29-.43-.43a1.694,1.694,0,0,1,.22-.04l.26-.03h.62l.26.03a4.418,4.418,0,0,1,.5.1h.02a4.666,4.666,0,0,1,3.4,3.54l.01.02a5.019,5.019,0,0,1-1.39,5.07l-.01.01c-.08.07-.18.16-.28.24-.06.05-.12.1-.18.16l-.43.38.53.21a.169.169,0,0,1,.05.02l.07.03a8.276,8.276,0,0,1,2.97,2.01l.01.01a8.894,8.894,0,0,1,2.38,4.82c.04.2.06.41.09.63C639.93,286.45,639.95,286.59,639.97,286.72Z" fill="#6172d6"/>
    </g>
  </g>
</svg>
